<svg width="1440" height="830" viewBox="0 0 1440 830" fill="none" xmlns="http://www.w3.org/2000/svg">
<path d="M-622.943 413.116C-634.079 371.068 -636.105 327.402 -580.568 301.105C-507.821 266.648 -353.314 271.734 -212.524 295.511C-71.7338 319.287 62.7737 358.733 199.692 392.187C336.61 425.64 486.621 454.254 614.031 450.891C790.68 446.204 878.118 382 1042.54 367.122C1179.63 354.726 1365.52 380.812 1507.84 432.408" stroke="#6BDAAD" stroke-opacity="0.3" stroke-width="1.38241" stroke-miterlimit="10"/>
<path d="M-512.661 435.646C-523.199 395.859 -525.088 354.577 -472.589 329.683C-403.747 297.043 -257.534 301.914 -124.437 324.388C8.66062 346.862 135.996 384.28 265.382 415.802C394.768 447.324 536.821 474.53 657.297 471.402C824.405 466.96 907.114 406.229 1062.63 392.145C1192.34 380.457 1368.19 405.098 1502.83 453.911" stroke="#6BDAAD" stroke-opacity="0.3" stroke-width="1.38241" stroke-miterlimit="10"/>
<path d="M-402.422 458.139C-412.327 420.637 -414.147 381.693 -364.489 358.259C-299.634 327.513 -161.797 332.058 -36.2295 353.265C89.3379 374.471 209.33 409.65 331.47 439.492C453.611 469.333 587.385 494.859 701.016 491.874C858.595 487.743 936.391 430.399 1083.21 417.166C1205.52 406.105 1371.34 429.368 1498.27 475.39" stroke="#6BDAAD" stroke-opacity="0.3" stroke-width="1.38241" stroke-miterlimit="10"/>
<path d="M-292.186 480.642C-301.519 445.459 -303.303 408.734 -256.676 386.783C-195.708 357.906 -66.2674 362.168 51.7281 382.099C169.724 402.03 282.412 435.075 397.142 463.107C511.871 491.139 637.57 515.124 744.313 512.275C892.363 508.36 965.627 454.547 1103.37 442.086C1218.24 431.688 1374.03 453.546 1493.28 496.8" stroke="#6BDAAD" stroke-opacity="0.3" stroke-width="1.38241" stroke-miterlimit="10"/>
<path d="M-181.986 503.148C-190.7 470.184 -192.272 435.97 -148.779 415.338C-91.7363 388.321 29.3902 392.316 139.775 410.962C250.159 429.608 355.588 460.527 462.915 486.734C570.242 512.94 687.853 535.411 787.683 532.754C926.192 529.084 994.727 478.745 1123.77 467.12C1231.15 457.376 1376.84 477.888 1488.42 518.278" stroke="#6BDAAD" stroke-opacity="0.3" stroke-width="1.38241" stroke-miterlimit="10"/>
</svg>
