<svg width="19" height="18" viewBox="0 0 19 18" fill="none" xmlns="http://www.w3.org/2000/svg">
<path d="M9.22457 0.24299C10.418 0.239535 11.564 0.694452 12.4102 1.50767C13.2565 2.32088 13.7338 3.42577 13.7372 4.57929C13.7405 5.7328 13.2696 6.84044 12.4281 7.65854C11.5865 8.47664 10.4433 8.93818 9.24979 8.94163C8.05632 8.94509 6.91041 8.49017 6.06413 7.67696C5.21786 6.86375 4.74055 5.75885 4.7372 4.60534C4.73386 3.45183 5.20475 2.34419 6.0463 1.52609C6.88784 0.707989 8.0311 0.246445 9.22457 0.24299M9.2561 11.1163C14.2286 11.1019 18.2617 13.0366 18.2687 15.4396L18.275 17.6142L0.275051 17.6663L0.268746 15.4917C0.261779 13.0887 4.28362 11.1307 9.2561 11.1163Z" fill="#D0D5DD"/>
</svg>
