<svg width="19" height="20" viewBox="0 0 19 20" fill="none" xmlns="http://www.w3.org/2000/svg">
<path d="M18.2344 4.60318C18.2394 6.34742 16.6736 7.77086 14.7436 7.77645C12.8136 7.78204 11.2395 6.36769 11.2344 4.62344C11.2293 2.87919 12.7952 1.45575 14.7252 1.45016C16.6552 1.44458 18.2293 2.85893 18.2344 4.60318ZM16.2482 9.38983C15.7486 9.50877 15.2488 9.58252 14.7488 9.58396C13.2909 9.58579 11.892 9.06538 10.8584 8.1367C9.82485 7.20803 9.24087 5.94679 9.23441 4.62923C9.23056 3.30071 9.80707 2.09704 10.7245 1.19965C10.5424 0.999131 10.3131 0.837867 10.0533 0.727614C9.7935 0.61736 9.50971 0.560894 9.22262 0.562331C8.12262 0.565515 7.22499 1.3815 7.22787 2.37563L7.22863 2.63772C4.26095 3.44162 2.23811 5.91475 2.24623 8.71639L2.26195 14.1389L0.267202 15.9522L0.269822 16.856L18.2697 16.8039L18.2671 15.9001L16.2619 14.0984L16.2482 9.38983ZM9.27765 19.5412C10.3876 19.538 11.2753 18.7311 11.2724 17.7279L7.27241 17.7395C7.2738 18.2189 7.48585 18.678 7.8619 19.0159C8.23796 19.3538 8.74721 19.5427 9.27765 19.5412Z" fill="#D0D5DD"/>
</svg>
