<svg width="274" height="317" viewBox="0 0 274 317" fill="none" xmlns="http://www.w3.org/2000/svg">
<path d="M39.7441 245.587L73.9969 175.893L108.115 171.917L141.994 109.784L176.112 86.4341L210.231 69.2051L244.349 69.2051" stroke="#F000FF"/>
<path d="M74.1973 178C75.2717 178 76.1426 177.105 76.1426 176C76.1426 174.895 75.2717 174 74.1973 174C73.1229 174 72.252 174.895 72.252 176C72.252 177.105 73.1229 178 74.1973 178Z" fill="white" stroke="#F000FF"/>
<path d="M39.5235 247C40.5978 247 41.4688 246.105 41.4688 245C41.4688 243.895 40.5978 243 39.5235 243C38.4491 243 37.5781 243.895 37.5781 245C37.5781 246.105 38.4491 247 39.5235 247Z" fill="white" stroke="#F000FF"/>
<path d="M107.787 173C108.862 173 109.732 172.105 109.732 171C109.732 169.895 108.862 169 107.787 169C106.713 169 105.842 169.895 105.842 171C105.842 172.105 106.713 173 107.787 173Z" fill="white" stroke="#F000FF"/>
<path d="M142.648 110.977C143.723 110.977 144.594 110.081 144.594 108.977C144.594 107.872 143.723 106.977 142.648 106.977C141.574 106.977 140.703 107.872 140.703 108.977C140.703 110.081 141.574 110.977 142.648 110.977Z" fill="white" stroke="#F000FF"/>
<path d="M177.133 88C178.207 88 179.078 87.1046 179.078 86C179.078 84.8954 178.207 84 177.133 84C176.058 84 175.188 84.8954 175.188 86C175.188 87.1046 176.058 88 177.133 88Z" fill="white" stroke="#F000FF"/>
<path d="M210.723 71C211.797 71 212.668 70.1046 212.668 69C212.668 67.8954 211.797 67 210.723 67C209.648 67 208.777 67.8954 208.777 69C208.777 70.1046 209.648 71 210.723 71Z" fill="white" stroke="#F000FF"/>
<path d="M244.313 71C245.387 71 246.258 70.1046 246.258 69C246.258 67.8954 245.387 67 244.313 67C243.238 67 242.367 67.8954 242.367 69C242.367 70.1046 243.238 71 244.313 71Z" fill="white" stroke="#F000FF"/>
<path d="M261.766 66.8164L259.883 72L259.113 72L261.281 66.3125L261.777 66.3125L261.766 66.8164ZM263.344 72L261.457 66.8164L261.445 66.3125L261.941 66.3125L264.117 72L263.344 72ZM263.246 69.8945L263.246 70.5117L260.051 70.5117L260.051 69.8945L263.246 69.8945ZM268.266 70.1914L269.016 70.1914C268.977 70.5508 268.874 70.8724 268.707 71.1563C268.54 71.4401 268.305 71.6654 268 71.832C267.695 71.9961 267.315 72.0781 266.859 72.0781C266.526 72.0781 266.223 72.0156 265.949 71.8906C265.678 71.7656 265.445 71.5885 265.25 71.3594C265.055 71.1276 264.904 70.8503 264.797 70.5273C264.693 70.2018 264.641 69.8398 264.641 69.4414L264.641 68.875C264.641 68.4766 264.693 68.1159 264.797 67.793C264.904 67.4674 265.056 67.1888 265.254 66.957C265.454 66.7253 265.695 66.5469 265.977 66.4219C266.258 66.2969 266.574 66.2344 266.926 66.2344C267.355 66.2344 267.719 66.3151 268.016 66.4766C268.313 66.638 268.543 66.862 268.707 67.1484C268.874 67.4323 268.977 67.7617 269.016 68.1367L268.266 68.1367C268.229 67.8711 268.161 67.6432 268.063 67.4531C267.964 67.2604 267.823 67.112 267.641 67.0078C267.458 66.9036 267.22 66.8516 266.926 66.8516C266.673 66.8516 266.451 66.8997 266.258 66.9961C266.068 67.0924 265.908 67.2292 265.777 67.4063C265.65 67.5833 265.553 67.7956 265.488 68.043C265.423 68.2904 265.391 68.5651 265.391 68.8672L265.391 69.4414C265.391 69.7201 265.419 69.9818 265.477 70.2266C265.536 70.4714 265.626 70.6862 265.746 70.8711C265.866 71.056 266.018 71.2018 266.203 71.3086C266.388 71.4128 266.607 71.4648 266.859 71.4648C267.18 71.4648 267.435 71.4141 267.625 71.3125C267.815 71.2109 267.958 71.0651 268.055 70.875C268.154 70.6849 268.224 70.457 268.266 70.1914ZM272.07 69.3398L270.629 69.3398L270.621 68.7344L271.93 68.7344C272.146 68.7344 272.335 68.6979 272.496 68.625C272.658 68.5521 272.783 68.4479 272.871 68.3125C272.962 68.1745 273.008 68.0104 273.008 67.8203C273.008 67.612 272.967 67.4427 272.887 67.3125C272.809 67.1797 272.688 67.0833 272.523 67.0234C272.362 66.9609 272.156 66.9297 271.906 66.9297L270.797 66.9297L270.797 72L270.043 72L270.043 66.3125L271.906 66.3125C272.198 66.3125 272.458 66.3424 272.688 66.4023C272.917 66.4596 273.111 66.5508 273.27 66.6758C273.431 66.7982 273.553 66.9544 273.637 67.1445C273.72 67.3346 273.762 67.5625 273.762 67.8281C273.762 68.0625 273.702 68.2747 273.582 68.4648C273.462 68.6523 273.296 68.806 273.082 68.9258C272.871 69.0456 272.624 69.1224 272.34 69.1563L272.07 69.3398ZM272.035 72L270.332 72L270.758 71.3867L272.035 71.3867C272.275 71.3867 272.478 71.3451 272.645 71.2617C272.814 71.1784 272.943 71.0612 273.031 70.9102C273.12 70.7565 273.164 70.5755 273.164 70.3672C273.164 70.1563 273.126 69.974 273.051 69.8203C272.975 69.6667 272.857 69.5482 272.695 69.4648C272.534 69.3815 272.326 69.3398 272.07 69.3398L270.996 69.3398L271.004 68.7344L272.473 68.7344L272.633 68.9531C272.906 68.9766 273.138 69.0547 273.328 69.1875C273.518 69.3177 273.663 69.4844 273.762 69.6875C273.863 69.8906 273.914 70.1146 273.914 70.3594C273.914 70.7135 273.836 71.013 273.68 71.2578C273.526 71.5 273.309 71.6849 273.027 71.8125C272.746 71.9375 272.415 72 272.035 72Z" fill="#FFD000"/>
<path d="M39.5254 244.823L70.2772 222.314L100.865 175.931L131.632 158.261L162.399 143.904L192.811 101.027L245.242 58.5" stroke="#FFD000"/>
<path d="M71.0371 223.708C72.1115 223.708 72.9825 222.813 72.9825 221.708C72.9825 220.603 72.1115 219.708 71.0371 219.708C69.9628 219.708 69.0918 220.603 69.0918 221.708C69.0918 222.813 69.9628 223.708 71.0371 223.708Z" fill="white" stroke="#FFD000"/>
<path d="M39.5235 247C40.5978 247 41.4688 246.105 41.4688 245C41.4688 243.895 40.5978 243 39.5235 243C38.4491 243 37.5781 243.895 37.5781 245C37.5781 246.105 38.4491 247 39.5235 247Z" fill="white" stroke="#FFD000"/>
<path d="M101.738 177.05C102.813 177.05 103.684 176.154 103.684 175.05C103.684 173.945 102.813 173.05 101.738 173.05C100.664 173.05 99.793 173.945 99.793 175.05C99.793 176.154 100.664 177.05 101.738 177.05Z" fill="white" stroke="#FFD000"/>
<path d="M132.147 159.38C133.221 159.38 134.092 158.484 134.092 157.38C134.092 156.275 133.221 155.38 132.147 155.38C131.072 155.38 130.201 156.275 130.201 157.38C130.201 158.484 131.072 159.38 132.147 159.38Z" fill="white" stroke="#FFD000"/>
<path d="M163.053 145C164.127 145 164.998 144.105 164.998 143C164.998 141.895 164.127 141 163.053 141C161.978 141 161.107 141.895 161.107 143C161.107 144.105 161.978 145 163.053 145Z" fill="white" stroke="#FFD000"/>
<path d="M193.689 102.474C194.764 102.474 195.635 101.578 195.635 100.474C195.635 99.3691 194.764 98.4736 193.689 98.4736C192.615 98.4736 191.744 99.3691 191.744 100.474C191.744 101.578 192.615 102.474 193.689 102.474Z" fill="white" stroke="#FFD000"/>
<path d="M244.756 61C245.83 61 246.701 60.1046 246.701 59C246.701 57.8954 245.83 57 244.756 57C243.682 57 242.811 57.8954 242.811 59C242.811 60.1046 243.682 61 244.756 61Z" fill="white" stroke="#FFD000"/>
<path d="M261.762 56.3125L261.762 62L261.02 62L261.02 56.3125L261.762 56.3125ZM263.59 56.3125L263.59 56.9297L259.195 56.9297L259.195 56.3125L263.59 56.3125ZM267.758 60.1914L268.508 60.1914C268.469 60.5508 268.366 60.8724 268.199 61.1563C268.033 61.4401 267.797 61.6654 267.492 61.832C267.188 61.9961 266.807 62.0781 266.352 62.0781C266.018 62.0781 265.715 62.0156 265.441 61.8906C265.171 61.7656 264.938 61.5885 264.742 61.3594C264.547 61.1276 264.396 60.8503 264.289 60.5273C264.185 60.2018 264.133 59.8398 264.133 59.4414L264.133 58.875C264.133 58.4766 264.185 58.1159 264.289 57.793C264.396 57.4674 264.548 57.1888 264.746 56.957C264.947 56.7253 265.188 56.5469 265.469 56.4219C265.75 56.2969 266.066 56.2344 266.418 56.2344C266.848 56.2344 267.211 56.3151 267.508 56.4766C267.805 56.638 268.035 56.862 268.199 57.1484C268.366 57.4323 268.469 57.7617 268.508 58.1367L267.758 58.1367C267.721 57.8711 267.654 57.6432 267.555 57.4531C267.456 57.2604 267.315 57.112 267.133 57.0078C266.951 56.9036 266.712 56.8516 266.418 56.8516C266.165 56.8516 265.943 56.8997 265.75 56.9961C265.56 57.0924 265.4 57.2292 265.27 57.4063C265.142 57.5833 265.046 57.7956 264.98 58.043C264.915 58.2904 264.883 58.5651 264.883 58.8672L264.883 59.4414C264.883 59.7201 264.911 59.9818 264.969 60.2266C265.029 60.4714 265.118 60.6862 265.238 60.8711C265.358 61.056 265.51 61.2018 265.695 61.3086C265.88 61.4128 266.099 61.4648 266.352 61.4648C266.672 61.4648 266.927 61.4141 267.117 61.3125C267.307 61.2109 267.451 61.0651 267.547 60.875C267.646 60.6849 267.716 60.457 267.758 60.1914ZM273.738 59.168L273.738 61.25C273.668 61.3542 273.556 61.4714 273.402 61.6016C273.249 61.7292 273.036 61.8411 272.766 61.9375C272.497 62.0313 272.151 62.0781 271.727 62.0781C271.38 62.0781 271.061 62.0182 270.77 61.8984C270.48 61.776 270.229 61.599 270.016 61.3672C269.805 61.1328 269.641 60.849 269.523 60.5156C269.409 60.1797 269.352 59.7995 269.352 59.375L269.352 58.9336C269.352 58.5091 269.401 58.1302 269.5 57.7969C269.602 57.4635 269.75 57.181 269.945 56.9492C270.141 56.7148 270.38 56.5378 270.664 56.418C270.948 56.2956 271.273 56.2344 271.641 56.2344C272.076 56.2344 272.439 56.3099 272.73 56.4609C273.025 56.6094 273.254 56.8151 273.418 57.0781C273.585 57.3411 273.691 57.6406 273.738 57.9766L272.984 57.9766C272.951 57.7708 272.883 57.5833 272.781 57.4141C272.682 57.2448 272.54 57.1094 272.355 57.0078C272.171 56.9036 271.932 56.8516 271.641 56.8516C271.378 56.8516 271.15 56.8997 270.957 56.9961C270.764 57.0924 270.605 57.2305 270.48 57.4102C270.355 57.5898 270.262 57.8073 270.199 58.0625C270.139 58.3177 270.109 58.6055 270.109 58.9258L270.109 59.375C270.109 59.7031 270.147 59.9961 270.223 60.2539C270.301 60.5117 270.411 60.7318 270.555 60.9141C270.698 61.0938 270.868 61.2305 271.066 61.3242C271.267 61.418 271.488 61.4648 271.73 61.4648C271.999 61.4648 272.216 61.4427 272.383 61.3984C272.549 61.3516 272.68 61.2969 272.773 61.2344C272.867 61.1693 272.939 61.1081 272.988 61.0508L272.988 59.7773L271.672 59.7773L271.672 59.168L273.738 59.168Z" fill="#FF1826"/>
<path d="M30.9297 257.768L246.769 258.227" stroke="black" stroke-width="1.67687"/>
<path d="M30.8088 264.812L30.7969 257.082" stroke="black" stroke-width="1.67687"/>
<path d="M28.2162 284.809L28.2172 285.552L23.5639 285.532L23.563 284.883L25.8885 282.3C26.1746 281.982 26.3956 281.713 26.5515 281.492C26.7107 281.268 26.8211 281.068 26.8827 280.893C26.9476 280.714 26.9799 280.532 26.9796 280.346C26.9793 280.112 26.9302 279.9 26.8323 279.711C26.7376 279.519 26.5974 279.365 26.4117 279.25C26.226 279.136 26.0013 279.078 25.7376 279.077C25.4219 279.075 25.1583 279.136 24.9469 279.259C24.7387 279.378 24.5827 279.547 24.4788 279.765C24.375 279.982 24.3232 280.233 24.3236 280.516L23.4203 280.512C23.4198 280.112 23.5071 279.746 23.6825 279.415C23.8578 279.083 24.1179 278.821 24.4626 278.627C24.8074 278.43 25.2321 278.332 25.7366 278.334C26.1858 278.336 26.5701 278.418 26.8893 278.578C27.2085 278.736 27.453 278.958 27.6226 279.246C27.7955 279.529 27.8823 279.862 27.8828 280.243C27.8831 280.451 27.8475 280.662 27.7762 280.877C27.7082 281.088 27.6124 281.299 27.489 281.511C27.3689 281.722 27.2275 281.929 27.0651 282.134C26.9058 282.338 26.7352 282.539 26.5532 282.737L24.6517 284.795L28.2162 284.809ZM33.6412 281.453L33.6427 282.537C33.6435 283.12 33.5921 283.611 33.4885 284.011C33.3848 284.411 33.2355 284.733 33.0406 284.976C32.8456 285.219 32.6098 285.396 32.3333 285.505C32.06 285.612 31.7508 285.664 31.4058 285.663C31.1324 285.661 30.88 285.626 30.6488 285.557C30.4176 285.488 30.2091 285.378 30.0234 285.227C29.8409 285.073 29.6844 284.874 29.5538 284.629C29.4233 284.385 29.3236 284.088 29.2547 283.74C29.1859 283.391 29.1512 282.984 29.1505 282.518L29.149 281.434C29.1482 280.852 29.1997 280.364 29.3033 279.97C29.4102 279.577 29.5611 279.262 29.7561 279.025C29.9511 278.785 30.1852 278.613 30.4585 278.51C30.735 278.407 31.0442 278.356 31.386 278.358C31.6627 278.359 31.9167 278.394 32.1479 278.463C32.3823 278.53 32.5908 278.636 32.7733 278.783C32.9558 278.927 33.1107 279.12 33.238 279.362C33.3685 279.6 33.4682 279.891 33.537 280.237C33.6058 280.582 33.6406 280.988 33.6412 281.453ZM32.7347 282.68L32.7328 281.298C32.7324 280.979 32.7125 280.699 32.6731 280.458C32.6369 280.214 32.5829 280.005 32.5111 279.832C32.4392 279.659 32.3479 279.519 32.2371 279.411C32.1295 279.303 32.0041 279.225 31.8608 279.175C31.7207 279.123 31.5628 279.096 31.387 279.095C31.1722 279.094 30.9818 279.134 30.8159 279.215C30.65 279.292 30.5102 279.417 30.3965 279.589C30.2861 279.761 30.2017 279.987 30.1435 280.267C30.0853 280.546 30.0565 280.886 30.057 281.287L30.0589 282.669C30.0594 282.988 30.0777 283.269 30.1138 283.514C30.1532 283.758 30.2104 283.97 30.2856 284.149C30.3607 284.325 30.452 284.47 30.5596 284.585C30.6672 284.699 30.791 284.784 30.931 284.84C31.0743 284.893 31.2322 284.92 31.4048 284.92C31.6261 284.921 31.8198 284.88 31.9856 284.796C32.1515 284.712 32.2897 284.581 32.4001 284.402C32.5138 284.22 32.5981 283.988 32.6531 283.705C32.708 283.419 32.7352 283.077 32.7347 282.68ZM37.7679 278.443L37.7777 285.591L36.8744 285.587L36.8661 279.567L35.0458 280.224L35.0446 279.408L37.6263 278.442L37.7679 278.443ZM33.6823 311.453L33.6838 312.537C33.6846 313.12 33.6332 313.611 33.5296 314.011C33.4259 314.411 33.2766 314.733 33.0817 314.976C32.8867 315.219 32.6509 315.396 32.3744 315.505C32.1011 315.611 31.7919 315.664 31.4469 315.662C31.1735 315.661 30.9211 315.626 30.6899 315.557C30.4587 315.487 30.2502 315.378 30.0645 315.227C29.882 315.073 29.7255 314.874 29.5949 314.629C29.4644 314.385 29.3647 314.088 29.2958 313.739C29.227 313.391 29.1923 312.984 29.1916 312.518L29.1901 311.434C29.1893 310.852 29.2408 310.364 29.3444 309.97C29.4513 309.577 29.6022 309.262 29.7972 309.025C29.9922 308.785 30.2263 308.613 30.4996 308.51C30.7761 308.407 31.0853 308.356 31.4271 308.358C31.7038 308.359 31.9578 308.394 32.189 308.463C32.4234 308.53 32.6319 308.636 32.8144 308.783C32.9969 308.927 33.1518 309.12 33.2791 309.361C33.4096 309.6 33.5093 309.891 33.5781 310.237C33.6469 310.582 33.6817 310.987 33.6823 311.453ZM32.7758 312.68L32.7739 311.298C32.7735 310.979 32.7536 310.699 32.7142 310.458C32.678 310.213 32.624 310.005 32.5522 309.832C32.4803 309.659 32.389 309.519 32.2782 309.411C32.1706 309.303 32.0452 309.225 31.9019 309.175C31.7618 309.122 31.6039 309.096 31.4281 309.095C31.2133 309.094 31.0229 309.134 30.857 309.215C30.6911 309.292 30.5513 309.417 30.4376 309.589C30.3272 309.761 30.2428 309.987 30.1846 310.267C30.1264 310.546 30.0976 310.886 30.0981 311.287L30.1 312.669C30.1005 312.988 30.1188 313.269 30.1549 313.514C30.1943 313.758 30.2515 313.97 30.3267 314.149C30.4018 314.325 30.4931 314.47 30.6007 314.585C30.7083 314.699 30.8321 314.784 30.9721 314.84C31.1154 314.893 31.2733 314.92 31.4459 314.92C31.6672 314.921 31.8609 314.88 32.0267 314.796C32.1926 314.712 32.3308 314.581 32.4412 314.402C32.5549 314.22 32.6392 313.988 32.6942 313.705C32.7491 313.419 32.7763 313.077 32.7758 312.68Z" fill="#667085"/>
<path d="M66.7795 264.941L66.7676 257.211" stroke="black" stroke-width="1.67687"/>
<path d="M64.1869 284.938L64.1879 285.681L59.5346 285.661L59.5337 285.012L61.8593 282.429C62.1453 282.111 62.3663 281.842 62.5222 281.621C62.6814 281.397 62.7918 281.197 62.8534 281.022C62.9183 280.843 62.9506 280.661 62.9503 280.475C62.95 280.241 62.9009 280.029 62.803 279.84C62.7083 279.647 62.5681 279.494 62.3824 279.379C62.1967 279.264 61.972 279.207 61.7084 279.205C61.3926 279.204 61.129 279.265 60.9176 279.388C60.7094 279.507 60.5534 279.676 60.4495 279.894C60.3457 280.111 60.2939 280.362 60.2943 280.645L59.391 280.641C59.3905 280.241 59.4779 279.875 59.6532 279.544C59.8285 279.212 60.0886 278.95 60.4333 278.756C60.7781 278.559 61.2028 278.461 61.7073 278.463C62.1566 278.465 62.5408 278.547 62.86 278.707C63.1792 278.865 63.4237 279.087 63.5933 279.374C63.7662 279.658 63.853 279.991 63.8535 280.372C63.8538 280.58 63.8182 280.791 63.7469 281.006C63.6789 281.217 63.5831 281.428 63.4597 281.639C63.3396 281.851 63.1982 282.058 63.0358 282.263C62.8765 282.467 62.7059 282.668 62.5239 282.866L60.6224 284.924L64.1869 284.938ZM69.6119 281.582L69.6134 282.666C69.6142 283.249 69.5628 283.74 69.4592 284.14C69.3555 284.54 69.2063 284.861 69.0113 285.105C68.8163 285.348 68.5805 285.525 68.304 285.634C68.0307 285.74 67.7215 285.793 67.3765 285.791C67.1031 285.79 66.8507 285.755 66.6195 285.686C66.3883 285.616 66.1798 285.507 65.9941 285.356C65.8116 285.202 65.6551 285.003 65.5245 284.758C65.394 284.514 65.2943 284.217 65.2254 283.868C65.1566 283.52 65.1219 283.113 65.1212 282.647L65.1197 281.563C65.1189 280.981 65.1704 280.493 65.274 280.099C65.3809 279.706 65.5318 279.391 65.7268 279.154C65.9218 278.914 66.1559 278.742 66.4292 278.639C66.7058 278.536 67.0149 278.485 67.3567 278.487C67.6334 278.488 67.8874 278.523 68.1186 278.592C68.353 278.658 68.5615 278.765 68.744 278.912C68.9265 279.056 69.0814 279.249 69.2087 279.49C69.3392 279.729 69.4389 280.02 69.5077 280.366C69.5765 280.711 69.6113 281.116 69.6119 281.582ZM68.7054 282.809L68.7035 281.427C68.7031 281.108 68.6832 280.828 68.6438 280.587C68.6076 280.342 68.5536 280.134 68.4818 279.961C68.4099 279.788 68.3186 279.648 68.2078 279.54C68.1002 279.432 67.9748 279.354 67.8315 279.304C67.6914 279.251 67.5335 279.225 67.3577 279.224C67.1429 279.223 66.9525 279.263 66.7866 279.344C66.6207 279.421 66.4809 279.546 66.3672 279.718C66.2568 279.89 66.1724 280.116 66.1142 280.396C66.056 280.675 66.0272 281.015 66.0277 281.416L66.0296 282.798C66.0301 283.117 66.0484 283.398 66.0845 283.643C66.1239 283.887 66.1812 284.099 66.2563 284.278C66.3314 284.454 66.4227 284.599 66.5303 284.714C66.6379 284.828 66.7617 284.913 66.9017 284.969C67.045 285.022 67.2029 285.049 67.3755 285.049C67.5968 285.05 67.7905 285.009 67.9564 284.925C68.1223 284.841 68.2604 284.709 68.3708 284.531C68.4845 284.349 68.5688 284.117 68.6238 283.834C68.6787 283.547 68.7059 283.206 68.7054 282.809ZM73.7386 278.572L73.7484 285.72L72.8451 285.716L72.8368 279.696L71.0165 280.352L71.0153 279.537L73.597 278.571L73.7386 278.572ZM69.853 314.962L69.854 315.704L65.2007 315.685L65.1998 315.035L67.5253 312.452C67.8113 312.134 68.0323 311.865 68.1883 311.644C68.3475 311.42 68.4579 311.221 68.5195 311.045C68.5843 310.866 68.6166 310.684 68.6164 310.499C68.6161 310.264 68.5669 310.052 68.469 309.863C68.3744 309.671 68.2342 309.517 68.0485 309.402C67.8628 309.288 67.6381 309.23 67.3744 309.229C67.0587 309.227 66.7951 309.288 66.5837 309.411C66.3755 309.531 66.2195 309.699 66.1156 309.917C66.0117 310.135 65.96 310.385 65.9604 310.668L65.0571 310.664C65.0565 310.264 65.1439 309.898 65.3192 309.567C65.4946 309.236 65.7546 308.973 66.0994 308.779C66.4442 308.582 66.8689 308.484 67.3734 308.487C67.8226 308.488 68.2068 308.57 68.5261 308.731C68.8453 308.888 69.0897 309.111 69.2594 309.398C69.4323 309.682 69.519 310.014 69.5195 310.395C69.5198 310.603 69.4843 310.815 69.413 311.029C69.3449 311.24 69.2492 311.452 69.1258 311.663C69.0056 311.874 68.8643 312.082 68.7018 312.286C68.5426 312.49 68.372 312.691 68.19 312.889L66.2885 314.947L69.853 314.962Z" fill="#667085"/>
<path d="M102.75 265.07L102.738 257.34" stroke="black" stroke-width="1.67687"/>
<path d="M100.158 285.067L100.159 285.809L95.5053 285.79L95.5044 285.141L97.83 282.558C98.116 282.24 98.337 281.971 98.4929 281.75C98.6521 281.526 98.7625 281.326 98.8241 281.151C98.889 280.972 98.9213 280.79 98.921 280.604C98.9207 280.37 98.8716 280.158 98.7737 279.969C98.679 279.776 98.5388 279.623 98.3531 279.508C98.1674 279.393 97.9427 279.335 97.6791 279.334C97.3633 279.333 97.0997 279.394 96.8883 279.517C96.6801 279.636 96.5241 279.805 96.4202 280.023C96.3164 280.24 96.2646 280.491 96.265 280.774L95.3617 280.77C95.3612 280.37 95.4486 280.004 95.6239 279.673C95.7992 279.341 96.0593 279.079 96.404 278.885C96.7488 278.688 97.1735 278.59 97.678 278.592C98.1273 278.594 98.5115 278.675 98.8307 278.836C99.1499 278.994 99.3944 279.216 99.564 279.503C99.7369 279.787 99.8237 280.12 99.8242 280.5C99.8245 280.709 99.789 280.92 99.7176 281.135C99.6496 281.346 99.5538 281.557 99.4304 281.768C99.3103 281.979 99.169 282.187 99.0065 282.392C98.8472 282.596 98.6766 282.797 98.4946 282.995L96.5932 285.053L100.158 285.067ZM105.583 281.711L105.584 282.795C105.585 283.378 105.533 283.869 105.43 284.269C105.326 284.669 105.177 284.99 104.982 285.234C104.787 285.477 104.551 285.653 104.275 285.763C104.001 285.869 103.692 285.922 103.347 285.92C103.074 285.919 102.821 285.884 102.59 285.815C102.359 285.745 102.151 285.635 101.965 285.485C101.782 285.331 101.626 285.132 101.495 284.887C101.365 284.643 101.265 284.346 101.196 283.997C101.127 283.649 101.093 283.242 101.092 282.776L101.09 281.692C101.09 281.11 101.141 280.622 101.245 280.228C101.352 279.835 101.503 279.519 101.697 279.283C101.892 279.043 102.127 278.871 102.4 278.768C102.676 278.665 102.986 278.614 103.327 278.616C103.604 278.617 103.858 278.652 104.089 278.721C104.324 278.787 104.532 278.894 104.715 279.041C104.897 279.185 105.052 279.378 105.179 279.619C105.31 279.858 105.41 280.149 105.478 280.495C105.547 280.84 105.582 281.245 105.583 281.711ZM104.676 282.938L104.674 281.556C104.674 281.237 104.654 280.957 104.614 280.716C104.578 280.471 104.524 280.263 104.452 280.09C104.381 279.917 104.289 279.777 104.178 279.669C104.071 279.561 103.945 279.482 103.802 279.433C103.662 279.38 103.504 279.354 103.328 279.353C103.114 279.352 102.923 279.392 102.757 279.473C102.591 279.55 102.452 279.675 102.338 279.847C102.227 280.019 102.143 280.245 102.085 280.525C102.027 280.804 101.998 281.144 101.998 281.545L102 282.926C102.001 283.245 102.019 283.527 102.055 283.771C102.095 284.016 102.152 284.228 102.227 284.407C102.302 284.583 102.393 284.728 102.501 284.843C102.609 284.957 102.732 285.042 102.872 285.098C103.016 285.151 103.174 285.177 103.346 285.178C103.568 285.179 103.761 285.138 103.927 285.054C104.093 284.97 104.231 284.838 104.342 284.66C104.455 284.478 104.54 284.246 104.594 283.963C104.649 283.676 104.677 283.335 104.676 282.938ZM109.709 278.701L109.719 285.849L108.816 285.845L108.808 279.825L106.987 280.481L106.986 279.666L109.568 278.7L109.709 278.701ZM105.968 313.441L105.969 314.183L100.832 314.162L100.831 313.629L104.008 308.716L104.746 308.719L103.957 310.141L101.857 313.424L105.968 313.441ZM104.97 308.72L104.98 315.829L104.077 315.825L104.067 308.716L104.97 308.72Z" fill="#667085"/>
<path d="M138.721 265.198L138.709 257.468" stroke="black" stroke-width="1.67687"/>
<path d="M136.128 285.195L136.129 285.937L131.476 285.918L131.475 285.269L133.801 282.686C134.087 282.368 134.308 282.098 134.464 281.878C134.623 281.654 134.733 281.454 134.795 281.279C134.86 281.1 134.892 280.918 134.892 280.732C134.891 280.498 134.842 280.286 134.744 280.097C134.65 279.904 134.51 279.751 134.324 279.636C134.138 279.521 133.913 279.463 133.65 279.462C133.334 279.461 133.07 279.522 132.859 279.645C132.651 279.764 132.495 279.933 132.391 280.15C132.287 280.368 132.235 280.619 132.236 280.902L131.332 280.898C131.332 280.498 131.419 280.132 131.595 279.8C131.77 279.469 132.03 279.207 132.375 279.013C132.72 278.816 133.144 278.718 133.649 278.72C134.098 278.722 134.482 278.803 134.801 278.964C135.121 279.122 135.365 279.344 135.535 279.631C135.708 279.915 135.794 280.248 135.795 280.628C135.795 280.837 135.76 281.048 135.688 281.263C135.62 281.474 135.525 281.685 135.401 281.896C135.281 282.107 135.14 282.315 134.977 282.52C134.818 282.724 134.647 282.925 134.465 283.123L132.564 285.18L136.128 285.195ZM141.553 281.839L141.555 282.923C141.556 283.505 141.504 283.997 141.401 284.397C141.297 284.797 141.148 285.118 140.953 285.362C140.758 285.605 140.522 285.781 140.245 285.891C139.972 285.997 139.663 286.05 139.318 286.048C139.044 286.047 138.792 286.012 138.561 285.943C138.33 285.873 138.121 285.763 137.935 285.613C137.753 285.459 137.596 285.26 137.466 285.015C137.335 284.771 137.236 284.474 137.167 284.125C137.098 283.777 137.063 283.37 137.063 282.904L137.061 281.82C137.06 281.238 137.112 280.749 137.215 280.356C137.322 279.963 137.473 279.647 137.668 279.411C137.863 279.171 138.097 278.999 138.371 278.896C138.647 278.793 138.956 278.742 139.298 278.744C139.575 278.745 139.829 278.78 140.06 278.849C140.294 278.915 140.503 279.022 140.685 279.169C140.868 279.313 141.023 279.506 141.15 279.747C141.281 279.985 141.38 280.277 141.449 280.623C141.518 280.968 141.553 281.373 141.553 281.839ZM140.647 283.065L140.645 281.684C140.644 281.365 140.625 281.085 140.585 280.844C140.549 280.599 140.495 280.391 140.423 280.218C140.351 280.045 140.26 279.905 140.149 279.797C140.042 279.689 139.916 279.61 139.773 279.561C139.633 279.508 139.475 279.482 139.299 279.481C139.084 279.48 138.894 279.52 138.728 279.601C138.562 279.678 138.422 279.803 138.309 279.975C138.198 280.147 138.114 280.373 138.056 280.652C137.997 280.932 137.969 281.272 137.969 281.673L137.971 283.054C137.971 283.373 137.99 283.655 138.026 283.899C138.065 284.144 138.123 284.355 138.198 284.535C138.273 284.711 138.364 284.856 138.472 284.971C138.579 285.085 138.703 285.17 138.843 285.226C138.986 285.279 139.144 285.305 139.317 285.306C139.538 285.307 139.732 285.265 139.898 285.182C140.064 285.098 140.202 284.966 140.312 284.788C140.426 284.606 140.51 284.374 140.565 284.091C140.62 283.804 140.647 283.463 140.647 283.065ZM145.68 278.829L145.69 285.977L144.786 285.973L144.778 279.953L142.958 280.609L142.957 279.794L145.538 278.828L145.68 278.829ZM140.594 308.837L140.672 308.837L140.673 309.603L140.595 309.603C140.117 309.601 139.716 309.678 139.394 309.833C139.072 309.984 138.817 310.19 138.629 310.45C138.44 310.706 138.304 310.995 138.22 311.317C138.139 311.639 138.099 311.966 138.099 312.298L138.1 313.343C138.101 313.659 138.139 313.939 138.214 314.183C138.289 314.424 138.392 314.628 138.522 314.795C138.653 314.961 138.799 315.087 138.962 315.173C139.128 315.258 139.301 315.301 139.48 315.302C139.688 315.302 139.874 315.264 140.037 315.187C140.199 315.106 140.336 314.994 140.446 314.852C140.56 314.706 140.646 314.533 140.704 314.335C140.763 314.137 140.792 313.919 140.791 313.681C140.791 313.47 140.765 313.266 140.712 313.07C140.66 312.872 140.58 312.696 140.472 312.542C140.365 312.385 140.229 312.263 140.067 312.174C139.907 312.082 139.716 312.036 139.495 312.035C139.244 312.034 139.01 312.095 138.792 312.218C138.578 312.337 138.4 312.496 138.261 312.694C138.124 312.889 138.046 313.102 138.027 313.333L137.549 313.326C137.594 312.961 137.678 312.651 137.801 312.394C137.928 312.134 138.084 311.923 138.269 311.761C138.458 311.596 138.668 311.477 138.899 311.403C139.133 311.326 139.38 311.288 139.641 311.289C139.995 311.29 140.301 311.358 140.559 311.493C140.816 311.627 141.028 311.807 141.194 312.032C141.361 312.254 141.483 312.506 141.562 312.786C141.643 313.063 141.684 313.348 141.685 313.641C141.685 313.976 141.638 314.29 141.544 314.583C141.45 314.875 141.309 315.132 141.121 315.352C140.935 315.573 140.706 315.745 140.433 315.867C140.16 315.99 139.842 316.05 139.481 316.049C139.097 316.047 138.762 315.968 138.475 315.81C138.188 315.649 137.95 315.437 137.761 315.172C137.572 314.908 137.43 314.614 137.335 314.292C137.24 313.969 137.193 313.642 137.192 313.31L137.192 312.885C137.191 312.384 137.241 311.892 137.341 311.411C137.441 310.93 137.615 310.494 137.862 310.105C138.112 309.715 138.458 309.406 138.9 309.176C139.343 308.947 139.907 308.834 140.594 308.837Z" fill="#667085"/>
<path d="M174.694 265.327L174.682 257.597" stroke="black" stroke-width="1.67687"/>
<path d="M172.101 285.324L172.102 286.066L167.449 286.047L167.448 285.398L169.773 282.814C170.059 282.497 170.28 282.227 170.436 282.007C170.595 281.783 170.706 281.583 170.767 281.407C170.832 281.229 170.865 281.047 170.864 280.861C170.864 280.627 170.815 280.415 170.717 280.226C170.622 280.033 170.482 279.88 170.296 279.765C170.111 279.65 169.886 279.592 169.622 279.591C169.307 279.59 169.043 279.651 168.832 279.774C168.623 279.893 168.467 280.062 168.364 280.279C168.26 280.497 168.208 280.747 168.208 281.031L167.305 281.027C167.305 280.627 167.392 280.261 167.567 279.929C167.743 279.598 168.003 279.336 168.347 279.142C168.692 278.944 169.117 278.847 169.621 278.849C170.071 278.851 170.455 278.932 170.774 279.093C171.093 279.251 171.338 279.473 171.507 279.76C171.68 280.044 171.767 280.376 171.768 280.757C171.768 280.966 171.732 281.177 171.661 281.392C171.593 281.603 171.497 281.814 171.374 282.025C171.254 282.236 171.112 282.444 170.95 282.648C170.791 282.853 170.62 283.054 170.438 283.252L168.537 285.309L172.101 285.324ZM177.526 281.968L177.527 283.052C177.528 283.634 177.477 284.126 177.373 284.526C177.27 284.926 177.12 285.247 176.925 285.491C176.73 285.734 176.495 285.91 176.218 286.02C175.945 286.126 175.636 286.179 175.291 286.177C175.017 286.176 174.765 286.141 174.534 286.071C174.302 286.002 174.094 285.892 173.908 285.742C173.726 285.588 173.569 285.389 173.439 285.144C173.308 284.899 173.208 284.603 173.14 284.254C173.071 283.906 173.036 283.499 173.035 283.033L173.034 281.949C173.033 281.366 173.084 280.878 173.188 280.485C173.295 280.091 173.446 279.776 173.641 279.54C173.836 279.299 174.07 279.128 174.343 279.025C174.62 278.922 174.929 278.871 175.271 278.872C175.547 278.874 175.801 278.909 176.033 278.978C176.267 279.044 176.476 279.151 176.658 279.298C176.841 279.442 176.995 279.635 177.123 279.876C177.253 280.114 177.353 280.406 177.422 280.751C177.491 281.097 177.525 281.502 177.526 281.968ZM176.619 283.194L176.618 281.813C176.617 281.494 176.597 281.214 176.558 280.972C176.522 280.728 176.468 280.52 176.396 280.347C176.324 280.174 176.233 280.034 176.122 279.926C176.014 279.818 175.889 279.739 175.746 279.69C175.605 279.637 175.448 279.61 175.272 279.61C175.057 279.609 174.867 279.649 174.701 279.729C174.535 279.807 174.395 279.932 174.281 280.104C174.171 280.276 174.087 280.502 174.028 280.781C173.97 281.061 173.941 281.401 173.942 281.801L173.944 283.183C173.944 283.502 173.962 283.784 173.999 284.028C174.038 284.273 174.095 284.484 174.17 284.664C174.245 284.84 174.337 284.985 174.444 285.099C174.552 285.214 174.676 285.299 174.816 285.355C174.959 285.408 175.117 285.434 175.29 285.435C175.511 285.436 175.705 285.394 175.87 285.31C176.036 285.226 176.174 285.095 176.285 284.917C176.399 284.735 176.483 284.502 176.538 284.219C176.593 283.933 176.62 283.592 176.619 283.194ZM181.653 278.957L181.662 286.106L180.759 286.102L180.751 280.082L178.931 280.738L178.929 279.923L181.511 278.957L181.653 278.957ZM177.59 314.165C177.59 314.598 177.49 314.965 177.288 315.267C177.09 315.566 176.82 315.793 176.479 315.947C176.14 316.102 175.758 316.179 175.332 316.177C174.905 316.175 174.521 316.096 174.179 315.938C173.837 315.78 173.566 315.551 173.368 315.251C173.169 314.947 173.069 314.579 173.068 314.146C173.068 313.863 173.121 313.604 173.228 313.371C173.339 313.133 173.493 312.927 173.691 312.752C173.893 312.577 174.13 312.443 174.404 312.35C174.68 312.254 174.984 312.206 175.316 312.207C175.753 312.209 176.142 312.295 176.484 312.466C176.826 312.634 177.095 312.864 177.29 313.158C177.489 313.452 177.589 313.787 177.59 314.165ZM176.681 314.142C176.681 313.878 176.624 313.645 176.51 313.443C176.395 313.237 176.236 313.077 176.03 312.962C175.825 312.847 175.587 312.79 175.317 312.788C175.041 312.787 174.801 312.843 174.6 312.956C174.401 313.069 174.247 313.228 174.137 313.433C174.026 313.634 173.971 313.867 173.971 314.13C173.972 314.404 174.026 314.638 174.134 314.834C174.244 315.027 174.401 315.176 174.603 315.281C174.808 315.382 175.051 315.434 175.331 315.435C175.611 315.436 175.851 315.387 176.053 315.287C176.255 315.183 176.409 315.036 176.516 314.844C176.627 314.649 176.682 314.415 176.681 314.142ZM177.419 310.829C177.42 311.174 177.329 311.485 177.147 311.761C176.965 312.037 176.716 312.254 176.401 312.412C176.085 312.57 175.727 312.648 175.327 312.647C174.92 312.645 174.557 312.564 174.238 312.403C173.922 312.242 173.674 312.023 173.495 311.746C173.315 311.468 173.225 311.157 173.225 310.812C173.224 310.399 173.313 310.047 173.492 309.758C173.674 309.469 173.922 309.249 174.238 309.097C174.554 308.946 174.913 308.871 175.317 308.872C175.724 308.874 176.085 308.952 176.401 309.106C176.717 309.261 176.965 309.483 177.144 309.774C177.327 310.064 177.418 310.416 177.419 310.829ZM176.516 310.84C176.515 310.603 176.465 310.392 176.364 310.21C176.262 310.027 176.122 309.883 175.943 309.778C175.764 309.67 175.555 309.616 175.318 309.615C175.08 309.614 174.872 309.663 174.693 309.763C174.517 309.86 174.379 310 174.279 310.182C174.181 310.363 174.133 310.58 174.133 310.83C174.133 311.075 174.182 311.288 174.28 311.471C174.381 311.653 174.522 311.796 174.701 311.897C174.88 311.999 175.088 312.05 175.326 312.051C175.564 312.052 175.77 312.003 175.946 311.902C176.125 311.802 176.265 311.661 176.365 311.479C176.466 311.297 176.516 311.084 176.516 310.84Z" fill="#667085"/>
<path d="M210.66 265.456L210.648 257.727" stroke="black" stroke-width="1.67687"/>
<path d="M208.156 285.453L208.157 286.195L203.503 286.176L203.502 285.527L205.828 282.943C206.114 282.626 206.335 282.356 206.491 282.136C206.65 281.912 206.761 281.712 206.822 281.536C206.887 281.358 206.919 281.175 206.919 280.99C206.919 280.756 206.87 280.544 206.772 280.355C206.677 280.162 206.537 280.009 206.351 279.894C206.165 279.779 205.941 279.721 205.677 279.72C205.361 279.719 205.098 279.78 204.886 279.902C204.678 280.022 204.522 280.191 204.418 280.408C204.314 280.626 204.263 280.876 204.263 281.16L203.36 281.156C203.359 280.755 203.447 280.39 203.622 280.058C203.797 279.727 204.057 279.464 204.402 279.271C204.747 279.073 205.172 278.976 205.676 278.978C206.125 278.98 206.51 279.061 206.829 279.222C207.148 279.38 207.392 279.602 207.562 279.889C207.735 280.173 207.822 280.505 207.822 280.886C207.823 281.095 207.787 281.306 207.716 281.521C207.648 281.732 207.552 281.943 207.428 282.154C207.308 282.365 207.167 282.573 207.005 282.777C206.845 282.982 206.675 283.183 206.493 283.381L204.591 285.438L208.156 285.453ZM213.581 282.097L213.582 283.181C213.583 283.763 213.532 284.255 213.428 284.655C213.324 285.054 213.175 285.376 212.98 285.619C212.785 285.863 212.549 286.039 212.273 286.149C211.999 286.255 211.69 286.307 211.345 286.306C211.072 286.305 210.819 286.27 210.588 286.2C210.357 286.131 210.149 286.021 209.963 285.871C209.78 285.717 209.624 285.518 209.493 285.273C209.363 285.028 209.263 284.732 209.194 284.383C209.125 284.035 209.091 283.627 209.09 283.162L209.088 282.078C209.088 281.495 209.139 281.007 209.243 280.614C209.35 280.22 209.501 279.905 209.696 279.668C209.891 279.428 210.125 279.257 210.398 279.154C210.675 279.051 210.984 279 211.325 279.001C211.602 279.002 211.856 279.038 212.087 279.107C212.322 279.173 212.53 279.28 212.713 279.427C212.895 279.571 213.05 279.764 213.177 280.005C213.308 280.243 213.408 280.535 213.476 280.88C213.545 281.226 213.58 281.631 213.581 282.097ZM212.674 283.323L212.672 281.941C212.672 281.622 212.652 281.342 212.613 281.101C212.576 280.857 212.522 280.649 212.451 280.476C212.379 280.303 212.287 280.163 212.177 280.055C212.069 279.947 211.944 279.868 211.8 279.819C211.66 279.766 211.502 279.739 211.326 279.739C211.112 279.738 210.921 279.778 210.755 279.858C210.589 279.936 210.45 280.061 210.336 280.233C210.226 280.405 210.141 280.631 210.083 280.91C210.025 281.19 209.996 281.53 209.996 281.93L209.998 283.312C209.999 283.631 210.017 283.913 210.053 284.157C210.093 284.401 210.15 284.613 210.225 284.793C210.3 284.969 210.391 285.114 210.499 285.228C210.607 285.343 210.73 285.428 210.87 285.484C211.014 285.536 211.172 285.563 211.344 285.564C211.566 285.565 211.759 285.523 211.925 285.439C212.091 285.355 212.229 285.224 212.34 285.046C212.453 284.864 212.538 284.631 212.593 284.348C212.647 284.062 212.675 283.72 212.674 283.323ZM219.406 285.5L219.407 286.242L214.753 286.223L214.752 285.573L217.078 282.99C217.364 282.672 217.585 282.403 217.741 282.182C217.9 281.958 218.01 281.758 218.072 281.583C218.137 281.404 218.169 281.222 218.169 281.036C218.169 280.802 218.12 280.59 218.022 280.401C217.927 280.209 217.787 280.055 217.601 279.94C217.415 279.826 217.191 279.768 216.927 279.767C216.611 279.765 216.348 279.826 216.136 279.949C215.928 280.069 215.772 280.237 215.668 280.455C215.564 280.673 215.513 280.923 215.513 281.206L214.61 281.202C214.609 280.802 214.697 280.436 214.872 280.105C215.047 279.774 215.307 279.511 215.652 279.317C215.997 279.12 216.421 279.022 216.926 279.025C217.375 279.026 217.759 279.108 218.079 279.269C218.398 279.426 218.642 279.648 218.812 279.936C218.985 280.22 219.072 280.552 219.072 280.933C219.072 281.141 219.037 281.353 218.966 281.567C218.898 281.778 218.802 281.99 218.678 282.201C218.558 282.412 218.417 282.62 218.254 282.824C218.095 283.028 217.925 283.229 217.743 283.427L215.841 285.485L219.406 285.5ZM213.622 312.097L213.623 313.181C213.624 313.763 213.573 314.255 213.469 314.654C213.365 315.054 213.216 315.376 213.021 315.619C212.826 315.863 212.59 316.039 212.314 316.149C212.041 316.255 211.731 316.307 211.386 316.306C211.113 316.305 210.861 316.27 210.629 316.2C210.398 316.131 210.19 316.021 210.004 315.871C209.821 315.717 209.665 315.518 209.534 315.273C209.404 315.028 209.304 314.732 209.235 314.383C209.166 314.034 209.132 313.627 209.131 313.162L209.13 312.078C209.129 311.495 209.18 311.007 209.284 310.614C209.391 310.22 209.542 309.905 209.737 309.668C209.932 309.428 210.166 309.257 210.439 309.154C210.716 309.051 211.025 309 211.367 309.001C211.643 309.002 211.897 309.038 212.128 309.107C212.363 309.173 212.571 309.28 212.754 309.427C212.936 309.571 213.091 309.764 213.219 310.005C213.349 310.243 213.449 310.535 213.518 310.88C213.586 311.226 213.621 311.631 213.622 312.097ZM212.715 313.323L212.713 311.941C212.713 311.622 212.693 311.342 212.654 311.101C212.617 310.857 212.563 310.648 212.492 310.476C212.42 310.303 212.328 310.162 212.218 310.055C212.11 309.947 211.985 309.868 211.841 309.819C211.701 309.766 211.543 309.739 211.368 309.739C211.153 309.738 210.962 309.778 210.796 309.858C210.631 309.936 210.491 310.06 210.377 310.233C210.267 310.405 210.182 310.63 210.124 310.91C210.066 311.19 210.037 311.53 210.038 311.93L210.039 313.312C210.04 313.631 210.058 313.913 210.094 314.157C210.134 314.401 210.191 314.613 210.266 314.793C210.341 314.969 210.433 315.114 210.54 315.228C210.648 315.343 210.772 315.428 210.912 315.484C211.055 315.536 211.213 315.563 211.385 315.564C211.607 315.565 211.8 315.523 211.966 315.439C212.132 315.355 212.27 315.224 212.381 315.045C212.494 314.864 212.579 314.631 212.634 314.348C212.689 314.062 212.716 313.72 212.715 313.323Z" fill="#667085"/>
<path d="M246.631 265.584L246.619 257.854" stroke="black" stroke-width="1.67687"/>
<path d="M244.126 285.581L244.127 286.323L239.474 286.304L239.473 285.654L241.799 283.071C242.085 282.753 242.306 282.484 242.462 282.264C242.621 282.04 242.731 281.84 242.793 281.664C242.858 281.486 242.89 281.303 242.89 281.118C242.889 280.883 242.84 280.672 242.742 280.482C242.648 280.29 242.508 280.136 242.322 280.022C242.136 279.907 241.911 279.849 241.648 279.848C241.332 279.847 241.068 279.908 240.857 280.03C240.649 280.15 240.493 280.319 240.389 280.536C240.285 280.754 240.233 281.004 240.234 281.288L239.33 281.284C239.33 280.883 239.417 280.518 239.593 280.186C239.768 279.855 240.028 279.592 240.373 279.398C240.718 279.201 241.142 279.104 241.647 279.106C242.096 279.108 242.48 279.189 242.799 279.35C243.119 279.507 243.363 279.73 243.533 280.017C243.706 280.301 243.792 280.633 243.793 281.014C243.793 281.222 243.758 281.434 243.686 281.648C243.618 281.86 243.523 282.071 243.399 282.282C243.279 282.493 243.138 282.701 242.975 282.905C242.816 283.11 242.645 283.311 242.463 283.509L240.562 285.566L244.126 285.581ZM249.551 282.225L249.553 283.309C249.554 283.891 249.502 284.383 249.399 284.782C249.295 285.182 249.146 285.504 248.951 285.747C248.756 285.991 248.52 286.167 248.243 286.277C247.97 286.383 247.661 286.435 247.316 286.434C247.043 286.433 246.79 286.398 246.559 286.328C246.328 286.259 246.119 286.149 245.934 285.999C245.751 285.845 245.595 285.646 245.464 285.401C245.333 285.156 245.234 284.86 245.165 284.511C245.096 284.162 245.061 283.755 245.061 283.29L245.059 282.206C245.058 281.623 245.11 281.135 245.213 280.742C245.32 280.348 245.471 280.033 245.666 279.796C245.861 279.556 246.095 279.385 246.369 279.282C246.645 279.179 246.954 279.128 247.296 279.129C247.573 279.13 247.827 279.166 248.058 279.235C248.292 279.301 248.501 279.408 248.683 279.555C248.866 279.699 249.021 279.892 249.148 280.133C249.279 280.371 249.378 280.663 249.447 281.008C249.516 281.354 249.551 281.759 249.551 282.225ZM248.645 283.451L248.643 282.069C248.643 281.75 248.623 281.47 248.583 281.229C248.547 280.985 248.493 280.776 248.421 280.604C248.349 280.431 248.258 280.29 248.147 280.183C248.04 280.075 247.914 279.996 247.771 279.947C247.631 279.894 247.473 279.867 247.297 279.867C247.082 279.866 246.892 279.906 246.726 279.986C246.56 280.064 246.42 280.188 246.307 280.361C246.196 280.533 246.112 280.758 246.054 281.038C245.995 281.318 245.967 281.658 245.967 282.058L245.969 283.44C245.97 283.759 245.988 284.041 246.024 284.285C246.063 284.529 246.121 284.741 246.196 284.921C246.271 285.097 246.362 285.242 246.47 285.356C246.577 285.471 246.701 285.556 246.841 285.612C246.984 285.664 247.142 285.691 247.315 285.692C247.536 285.693 247.73 285.651 247.896 285.567C248.062 285.483 248.2 285.352 248.31 285.173C248.424 284.992 248.508 284.759 248.563 284.476C248.618 284.19 248.645 283.848 248.645 283.451ZM255.376 285.628L255.377 286.37L250.724 286.35L250.723 285.701L253.049 283.118C253.335 282.8 253.556 282.531 253.712 282.31C253.871 282.086 253.981 281.886 254.043 281.711C254.108 281.532 254.14 281.35 254.14 281.164C254.139 280.93 254.09 280.718 253.992 280.529C253.898 280.337 253.758 280.183 253.572 280.068C253.386 279.954 253.161 279.896 252.898 279.895C252.582 279.893 252.318 279.954 252.107 280.077C251.899 280.196 251.743 280.365 251.639 280.583C251.535 280.8 251.483 281.051 251.484 281.334L250.58 281.33C250.58 280.93 250.667 280.564 250.843 280.233C251.018 279.902 251.278 279.639 251.623 279.445C251.968 279.248 252.392 279.15 252.897 279.152C253.346 279.154 253.73 279.236 254.049 279.396C254.369 279.554 254.613 279.776 254.783 280.064C254.956 280.348 255.042 280.68 255.043 281.061C255.043 281.269 255.008 281.481 254.936 281.695C254.868 281.906 254.773 282.118 254.649 282.329C254.529 282.54 254.388 282.747 254.225 282.952C254.066 283.156 253.895 283.357 253.713 283.555L251.812 285.613L255.376 285.628ZM249.792 315.604L249.793 316.346L245.14 316.327L245.139 315.678L247.465 313.095C247.751 312.777 247.972 312.507 248.128 312.287C248.287 312.063 248.397 311.863 248.459 311.688C248.524 311.509 248.556 311.327 248.556 311.141C248.556 310.907 248.506 310.695 248.408 310.506C248.314 310.313 248.174 310.16 247.988 310.045C247.802 309.93 247.578 309.872 247.314 309.871C246.998 309.87 246.735 309.931 246.523 310.054C246.315 310.173 246.159 310.342 246.055 310.559C245.951 310.777 245.899 311.028 245.9 311.311L244.997 311.307C244.996 310.907 245.083 310.541 245.259 310.209C245.434 309.878 245.694 309.616 246.039 309.422C246.384 309.225 246.808 309.127 247.313 309.129C247.762 309.131 248.146 309.212 248.466 309.373C248.785 309.531 249.029 309.753 249.199 310.04C249.372 310.324 249.458 310.657 249.459 311.037C249.459 311.246 249.424 311.457 249.352 311.672C249.284 311.883 249.189 312.094 249.065 312.305C248.945 312.516 248.804 312.724 248.641 312.929C248.482 313.133 248.311 313.334 248.129 313.532L246.228 315.589L249.792 315.604Z" fill="#667085"/>
<path d="M30.6719 38.8242L30.9155 246.265" stroke="#002966" stroke-width="1.67687"/>
<path d="M28.252 245.57L30.7783 245.579" stroke="black" stroke-width="1.67687"/>
<path d="M28.1738 194.039L30.7002 194.048" stroke="black" stroke-width="1.67687"/>
<path d="M28.0938 142.502L30.6201 142.511" stroke="black" stroke-width="1.67687"/>
<path d="M28.0137 90.9688L30.5401 90.9778" stroke="black" stroke-width="1.67687"/>
<path d="M27.9355 39.4336L30.4619 39.4426" stroke="black" stroke-width="1.67687"/>
<path d="M22.5183 244.9L22.5199 245.984C22.5207 246.566 22.4694 247.058 22.3658 247.458C22.2622 247.858 22.1129 248.179 21.918 248.423C21.723 248.666 21.4873 248.842 21.2107 248.952C20.9374 249.058 20.6283 249.111 20.2832 249.109C20.0098 249.108 19.7575 249.073 19.5262 249.004C19.295 248.935 19.0865 248.825 18.9008 248.674C18.7183 248.521 18.5617 248.321 18.4312 248.077C18.3006 247.832 18.2009 247.535 18.132 247.187C18.0632 246.838 18.0284 246.431 18.0277 245.966L18.0261 244.882C18.0253 244.299 18.0767 243.811 18.1803 243.418C18.2871 243.024 18.438 242.709 18.633 242.472C18.828 242.232 19.0621 242.06 19.3354 241.957C19.6119 241.854 19.9211 241.803 20.2629 241.805C20.5396 241.806 20.7935 241.841 21.0247 241.91C21.2592 241.976 21.4677 242.083 21.6502 242.23C21.8327 242.374 21.9876 242.567 22.1149 242.808C22.2454 243.046 22.3451 243.338 22.414 243.683C22.4829 244.029 22.5176 244.434 22.5183 244.9ZM21.6119 246.126L21.6099 244.745C21.6094 244.426 21.5895 244.146 21.5501 243.905C21.5139 243.66 21.4599 243.452 21.388 243.279C21.3162 243.106 21.2248 242.966 21.114 242.858C21.0064 242.75 20.881 242.671 20.7377 242.622C20.5976 242.569 20.4397 242.543 20.2639 242.542C20.0491 242.541 19.8587 242.581 19.6928 242.662C19.5269 242.739 19.3871 242.864 19.2734 243.036C19.163 243.208 19.0787 243.434 19.0205 243.714C18.9623 243.994 18.9335 244.334 18.9341 244.734L18.9361 246.116C18.9366 246.435 18.9549 246.717 18.9911 246.961C19.0305 247.205 19.0878 247.417 19.1629 247.596C19.238 247.772 19.3294 247.918 19.4369 248.032C19.5445 248.146 19.6684 248.231 19.8084 248.287C19.9517 248.34 20.1096 248.367 20.2822 248.367C20.5035 248.368 20.6971 248.327 20.863 248.243C21.0289 248.159 21.1671 248.027 21.2775 247.849C21.3911 247.667 21.4754 247.435 21.5304 247.152C21.5853 246.865 21.6125 246.524 21.6119 246.126Z" fill="#667085"/>
<path d="M12.3487 193.644L11.6258 193.455L11.9771 189.916L15.6246 189.931L15.6258 190.766L12.7449 190.754L12.5329 192.687C12.663 192.613 12.8273 192.544 13.0257 192.479C13.2275 192.415 13.4585 192.383 13.719 192.384C14.0477 192.386 14.3424 192.444 14.603 192.559C14.8636 192.67 15.0852 192.831 15.2677 193.04C15.4536 193.249 15.5956 193.5 15.6936 193.794C15.7917 194.087 15.841 194.414 15.8415 194.776C15.842 195.117 15.7953 195.431 15.7013 195.717C15.6106 196.003 15.4726 196.254 15.2874 196.468C15.1021 196.679 14.868 196.842 14.585 196.958C14.3052 197.074 13.9749 197.131 13.594 197.13C13.3076 197.129 13.0357 197.089 12.7784 197.009C12.5244 196.927 12.2964 196.804 12.0943 196.641C11.8955 196.474 11.7324 196.268 11.6051 196.023C11.4811 195.775 11.4025 195.485 11.3695 195.153L12.2289 195.157C12.2683 195.424 12.3468 195.649 12.4642 195.831C12.5817 196.014 12.7349 196.153 12.9238 196.248C13.116 196.34 13.339 196.387 13.5929 196.388C13.8078 196.389 13.9982 196.352 14.1641 196.278C14.33 196.203 14.4698 196.097 14.5835 195.957C14.6972 195.818 14.7833 195.649 14.8416 195.45C14.9031 195.252 14.9337 195.029 14.9334 194.782C14.933 194.557 14.9018 194.349 14.8397 194.156C14.7776 193.964 14.6845 193.796 14.5606 193.652C14.44 193.509 14.2917 193.397 14.1158 193.319C13.9399 193.236 13.738 193.195 13.5102 193.194C13.2074 193.193 12.978 193.233 12.8219 193.313C12.669 193.394 12.5113 193.504 12.3487 193.644ZM21.2929 192.942L21.2945 194.026C21.2953 194.608 21.244 195.1 21.1404 195.5C21.0368 195.9 20.8875 196.221 20.6926 196.465C20.4976 196.708 20.2619 196.885 19.9853 196.994C19.7121 197.1 19.4029 197.153 19.0578 197.152C18.7844 197.15 18.5321 197.115 18.3009 197.046C18.0697 196.977 17.8612 196.867 17.6754 196.716C17.4929 196.563 17.3363 196.363 17.2058 196.119C17.0752 195.874 16.9755 195.578 16.9066 195.229C16.8378 194.88 16.803 194.473 16.8023 194.008L16.8008 192.924C16.7999 192.341 16.8513 191.853 16.9549 191.46C17.0617 191.066 17.2126 190.751 17.4076 190.514C17.6026 190.274 17.8367 190.102 18.11 189.999C18.3865 189.896 18.6957 189.845 19.0375 189.847C19.3142 189.848 19.5681 189.883 19.7993 189.952C20.0338 190.018 20.2423 190.125 20.4248 190.272C20.6073 190.416 20.7622 190.609 20.8895 190.85C21.0201 191.088 21.1198 191.38 21.1886 191.725C21.2575 192.071 21.2922 192.476 21.2929 192.942ZM20.3865 194.169L20.3845 192.787C20.384 192.468 20.3641 192.188 20.3247 191.947C20.2885 191.702 20.2345 191.494 20.1627 191.321C20.0908 191.148 19.9994 191.008 19.8886 190.9C19.781 190.792 19.6556 190.714 19.5123 190.664C19.3722 190.611 19.2143 190.585 19.0385 190.584C18.8237 190.583 18.6333 190.623 18.4674 190.704C18.3015 190.781 18.1617 190.906 18.0481 191.078C17.9376 191.25 17.8533 191.476 17.7951 191.756C17.737 192.036 17.7082 192.376 17.7087 192.776L17.7107 194.158C17.7112 194.477 17.7295 194.759 17.7657 195.003C17.8051 195.247 17.8624 195.459 17.9375 195.638C18.0126 195.814 18.104 195.96 18.2116 196.074C18.3192 196.188 18.443 196.273 18.583 196.329C18.7263 196.382 18.8842 196.409 19.0568 196.409C19.2781 196.41 19.4717 196.369 19.6376 196.285C19.8035 196.201 19.9417 196.069 20.0521 195.891C20.1658 195.709 20.2501 195.477 20.305 195.194C20.3599 194.907 20.3871 194.566 20.3865 194.169ZM21.3365 222.942L21.338 224.026C21.3389 224.608 21.2875 225.1 21.1839 225.5C21.0803 225.9 20.9311 226.221 20.7361 226.465C20.5412 226.708 20.3054 226.884 20.0289 226.994C19.7556 227.1 19.4464 227.153 19.1014 227.151C18.828 227.15 18.5756 227.115 18.3444 227.046C18.1132 226.977 17.9047 226.867 17.7189 226.716C17.5364 226.563 17.3799 226.363 17.2493 226.119C17.1188 225.874 17.0191 225.577 16.9502 225.229C16.8813 224.88 16.8466 224.473 16.8459 224.008L16.8443 222.924C16.8435 222.341 16.8948 221.853 16.9984 221.46C17.1053 221.066 17.2562 220.751 17.4512 220.514C17.6461 220.274 17.8802 220.102 18.1535 219.999C18.4301 219.896 18.7392 219.845 19.081 219.847C19.3577 219.848 19.6117 219.883 19.8429 219.952C20.0774 220.018 20.2858 220.125 20.4683 220.272C20.6508 220.416 20.8057 220.609 20.933 220.85C21.0636 221.088 21.1633 221.38 21.2322 221.725C21.301 222.071 21.3358 222.476 21.3365 222.942ZM20.4301 224.169L20.4281 222.787C20.4276 222.468 20.4077 222.188 20.3682 221.947C20.3321 221.702 20.2781 221.494 20.2062 221.321C20.1343 221.148 20.043 221.008 19.9322 220.9C19.8246 220.792 19.6991 220.713 19.5558 220.664C19.4158 220.611 19.2579 220.585 19.0821 220.584C18.8673 220.583 18.6769 220.623 18.511 220.704C18.3451 220.781 18.2053 220.906 18.0916 221.078C17.9812 221.25 17.8969 221.476 17.8387 221.756C17.7805 222.036 17.7517 222.376 17.7523 222.776L17.7543 224.158C17.7548 224.477 17.7731 224.759 17.8092 225.003C17.8486 225.247 17.9059 225.459 17.981 225.638C18.0562 225.814 18.1475 225.96 18.2551 226.074C18.3627 226.188 18.4865 226.273 18.6266 226.329C18.7699 226.382 18.9278 226.409 19.1003 226.409C19.3217 226.41 19.5153 226.369 19.6812 226.285C19.8471 226.201 19.9852 226.069 20.0956 225.891C20.2093 225.709 20.2936 225.477 20.3485 225.194C20.4035 224.907 20.4306 224.566 20.4301 224.169Z" fill="#667085"/>
<path d="M10.2945 138.887L10.3049 146.035L9.40157 146.032L9.39283 140.011L7.57251 140.668L7.57133 139.853L10.1529 138.886L10.2945 138.887ZM17.418 141.943L17.4196 143.026C17.4204 143.609 17.369 144.101 17.2655 144.5C17.1619 144.9 17.0126 145.222 16.8177 145.465C16.6227 145.709 16.3869 145.885 16.1104 145.995C15.8371 146.101 15.528 146.154 15.1829 146.152C14.9095 146.151 14.6572 146.116 14.4259 146.047C14.1947 145.978 13.9862 145.868 13.8005 145.717C13.618 145.563 13.4614 145.364 13.3309 145.12C13.2003 144.875 13.1006 144.578 13.0317 144.23C12.9629 143.881 12.9281 143.474 12.9274 143.009L12.9258 141.925C12.925 141.342 12.9764 140.854 13.08 140.46C13.1868 140.067 13.3377 139.752 13.5327 139.515C13.7276 139.275 13.9618 139.103 14.2351 139C14.5116 138.897 14.8208 138.846 15.1626 138.848C15.4392 138.849 15.6932 138.884 15.9244 138.953C16.1589 139.019 16.3674 139.126 16.5499 139.273C16.7324 139.417 16.8873 139.61 17.0146 139.851C17.1451 140.089 17.2448 140.381 17.3137 140.726C17.3826 141.072 17.4173 141.477 17.418 141.943ZM16.5116 143.169L16.5096 141.788C16.5091 141.469 16.4892 141.189 16.4498 140.947C16.4136 140.703 16.3596 140.495 16.2877 140.322C16.2159 140.149 16.1245 140.009 16.0137 139.901C15.9061 139.793 15.7807 139.714 15.6374 139.665C15.4973 139.612 15.3394 139.586 15.1636 139.585C14.9488 139.584 14.7584 139.624 14.5925 139.705C14.4266 139.782 14.2868 139.907 14.1731 140.079C14.0627 140.251 13.9784 140.477 13.9202 140.757C13.862 141.036 13.8332 141.377 13.8338 141.777L13.8358 143.159C13.8363 143.478 13.8546 143.759 13.8908 144.004C13.9302 144.248 13.9874 144.46 14.0626 144.639C14.1377 144.815 14.2291 144.96 14.3366 145.075C14.4442 145.189 14.568 145.274 14.7081 145.33C14.8514 145.383 15.0093 145.41 15.1818 145.41C15.4032 145.411 15.5968 145.37 15.7627 145.286C15.9286 145.202 16.0668 145.07 16.1772 144.892C16.2908 144.71 16.3751 144.477 16.4301 144.194C16.485 143.908 16.5122 143.567 16.5116 143.169ZM23.043 141.965L23.0445 143.049C23.0454 143.631 22.994 144.123 22.8904 144.523C22.7868 144.923 22.6376 145.244 22.4426 145.488C22.2477 145.731 22.0119 145.908 21.7354 146.017C21.4621 146.124 21.1529 146.176 20.8079 146.175C20.5345 146.174 20.2821 146.138 20.0509 146.069C19.8197 146 19.6112 145.89 19.4254 145.74C19.2429 145.586 19.0864 145.387 18.9558 145.142C18.8253 144.897 18.7256 144.601 18.6567 144.252C18.5878 143.904 18.5531 143.496 18.5524 143.031L18.5508 141.947C18.55 141.364 18.6013 140.876 18.7049 140.483C18.8118 140.089 18.9627 139.774 19.1577 139.537C19.3526 139.297 19.5867 139.126 19.86 139.023C20.1366 138.919 20.4457 138.869 20.7875 138.87C21.0642 138.871 21.3182 138.906 21.5494 138.976C21.7839 139.042 21.9923 139.148 22.1748 139.295C22.3573 139.439 22.5122 139.632 22.6395 139.873C22.7701 140.112 22.8698 140.403 22.9387 140.749C23.0075 141.094 23.0423 141.499 23.043 141.965ZM22.1366 143.192L22.1345 141.81C22.1341 141.491 22.1141 141.211 22.0747 140.97C22.0386 140.725 21.9846 140.517 21.9127 140.344C21.8408 140.171 21.7495 140.031 21.6387 139.923C21.5311 139.815 21.4056 139.737 21.2623 139.687C21.1223 139.635 20.9644 139.608 20.7886 139.607C20.5738 139.606 20.3834 139.646 20.2175 139.727C20.0516 139.805 19.9118 139.929 19.7981 140.101C19.6877 140.273 19.6034 140.499 19.5452 140.779C19.487 141.059 19.4582 141.399 19.4588 141.799L19.4608 143.181C19.4613 143.5 19.4796 143.782 19.5157 144.026C19.5551 144.27 19.6124 144.482 19.6875 144.661C19.7627 144.838 19.854 144.983 19.9616 145.097C20.0692 145.211 20.193 145.297 20.3331 145.352C20.4764 145.405 20.6343 145.432 20.8068 145.432C21.0282 145.433 21.2218 145.392 21.3877 145.308C21.5536 145.224 21.6917 145.093 21.8021 144.914C21.9158 144.732 22.0001 144.5 22.055 144.217C22.11 143.93 22.1371 143.589 22.1366 143.192ZM23.0865 171.965L23.0881 173.049C23.0889 173.631 23.0376 174.123 22.934 174.523C22.8304 174.923 22.6811 175.244 22.4862 175.488C22.2912 175.731 22.0555 175.908 21.7789 176.017C21.5057 176.124 21.1965 176.176 20.8514 176.175C20.578 176.174 20.3257 176.138 20.0945 176.069C19.8632 176 19.6548 175.89 19.469 175.739C19.2865 175.586 19.1299 175.387 18.9994 175.142C18.8688 174.897 18.7691 174.601 18.7002 174.252C18.6314 173.903 18.5966 173.496 18.5959 173.031L18.5944 171.947C18.5935 171.364 18.6449 170.876 18.7485 170.483C18.8553 170.089 19.0062 169.774 19.2012 169.537C19.3962 169.297 19.6303 169.126 19.9036 169.022C20.1801 168.919 20.4893 168.869 20.8311 168.87C21.1078 168.871 21.3617 168.906 21.5929 168.975C21.8274 169.041 22.0359 169.148 22.2184 169.295C22.4009 169.439 22.5558 169.632 22.6831 169.873C22.8136 170.111 22.9133 170.403 22.9822 170.749C23.0511 171.094 23.0858 171.499 23.0865 171.965ZM22.1801 173.192L22.1781 171.81C22.1776 171.491 22.1577 171.211 22.1183 170.97C22.0821 170.725 22.0281 170.517 21.9562 170.344C21.8844 170.171 21.793 170.031 21.6822 169.923C21.5746 169.815 21.4492 169.737 21.3059 169.687C21.1658 169.635 21.0079 169.608 20.8321 169.607C20.6173 169.606 20.4269 169.646 20.261 169.727C20.0951 169.804 19.9553 169.929 19.8417 170.101C19.7312 170.273 19.6469 170.499 19.5887 170.779C19.5306 171.059 19.5017 171.399 19.5023 171.799L19.5043 173.181C19.5048 173.5 19.5231 173.782 19.5593 174.026C19.5987 174.27 19.656 174.482 19.7311 174.661C19.8062 174.837 19.8976 174.983 20.0052 175.097C20.1127 175.211 20.2366 175.297 20.3766 175.352C20.5199 175.405 20.6778 175.432 20.8504 175.432C21.0717 175.433 21.2653 175.392 21.4312 175.308C21.5971 175.224 21.7353 175.093 21.8457 174.914C21.9594 174.732 22.0437 174.5 22.0986 174.217C22.1535 173.93 22.1807 173.589 22.1801 173.192Z" fill="#667085"/>
<path d="M10.1285 86.887L10.1389 94.0354L9.23555 94.0318L9.22681 88.0113L7.4065 88.6681L7.40531 87.8527L9.98689 86.8864L10.1285 86.887ZM13.9328 90.6667L13.2098 90.4782L13.5611 86.9396L17.2086 86.9541L17.2098 87.789L14.329 87.7776L14.1169 89.7104C14.247 89.636 14.4113 89.5667 14.6098 89.5024C14.8115 89.4381 15.0426 89.4064 15.303 89.4074C15.6318 89.4088 15.9264 89.4669 16.187 89.5818C16.4476 89.6936 16.6692 89.8539 16.8518 90.063C17.0376 90.2721 17.1796 90.5233 17.2777 90.8166C17.3757 91.11 17.425 91.4373 17.4256 91.7987C17.4261 92.1405 17.3793 92.4544 17.2853 92.7405C17.1946 93.0266 17.0566 93.2767 16.8714 93.4908C16.6862 93.7016 16.452 93.8651 16.169 93.9812C15.8892 94.0972 15.5589 94.1545 15.178 94.153C14.8916 94.1519 14.6197 94.1117 14.3624 94.0326C14.1084 93.9502 13.8804 93.8272 13.6783 93.6637C13.4795 93.4969 13.3165 93.2911 13.1892 93.0465C13.0651 92.7986 12.9866 92.5086 12.9535 92.1764L13.8129 92.1798C13.8523 92.4469 13.9308 92.6718 14.0482 92.8546C14.1657 93.0374 14.3189 93.1763 14.5078 93.2715C14.7 93.3634 14.9231 93.4098 15.177 93.4108C15.3918 93.4117 15.5822 93.375 15.7481 93.3008C15.914 93.2266 16.0538 93.1197 16.1675 92.9802C16.2813 92.8407 16.3673 92.6717 16.4256 92.4734C16.4871 92.2751 16.5177 92.0522 16.5174 91.8048C16.5171 91.5802 16.4858 91.3718 16.4237 91.1795C16.3616 90.9872 16.2686 90.8191 16.1447 90.6754C16.024 90.5317 15.8757 90.4205 15.6998 90.3416C15.5239 90.2596 15.3221 90.2181 15.0942 90.2172C14.7915 90.216 14.562 90.2557 14.4059 90.3365C14.253 90.4173 14.0953 90.5273 13.9328 90.6667ZM22.877 89.9648L22.8785 91.0488C22.8794 91.6315 22.828 92.1228 22.7244 92.5228C22.6208 92.9228 22.4716 93.2444 22.2766 93.4878C22.0816 93.7312 21.8459 93.9076 21.5694 94.0172C21.2961 94.1235 20.9869 94.176 20.6419 94.1747C20.3684 94.1736 20.1161 94.1384 19.8849 94.0691C19.6537 93.9999 19.4452 93.89 19.2594 93.7395C19.0769 93.5858 18.9204 93.3866 18.7898 93.1419C18.6593 92.8973 18.5595 92.6007 18.4907 92.2521C18.4218 91.9035 18.387 91.4965 18.3864 91.031L18.3848 89.947C18.3839 89.3643 18.4353 88.8762 18.5389 88.4828C18.6458 88.0893 18.7967 87.7742 18.9916 87.5373C19.1866 87.2972 19.4207 87.1256 19.694 87.0225C19.9705 86.9195 20.2797 86.8686 20.6215 86.8699C20.8982 86.871 21.1522 86.9062 21.3834 86.9755C21.6178 87.0415 21.8263 87.1482 22.0088 87.2954C22.1913 87.4393 22.3462 87.632 22.4735 87.8734C22.6041 88.1115 22.7038 88.4033 22.7726 88.7486C22.8415 89.0939 22.8763 89.4993 22.877 89.9648ZM21.9705 91.1917L21.9685 89.8098C21.9681 89.4908 21.9481 89.2108 21.9087 88.9698C21.8726 88.7255 21.8185 88.5169 21.7467 88.3441C21.6748 88.1713 21.5835 88.031 21.4726 87.9231C21.3651 87.8153 21.2396 87.7367 21.0963 87.6873C20.9563 87.6346 20.7984 87.608 20.6226 87.6073C20.4077 87.6064 20.2174 87.6463 20.0515 87.7271C19.8856 87.8045 19.7458 87.9293 19.6321 88.1014C19.5217 88.2735 19.4374 88.4994 19.3792 88.7791C19.321 89.0588 19.2922 89.3988 19.2928 89.7992L19.2948 91.1811C19.2952 91.5001 19.3135 91.7817 19.3497 92.026C19.3891 92.2703 19.4464 92.4821 19.5215 92.6614C19.5967 92.8375 19.688 92.9827 19.7956 93.0971C19.9032 93.2115 20.027 93.2966 20.1671 93.3525C20.3104 93.4051 20.4683 93.4318 20.6408 93.4325C20.8622 93.4334 21.0558 93.3918 21.2217 93.3078C21.3876 93.2239 21.5257 93.0926 21.6361 92.914C21.7498 92.7321 21.8341 92.4997 21.889 92.2167C21.9439 91.9305 21.9711 91.5888 21.9705 91.1917ZM22.9205 119.965L22.9221 121.049C22.9229 121.631 22.8715 122.123 22.768 122.523C22.6644 122.923 22.5151 123.244 22.3201 123.488C22.1252 123.731 21.8894 123.908 21.6129 124.017C21.3396 124.124 21.0305 124.176 20.6854 124.175C20.412 124.174 20.1597 124.138 19.9284 124.069C19.6972 124 19.4887 123.89 19.303 123.739C19.1205 123.586 18.9639 123.387 18.8334 123.142C18.7028 122.897 18.6031 122.601 18.5342 122.252C18.4654 121.903 18.4306 121.496 18.4299 121.031L18.4283 119.947C18.4275 119.364 18.4789 118.876 18.5825 118.483C18.6893 118.089 18.8402 117.774 19.0352 117.537C19.2301 117.297 19.4643 117.126 19.7376 117.022C20.0141 116.919 20.3233 116.869 20.6651 116.87C20.9417 116.871 21.1957 116.906 21.4269 116.975C21.6614 117.041 21.8699 117.148 22.0524 117.295C22.2349 117.439 22.3898 117.632 22.5171 117.873C22.6476 118.111 22.7473 118.403 22.8162 118.749C22.8851 119.094 22.9198 119.499 22.9205 119.965ZM22.0141 121.192L22.0121 119.81C22.0116 119.491 21.9917 119.211 21.9523 118.97C21.9161 118.725 21.8621 118.517 21.7902 118.344C21.7184 118.171 21.627 118.031 21.5162 117.923C21.4086 117.815 21.2832 117.737 21.1399 117.687C20.9998 117.635 20.8419 117.608 20.6661 117.607C20.4513 117.606 20.2609 117.646 20.095 117.727C19.9291 117.804 19.7893 117.929 19.6756 118.101C19.5652 118.273 19.4809 118.499 19.4227 118.779C19.3645 119.059 19.3357 119.399 19.3363 119.799L19.3383 121.181C19.3388 121.5 19.3571 121.782 19.3933 122.026C19.4327 122.27 19.4899 122.482 19.5651 122.661C19.6402 122.837 19.7316 122.983 19.8391 123.097C19.9467 123.211 20.0705 123.297 20.2106 123.352C20.3539 123.405 20.5118 123.432 20.6843 123.432C20.9057 123.433 21.0993 123.392 21.2652 123.308C21.4311 123.224 21.5693 123.093 21.6797 122.914C21.7933 122.732 21.8776 122.5 21.9326 122.217C21.9875 121.93 22.0147 121.589 22.0141 121.192Z" fill="#667085"/>
<path d="M11.9229 41.2999L11.924 42.0421L7.27072 42.0236L7.26978 41.3742L9.5951 38.7907C9.88109 38.4728 10.1021 38.2035 10.258 37.9828C10.4172 37.7588 10.5275 37.559 10.5891 37.3835C10.654 37.2047 10.6863 37.0226 10.686 36.837C10.6857 36.6026 10.6365 36.3909 10.5386 36.2017C10.4439 36.0092 10.3037 35.8557 10.118 35.741C9.9323 35.6264 9.70761 35.5685 9.44394 35.5675C9.12819 35.5662 8.8646 35.627 8.6532 35.7499C8.44504 35.8695 8.28904 36.0381 8.18519 36.2558C8.08134 36.4735 8.02962 36.724 8.03003 37.0072L7.12671 37.0036C7.12613 36.6032 7.21349 36.2373 7.38879 35.906C7.56409 35.5747 7.82412 35.312 8.16889 35.1181C8.51365 34.9209 8.93831 34.8233 9.44286 34.8253C9.89208 34.827 10.2763 34.9083 10.5955 35.0691C10.9148 35.2266 11.1592 35.4489 11.3289 35.7361C11.5019 36.0199 11.5886 36.3523 11.5892 36.7332C11.5895 36.9415 11.554 37.153 11.4827 37.3675C11.4146 37.5788 11.3189 37.79 11.1955 38.0011C11.0754 38.2122 10.9341 38.42 10.7716 38.6245C10.6124 38.8289 10.4418 39.03 10.2598 39.2279L8.3585 41.2858L11.9229 41.2999ZM17.3477 37.9425L17.3493 39.0265C17.3501 39.6092 17.2987 40.1005 17.1952 40.5005C17.0916 40.9005 16.9423 41.2221 16.7473 41.4655C16.5524 41.7089 16.3166 41.8853 16.0401 41.9949C15.7668 42.1013 15.4577 42.1537 15.1126 42.1524C14.8392 42.1513 14.5868 42.1161 14.3556 42.0468C14.1244 41.9776 13.9159 41.8677 13.7302 41.7172C13.5476 41.5635 13.3911 41.3643 13.2605 41.1196C13.13 40.875 13.0303 40.5784 12.9614 40.2298C12.8925 39.8812 12.8578 39.4742 12.8571 39.0087L12.8555 37.9247C12.8547 37.342 12.9061 36.854 13.0096 36.4605C13.1165 36.067 13.2674 35.7519 13.4624 35.515C13.6573 35.2749 13.8915 35.1033 14.1647 35.0002C14.4413 34.8972 14.7504 34.8463 15.0922 34.8477C15.3689 34.8488 15.6229 34.8839 15.8541 34.9532C16.0886 35.0192 16.2971 35.1259 16.4796 35.2731C16.6621 35.417 16.817 35.6097 16.9443 35.8511C17.0748 36.0892 17.1745 36.381 17.2434 36.7263C17.3122 37.0716 17.347 37.477 17.3477 37.9425ZM16.4413 39.1694L16.4393 37.7875C16.4388 37.4685 16.4189 37.1885 16.3795 36.9475C16.3433 36.7032 16.2893 36.4946 16.2174 36.3218C16.1456 36.149 16.0542 36.0087 15.9434 35.9008C15.8358 35.793 15.7104 35.7144 15.5671 35.665C15.427 35.6123 15.2691 35.5857 15.0933 35.585C14.8785 35.5841 14.6881 35.624 14.5222 35.7048C14.3563 35.7822 14.2165 35.907 14.1028 36.0791C13.9924 36.2512 13.9081 36.4771 13.8499 36.7568C13.7917 37.0365 13.7629 37.3766 13.7635 37.7769L13.7655 39.1588C13.766 39.4778 13.7843 39.7594 13.8204 40.0037C13.8599 40.248 13.9171 40.4598 13.9923 40.6392C14.0674 40.8152 14.1587 40.9605 14.2663 41.0748C14.3739 41.1892 14.4977 41.2743 14.6378 41.3302C14.7811 41.3828 14.939 41.4095 15.1115 41.4102C15.3329 41.4111 15.5265 41.3695 15.6924 41.2855C15.8583 41.2016 15.9964 41.0703 16.1069 40.8917C16.2205 40.7098 16.3048 40.4774 16.3598 40.1944C16.4147 39.9082 16.4419 39.5665 16.4413 39.1694ZM22.9727 37.9648L22.9742 39.0488C22.9751 39.6315 22.9237 40.1228 22.8201 40.5228C22.7165 40.9228 22.5673 41.2444 22.3723 41.4878C22.1773 41.7312 21.9416 41.9076 21.6651 42.0172C21.3918 42.1235 21.0826 42.176 20.7376 42.1747C20.4641 42.1736 20.2118 42.1384 19.9806 42.0691C19.7494 41.9999 19.5409 41.89 19.3551 41.7395C19.1726 41.5858 19.0161 41.3866 18.8855 41.1419C18.755 40.8973 18.6552 40.6007 18.5864 40.2521C18.5175 39.9035 18.4827 39.4965 18.4821 39.031L18.4805 37.947C18.4796 37.3643 18.531 36.8762 18.6346 36.4828C18.7415 36.0893 18.8924 35.7742 19.0873 35.5373C19.2823 35.2972 19.5164 35.1256 19.7897 35.0225C20.0662 34.9195 20.3754 34.8686 20.7172 34.8699C20.9939 34.871 21.2479 34.9062 21.4791 34.9755C21.7135 35.0415 21.922 35.1482 22.1045 35.2954C22.287 35.4393 22.4419 35.632 22.5692 35.8734C22.6998 36.1115 22.7995 36.4033 22.8683 36.7486C22.9372 37.0939 22.972 37.4993 22.9727 37.9648ZM22.0662 39.1917L22.0642 37.8098C22.0638 37.4908 22.0438 37.2108 22.0044 36.9698C21.9683 36.7255 21.9142 36.5169 21.8424 36.3441C21.7705 36.1713 21.6792 36.031 21.5683 35.9231C21.4608 35.8153 21.3353 35.7367 21.192 35.6873C21.052 35.6346 20.8941 35.608 20.7183 35.6073C20.5034 35.6064 20.3131 35.6463 20.1472 35.7271C19.9813 35.8045 19.8415 35.9293 19.7278 36.1014C19.6174 36.2735 19.5331 36.4994 19.4749 36.7791C19.4167 37.0588 19.3879 37.3988 19.3885 37.7992L19.3905 39.1811C19.3909 39.5001 19.4093 39.7817 19.4454 40.026C19.4848 40.2703 19.5421 40.4821 19.6172 40.6614C19.6924 40.8375 19.7837 40.9827 19.8913 41.0971C19.9989 41.2115 20.1227 41.2966 20.2628 41.3525C20.4061 41.4051 20.564 41.4318 20.7365 41.4325C20.9579 41.4334 21.1515 41.3918 21.3174 41.3078C21.4833 41.2239 21.6214 41.0926 21.7318 40.914C21.8455 40.7321 21.9298 40.4997 21.9847 40.2167C22.0396 39.9305 22.0668 39.5888 22.0662 39.1917ZM23.0162 67.9648L23.0178 69.0487C23.0186 69.6314 22.9673 70.1228 22.8637 70.5227C22.7601 70.9227 22.6108 71.2444 22.4159 71.4877C22.2209 71.7311 21.9852 71.9076 21.7086 72.0172C21.4353 72.1235 21.1262 72.176 20.7811 72.1746C20.5077 72.1735 20.2554 72.1384 20.0241 72.0691C19.7929 71.9998 19.5844 71.8899 19.3987 71.7395C19.2162 71.5857 19.0596 71.3866 18.9291 71.1419C18.7985 70.8972 18.6988 70.6006 18.6299 70.252C18.5611 69.9035 18.5263 69.4964 18.5256 69.0309L18.524 67.947C18.5232 67.3643 18.5746 66.8762 18.6782 66.4827C18.785 66.0893 18.9359 65.7741 19.1309 65.5373C19.3258 65.2972 19.56 65.1256 19.8333 65.0225C20.1098 64.9194 20.419 64.8686 20.7608 64.8699C21.0374 64.871 21.2914 64.9062 21.5226 64.9755C21.7571 65.0415 21.9656 65.1481 22.1481 65.2953C22.3306 65.4393 22.4855 65.6319 22.6128 65.8733C22.7433 66.1115 22.843 66.4032 22.9119 66.7485C22.9808 67.0939 23.0155 67.4993 23.0162 67.9648ZM22.1098 69.1916L22.1078 67.8098C22.1073 67.4908 22.0874 67.2108 22.048 66.9697C22.0118 66.7254 21.9578 66.5169 21.8859 66.3441C21.8141 66.1713 21.7227 66.0309 21.6119 65.9231C21.5043 65.8152 21.3789 65.7366 21.2356 65.6872C21.0955 65.6346 20.9376 65.6079 20.7618 65.6072C20.547 65.6064 20.3566 65.6463 20.1907 65.727C20.0248 65.8045 19.885 65.9293 19.7713 66.1013C19.6609 66.2734 19.5766 66.4993 19.5184 66.779C19.4602 67.0587 19.4314 67.3988 19.432 67.7992L19.434 69.181C19.4345 69.5 19.4528 69.7817 19.489 70.026C19.5284 70.2703 19.5856 70.4821 19.6608 70.6614C19.7359 70.8375 19.8273 70.9827 19.9348 71.0971C20.0424 71.2114 20.1663 71.2965 20.3063 71.3524C20.4496 71.4051 20.6075 71.4318 20.78 71.4324C21.0014 71.4333 21.195 71.3918 21.3609 71.3078C21.5268 71.2238 21.665 71.0925 21.7754 70.9139C21.889 70.7321 21.9733 70.4997 22.0283 70.2167C22.0832 69.9305 22.1104 69.5888 22.1098 69.1916Z" fill="#667085"/>
<path d="M39.5254 245L70.0104 209.661L100.806 141.875L131.171 151.537L161.751 148.973L192.115 77.1737L248.163 60.5" stroke="#FF1826"/>
<path d="M70.9746 211.096C72.049 211.096 72.92 210.2 72.92 209.096C72.92 207.991 72.049 207.096 70.9746 207.096C69.9003 207.096 69.0293 207.991 69.0293 209.096C69.0293 210.2 69.9003 211.096 70.9746 211.096Z" fill="white" stroke="#FF1826"/>
<path d="M39.5254 247C40.5998 247 41.4708 246.105 41.4708 245C41.4708 243.895 40.5998 243 39.5254 243C38.451 243 37.5801 243.895 37.5801 245C37.5801 246.105 38.451 247 39.5254 247Z" fill="white" stroke="#FF1826"/>
<path d="M101.613 143.57C102.688 143.57 103.559 142.675 103.559 141.57C103.559 140.466 102.688 139.57 101.613 139.57C100.539 139.57 99.668 140.466 99.668 141.57C99.668 142.675 100.539 143.57 101.613 143.57Z" fill="white" stroke="#FF1826"/>
<path d="M131.959 152.973C133.033 152.973 133.904 152.077 133.904 150.973C133.904 149.868 133.033 148.973 131.959 148.973C130.885 148.973 130.014 149.868 130.014 150.973C130.014 152.077 130.885 152.973 131.959 152.973Z" fill="white" stroke="#FF1826"/>
<path d="M162.662 150.408C163.737 150.408 164.607 149.513 164.607 148.408C164.607 147.304 163.737 146.408 162.662 146.408C161.588 146.408 160.717 147.304 160.717 148.408C160.717 149.513 161.588 150.408 162.662 150.408Z" fill="white" stroke="#FF1826"/>
<path d="M193.199 78.6094C194.274 78.6094 195.145 77.7139 195.145 76.6094C195.145 75.5048 194.274 74.6094 193.199 74.6094C192.125 74.6094 191.254 75.5048 191.254 76.6094C191.254 77.7139 192.125 78.6094 193.199 78.6094Z" fill="white" stroke="#FF1826"/>
<path d="M246.703 48C247.778 48 248.648 47.1046 248.648 46C248.648 44.8954 247.778 44 246.703 44C245.629 44 244.758 44.8954 244.758 46C244.758 47.1046 245.629 48 246.703 48Z" fill="white" stroke="#FF1826"/>
<path d="M258.9 42.3125L259.631 42.3125L261.494 46.9492L263.354 42.3125L264.088 42.3125L261.775 48L261.205 48L258.9 42.3125ZM258.662 42.3125L259.307 42.3125L259.412 45.7813L259.412 48L258.662 48L258.662 42.3125ZM263.678 42.3125L264.322 42.3125L264.322 48L263.572 48L263.572 45.7813L263.678 42.3125ZM267.674 45.3398L266.232 45.3398L266.225 44.7344L267.533 44.7344C267.749 44.7344 267.938 44.6979 268.1 44.625C268.261 44.5521 268.386 44.4479 268.475 44.3125C268.566 44.1745 268.611 44.0104 268.611 43.8203C268.611 43.612 268.571 43.4427 268.49 43.3125C268.412 43.1797 268.291 43.0833 268.127 43.0234C267.965 42.9609 267.76 42.9297 267.51 42.9297L266.4 42.9297L266.4 48L265.646 48L265.646 42.3125L267.51 42.3125C267.801 42.3125 268.062 42.3424 268.291 42.4023C268.52 42.4596 268.714 42.5508 268.873 42.6758C269.035 42.7982 269.157 42.9544 269.24 43.1445C269.324 43.3346 269.365 43.5625 269.365 43.8281C269.365 44.0625 269.305 44.2747 269.186 44.4648C269.066 44.6523 268.899 44.806 268.686 44.9258C268.475 45.0456 268.227 45.1224 267.943 45.1563L267.674 45.3398ZM267.639 48L265.936 48L266.361 47.3867L267.639 47.3867C267.878 47.3867 268.081 47.3451 268.248 47.2617C268.417 47.1784 268.546 47.0612 268.635 46.9102C268.723 46.7565 268.768 46.5755 268.768 46.3672C268.768 46.1563 268.73 45.974 268.654 45.8203C268.579 45.6667 268.46 45.5482 268.299 45.4648C268.137 45.3815 267.929 45.3398 267.674 45.3398L266.6 45.3398L266.607 44.7344L268.076 44.7344L268.236 44.9531C268.51 44.9766 268.742 45.0547 268.932 45.1875C269.122 45.3177 269.266 45.4844 269.365 45.6875C269.467 45.8906 269.518 46.1146 269.518 46.3594C269.518 46.7135 269.439 47.013 269.283 47.2578C269.13 47.5 268.912 47.6849 268.631 47.8125C268.35 47.9375 268.019 48 267.639 48ZM272.658 45.3398L271.217 45.3398L271.209 44.7344L272.518 44.7344C272.734 44.7344 272.923 44.6979 273.084 44.625C273.245 44.5521 273.37 44.4479 273.459 44.3125C273.55 44.1745 273.596 44.0104 273.596 43.8203C273.596 43.612 273.555 43.4427 273.475 43.3125C273.396 43.1797 273.275 43.0833 273.111 43.0234C272.95 42.9609 272.744 42.9297 272.494 42.9297L271.385 42.9297L271.385 48L270.631 48L270.631 42.3125L272.494 42.3125C272.786 42.3125 273.046 42.3424 273.275 42.4023C273.505 42.4596 273.699 42.5508 273.857 42.6758C274.019 42.7982 274.141 42.9544 274.225 43.1445C274.308 43.3346 274.35 43.5625 274.35 43.8281C274.35 44.0625 274.29 44.2747 274.17 44.4648C274.05 44.6523 273.883 44.806 273.67 44.9258C273.459 45.0456 273.212 45.1224 272.928 45.1563L272.658 45.3398ZM272.623 48L270.92 48L271.346 47.3867L272.623 47.3867C272.863 47.3867 273.066 47.3451 273.232 47.2617C273.402 47.1784 273.531 47.0612 273.619 46.9102C273.708 46.7565 273.752 46.5755 273.752 46.3672C273.752 46.1563 273.714 45.974 273.639 45.8203C273.563 45.6667 273.445 45.5482 273.283 45.4648C273.122 45.3815 272.913 45.3398 272.658 45.3398L271.584 45.3398L271.592 44.7344L273.061 44.7344L273.221 44.9531C273.494 44.9766 273.726 45.0547 273.916 45.1875C274.106 45.3177 274.251 45.4844 274.35 45.6875C274.451 45.8906 274.502 46.1146 274.502 46.3594C274.502 46.7135 274.424 47.013 274.268 47.2578C274.114 47.5 273.896 47.6849 273.615 47.8125C273.334 47.9375 273.003 48 272.623 48Z" fill="#F000FF"/>
<g filter="url(#filter0_dd_1002_4885)">
<rect x="181" y="39" width="75" height="203" rx="4" fill="white"/>
<path d="M200.797 59.4095L200.526 59.4107L200.429 59.303C200.776 58.8309 200.966 58.2292 200.965 57.6077C200.964 57.0932 200.832 56.5908 200.586 56.164C200.34 55.7373 199.991 55.4053 199.584 55.2102C199.176 55.015 198.727 54.9654 198.295 55.0677C197.863 55.1699 197.466 55.4194 197.155 55.7845C196.843 56.1497 196.632 56.6142 196.547 57.1192C196.462 57.6242 196.507 58.1471 196.677 58.6217C196.846 59.0963 197.133 59.5014 197.5 59.7857C197.868 60.07 198.299 60.2207 198.74 60.2188C199.292 60.2164 199.8 59.9781 200.19 59.5842L200.283 59.6959L200.283 60.012L202.002 62.0018L202.512 61.4033L200.797 59.4095V59.4095ZM198.738 59.4183C197.884 59.422 197.193 58.6205 197.191 57.6239C197.189 56.6274 197.877 55.8199 198.731 55.8163C199.586 55.8126 200.277 56.6141 200.279 57.6107C200.281 58.6072 199.593 59.4147 198.738 59.4183Z" fill="#D0D5DD"/>
<rect x="193.5" y="51.5" width="50" height="14" rx="1.5" stroke="#D0D5DD"/>
<path d="M196.457 81.354L194.104 87.8335L193.142 87.8335L195.852 80.7241L196.472 80.7241L196.457 81.354ZM198.43 87.8335L196.071 81.354L196.057 80.7241L196.677 80.7241L199.396 87.8335L198.43 87.8335ZM198.308 85.2017L198.308 85.9731L194.313 85.9731L194.313 85.2017L198.308 85.2017ZM204.582 85.5728L205.52 85.5728C205.471 86.022 205.342 86.424 205.134 86.7788C204.925 87.1336 204.631 87.4152 204.25 87.6235C203.869 87.8286 203.394 87.9312 202.824 87.9312C202.408 87.9312 202.028 87.853 201.687 87.6968C201.348 87.5405 201.057 87.3192 200.813 87.0327C200.568 86.743 200.38 86.3963 200.246 85.9927C200.116 85.5858 200.051 85.1333 200.051 84.6353L200.051 83.9272C200.051 83.4292 200.116 82.9784 200.246 82.5747C200.38 82.1678 200.57 81.8195 200.817 81.5298C201.068 81.2401 201.369 81.0171 201.721 80.8608C202.072 80.7046 202.468 80.6265 202.907 80.6265C203.444 80.6265 203.898 80.7274 204.27 80.9292C204.641 81.131 204.929 81.411 205.134 81.769C205.342 82.1239 205.471 82.5356 205.52 83.0044L204.582 83.0044C204.536 82.6724 204.452 82.3875 204.328 82.1499C204.204 81.909 204.029 81.7235 203.801 81.5933C203.573 81.4631 203.275 81.3979 202.907 81.3979C202.591 81.3979 202.313 81.4582 202.072 81.5786C201.835 81.6991 201.634 81.87 201.472 82.0913C201.312 82.3127 201.192 82.578 201.11 82.8872C201.029 83.1965 200.988 83.5399 200.988 83.9175L200.988 84.6353C200.988 84.9836 201.024 85.3107 201.096 85.6167C201.171 85.9227 201.283 86.1912 201.433 86.4224C201.582 86.6535 201.773 86.8358 202.004 86.9692C202.235 87.0994 202.508 87.1646 202.824 87.1646C203.225 87.1646 203.544 87.1011 203.781 86.9741C204.019 86.8472 204.198 86.6649 204.318 86.4272C204.442 86.1896 204.53 85.9048 204.582 85.5728ZM209.338 84.5083L207.536 84.5083L207.526 83.7515L209.162 83.7515C209.432 83.7515 209.668 83.7059 209.87 83.6147C210.072 83.5236 210.228 83.3934 210.339 83.2241C210.453 83.0516 210.51 82.8465 210.51 82.6089C210.51 82.3485 210.459 82.1369 210.358 81.9741C210.261 81.8081 210.109 81.6877 209.904 81.6128C209.702 81.5347 209.445 81.4956 209.133 81.4956L207.746 81.4956L207.746 87.8335L206.804 87.8335L206.804 80.7241L209.133 80.7241C209.497 80.7241 209.823 80.7616 210.109 80.8364C210.396 80.908 210.638 81.022 210.837 81.1782C211.039 81.3312 211.192 81.5265 211.296 81.7642C211.4 82.0018 211.452 82.2866 211.452 82.6187C211.452 82.9116 211.377 83.1769 211.228 83.4146C211.078 83.6489 210.869 83.841 210.603 83.9907C210.339 84.1405 210.03 84.2365 209.675 84.2788L209.338 84.5083ZM209.294 87.8335L207.165 87.8335L207.697 87.0669L209.294 87.0669C209.593 87.0669 209.847 87.0148 210.056 86.9106C210.267 86.8065 210.428 86.66 210.539 86.4712C210.65 86.2791 210.705 86.0529 210.705 85.7925C210.705 85.5288 210.658 85.3009 210.563 85.1089C210.469 84.9168 210.321 84.7687 210.119 84.6646C209.917 84.5604 209.657 84.5083 209.338 84.5083L207.995 84.5083L208.005 83.7515L209.841 83.7515L210.041 84.0249C210.383 84.0542 210.673 84.1519 210.91 84.3179C211.148 84.4806 211.328 84.689 211.452 84.9429C211.579 85.1968 211.643 85.4767 211.643 85.7827C211.643 86.2254 211.545 86.5998 211.35 86.9058C211.158 87.2085 210.886 87.4396 210.534 87.5991C210.183 87.7554 209.769 87.8335 209.294 87.8335Z" fill="#344054"/>
<rect x="230" y="76.8335" width="14" height="14" rx="2" fill="#00BF71"/>
<path d="M235.854 85.8436L240.641 81.0566C240.79 80.9079 240.979 80.8335 241.209 80.8335C241.439 80.8335 241.628 80.9079 241.777 81.0566C241.926 81.2054 242 81.3947 242 81.6246C242 81.8545 241.926 82.0438 241.777 82.1925L236.422 87.5475C236.26 87.7098 236.07 87.7909 235.854 87.7909C235.638 87.7909 235.448 87.7098 235.286 87.5475L232.223 83.9978C232.074 83.849 232 83.6597 232 83.4298C232 83.2 232.074 83.0106 232.223 82.8619C232.372 82.7131 232.561 82.6388 232.791 82.6388C233.021 82.6388 233.21 82.7131 233.359 82.8619L235.854 85.8436Z" fill="white"/>
<path d="M196.452 105.557L196.452 112.667L195.524 112.667L195.524 105.557L196.452 105.557ZM198.737 105.557L198.737 106.329L193.244 106.329L193.244 105.557L198.737 105.557ZM203.947 110.406L204.885 110.406C204.836 110.855 204.707 111.257 204.499 111.612C204.291 111.967 203.996 112.248 203.615 112.457C203.234 112.662 202.759 112.764 202.189 112.764C201.773 112.764 201.394 112.686 201.052 112.53C200.713 112.374 200.422 112.152 200.178 111.866C199.934 111.576 199.745 111.229 199.611 110.826C199.481 110.419 199.416 109.966 199.416 109.468L199.416 108.76C199.416 108.262 199.481 107.811 199.611 107.408C199.745 107.001 199.935 106.653 200.183 106.363C200.433 106.073 200.734 105.85 201.086 105.694C201.438 105.538 201.833 105.459 202.272 105.459C202.81 105.459 203.264 105.56 203.635 105.762C204.006 105.964 204.294 106.244 204.499 106.602C204.707 106.957 204.836 107.369 204.885 107.837L203.947 107.837C203.902 107.505 203.817 107.221 203.693 106.983C203.57 106.742 203.394 106.556 203.166 106.426C202.938 106.296 202.64 106.231 202.272 106.231C201.957 106.231 201.678 106.291 201.438 106.412C201.2 106.532 201 106.703 200.837 106.924C200.677 107.146 200.557 107.411 200.476 107.72C200.394 108.029 200.354 108.373 200.354 108.75L200.354 109.468C200.354 109.817 200.389 110.144 200.461 110.45C200.536 110.756 200.648 111.024 200.798 111.255C200.948 111.486 201.138 111.669 201.369 111.802C201.6 111.932 201.874 111.998 202.189 111.998C202.59 111.998 202.909 111.934 203.146 111.807C203.384 111.68 203.563 111.498 203.684 111.26C203.807 111.023 203.895 110.738 203.947 110.406ZM208.703 109.341L206.901 109.341L206.892 108.584L208.527 108.584C208.798 108.584 209.034 108.539 209.235 108.448C209.437 108.357 209.593 108.226 209.704 108.057C209.818 107.885 209.875 107.68 209.875 107.442C209.875 107.181 209.825 106.97 209.724 106.807C209.626 106.641 209.475 106.521 209.27 106.446C209.068 106.368 208.811 106.329 208.498 106.329L207.111 106.329L207.111 112.667L206.169 112.667L206.169 105.557L208.498 105.557C208.863 105.557 209.188 105.595 209.475 105.669C209.761 105.741 210.004 105.855 210.202 106.011C210.404 106.164 210.557 106.36 210.661 106.597C210.765 106.835 210.817 107.12 210.817 107.452C210.817 107.745 210.743 108.01 210.593 108.248C210.443 108.482 210.235 108.674 209.968 108.824C209.704 108.973 209.395 109.069 209.04 109.112L208.703 109.341ZM208.659 112.667L206.53 112.667L207.063 111.9L208.659 111.9C208.959 111.9 209.213 111.848 209.421 111.744C209.632 111.639 209.794 111.493 209.904 111.304C210.015 111.112 210.07 110.886 210.07 110.625C210.07 110.362 210.023 110.134 209.929 109.942C209.834 109.75 209.686 109.602 209.484 109.498C209.283 109.393 209.022 109.341 208.703 109.341L207.36 109.341L207.37 108.584L209.206 108.584L209.406 108.858C209.748 108.887 210.038 108.985 210.275 109.151C210.513 109.314 210.694 109.522 210.817 109.776C210.944 110.03 211.008 110.31 211.008 110.616C211.008 111.058 210.91 111.433 210.715 111.739C210.523 112.042 210.251 112.273 209.899 112.432C209.548 112.588 209.134 112.667 208.659 112.667Z" fill="#344054"/>
<rect x="230.5" y="102.167" width="13" height="13" rx="1.5" stroke="#D0D5DD"/>
<path d="M196.12 136.421L198.215 130.391L199.235 130.391L196.604 137.5L195.876 137.5L196.12 136.421ZM194.162 130.391L196.237 136.421L196.496 137.5L195.769 137.5L193.142 130.391L194.162 130.391ZM204.416 135.239L205.354 135.239C205.305 135.688 205.176 136.09 204.968 136.445C204.759 136.8 204.465 137.082 204.084 137.29C203.703 137.495 203.228 137.598 202.658 137.598C202.242 137.598 201.862 137.52 201.521 137.363C201.182 137.207 200.891 136.986 200.646 136.699C200.402 136.41 200.214 136.063 200.08 135.659C199.95 135.252 199.885 134.8 199.885 134.302L199.885 133.594C199.885 133.096 199.95 132.645 200.08 132.241C200.214 131.834 200.404 131.486 200.651 131.196C200.902 130.907 201.203 130.684 201.555 130.527C201.906 130.371 202.302 130.293 202.741 130.293C203.278 130.293 203.732 130.394 204.104 130.596C204.475 130.798 204.763 131.077 204.968 131.436C205.176 131.79 205.305 132.202 205.354 132.671L204.416 132.671C204.37 132.339 204.286 132.054 204.162 131.816C204.038 131.576 203.863 131.39 203.635 131.26C203.407 131.13 203.109 131.064 202.741 131.064C202.425 131.064 202.147 131.125 201.906 131.245C201.669 131.366 201.468 131.536 201.306 131.758C201.146 131.979 201.026 132.244 200.944 132.554C200.863 132.863 200.822 133.206 200.822 133.584L200.822 134.302C200.822 134.65 200.858 134.977 200.93 135.283C201.005 135.589 201.117 135.858 201.267 136.089C201.416 136.32 201.607 136.502 201.838 136.636C202.069 136.766 202.342 136.831 202.658 136.831C203.059 136.831 203.378 136.768 203.615 136.641C203.853 136.514 204.032 136.331 204.152 136.094C204.276 135.856 204.364 135.571 204.416 135.239ZM209.172 134.175L207.37 134.175L207.36 133.418L208.996 133.418C209.266 133.418 209.502 133.372 209.704 133.281C209.906 133.19 210.062 133.06 210.173 132.891C210.287 132.718 210.344 132.513 210.344 132.275C210.344 132.015 210.293 131.803 210.192 131.641C210.095 131.475 209.943 131.354 209.738 131.279C209.536 131.201 209.279 131.162 208.967 131.162L207.58 131.162L207.58 137.5L206.638 137.5L206.638 130.391L208.967 130.391C209.331 130.391 209.657 130.428 209.943 130.503C210.23 130.575 210.472 130.688 210.671 130.845C210.873 130.998 211.026 131.193 211.13 131.431C211.234 131.668 211.286 131.953 211.286 132.285C211.286 132.578 211.211 132.843 211.062 133.081C210.912 133.315 210.703 133.507 210.437 133.657C210.173 133.807 209.864 133.903 209.509 133.945L209.172 134.175ZM209.128 137.5L206.999 137.5L207.531 136.733L209.128 136.733C209.427 136.733 209.681 136.681 209.89 136.577C210.101 136.473 210.262 136.326 210.373 136.138C210.484 135.946 210.539 135.719 210.539 135.459C210.539 135.195 210.492 134.967 210.397 134.775C210.303 134.583 210.155 134.435 209.953 134.331C209.751 134.227 209.491 134.175 209.172 134.175L207.829 134.175L207.839 133.418L209.675 133.418L209.875 133.691C210.217 133.721 210.507 133.818 210.744 133.984C210.982 134.147 211.162 134.355 211.286 134.609C211.413 134.863 211.477 135.143 211.477 135.449C211.477 135.892 211.379 136.266 211.184 136.572C210.992 136.875 210.72 137.106 210.368 137.266C210.017 137.422 209.603 137.5 209.128 137.5Z" fill="#344054"/>
<rect x="230" y="126.5" width="14" height="14" rx="2" fill="#00BF71"/>
<path d="M235.854 135.51L240.641 130.723C240.79 130.574 240.979 130.5 241.209 130.5C241.439 130.5 241.628 130.574 241.777 130.723C241.926 130.872 242 131.061 242 131.291C242 131.521 241.926 131.71 241.777 131.859L236.422 137.214C236.26 137.376 236.07 137.457 235.854 137.457C235.638 137.457 235.448 137.376 235.286 137.214L232.223 133.664C232.074 133.516 232 133.326 232 133.096C232 132.866 232.074 132.677 232.223 132.528C232.372 132.38 232.561 132.305 232.791 132.305C233.021 132.305 233.21 132.38 233.359 132.528L235.854 135.51Z" fill="white"/>
<path d="M194.123 155.224L195.036 155.224L197.365 161.02L199.689 155.224L200.607 155.224L197.717 162.333L197.004 162.333L194.123 155.224ZM193.825 155.224L194.631 155.224L194.763 159.56L194.763 162.333L193.825 162.333L193.825 155.224ZM200.095 155.224L200.9 155.224L200.9 162.333L199.963 162.333L199.963 159.56L200.095 155.224ZM205.09 159.008L203.288 159.008L203.278 158.251L204.914 158.251C205.184 158.251 205.42 158.206 205.622 158.115C205.824 158.024 205.98 157.893 206.091 157.724C206.205 157.552 206.262 157.347 206.262 157.109C206.262 156.848 206.211 156.637 206.11 156.474C206.013 156.308 205.861 156.188 205.656 156.113C205.454 156.035 205.197 155.996 204.885 155.996L203.498 155.996L203.498 162.333L202.556 162.333L202.556 155.224L204.885 155.224C205.249 155.224 205.575 155.262 205.861 155.336C206.148 155.408 206.39 155.522 206.589 155.678C206.791 155.831 206.944 156.027 207.048 156.264C207.152 156.502 207.204 156.787 207.204 157.119C207.204 157.412 207.129 157.677 206.979 157.915C206.83 158.149 206.621 158.341 206.354 158.491C206.091 158.64 205.782 158.736 205.427 158.779L205.09 159.008ZM205.046 162.333L202.917 162.333L203.449 161.567L205.046 161.567C205.345 161.567 205.599 161.515 205.808 161.411C206.019 161.306 206.18 161.16 206.291 160.971C206.402 160.779 206.457 160.553 206.457 160.292C206.457 160.029 206.41 159.801 206.315 159.609C206.221 159.417 206.073 159.269 205.871 159.165C205.669 159.06 205.409 159.008 205.09 159.008L203.747 159.008L203.757 158.251L205.593 158.251L205.793 158.525C206.135 158.554 206.424 158.652 206.662 158.818C206.9 158.981 207.08 159.189 207.204 159.443C207.331 159.697 207.395 159.977 207.395 160.283C207.395 160.725 207.297 161.1 207.102 161.406C206.91 161.708 206.638 161.94 206.286 162.099C205.935 162.255 205.521 162.333 205.046 162.333ZM211.32 159.008L209.519 159.008L209.509 158.251L211.145 158.251C211.415 158.251 211.651 158.206 211.853 158.115C212.054 158.024 212.211 157.893 212.321 157.724C212.435 157.552 212.492 157.347 212.492 157.109C212.492 156.848 212.442 156.637 212.341 156.474C212.243 156.308 212.092 156.188 211.887 156.113C211.685 156.035 211.428 155.996 211.115 155.996L209.729 155.996L209.729 162.333L208.786 162.333L208.786 155.224L211.115 155.224C211.48 155.224 211.805 155.262 212.092 155.336C212.378 155.408 212.621 155.522 212.819 155.678C213.021 155.831 213.174 156.027 213.278 156.264C213.382 156.502 213.435 156.787 213.435 157.119C213.435 157.412 213.36 157.677 213.21 157.915C213.06 158.149 212.852 158.341 212.585 158.491C212.321 158.64 212.012 158.736 211.657 158.779L211.32 159.008ZM211.276 162.333L209.147 162.333L209.68 161.567L211.276 161.567C211.576 161.567 211.83 161.515 212.038 161.411C212.25 161.306 212.411 161.16 212.521 160.971C212.632 160.779 212.688 160.553 212.688 160.292C212.688 160.029 212.64 159.801 212.546 159.609C212.451 159.417 212.303 159.269 212.102 159.165C211.9 159.06 211.639 159.008 211.32 159.008L209.978 159.008L209.987 158.251L211.823 158.251L212.023 158.525C212.365 158.554 212.655 158.652 212.893 158.818C213.13 158.981 213.311 159.189 213.435 159.443C213.562 159.697 213.625 159.977 213.625 160.283C213.625 160.725 213.527 161.1 213.332 161.406C213.14 161.708 212.868 161.94 212.517 162.099C212.165 162.255 211.752 162.333 211.276 162.333Z" fill="#344054"/>
<rect x="230.5" y="151.833" width="13" height="13" rx="1.5" stroke="#D0D5DD"/>
<path d="M196.12 186.087L198.215 180.057L199.235 180.057L196.604 187.167L195.876 187.167L196.12 186.087ZM194.162 180.057L196.237 186.087L196.496 187.167L195.769 187.167L193.142 180.057L194.162 180.057ZM202.814 184.378L200.915 184.378L200.915 183.612L202.814 183.612C203.182 183.612 203.48 183.553 203.708 183.436C203.936 183.319 204.102 183.156 204.206 182.948C204.313 182.739 204.367 182.502 204.367 182.235C204.367 181.991 204.313 181.761 204.206 181.546C204.102 181.332 203.936 181.159 203.708 181.029C203.48 180.895 203.182 180.829 202.814 180.829L201.135 180.829L201.135 187.167L200.192 187.167L200.192 180.057L202.814 180.057C203.352 180.057 203.806 180.15 204.177 180.335C204.548 180.521 204.829 180.778 205.021 181.107C205.214 181.432 205.31 181.805 205.31 182.225C205.31 182.681 205.214 183.07 205.021 183.392C204.829 183.714 204.548 183.96 204.177 184.129C203.806 184.295 203.352 184.378 202.814 184.378ZM209.123 184.378L207.224 184.378L207.224 183.612L209.123 183.612C209.491 183.612 209.789 183.553 210.017 183.436C210.244 183.319 210.41 183.156 210.515 182.948C210.622 182.739 210.676 182.502 210.676 182.235C210.676 181.991 210.622 181.761 210.515 181.546C210.41 181.332 210.244 181.159 210.017 181.029C209.789 180.895 209.491 180.829 209.123 180.829L207.443 180.829L207.443 187.167L206.501 187.167L206.501 180.057L209.123 180.057C209.66 180.057 210.114 180.15 210.485 180.335C210.856 180.521 211.138 180.778 211.33 181.107C211.522 181.432 211.618 181.805 211.618 182.225C211.618 182.681 211.522 183.07 211.33 183.392C211.138 183.714 210.856 183.96 210.485 184.129C210.114 184.295 209.66 184.378 209.123 184.378Z" fill="#344054"/>
<rect x="230.5" y="176.667" width="13" height="13" rx="1.5" stroke="#D0D5DD"/>
<path d="M194.123 204.891L195.036 204.891L197.365 210.687L199.689 204.891L200.607 204.891L197.717 212L197.004 212L194.123 204.891ZM193.825 204.891L194.631 204.891L194.763 209.227L194.763 212L193.825 212L193.825 204.891ZM200.095 204.891L200.9 204.891L200.9 212L199.963 212L199.963 209.227L200.095 204.891ZM205.09 208.675L203.288 208.675L203.278 207.918L204.914 207.918C205.184 207.918 205.42 207.872 205.622 207.781C205.824 207.69 205.98 207.56 206.091 207.391C206.205 207.218 206.262 207.013 206.262 206.775C206.262 206.515 206.211 206.303 206.11 206.141C206.013 205.975 205.861 205.854 205.656 205.779C205.454 205.701 205.197 205.662 204.885 205.662L203.498 205.662L203.498 212L202.556 212L202.556 204.891L204.885 204.891C205.249 204.891 205.575 204.928 205.861 205.003C206.148 205.075 206.39 205.188 206.589 205.345C206.791 205.498 206.944 205.693 207.048 205.931C207.152 206.168 207.204 206.453 207.204 206.785C207.204 207.078 207.129 207.343 206.979 207.581C206.83 207.815 206.621 208.007 206.354 208.157C206.091 208.307 205.782 208.403 205.427 208.445L205.09 208.675ZM205.046 212L202.917 212L203.449 211.233L205.046 211.233C205.345 211.233 205.599 211.181 205.808 211.077C206.019 210.973 206.18 210.826 206.291 210.638C206.402 210.446 206.457 210.219 206.457 209.959C206.457 209.695 206.41 209.467 206.315 209.275C206.221 209.083 206.073 208.935 205.871 208.831C205.669 208.727 205.409 208.675 205.09 208.675L203.747 208.675L203.757 207.918L205.593 207.918L205.793 208.191C206.135 208.221 206.424 208.318 206.662 208.484C206.9 208.647 207.08 208.855 207.204 209.109C207.331 209.363 207.395 209.643 207.395 209.949C207.395 210.392 207.297 210.766 207.102 211.072C206.91 211.375 206.638 211.606 206.286 211.766C205.935 211.922 205.521 212 205.046 212ZM211.32 208.675L209.519 208.675L209.509 207.918L211.145 207.918C211.415 207.918 211.651 207.872 211.853 207.781C212.054 207.69 212.211 207.56 212.321 207.391C212.435 207.218 212.492 207.013 212.492 206.775C212.492 206.515 212.442 206.303 212.341 206.141C212.243 205.975 212.092 205.854 211.887 205.779C211.685 205.701 211.428 205.662 211.115 205.662L209.729 205.662L209.729 212L208.786 212L208.786 204.891L211.115 204.891C211.48 204.891 211.805 204.928 212.092 205.003C212.378 205.075 212.621 205.188 212.819 205.345C213.021 205.498 213.174 205.693 213.278 205.931C213.382 206.168 213.435 206.453 213.435 206.785C213.435 207.078 213.36 207.343 213.21 207.581C213.06 207.815 212.852 208.007 212.585 208.157C212.321 208.307 212.012 208.403 211.657 208.445L211.32 208.675ZM211.276 212L209.147 212L209.68 211.233L211.276 211.233C211.576 211.233 211.83 211.181 212.038 211.077C212.25 210.973 212.411 210.826 212.521 210.638C212.632 210.446 212.688 210.219 212.688 209.959C212.688 209.695 212.64 209.467 212.546 209.275C212.451 209.083 212.303 208.935 212.102 208.831C211.9 208.727 211.639 208.675 211.32 208.675L209.978 208.675L209.987 207.918L211.823 207.918L212.023 208.191C212.365 208.221 212.655 208.318 212.893 208.484C213.13 208.647 213.311 208.855 213.435 209.109C213.562 209.363 213.625 209.643 213.625 209.949C213.625 210.392 213.527 210.766 213.332 211.072C213.14 211.375 212.868 211.606 212.517 211.766C212.165 211.922 211.752 212 211.276 212Z" fill="#344054"/>
<rect x="230" y="201" width="14" height="14" rx="2" fill="#00BF71"/>
<path d="M235.854 210.01L240.641 205.223C240.79 205.074 240.979 205 241.209 205C241.439 205 241.628 205.074 241.777 205.223C241.926 205.372 242 205.561 242 205.791C242 206.021 241.926 206.21 241.777 206.359L236.422 211.714C236.26 211.876 236.07 211.957 235.854 211.957C235.638 211.957 235.448 211.876 235.286 211.714L232.223 208.164C232.074 208.016 232 207.826 232 207.596C232 207.366 232.074 207.177 232.223 207.028C232.372 206.88 232.561 206.805 232.791 206.805C233.021 206.805 233.21 206.88 233.359 207.028L235.854 210.01Z" fill="white"/>
<line x1="206.25" y1="55.0005" x2="206.25" y2="62.0005" stroke="#D0D5DD" stroke-width="0.5"/>
<path d="M213.468 228.189L218.114 232.848C218.169 232.903 218.229 232.942 218.293 232.965C218.358 232.988 218.427 233 218.501 233C218.574 233 218.643 232.988 218.708 232.965C218.772 232.942 218.832 232.903 218.888 232.848L223.547 228.189C223.676 228.06 223.74 227.899 223.74 227.705C223.74 227.512 223.671 227.346 223.533 227.207C223.395 227.069 223.233 227 223.049 227C222.865 227 222.703 227.069 222.565 227.207L218.501 231.272L214.436 227.207C214.307 227.078 214.148 227.014 213.959 227.014C213.77 227.014 213.607 227.083 213.468 227.221C213.33 227.359 213.261 227.521 213.261 227.705C213.261 227.889 213.33 228.051 213.468 228.189Z" fill="#667085"/>
</g>
<path d="M240.991 14C240.75 14 240.549 13.916 240.386 13.748C240.223 13.5806 240.142 13.3729 240.142 13.125L240.142 7.875L235.218 1.4C235.006 1.10833 234.974 0.802084 235.123 0.48125C235.272 0.160417 235.53 0 235.897 0L247.782 -7.88795e-10C248.15 -8.11551e-10 248.408 0.160417 248.557 0.48125C248.705 0.802084 248.673 1.10833 248.461 1.4L243.538 7.875L243.538 13.125C243.538 13.3729 243.456 13.5806 243.294 13.748C243.131 13.916 242.929 14 242.689 14L240.991 14Z" fill="#D0D5DD"/>
<defs>
<filter id="filter0_dd_1002_4885" x="175" y="37" width="87" height="215" filterUnits="userSpaceOnUse" color-interpolation-filters="sRGB">
<feFlood flood-opacity="0" result="BackgroundImageFix"/>
<feColorMatrix in="SourceAlpha" type="matrix" values="0 0 0 0 0 0 0 0 0 0 0 0 0 0 0 0 0 0 127 0" result="hardAlpha"/>
<feMorphology radius="2" operator="erode" in="SourceAlpha" result="effect1_dropShadow_1002_4885"/>
<feOffset dy="2"/>
<feGaussianBlur stdDeviation="2"/>
<feColorMatrix type="matrix" values="0 0 0 0 0.0627451 0 0 0 0 0.0941176 0 0 0 0 0.156863 0 0 0 0.06 0"/>
<feBlend mode="normal" in2="BackgroundImageFix" result="effect1_dropShadow_1002_4885"/>
<feColorMatrix in="SourceAlpha" type="matrix" values="0 0 0 0 0 0 0 0 0 0 0 0 0 0 0 0 0 0 127 0" result="hardAlpha"/>
<feMorphology radius="2" operator="erode" in="SourceAlpha" result="effect2_dropShadow_1002_4885"/>
<feOffset dy="4"/>
<feGaussianBlur stdDeviation="4"/>
<feColorMatrix type="matrix" values="0 0 0 0 0.0627451 0 0 0 0 0.0941176 0 0 0 0 0.156863 0 0 0 0.1 0"/>
<feBlend mode="normal" in2="effect1_dropShadow_1002_4885" result="effect2_dropShadow_1002_4885"/>
<feBlend mode="normal" in="SourceGraphic" in2="effect2_dropShadow_1002_4885" result="shape"/>
</filter>
</defs>
</svg>
