<svg width="270" height="247" viewBox="0 50 270 247" fill="none" xmlns="http://www.w3.org/2000/svg">
<path d="M30.4648 187.768L246.304 188.227" stroke="black" stroke-width="1.67687"/>
<path d="M30.3439 194.812L30.332 187.082" stroke="black" stroke-width="1.67687"/>
<path d="M27.7513 214.809L27.7524 215.552L23.0991 215.532L23.0982 214.883L25.4237 212.3C25.7097 211.982 25.9307 211.713 26.0867 211.492C26.2458 211.268 26.3563 211.068 26.4179 210.893C26.4827 210.714 26.515 210.532 26.5148 210.346C26.5144 210.112 26.4653 209.9 26.3674 209.711C26.2727 209.519 26.1326 209.365 25.9469 209.25C25.7612 209.136 25.5365 209.078 25.2728 209.077C24.9571 209.075 24.6935 209.136 24.482 209.259C24.2739 209.378 24.1179 209.547 24.014 209.765C23.9101 209.982 23.8584 210.233 23.8588 210.516L22.9555 210.512C22.9549 210.112 23.0423 209.746 23.2176 209.415C23.393 209.083 23.653 208.821 23.9978 208.627C24.3426 208.43 24.7672 208.332 25.2718 208.334C25.721 208.336 26.1052 208.418 26.4245 208.578C26.7437 208.736 26.9881 208.958 27.1578 209.246C27.3307 209.529 27.4174 209.862 27.4179 210.243C27.4182 210.451 27.3827 210.662 27.3114 210.877C27.2433 211.088 27.1476 211.299 27.0242 211.511C26.904 211.722 26.7627 211.929 26.6002 212.134C26.441 212.338 26.2704 212.539 26.0884 212.737L24.1869 214.795L27.7513 214.809ZM33.1764 211.453L33.1778 212.537C33.1786 213.12 33.1272 213.611 33.0236 214.011C32.92 214.411 32.7707 214.733 32.5757 214.976C32.3808 215.219 32.145 215.396 31.8685 215.505C31.5952 215.612 31.286 215.664 30.9409 215.663C30.6675 215.661 30.4152 215.626 30.184 215.557C29.9528 215.488 29.7443 215.378 29.5585 215.227C29.376 215.073 29.2195 214.874 29.089 214.629C28.9584 214.385 28.8587 214.088 28.7899 213.74C28.7211 213.391 28.6863 212.984 28.6857 212.518L28.6842 211.434C28.6834 210.852 28.7348 210.364 28.8384 209.97C28.9453 209.577 29.0963 209.262 29.2912 209.025C29.4862 208.785 29.7204 208.613 29.9937 208.51C30.2702 208.407 30.5794 208.356 30.9212 208.358C31.1979 208.359 31.4518 208.394 31.683 208.463C31.9175 208.53 32.126 208.636 32.3085 208.783C32.4909 208.927 32.6458 209.12 32.7731 209.362C32.9036 209.6 33.0033 209.891 33.0722 210.237C33.141 210.582 33.1757 210.988 33.1764 211.453ZM32.2699 212.68L32.268 211.298C32.2675 210.979 32.2476 210.699 32.2082 210.458C32.1721 210.214 32.1181 210.005 32.0462 209.832C31.9744 209.659 31.883 209.519 31.7722 209.411C31.6646 209.303 31.5392 209.225 31.3959 209.175C31.2559 209.123 31.098 209.096 30.9222 209.095C30.7073 209.094 30.517 209.134 30.3511 209.215C30.1852 209.292 30.0454 209.417 29.9317 209.589C29.8212 209.761 29.7369 209.987 29.6787 210.267C29.6205 210.546 29.5916 210.886 29.5922 211.287L29.5941 212.669C29.5945 212.988 29.6128 213.269 29.649 213.514C29.6883 213.758 29.7456 213.97 29.8207 214.149C29.8958 214.325 29.9872 214.47 30.0948 214.585C30.2023 214.699 30.3261 214.784 30.4662 214.84C30.6095 214.893 30.7674 214.92 30.9399 214.92C31.1613 214.921 31.3549 214.88 31.5208 214.796C31.6867 214.712 31.8249 214.581 31.9353 214.402C32.049 214.22 32.1333 213.988 32.1882 213.705C32.2432 213.419 32.2704 213.077 32.2699 212.68ZM37.3031 208.443L37.3128 215.591L36.4095 215.587L36.4013 209.567L34.5809 210.224L34.5798 209.408L37.1615 208.442L37.3031 208.443ZM33.2175 241.453L33.2189 242.537C33.2197 243.12 33.1683 243.611 33.0647 244.011C32.9611 244.411 32.8118 244.733 32.6168 244.976C32.4219 245.219 32.1861 245.396 31.9096 245.505C31.6363 245.611 31.3271 245.664 30.982 245.662C30.7086 245.661 30.4563 245.626 30.2251 245.557C29.9939 245.487 29.7854 245.378 29.5996 245.227C29.4171 245.073 29.2606 244.874 29.1301 244.629C28.9995 244.385 28.8998 244.088 28.831 243.739C28.7622 243.391 28.7274 242.984 28.7268 242.518L28.7253 241.434C28.7245 240.852 28.7759 240.364 28.8795 239.97C28.9864 239.577 29.1374 239.262 29.3323 239.025C29.5273 238.785 29.7615 238.613 30.0348 238.51C30.3113 238.407 30.6205 238.356 30.9623 238.358C31.239 238.359 31.4929 238.394 31.7241 238.463C31.9586 238.53 32.1671 238.636 32.3496 238.783C32.532 238.927 32.6869 239.12 32.8142 239.361C32.9447 239.6 33.0444 239.891 33.1133 240.237C33.1821 240.582 33.2168 240.987 33.2175 241.453ZM32.311 242.68L32.3091 241.298C32.3086 240.979 32.2887 240.699 32.2493 240.458C32.2132 240.213 32.1592 240.005 32.0873 239.832C32.0155 239.659 31.9241 239.519 31.8133 239.411C31.7057 239.303 31.5803 239.225 31.437 239.175C31.297 239.122 31.1391 239.096 30.9633 239.095C30.7484 239.094 30.5581 239.134 30.3922 239.215C30.2263 239.292 30.0865 239.417 29.9728 239.589C29.8623 239.761 29.778 239.987 29.7198 240.267C29.6616 240.546 29.6327 240.886 29.6333 241.287L29.6352 242.669C29.6356 242.988 29.6539 243.269 29.6901 243.514C29.7294 243.758 29.7867 243.97 29.8618 244.149C29.9369 244.325 30.0283 244.47 30.1359 244.585C30.2434 244.699 30.3672 244.784 30.5073 244.84C30.6506 244.893 30.8085 244.92 30.981 244.92C31.2024 244.921 31.396 244.88 31.5619 244.796C31.7278 244.712 31.866 244.581 31.9764 244.402C32.0901 244.22 32.1744 243.988 32.2293 243.705C32.2843 243.419 32.3115 243.077 32.311 242.68Z" fill="#667085"/>
<path d="M66.3146 194.941L66.3027 187.211" stroke="black" stroke-width="1.67687"/>
<path d="M63.722 214.938L63.7231 215.681L59.0698 215.661L59.0689 215.012L61.3944 212.429C61.6804 212.111 61.9014 211.842 62.0574 211.621C62.2166 211.397 62.327 211.197 62.3886 211.022C62.4534 210.843 62.4857 210.661 62.4855 210.475C62.4851 210.241 62.436 210.029 62.3381 209.84C62.2435 209.647 62.1033 209.494 61.9176 209.379C61.7319 209.264 61.5072 209.207 61.2435 209.205C60.9278 209.204 60.6642 209.265 60.4528 209.388C60.2446 209.507 60.0886 209.676 59.9847 209.894C59.8808 210.111 59.8291 210.362 59.8295 210.645L58.9262 210.641C58.9256 210.241 59.013 209.875 59.1883 209.544C59.3637 209.212 59.6237 208.95 59.9685 208.756C60.3133 208.559 60.7379 208.461 61.2425 208.463C61.6917 208.465 62.0759 208.547 62.3952 208.707C62.7144 208.865 62.9588 209.087 63.1285 209.374C63.3014 209.658 63.3881 209.991 63.3886 210.372C63.3889 210.58 63.3534 210.791 63.2821 211.006C63.214 211.217 63.1183 211.428 62.9949 211.639C62.8747 211.851 62.7334 212.058 62.5709 212.263C62.4117 212.467 62.2411 212.668 62.0591 212.866L60.1576 214.924L63.722 214.938ZM69.1471 211.582L69.1486 212.666C69.1493 213.249 69.0979 213.74 68.9943 214.14C68.8907 214.54 68.7414 214.861 68.5464 215.105C68.3515 215.348 68.1157 215.525 67.8392 215.634C67.5659 215.74 67.2567 215.793 66.9116 215.791C66.6382 215.79 66.3859 215.755 66.1547 215.686C65.9235 215.616 65.715 215.507 65.5292 215.356C65.3467 215.202 65.1902 215.003 65.0597 214.758C64.9291 214.514 64.8294 214.217 64.7606 213.868C64.6918 213.52 64.657 213.113 64.6564 212.647L64.6549 211.563C64.6541 210.981 64.7055 210.493 64.8091 210.099C64.916 209.706 65.067 209.391 65.2619 209.154C65.4569 208.914 65.6911 208.742 65.9644 208.639C66.2409 208.536 66.5501 208.485 66.8919 208.487C67.1686 208.488 67.4225 208.523 67.6537 208.592C67.8882 208.658 68.0967 208.765 68.2792 208.912C68.4616 209.056 68.6165 209.249 68.7438 209.49C68.8743 209.729 68.974 210.02 69.0429 210.366C69.1117 210.711 69.1464 211.116 69.1471 211.582ZM68.2406 212.809L68.2387 211.427C68.2382 211.108 68.2183 210.828 68.1789 210.587C68.1428 210.342 68.0888 210.134 68.0169 209.961C67.9451 209.788 67.8537 209.648 67.7429 209.54C67.6353 209.432 67.5099 209.354 67.3666 209.304C67.2266 209.251 67.0687 209.225 66.8929 209.224C66.678 209.223 66.4877 209.263 66.3218 209.344C66.1559 209.421 66.0161 209.546 65.9024 209.718C65.7919 209.89 65.7076 210.116 65.6494 210.396C65.5912 210.675 65.5623 211.015 65.5629 211.416L65.5648 212.798C65.5652 213.117 65.5835 213.398 65.6197 213.643C65.6591 213.887 65.7163 214.099 65.7914 214.278C65.8665 214.454 65.9579 214.599 66.0655 214.714C66.173 214.828 66.2968 214.913 66.4369 214.969C66.5802 215.022 66.7381 215.049 66.9106 215.049C67.132 215.05 67.3256 215.009 67.4915 214.925C67.6574 214.841 67.7956 214.709 67.906 214.531C68.0197 214.349 68.104 214.117 68.159 213.834C68.2139 213.547 68.2411 213.206 68.2406 212.809ZM73.2738 208.572L73.2835 215.72L72.3802 215.716L72.372 209.696L70.5516 210.352L70.5505 209.537L73.1322 208.571L73.2738 208.572ZM69.3881 244.962L69.3891 245.704L64.7358 245.685L64.7349 245.035L67.0605 242.452C67.3465 242.134 67.5675 241.865 67.7234 241.644C67.8826 241.42 67.993 241.221 68.0546 241.045C68.1195 240.866 68.1518 240.684 68.1515 240.499C68.1512 240.264 68.1021 240.052 68.0042 239.863C67.9095 239.671 67.7693 239.517 67.5836 239.402C67.3979 239.288 67.1732 239.23 66.9096 239.229C66.5938 239.227 66.3302 239.288 66.1188 239.411C65.9107 239.531 65.7546 239.699 65.6508 239.917C65.5469 240.135 65.4952 240.385 65.4956 240.668L64.5922 240.664C64.5917 240.264 64.6791 239.898 64.8544 239.567C65.0297 239.236 65.2898 238.973 65.6346 238.779C65.9793 238.582 66.404 238.484 66.9086 238.487C67.3578 238.488 67.742 238.57 68.0612 238.731C68.3804 238.888 68.6249 239.111 68.7946 239.398C68.9675 239.682 69.0542 240.014 69.0547 240.395C69.055 240.603 69.0195 240.815 68.9482 241.029C68.8801 241.24 68.7843 241.452 68.6609 241.663C68.5408 241.874 68.3995 242.082 68.237 242.286C68.0778 242.49 67.9071 242.691 67.7251 242.889L65.8237 244.947L69.3881 244.962Z" fill="#667085"/>
<path d="M102.285 195.07L102.273 187.34" stroke="black" stroke-width="1.67687"/>
<path d="M99.6927 215.067L99.6938 215.809L95.0405 215.79L95.0396 215.141L97.3651 212.558C97.6511 212.24 97.8721 211.971 98.0281 211.75C98.1873 211.526 98.2977 211.326 98.3593 211.151C98.4241 210.972 98.4564 210.79 98.4562 210.604C98.4559 210.37 98.4067 210.158 98.3088 209.969C98.2142 209.776 98.074 209.623 97.8883 209.508C97.7026 209.393 97.4779 209.335 97.2142 209.334C96.8985 209.333 96.6349 209.394 96.4235 209.517C96.2153 209.636 96.0593 209.805 95.9554 210.023C95.8515 210.24 95.7998 210.491 95.8002 210.774L94.8969 210.77C94.8963 210.37 94.9837 210.004 95.159 209.673C95.3344 209.341 95.5944 209.079 95.9392 208.885C96.284 208.688 96.7086 208.59 97.2132 208.592C97.6624 208.594 98.0466 208.675 98.3659 208.836C98.6851 208.994 98.9295 209.216 99.0992 209.503C99.2721 209.787 99.3588 210.12 99.3593 210.5C99.3596 210.709 99.3241 210.92 99.2528 211.135C99.1847 211.346 99.089 211.557 98.9656 211.768C98.8454 211.979 98.7041 212.187 98.5416 212.392C98.3824 212.596 98.2118 212.797 98.0298 212.995L96.1283 215.053L99.6927 215.067ZM105.118 211.711L105.119 212.795C105.12 213.378 105.069 213.869 104.965 214.269C104.861 214.669 104.712 214.99 104.517 215.234C104.322 215.477 104.086 215.653 103.81 215.763C103.537 215.869 103.227 215.922 102.882 215.92C102.609 215.919 102.357 215.884 102.125 215.815C101.894 215.745 101.686 215.635 101.5 215.485C101.317 215.331 101.161 215.132 101.03 214.887C100.9 214.643 100.8 214.346 100.731 213.997C100.662 213.649 100.628 213.242 100.627 212.776L100.626 211.692C100.625 211.11 100.676 210.622 100.78 210.228C100.887 209.835 101.038 209.519 101.233 209.283C101.428 209.043 101.662 208.871 101.935 208.768C102.212 208.665 102.521 208.614 102.863 208.616C103.139 208.617 103.393 208.652 103.624 208.721C103.859 208.787 104.067 208.894 104.25 209.041C104.432 209.185 104.587 209.378 104.715 209.619C104.845 209.858 104.945 210.149 105.014 210.495C105.082 210.84 105.117 211.245 105.118 211.711ZM104.211 212.938L104.209 211.556C104.209 211.237 104.189 210.957 104.15 210.716C104.113 210.471 104.059 210.263 103.988 210.09C103.916 209.917 103.824 209.777 103.714 209.669C103.606 209.561 103.481 209.482 103.337 209.433C103.197 209.38 103.039 209.354 102.864 209.353C102.649 209.352 102.458 209.392 102.292 209.473C102.127 209.55 101.987 209.675 101.873 209.847C101.763 210.019 101.678 210.245 101.62 210.525C101.562 210.804 101.533 211.144 101.534 211.545L101.535 212.926C101.536 213.245 101.554 213.527 101.59 213.771C101.63 214.016 101.687 214.228 101.762 214.407C101.837 214.583 101.929 214.728 102.036 214.843C102.144 214.957 102.268 215.042 102.408 215.098C102.551 215.151 102.709 215.177 102.881 215.178C103.103 215.179 103.296 215.138 103.462 215.054C103.628 214.97 103.766 214.838 103.877 214.66C103.99 214.478 104.075 214.246 104.13 213.963C104.185 213.676 104.212 213.335 104.211 212.938ZM109.244 208.701L109.254 215.849L108.351 215.845L108.343 209.825L106.522 210.481L106.521 209.666L109.103 208.7L109.244 208.701ZM105.503 243.441L105.504 244.183L100.367 244.162L100.367 243.629L103.543 238.716L104.281 238.719L103.492 240.141L101.392 243.424L105.503 243.441ZM104.505 238.72L104.515 245.829L103.612 245.825L103.602 238.716L104.505 238.72Z" fill="#667085"/>
<path d="M138.256 195.198L138.244 187.468" stroke="black" stroke-width="1.67687"/>
<path d="M135.663 215.195L135.664 215.937L131.011 215.918L131.01 215.269L133.336 212.686C133.622 212.368 133.843 212.098 133.999 211.878C134.158 211.654 134.268 211.454 134.33 211.279C134.395 211.1 134.427 210.918 134.427 210.732C134.427 210.498 134.377 210.286 134.28 210.097C134.185 209.904 134.045 209.751 133.859 209.636C133.673 209.521 133.449 209.463 133.185 209.462C132.869 209.461 132.606 209.522 132.394 209.645C132.186 209.764 132.03 209.933 131.926 210.15C131.822 210.368 131.77 210.619 131.771 210.902L130.868 210.898C130.867 210.498 130.954 210.132 131.13 209.8C131.305 209.469 131.565 209.207 131.91 209.013C132.255 208.816 132.679 208.718 133.184 208.72C133.633 208.722 134.017 208.803 134.337 208.964C134.656 209.122 134.9 209.344 135.07 209.631C135.243 209.915 135.33 210.248 135.33 210.628C135.33 210.837 135.295 211.048 135.223 211.263C135.155 211.474 135.06 211.685 134.936 211.896C134.816 212.107 134.675 212.315 134.512 212.52C134.353 212.724 134.182 212.925 134 213.123L132.099 215.18L135.663 215.195ZM141.088 211.839L141.09 212.923C141.091 213.505 141.039 213.997 140.936 214.397C140.832 214.797 140.683 215.118 140.488 215.362C140.293 215.605 140.057 215.781 139.781 215.891C139.507 215.997 139.198 216.05 138.853 216.048C138.58 216.047 138.327 216.012 138.096 215.943C137.865 215.873 137.656 215.763 137.471 215.613C137.288 215.459 137.132 215.26 137.001 215.015C136.871 214.771 136.771 214.474 136.702 214.125C136.633 213.777 136.598 213.37 136.598 212.904L136.596 211.82C136.596 211.238 136.647 210.749 136.751 210.356C136.857 209.963 137.008 209.647 137.203 209.411C137.398 209.171 137.632 208.999 137.906 208.896C138.182 208.793 138.491 208.742 138.833 208.744C139.11 208.745 139.364 208.78 139.595 208.849C139.83 208.915 140.038 209.022 140.221 209.169C140.403 209.313 140.558 209.506 140.685 209.747C140.816 209.985 140.915 210.277 140.984 210.623C141.053 210.968 141.088 211.373 141.088 211.839ZM140.182 213.065L140.18 211.684C140.18 211.365 140.16 211.085 140.12 210.844C140.084 210.599 140.03 210.391 139.958 210.218C139.886 210.045 139.795 209.905 139.684 209.797C139.577 209.689 139.451 209.61 139.308 209.561C139.168 209.508 139.01 209.482 138.834 209.481C138.619 209.48 138.429 209.52 138.263 209.601C138.097 209.678 137.957 209.803 137.844 209.975C137.733 210.147 137.649 210.373 137.591 210.652C137.533 210.932 137.504 211.272 137.504 211.673L137.506 213.054C137.507 213.373 137.525 213.655 137.561 213.899C137.6 214.144 137.658 214.355 137.733 214.535C137.808 214.711 137.899 214.856 138.007 214.971C138.114 215.085 138.238 215.17 138.378 215.226C138.522 215.279 138.68 215.305 138.852 215.306C139.073 215.307 139.267 215.265 139.433 215.182C139.599 215.098 139.737 214.966 139.847 214.788C139.961 214.606 140.045 214.374 140.1 214.091C140.155 213.804 140.183 213.463 140.182 213.065ZM145.215 208.829L145.225 215.977L144.322 215.973L144.313 209.953L142.493 210.609L142.492 209.794L145.074 208.828L145.215 208.829ZM140.129 238.837L140.208 238.837L140.209 239.603L140.13 239.603C139.652 239.601 139.252 239.678 138.93 239.833C138.608 239.984 138.352 240.19 138.164 240.45C137.975 240.706 137.839 240.995 137.755 241.317C137.674 241.639 137.634 241.966 137.634 242.298L137.636 243.343C137.636 243.659 137.674 243.939 137.749 244.183C137.824 244.424 137.927 244.628 138.057 244.795C138.188 244.961 138.335 245.087 138.497 245.173C138.664 245.258 138.836 245.301 139.015 245.302C139.224 245.302 139.409 245.264 139.572 245.187C139.734 245.106 139.871 244.994 139.981 244.852C140.095 244.706 140.181 244.533 140.239 244.335C140.298 244.137 140.327 243.919 140.326 243.681C140.326 243.47 140.3 243.266 140.247 243.07C140.195 242.872 140.115 242.696 140.008 242.542C139.9 242.385 139.765 242.263 139.602 242.174C139.442 242.082 139.252 242.036 139.03 242.035C138.78 242.034 138.545 242.095 138.327 242.218C138.113 242.337 137.936 242.496 137.796 242.694C137.659 242.889 137.582 243.102 137.562 243.333L137.084 243.326C137.129 242.961 137.213 242.651 137.336 242.394C137.463 242.134 137.619 241.923 137.804 241.761C137.993 241.596 138.203 241.477 138.434 241.403C138.668 241.326 138.915 241.288 139.176 241.289C139.531 241.29 139.837 241.358 140.094 241.493C140.351 241.627 140.563 241.807 140.729 242.032C140.896 242.254 141.018 242.506 141.097 242.786C141.178 243.063 141.22 243.348 141.22 243.641C141.22 243.976 141.174 244.29 141.08 244.583C140.986 244.875 140.844 245.132 140.656 245.352C140.471 245.573 140.241 245.745 139.968 245.867C139.695 245.99 139.378 246.05 139.016 246.049C138.632 246.047 138.297 245.968 138.01 245.81C137.723 245.649 137.485 245.437 137.296 245.172C137.107 244.908 136.965 244.614 136.87 244.292C136.775 243.969 136.728 243.642 136.727 243.31L136.727 242.885C136.726 242.384 136.776 241.892 136.876 241.411C136.976 240.93 137.15 240.494 137.397 240.105C137.647 239.715 137.993 239.406 138.436 239.176C138.878 238.947 139.443 238.834 140.129 238.837Z" fill="#667085"/>
<path d="M174.229 195.327L174.217 187.597" stroke="black" stroke-width="1.67687"/>
<path d="M171.636 215.324L171.637 216.066L166.984 216.047L166.983 215.398L169.308 212.814C169.594 212.497 169.815 212.227 169.971 212.007C170.131 211.783 170.241 211.583 170.303 211.407C170.367 211.229 170.4 211.047 170.4 210.861C170.399 210.627 170.35 210.415 170.252 210.226C170.158 210.033 170.017 209.88 169.832 209.765C169.646 209.65 169.421 209.592 169.158 209.591C168.842 209.59 168.578 209.651 168.367 209.774C168.159 209.893 168.003 210.062 167.899 210.279C167.795 210.497 167.743 210.747 167.744 211.031L166.84 211.027C166.84 210.627 166.927 210.261 167.102 209.929C167.278 209.598 167.538 209.336 167.883 209.142C168.227 208.944 168.652 208.847 169.157 208.849C169.606 208.851 169.99 208.932 170.309 209.093C170.628 209.251 170.873 209.473 171.043 209.76C171.215 210.044 171.302 210.376 171.303 210.757C171.303 210.966 171.267 211.177 171.196 211.392C171.128 211.603 171.032 211.814 170.909 212.025C170.789 212.236 170.647 212.444 170.485 212.648C170.326 212.853 170.155 213.054 169.973 213.252L168.072 215.309L171.636 215.324ZM177.061 211.968L177.063 213.052C177.063 213.634 177.012 214.126 176.908 214.526C176.805 214.926 176.655 215.247 176.46 215.491C176.266 215.734 176.03 215.91 175.753 216.02C175.48 216.126 175.171 216.179 174.826 216.177C174.552 216.176 174.3 216.141 174.069 216.071C173.838 216.002 173.629 215.892 173.443 215.742C173.261 215.588 173.104 215.389 172.974 215.144C172.843 214.899 172.743 214.603 172.675 214.254C172.606 213.906 172.571 213.499 172.57 213.033L172.569 211.949C172.568 211.366 172.62 210.878 172.723 210.485C172.83 210.091 172.981 209.776 173.176 209.54C173.371 209.299 173.605 209.128 173.878 209.025C174.155 208.922 174.464 208.871 174.806 208.872C175.083 208.874 175.337 208.909 175.568 208.978C175.802 209.044 176.011 209.151 176.193 209.298C176.376 209.442 176.531 209.635 176.658 209.876C176.788 210.114 176.888 210.406 176.957 210.751C177.026 211.097 177.06 211.502 177.061 211.968ZM176.155 213.194L176.153 211.813C176.152 211.494 176.132 211.214 176.093 210.972C176.057 210.728 176.003 210.52 175.931 210.347C175.859 210.174 175.768 210.034 175.657 209.926C175.549 209.818 175.424 209.739 175.281 209.69C175.141 209.637 174.983 209.61 174.807 209.61C174.592 209.609 174.402 209.649 174.236 209.729C174.07 209.807 173.93 209.932 173.816 210.104C173.706 210.276 173.622 210.502 173.563 210.781C173.505 211.061 173.476 211.401 173.477 211.801L173.479 213.183C173.479 213.502 173.498 213.784 173.534 214.028C173.573 214.273 173.63 214.484 173.705 214.664C173.781 214.84 173.872 214.985 173.98 215.099C174.087 215.214 174.211 215.299 174.351 215.355C174.494 215.408 174.652 215.434 174.825 215.435C175.046 215.436 175.24 215.394 175.406 215.31C175.571 215.226 175.71 215.095 175.82 214.917C175.934 214.735 176.018 214.502 176.073 214.219C176.128 213.933 176.155 213.592 176.155 213.194ZM181.188 208.957L181.198 216.106L180.294 216.102L180.286 210.082L178.466 210.738L178.465 209.923L181.046 208.957L181.188 208.957ZM177.125 244.165C177.125 244.598 177.025 244.965 176.824 245.267C176.625 245.566 176.356 245.793 176.014 245.947C175.676 246.102 175.293 246.179 174.867 246.177C174.44 246.175 174.056 246.096 173.714 245.938C173.372 245.78 173.102 245.551 172.903 245.251C172.704 244.947 172.604 244.579 172.603 244.146C172.603 243.863 172.656 243.604 172.763 243.371C172.874 243.133 173.028 242.927 173.226 242.752C173.428 242.577 173.665 242.443 173.939 242.35C174.215 242.254 174.52 242.206 174.852 242.207C175.288 242.209 175.677 242.295 176.019 242.466C176.361 242.634 176.63 242.864 176.826 243.158C177.025 243.452 177.124 243.787 177.125 244.165ZM176.217 244.142C176.216 243.878 176.159 243.645 176.045 243.443C175.93 243.237 175.771 243.077 175.566 242.962C175.36 242.847 175.123 242.79 174.852 242.788C174.576 242.787 174.337 242.843 174.135 242.956C173.936 243.069 173.782 243.228 173.672 243.433C173.561 243.634 173.506 243.867 173.507 244.13C173.507 244.404 173.561 244.638 173.669 244.834C173.78 245.027 173.936 245.176 174.138 245.281C174.343 245.382 174.586 245.434 174.866 245.435C175.146 245.436 175.387 245.387 175.588 245.287C175.79 245.183 175.944 245.036 176.051 244.844C176.162 244.649 176.217 244.415 176.217 244.142ZM176.954 240.829C176.955 241.174 176.864 241.485 176.682 241.761C176.5 242.037 176.251 242.254 175.936 242.412C175.62 242.57 175.262 242.648 174.862 242.647C174.455 242.645 174.092 242.564 173.773 242.403C173.457 242.242 173.209 242.023 173.03 241.746C172.85 241.468 172.76 241.157 172.76 240.812C172.759 240.399 172.848 240.047 173.027 239.758C173.209 239.469 173.458 239.249 173.773 239.097C174.089 238.946 174.448 238.871 174.852 238.872C175.259 238.874 175.62 238.952 175.936 239.106C176.252 239.261 176.5 239.483 176.679 239.774C176.862 240.064 176.954 240.416 176.954 240.829ZM176.051 240.84C176.051 240.603 176 240.392 175.899 240.21C175.798 240.027 175.657 239.883 175.478 239.778C175.299 239.67 175.091 239.616 174.853 239.615C174.615 239.614 174.407 239.663 174.228 239.763C174.053 239.86 173.914 240 173.814 240.182C173.716 240.363 173.668 240.58 173.668 240.83C173.668 241.075 173.718 241.288 173.815 241.471C173.917 241.653 174.057 241.796 174.236 241.897C174.415 241.999 174.624 242.05 174.861 242.051C175.099 242.052 175.305 242.003 175.481 241.902C175.66 241.802 175.8 241.661 175.9 241.479C176.001 241.297 176.051 241.084 176.051 240.84Z" fill="#667085"/>
<path d="M210.195 195.456L210.184 187.727" stroke="black" stroke-width="1.67687"/>
<path d="M207.691 215.453L207.692 216.195L203.039 216.176L203.038 215.527L205.363 212.943C205.649 212.626 205.87 212.356 206.026 212.136C206.185 211.912 206.296 211.712 206.357 211.536C206.422 211.358 206.454 211.175 206.454 210.99C206.454 210.756 206.405 210.544 206.307 210.355C206.212 210.162 206.072 210.009 205.886 209.894C205.701 209.779 205.476 209.721 205.212 209.72C204.897 209.719 204.633 209.78 204.422 209.902C204.213 210.022 204.057 210.191 203.953 210.408C203.85 210.626 203.798 210.876 203.798 211.16L202.895 211.156C202.894 210.755 202.982 210.39 203.157 210.058C203.332 209.727 203.592 209.464 203.937 209.271C204.282 209.073 204.707 208.976 205.211 208.978C205.66 208.98 206.045 209.061 206.364 209.222C206.683 209.38 206.928 209.602 207.097 209.889C207.27 210.173 207.357 210.505 207.357 210.886C207.358 211.095 207.322 211.306 207.251 211.521C207.183 211.732 207.087 211.943 206.964 212.154C206.843 212.365 206.702 212.573 206.54 212.777C206.38 212.982 206.21 213.183 206.028 213.381L204.126 215.438L207.691 215.453ZM213.116 212.097L213.117 213.181C213.118 213.763 213.067 214.255 212.963 214.655C212.859 215.054 212.71 215.376 212.515 215.619C212.32 215.863 212.084 216.039 211.808 216.149C211.535 216.255 211.225 216.307 210.88 216.306C210.607 216.305 210.355 216.27 210.123 216.2C209.892 216.131 209.684 216.021 209.498 215.871C209.315 215.717 209.159 215.518 209.028 215.273C208.898 215.028 208.798 214.732 208.729 214.383C208.661 214.035 208.626 213.627 208.625 213.162L208.624 212.078C208.623 211.495 208.674 211.007 208.778 210.614C208.885 210.22 209.036 209.905 209.231 209.668C209.426 209.428 209.66 209.257 209.933 209.154C210.21 209.051 210.519 209 210.861 209.001C211.137 209.002 211.391 209.038 211.622 209.107C211.857 209.173 212.065 209.28 212.248 209.427C212.43 209.571 212.585 209.764 212.713 210.005C212.843 210.243 212.943 210.535 213.012 210.88C213.08 211.226 213.115 211.631 213.116 212.097ZM212.209 213.323L212.207 211.941C212.207 211.622 212.187 211.342 212.148 211.101C212.112 210.857 212.058 210.649 211.986 210.476C211.914 210.303 211.822 210.163 211.712 210.055C211.604 209.947 211.479 209.868 211.335 209.819C211.195 209.766 211.037 209.739 210.862 209.739C210.647 209.738 210.456 209.778 210.291 209.858C210.125 209.936 209.985 210.061 209.871 210.233C209.761 210.405 209.676 210.631 209.618 210.91C209.56 211.19 209.531 211.53 209.532 211.93L209.534 213.312C209.534 213.631 209.552 213.913 209.588 214.157C209.628 214.401 209.685 214.613 209.76 214.793C209.835 214.969 209.927 215.114 210.034 215.228C210.142 215.343 210.266 215.428 210.406 215.484C210.549 215.536 210.707 215.563 210.879 215.564C211.101 215.565 211.294 215.523 211.46 215.439C211.626 215.355 211.764 215.224 211.875 215.046C211.988 214.864 212.073 214.631 212.128 214.348C212.183 214.062 212.21 213.72 212.209 213.323ZM218.941 215.5L218.942 216.242L214.288 216.223L214.288 215.573L216.613 212.99C216.899 212.672 217.12 212.403 217.276 212.182C217.435 211.958 217.546 211.758 217.607 211.583C217.672 211.404 217.704 211.222 217.704 211.036C217.704 210.802 217.655 210.59 217.557 210.401C217.462 210.209 217.322 210.055 217.136 209.94C216.951 209.826 216.726 209.768 216.462 209.767C216.146 209.765 215.883 209.826 215.671 209.949C215.463 210.069 215.307 210.237 215.203 210.455C215.1 210.673 215.048 210.923 215.048 211.206L214.145 211.202C214.144 210.802 214.232 210.436 214.407 210.105C214.582 209.774 214.842 209.511 215.187 209.317C215.532 209.12 215.957 209.022 216.461 209.025C216.91 209.026 217.295 209.108 217.614 209.269C217.933 209.426 218.178 209.648 218.347 209.936C218.52 210.22 218.607 210.552 218.607 210.933C218.608 211.141 218.572 211.353 218.501 211.567C218.433 211.778 218.337 211.99 218.214 212.201C218.093 212.412 217.952 212.62 217.79 212.824C217.63 213.028 217.46 213.229 217.278 213.427L215.376 215.485L218.941 215.5ZM213.157 242.097L213.158 243.181C213.159 243.763 213.108 244.255 213.004 244.654C212.901 245.054 212.751 245.376 212.556 245.619C212.361 245.863 212.126 246.039 211.849 246.149C211.576 246.255 211.267 246.307 210.921 246.306C210.648 246.305 210.396 246.27 210.165 246.2C209.933 246.131 209.725 246.021 209.539 245.871C209.357 245.717 209.2 245.518 209.07 245.273C208.939 245.028 208.839 244.732 208.77 244.383C208.702 244.034 208.667 243.627 208.666 243.162L208.665 242.078C208.664 241.495 208.715 241.007 208.819 240.614C208.926 240.22 209.077 239.905 209.272 239.668C209.467 239.428 209.701 239.257 209.974 239.154C210.251 239.051 210.56 239 210.902 239.001C211.178 239.002 211.432 239.038 211.664 239.107C211.898 239.173 212.107 239.28 212.289 239.427C212.471 239.571 212.626 239.764 212.754 240.005C212.884 240.243 212.984 240.535 213.053 240.88C213.122 241.226 213.156 241.631 213.157 242.097ZM212.25 243.323L212.249 241.941C212.248 241.622 212.228 241.342 212.189 241.101C212.153 240.857 212.099 240.648 212.027 240.476C211.955 240.303 211.864 240.162 211.753 240.055C211.645 239.947 211.52 239.868 211.376 239.819C211.236 239.766 211.079 239.739 210.903 239.739C210.688 239.738 210.498 239.778 210.332 239.858C210.166 239.936 210.026 240.06 209.912 240.233C209.802 240.405 209.717 240.63 209.659 240.91C209.601 241.19 209.572 241.53 209.573 241.93L209.575 243.312C209.575 243.631 209.593 243.913 209.63 244.157C209.669 244.401 209.726 244.613 209.801 244.793C209.876 244.969 209.968 245.114 210.075 245.228C210.183 245.343 210.307 245.428 210.447 245.484C210.59 245.536 210.748 245.563 210.92 245.564C211.142 245.565 211.335 245.523 211.501 245.439C211.667 245.355 211.805 245.224 211.916 245.045C212.03 244.864 212.114 244.631 212.169 244.348C212.224 244.062 212.251 243.72 212.25 243.323Z" fill="#667085"/>
<path d="M246.166 195.584L246.154 187.854" stroke="black" stroke-width="1.67687"/>
<path d="M243.661 215.581L243.663 216.323L239.009 216.304L239.008 215.654L241.334 213.071C241.62 212.753 241.841 212.484 241.997 212.264C242.156 212.04 242.266 211.84 242.328 211.664C242.393 211.486 242.425 211.303 242.425 211.118C242.425 210.883 242.375 210.672 242.278 210.482C242.183 210.29 242.043 210.136 241.857 210.022C241.671 209.907 241.447 209.849 241.183 209.848C240.867 209.847 240.604 209.908 240.392 210.03C240.184 210.15 240.028 210.319 239.924 210.536C239.82 210.754 239.769 211.004 239.769 211.288L238.866 211.284C238.865 210.883 238.952 210.518 239.128 210.186C239.303 209.855 239.563 209.592 239.908 209.398C240.253 209.201 240.677 209.104 241.182 209.106C241.631 209.108 242.015 209.189 242.335 209.35C242.654 209.507 242.898 209.73 243.068 210.017C243.241 210.301 243.328 210.633 243.328 211.014C243.328 211.222 243.293 211.434 243.222 211.648C243.153 211.86 243.058 212.071 242.934 212.282C242.814 212.493 242.673 212.701 242.51 212.905C242.351 213.11 242.181 213.311 241.999 213.509L240.097 215.566L243.661 215.581ZM249.087 212.225L249.088 213.309C249.089 213.891 249.037 214.383 248.934 214.782C248.83 215.182 248.681 215.504 248.486 215.747C248.291 215.991 248.055 216.167 247.779 216.277C247.505 216.383 247.196 216.435 246.851 216.434C246.578 216.433 246.325 216.398 246.094 216.328C245.863 216.259 245.654 216.149 245.469 215.999C245.286 215.845 245.13 215.646 244.999 215.401C244.869 215.156 244.769 214.86 244.7 214.511C244.631 214.162 244.596 213.755 244.596 213.29L244.594 212.206C244.594 211.623 244.645 211.135 244.749 210.742C244.855 210.348 245.006 210.033 245.201 209.796C245.396 209.556 245.631 209.385 245.904 209.282C246.18 209.179 246.49 209.128 246.831 209.129C247.108 209.13 247.362 209.166 247.593 209.235C247.828 209.301 248.036 209.408 248.219 209.555C248.401 209.699 248.556 209.892 248.683 210.133C248.814 210.371 248.913 210.663 248.982 211.008C249.051 211.354 249.086 211.759 249.087 212.225ZM248.18 213.451L248.178 212.069C248.178 211.75 248.158 211.47 248.118 211.229C248.082 210.985 248.028 210.776 247.956 210.604C247.885 210.431 247.793 210.29 247.682 210.183C247.575 210.075 247.449 209.996 247.306 209.947C247.166 209.894 247.008 209.867 246.832 209.867C246.617 209.866 246.427 209.906 246.261 209.986C246.095 210.064 245.956 210.188 245.842 210.361C245.731 210.533 245.647 210.758 245.589 211.038C245.531 211.318 245.502 211.658 245.502 212.058L245.504 213.44C245.505 213.759 245.523 214.041 245.559 214.285C245.599 214.529 245.656 214.741 245.731 214.921C245.806 215.097 245.897 215.242 246.005 215.356C246.112 215.471 246.236 215.556 246.376 215.612C246.52 215.664 246.678 215.691 246.85 215.692C247.071 215.693 247.265 215.651 247.431 215.567C247.597 215.483 247.735 215.352 247.845 215.173C247.959 214.992 248.043 214.759 248.098 214.476C248.153 214.19 248.181 213.848 248.18 213.451ZM254.911 215.628L254.912 216.37L250.259 216.35L250.258 215.701L252.584 213.118C252.87 212.8 253.091 212.531 253.247 212.31C253.406 212.086 253.516 211.886 253.578 211.711C253.643 211.532 253.675 211.35 253.675 211.164C253.675 210.93 253.625 210.718 253.528 210.529C253.433 210.337 253.293 210.183 253.107 210.068C252.921 209.954 252.697 209.896 252.433 209.895C252.117 209.893 251.854 209.954 251.642 210.077C251.434 210.196 251.278 210.365 251.174 210.583C251.07 210.8 251.018 211.051 251.019 211.334L250.116 211.33C250.115 210.93 250.202 210.564 250.378 210.233C250.553 209.902 250.813 209.639 251.158 209.445C251.503 209.248 251.927 209.15 252.432 209.152C252.881 209.154 253.265 209.236 253.585 209.396C253.904 209.554 254.148 209.776 254.318 210.064C254.491 210.348 254.578 210.68 254.578 211.061C254.578 211.269 254.543 211.481 254.471 211.695C254.403 211.906 254.308 212.118 254.184 212.329C254.064 212.54 253.923 212.747 253.76 212.952C253.601 213.156 253.43 213.357 253.248 213.555L251.347 215.613L254.911 215.628ZM249.328 245.604L249.329 246.346L244.675 246.327L244.674 245.678L247 243.095C247.286 242.777 247.507 242.507 247.663 242.287C247.822 242.063 247.932 241.863 247.994 241.688C248.059 241.509 248.091 241.327 248.091 241.141C248.091 240.907 248.042 240.695 247.944 240.506C247.849 240.313 247.709 240.16 247.523 240.045C247.337 239.93 247.113 239.872 246.849 239.871C246.533 239.87 246.27 239.931 246.058 240.054C245.85 240.173 245.694 240.342 245.59 240.559C245.486 240.777 245.435 241.028 245.435 241.311L244.532 241.307C244.531 240.907 244.619 240.541 244.794 240.209C244.969 239.878 245.229 239.616 245.574 239.422C245.919 239.225 246.343 239.127 246.848 239.129C247.297 239.131 247.681 239.212 248.001 239.373C248.32 239.531 248.564 239.753 248.734 240.04C248.907 240.324 248.994 240.657 248.994 241.037C248.994 241.246 248.959 241.457 248.888 241.672C248.82 241.883 248.724 242.094 248.6 242.305C248.48 242.516 248.339 242.724 248.176 242.929C248.017 243.133 247.847 243.334 247.665 243.532L245.763 245.589L249.328 245.604Z" fill="#667085"/>
<path d="M30.207 -31.1758L30.4507 176.265" stroke="#002966" stroke-width="1.67687"/>
<path d="M27.7871 175.57L30.3135 175.579" stroke="black" stroke-width="1.67687"/>
<path d="M27.709 124.039L30.2354 124.048" stroke="black" stroke-width="1.67687"/>
<path d="M27.6289 72.502L30.1553 72.511" stroke="black" stroke-width="1.67687"/>
<path d="M27.5488 20.9688L30.0752 20.9778" stroke="black" stroke-width="1.67687"/>
<path d="M22.0535 174.9L22.055 175.984C22.0559 176.566 22.0045 177.058 21.9009 177.458C21.7973 177.858 21.6481 178.179 21.4531 178.423C21.2582 178.666 21.0224 178.842 20.7459 178.952C20.4726 179.058 20.1634 179.111 19.8184 179.109C19.5449 179.108 19.2926 179.073 19.0614 179.004C18.8302 178.935 18.6217 178.825 18.4359 178.674C18.2534 178.521 18.0969 178.321 17.9663 178.077C17.8358 177.832 17.736 177.535 17.6672 177.187C17.5983 176.838 17.5635 176.431 17.5629 175.966L17.5613 174.882C17.5605 174.299 17.6118 173.811 17.7154 173.418C17.8223 173.024 17.9732 172.709 18.1681 172.472C18.3631 172.232 18.5972 172.06 18.8705 171.957C19.1471 171.854 19.4562 171.803 19.798 171.805C20.0747 171.806 20.3287 171.841 20.5599 171.91C20.7943 171.976 21.0028 172.083 21.1853 172.23C21.3678 172.374 21.5227 172.567 21.65 172.808C21.7806 173.046 21.8803 173.338 21.9492 173.683C22.018 174.029 22.0528 174.434 22.0535 174.9ZM21.147 176.126L21.145 174.745C21.1446 174.426 21.1246 174.146 21.0852 173.905C21.0491 173.66 20.9951 173.452 20.9232 173.279C20.8513 173.106 20.76 172.966 20.6491 172.858C20.5416 172.75 20.4161 172.671 20.2728 172.622C20.1328 172.569 19.9749 172.543 19.7991 172.542C19.5842 172.541 19.3939 172.581 19.228 172.662C19.0621 172.739 18.9223 172.864 18.8086 173.036C18.6982 173.208 18.6139 173.434 18.5557 173.714C18.4975 173.994 18.4687 174.334 18.4693 174.734L18.4713 176.116C18.4717 176.435 18.4901 176.717 18.5262 176.961C18.5656 177.205 18.6229 177.417 18.698 177.596C18.7732 177.772 18.8645 177.918 18.9721 178.032C19.0797 178.146 19.2035 178.231 19.3436 178.287C19.4869 178.34 19.6448 178.367 19.8173 178.367C20.0387 178.368 20.2323 178.327 20.3982 178.243C20.5641 178.159 20.7022 178.027 20.8126 177.849C20.9263 177.667 21.0106 177.435 21.0655 177.152C21.1205 176.865 21.1476 176.524 21.147 176.126Z" fill="#667085"/>
<path d="M11.8839 123.644L11.161 123.455L11.5123 119.916L15.1597 119.931L15.1609 120.766L12.2801 120.754L12.068 122.687C12.1981 122.613 12.3624 122.544 12.5609 122.479C12.7626 122.415 12.9937 122.383 13.2541 122.384C13.5829 122.386 13.8776 122.444 14.1381 122.559C14.3987 122.67 14.6203 122.831 14.8029 123.04C14.9887 123.249 15.1307 123.5 15.2288 123.794C15.3269 124.087 15.3762 124.414 15.3767 124.776C15.3772 125.117 15.3305 125.431 15.2365 125.717C15.1457 126.003 15.0078 126.254 14.8225 126.468C14.6373 126.679 14.4032 126.842 14.1201 126.958C13.8403 127.074 13.51 127.131 13.1292 127.13C12.8427 127.129 12.5708 127.089 12.3136 127.009C12.0596 126.927 11.8315 126.804 11.6295 126.641C11.4306 126.474 11.2676 126.268 11.1403 126.023C11.0162 125.775 10.9377 125.485 10.9046 125.153L11.764 125.157C11.8035 125.424 11.8819 125.649 11.9994 125.831C12.1168 126.014 12.27 126.153 12.459 126.248C12.6511 126.34 12.8742 126.387 13.1281 126.388C13.3429 126.389 13.5333 126.352 13.6992 126.278C13.8651 126.203 14.0049 126.097 14.1187 125.957C14.2324 125.818 14.3184 125.649 14.3767 125.45C14.4383 125.252 14.4689 125.029 14.4685 124.782C14.4682 124.557 14.437 124.349 14.3748 124.156C14.3127 123.964 14.2197 123.796 14.0958 123.652C13.9751 123.509 13.8269 123.397 13.651 123.319C13.4751 123.236 13.2732 123.195 13.0453 123.194C12.7426 123.193 12.5132 123.233 12.357 123.313C12.2042 123.394 12.0464 123.504 11.8839 123.644ZM20.8281 122.942L20.8297 124.026C20.8305 124.608 20.7791 125.1 20.6755 125.5C20.572 125.9 20.4227 126.221 20.2277 126.465C20.0328 126.708 19.797 126.885 19.5205 126.994C19.2472 127.1 18.9381 127.153 18.593 127.152C18.3196 127.15 18.0672 127.115 17.836 127.046C17.6048 126.977 17.3963 126.867 17.2106 126.716C17.028 126.563 16.8715 126.363 16.7409 126.119C16.6104 125.874 16.5107 125.578 16.4418 125.229C16.3729 124.88 16.3382 124.473 16.3375 124.008L16.3359 122.924C16.3351 122.341 16.3864 121.853 16.49 121.46C16.5969 121.066 16.7478 120.751 16.9428 120.514C17.1377 120.274 17.3718 120.102 17.6451 119.999C17.9217 119.896 18.2308 119.845 18.5726 119.847C18.8493 119.848 19.1033 119.883 19.3345 119.952C19.569 120.018 19.7775 120.125 19.96 120.272C20.1425 120.416 20.2974 120.609 20.4247 120.85C20.5552 121.088 20.6549 121.38 20.7238 121.725C20.7926 122.071 20.8274 122.476 20.8281 122.942ZM19.9217 124.169L19.9197 122.787C19.9192 122.468 19.8993 122.188 19.8598 121.947C19.8237 121.702 19.7697 121.494 19.6978 121.321C19.6259 121.148 19.5346 121.008 19.4238 120.9C19.3162 120.792 19.1907 120.714 19.0474 120.664C18.9074 120.611 18.7495 120.585 18.5737 120.584C18.3589 120.583 18.1685 120.623 18.0026 120.704C17.8367 120.781 17.6969 120.906 17.5832 121.078C17.4728 121.25 17.3885 121.476 17.3303 121.756C17.2721 122.036 17.2433 122.376 17.2439 122.776L17.2459 124.158C17.2464 124.477 17.2647 124.759 17.3008 125.003C17.3403 125.247 17.3975 125.459 17.4727 125.638C17.5478 125.814 17.6391 125.96 17.7467 126.074C17.8543 126.188 17.9781 126.273 18.1182 126.329C18.2615 126.382 18.4194 126.409 18.5919 126.409C18.8133 126.41 19.0069 126.369 19.1728 126.285C19.3387 126.201 19.4768 126.069 19.5873 125.891C19.7009 125.709 19.7852 125.477 19.8401 125.194C19.8951 124.907 19.9222 124.566 19.9217 124.169ZM20.8716 152.942L20.8732 154.026C20.874 154.608 20.8227 155.1 20.7191 155.5C20.6155 155.9 20.4662 156.221 20.2713 156.465C20.0763 156.708 19.8406 156.884 19.564 156.994C19.2908 157.1 18.9816 157.153 18.6366 157.151C18.3631 157.15 18.1108 157.115 17.8796 157.046C17.6484 156.977 17.4399 156.867 17.2541 156.716C17.0716 156.563 16.915 156.363 16.7845 156.119C16.6539 155.874 16.5542 155.577 16.4853 155.229C16.4165 154.88 16.3817 154.473 16.381 154.008L16.3795 152.924C16.3786 152.341 16.43 151.853 16.5336 151.46C16.6404 151.066 16.7913 150.751 16.9863 150.514C17.1813 150.274 17.4154 150.102 17.6887 149.999C17.9652 149.896 18.2744 149.845 18.6162 149.847C18.8929 149.848 19.1468 149.883 19.378 149.952C19.6125 150.018 19.821 150.125 20.0035 150.272C20.186 150.416 20.3409 150.609 20.4682 150.85C20.5988 151.088 20.6985 151.38 20.7673 151.725C20.8362 152.071 20.8709 152.476 20.8716 152.942ZM19.9652 154.169L19.9632 152.787C19.9627 152.468 19.9428 152.188 19.9034 151.947C19.8672 151.702 19.8132 151.494 19.7414 151.321C19.6695 151.148 19.5781 151.008 19.4673 150.9C19.3597 150.792 19.2343 150.713 19.091 150.664C18.9509 150.611 18.793 150.585 18.6173 150.584C18.4024 150.583 18.212 150.623 18.0461 150.704C17.8802 150.781 17.7405 150.906 17.6268 151.078C17.5163 151.25 17.432 151.476 17.3739 151.756C17.3157 152.036 17.2869 152.376 17.2874 152.776L17.2894 154.158C17.2899 154.477 17.3082 154.759 17.3444 155.003C17.3838 155.247 17.4411 155.459 17.5162 155.638C17.5913 155.814 17.6827 155.96 17.7903 156.074C17.8979 156.188 18.0217 156.273 18.1617 156.329C18.305 156.382 18.4629 156.409 18.6355 156.409C18.8568 156.41 19.0504 156.369 19.2163 156.285C19.3822 156.201 19.5204 156.069 19.6308 155.891C19.7445 155.709 19.8288 155.477 19.8837 155.194C19.9386 154.907 19.9658 154.566 19.9652 154.169Z" fill="#667085"/>
<path d="M9.82966 68.887L9.84004 76.0354L8.93672 76.0318L8.92798 70.0113L7.10767 70.6681L7.10648 69.8527L9.68806 68.8864L9.82966 68.887ZM16.9532 71.9425L16.9547 73.0265C16.9556 73.6092 16.9042 74.1005 16.8006 74.5005C16.697 74.9005 16.5478 75.2221 16.3528 75.4655C16.1578 75.7089 15.9221 75.8853 15.6456 75.9949C15.3723 76.1013 15.0631 76.1537 14.7181 76.1524C14.4446 76.1513 14.1923 76.1161 13.9611 76.0468C13.7299 75.9776 13.5214 75.8677 13.3356 75.7172C13.1531 75.5635 12.9966 75.3643 12.866 75.1196C12.7355 74.875 12.6357 74.5784 12.5669 74.2298C12.498 73.8812 12.4632 73.4742 12.4626 73.0087L12.461 71.9247C12.4601 71.342 12.5115 70.854 12.6151 70.4605C12.722 70.067 12.8729 69.7519 13.0678 69.515C13.2628 69.2749 13.4969 69.1033 13.7702 69.0002C14.0467 68.8972 14.3559 68.8463 14.6977 68.8477C14.9744 68.8488 15.2284 68.8839 15.4596 68.9532C15.694 69.0192 15.9025 69.1259 16.085 69.2731C16.2675 69.417 16.4224 69.6097 16.5497 69.8511C16.6803 70.0892 16.78 70.381 16.8489 70.7263C16.9177 71.0716 16.9525 71.477 16.9532 71.9425ZM16.0467 73.1694L16.0447 71.7875C16.0443 71.4685 16.0243 71.1885 15.9849 70.9475C15.9488 70.7032 15.8947 70.4946 15.8229 70.3218C15.751 70.149 15.6597 70.0087 15.5488 69.9008C15.4413 69.793 15.3158 69.7144 15.1725 69.665C15.0325 69.6123 14.8746 69.5857 14.6988 69.585C14.4839 69.5841 14.2936 69.624 14.1277 69.7048C13.9618 69.7822 13.822 69.907 13.7083 70.0791C13.5979 70.2512 13.5136 70.4771 13.4554 70.7568C13.3972 71.0365 13.3684 71.3766 13.369 71.7769L13.371 73.1588C13.3714 73.4778 13.3898 73.7594 13.4259 74.0037C13.4653 74.248 13.5226 74.4598 13.5977 74.6392C13.6729 74.8152 13.7642 74.9605 13.8718 75.0748C13.9794 75.1892 14.1032 75.2743 14.2433 75.3302C14.3866 75.3828 14.5445 75.4095 14.717 75.4102C14.9384 75.4111 15.132 75.3695 15.2979 75.2855C15.4638 75.2016 15.6019 75.0703 15.7123 74.8917C15.826 74.7098 15.9103 74.4774 15.9652 74.1944C16.0201 73.9082 16.0473 73.5665 16.0467 73.1694ZM22.5781 71.9648L22.5797 73.0488C22.5805 73.6315 22.5292 74.1228 22.4256 74.5228C22.322 74.9228 22.1727 75.2444 21.9778 75.4878C21.7828 75.7312 21.5471 75.9076 21.2705 76.0172C20.9973 76.1235 20.6881 76.176 20.343 76.1747C20.0696 76.1736 19.8173 76.1384 19.5861 76.0691C19.3548 75.9999 19.1464 75.89 18.9606 75.7395C18.7781 75.5858 18.6215 75.3866 18.491 75.1419C18.3604 74.8973 18.2607 74.6007 18.1918 74.2521C18.123 73.9035 18.0882 73.4965 18.0875 73.031L18.086 71.947C18.0851 71.3643 18.1365 70.8762 18.2401 70.4828C18.3469 70.0893 18.4978 69.7742 18.6928 69.5373C18.8878 69.2972 19.1219 69.1256 19.3952 69.0225C19.6717 68.9195 19.9809 68.8686 20.3227 68.8699C20.5994 68.871 20.8533 68.9062 21.0845 68.9755C21.319 69.0415 21.5275 69.1482 21.71 69.2954C21.8925 69.4393 22.0474 69.632 22.1747 69.8734C22.3053 70.1115 22.405 70.4033 22.4738 70.7486C22.5427 71.0939 22.5774 71.4993 22.5781 71.9648ZM21.6717 73.1917L21.6697 71.8098C21.6692 71.4908 21.6493 71.2108 21.6099 70.9698C21.5737 70.7255 21.5197 70.5169 21.4479 70.3441C21.376 70.1713 21.2846 70.031 21.1738 69.9231C21.0662 69.8153 20.9408 69.7367 20.7975 69.6873C20.6574 69.6346 20.4995 69.608 20.3237 69.6073C20.1089 69.6064 19.9185 69.6463 19.7526 69.7271C19.5867 69.8045 19.4469 69.9293 19.3333 70.1014C19.2228 70.2735 19.1385 70.4994 19.0803 70.7791C19.0222 71.0588 18.9934 71.3988 18.9939 71.7992L18.9959 73.1811C18.9964 73.5001 19.0147 73.7817 19.0509 74.026C19.0903 74.2703 19.1476 74.4821 19.2227 74.6614C19.2978 74.8375 19.3892 74.9827 19.4968 75.0971C19.6044 75.2115 19.7282 75.2966 19.8682 75.3525C20.0115 75.4051 20.1694 75.4318 20.342 75.4325C20.5633 75.4334 20.7569 75.3918 20.9228 75.3078C21.0887 75.2239 21.2269 75.0926 21.3373 74.914C21.451 74.7321 21.5353 74.4997 21.5902 74.2167C21.6451 73.9305 21.6723 73.5888 21.6717 73.1917ZM22.6217 101.965L22.6232 103.049C22.6241 103.631 22.5727 104.123 22.4691 104.523C22.3655 104.923 22.2163 105.244 22.0213 105.488C21.8264 105.731 21.5906 105.908 21.3141 106.017C21.0408 106.124 20.7316 106.176 20.3866 106.175C20.1132 106.174 19.8608 106.138 19.6296 106.069C19.3984 106 19.1899 105.89 19.0041 105.739C18.8216 105.586 18.6651 105.387 18.5345 105.142C18.404 104.897 18.3043 104.601 18.2354 104.252C18.1665 103.903 18.1318 103.496 18.1311 103.031L18.1295 101.947C18.1287 101.364 18.18 100.876 18.2836 100.483C18.3905 100.089 18.5414 99.7741 18.7364 99.5373C18.9313 99.2972 19.1654 99.1256 19.4387 99.0225C19.7153 98.9194 20.0244 98.8686 20.3662 98.8699C20.6429 98.871 20.8969 98.9062 21.1281 98.9755C21.3626 99.0415 21.571 99.1481 21.7535 99.2953C21.936 99.4393 22.0909 99.6319 22.2182 99.8733C22.3488 100.111 22.4485 100.403 22.5174 100.749C22.5862 101.094 22.621 101.499 22.6217 101.965ZM21.7153 103.192L21.7133 101.81C21.7128 101.491 21.6929 101.211 21.6534 100.97C21.6173 100.725 21.5633 100.517 21.4914 100.344C21.4195 100.171 21.3282 100.031 21.2174 99.9231C21.1098 99.8152 20.9843 99.7366 20.841 99.6872C20.701 99.6346 20.5431 99.6079 20.3673 99.6072C20.1525 99.6064 19.9621 99.6463 19.7962 99.727C19.6303 99.8045 19.4905 99.9293 19.3768 100.101C19.2664 100.273 19.1821 100.499 19.1239 100.779C19.0657 101.059 19.0369 101.399 19.0375 101.799L19.0395 103.181C19.04 103.5 19.0583 103.782 19.0944 104.026C19.1338 104.27 19.1911 104.482 19.2662 104.661C19.3414 104.837 19.4327 104.983 19.5403 105.097C19.6479 105.211 19.7717 105.297 19.9118 105.352C20.0551 105.405 20.213 105.432 20.3855 105.432C20.6069 105.433 20.8005 105.392 20.9664 105.308C21.1323 105.224 21.2704 105.093 21.3808 104.914C21.4945 104.732 21.5788 104.5 21.6337 104.217C21.6887 103.93 21.7158 103.589 21.7153 103.192Z" fill="#667085"/>
<path d="M9.66364 16.887L9.67402 24.0354L8.77071 24.0318L8.76197 18.0113L6.94165 18.6681L6.94047 17.8527L9.52204 16.8864L9.66364 16.887ZM13.4679 20.6667L12.745 20.4782L13.0963 16.9396L16.7437 16.9541L16.745 17.789L13.8641 17.7776L13.6521 19.7104C13.7822 19.636 13.9465 19.5667 14.1449 19.5024C14.3467 19.4381 14.5777 19.4064 14.8381 19.4074C15.1669 19.4088 15.4616 19.4669 15.7222 19.5818C15.9828 19.6936 16.2043 19.8539 16.3869 20.063C16.5728 20.2721 16.7147 20.5233 16.8128 20.8166C16.9109 21.11 16.9602 21.4373 16.9607 21.7987C16.9612 22.1405 16.9145 22.4544 16.8205 22.7405C16.7298 23.0266 16.5918 23.2767 16.4066 23.4908C16.2213 23.7016 15.9872 23.8651 15.7041 23.9812C15.4244 24.0972 15.0941 24.1545 14.7132 24.153C14.4267 24.1519 14.1549 24.1117 13.8976 24.0326C13.6436 23.9502 13.4155 23.8272 13.2135 23.6637C13.0147 23.4969 12.8516 23.2911 12.7243 23.0465C12.6003 22.7986 12.5217 22.5086 12.4887 22.1764L13.348 22.1798C13.3875 22.4469 13.4659 22.6718 13.5834 22.8546C13.7008 23.0374 13.854 23.1763 14.043 23.2715C14.2352 23.3634 14.4582 23.4098 14.7121 23.4108C14.927 23.4117 15.1173 23.375 15.2832 23.3008C15.4491 23.2266 15.589 23.1197 15.7027 22.9802C15.8164 22.8407 15.9024 22.6717 15.9607 22.4734C16.0223 22.2751 16.0529 22.0522 16.0525 21.8048C16.0522 21.5802 16.021 21.3718 15.9589 21.1795C15.8967 20.9872 15.8037 20.8191 15.6798 20.6754C15.5592 20.5317 15.4109 20.4205 15.235 20.3416C15.0591 20.2596 14.8572 20.2181 14.6294 20.2172C14.3266 20.216 14.0972 20.2557 13.9411 20.3365C13.7882 20.4173 13.6305 20.5273 13.4679 20.6667ZM22.4121 19.9648L22.4137 21.0488C22.4145 21.6315 22.3632 22.1228 22.2596 22.5228C22.156 22.9228 22.0067 23.2444 21.8118 23.4878C21.6168 23.7312 21.3811 23.9076 21.1045 24.0172C20.8312 24.1235 20.5221 24.176 20.177 24.1747C19.9036 24.1736 19.6513 24.1384 19.4201 24.0691C19.1888 23.9999 18.9803 23.89 18.7946 23.7395C18.6121 23.5858 18.4555 23.3866 18.325 23.1419C18.1944 22.8973 18.0947 22.6007 18.0258 22.2521C17.957 21.9035 17.9222 21.4965 17.9215 21.031L17.9199 19.947C17.9191 19.3643 17.9705 18.8762 18.0741 18.4828C18.1809 18.0893 18.3318 17.7742 18.5268 17.5373C18.7218 17.2972 18.9559 17.1256 19.2292 17.0225C19.5057 16.9195 19.8149 16.8686 20.1567 16.8699C20.4334 16.871 20.6873 16.9062 20.9185 16.9755C21.153 17.0415 21.3615 17.1482 21.544 17.2954C21.7265 17.4393 21.8814 17.632 22.0087 17.8734C22.1392 18.1115 22.2389 18.4033 22.3078 18.7486C22.3767 19.0939 22.4114 19.4993 22.4121 19.9648ZM21.5057 21.1917L21.5037 19.8098C21.5032 19.4908 21.4833 19.2108 21.4439 18.9698C21.4077 18.7255 21.3537 18.5169 21.2818 18.3441C21.21 18.1713 21.1186 18.031 21.0078 17.9231C20.9002 17.8153 20.7748 17.7367 20.6315 17.6873C20.4914 17.6346 20.3335 17.608 20.1577 17.6073C19.9429 17.6064 19.7525 17.6463 19.5866 17.7271C19.4207 17.8045 19.2809 17.9293 19.1673 18.1014C19.0568 18.2735 18.9725 18.4994 18.9143 18.7791C18.8561 19.0588 18.8273 19.3988 18.8279 19.7992L18.8299 21.1811C18.8304 21.5001 18.8487 21.7817 18.8849 22.026C18.9243 22.2703 18.9816 22.4821 19.0567 22.6614C19.1318 22.8375 19.2232 22.9827 19.3308 23.0971C19.4383 23.2115 19.5622 23.2966 19.7022 23.3525C19.8455 23.4051 20.0034 23.4318 20.176 23.4325C20.3973 23.4334 20.5909 23.3918 20.7568 23.3078C20.9227 23.2239 21.0609 23.0926 21.1713 22.914C21.285 22.7321 21.3692 22.4997 21.4242 22.2167C21.4791 21.9305 21.5063 21.5888 21.5057 21.1917ZM22.4557 49.9648L22.4572 51.0487C22.4581 51.6314 22.4067 52.1228 22.3031 52.5227C22.1995 52.9227 22.0503 53.2444 21.8553 53.4877C21.6603 53.7311 21.4246 53.9076 21.1481 54.0172C20.8748 54.1235 20.5656 54.176 20.2206 54.1746C19.9471 54.1735 19.6948 54.1384 19.4636 54.0691C19.2324 53.9998 19.0239 53.8899 18.8381 53.7395C18.6556 53.5857 18.4991 53.3866 18.3685 53.1419C18.238 52.8972 18.1382 52.6006 18.0694 52.252C18.0005 51.9035 17.9657 51.4964 17.9651 51.0309L17.9635 49.947C17.9626 49.3643 18.014 48.8762 18.1176 48.4827C18.2245 48.0893 18.3754 47.7741 18.5703 47.5373C18.7653 47.2972 18.9994 47.1256 19.2727 47.0225C19.5492 46.9194 19.8584 46.8686 20.2002 46.8699C20.4769 46.871 20.7309 46.9062 20.9621 46.9755C21.1965 47.0415 21.405 47.1481 21.5875 47.2953C21.77 47.4393 21.9249 47.6319 22.0522 47.8733C22.1828 48.1115 22.2825 48.4032 22.3514 48.7485C22.4202 49.0939 22.455 49.4993 22.4557 49.9648ZM21.5492 51.1916L21.5472 49.8098C21.5468 49.4908 21.5268 49.2108 21.4874 48.9697C21.4513 48.7254 21.3972 48.5169 21.3254 48.3441C21.2535 48.1713 21.1622 48.0309 21.0513 47.9231C20.9438 47.8152 20.8183 47.7366 20.675 47.6872C20.535 47.6346 20.3771 47.6079 20.2013 47.6072C19.9864 47.6064 19.7961 47.6463 19.6302 47.727C19.4643 47.8045 19.3245 47.9293 19.2108 48.1013C19.1004 48.2734 19.0161 48.4993 18.9579 48.779C18.8997 49.0587 18.8709 49.3988 18.8715 49.7992L18.8735 51.181C18.8739 51.5 18.8923 51.7817 18.9284 52.026C18.9678 52.2703 19.0251 52.4821 19.1002 52.6614C19.1754 52.8375 19.2667 52.9827 19.3743 53.0971C19.4819 53.2114 19.6057 53.2965 19.7458 53.3524C19.8891 53.4051 20.047 53.4318 20.2195 53.4324C20.4409 53.4333 20.6345 53.3918 20.8004 53.3078C20.9663 53.2238 21.1044 53.0925 21.2148 52.9139C21.3285 52.7321 21.4128 52.4997 21.4677 52.2167C21.5226 51.9305 21.5498 51.5888 21.5492 51.1916Z" fill="#667085"/>
<path d="M11.4581 -28.7001L11.4592 -27.9579L6.80587 -27.9764L6.80493 -28.6258L9.13026 -31.2093C9.41625 -31.5272 9.63721 -31.7965 9.79314 -32.0172C9.95232 -32.2412 10.0627 -32.441 10.1243 -32.6165C10.1891 -32.7953 10.2214 -32.9774 10.2212 -33.163C10.2208 -33.3974 10.1717 -33.6091 10.0738 -33.7983C9.97907 -33.9908 9.83888 -34.1443 9.65317 -34.259C9.46746 -34.3736 9.24277 -34.4315 8.97909 -34.4325C8.66334 -34.4338 8.39976 -34.373 8.18835 -34.2501C7.9802 -34.1305 7.82419 -33.9619 7.72034 -33.7442C7.61649 -33.5265 7.56477 -33.276 7.56519 -32.9928L6.66187 -32.9964C6.66129 -33.3968 6.74865 -33.7627 6.92395 -34.094C7.09924 -34.4253 7.35928 -34.688 7.70404 -34.8819C8.04881 -35.0791 8.47346 -35.1767 8.97802 -35.1747C9.42723 -35.173 9.81146 -35.0917 10.1307 -34.9309C10.4499 -34.7734 10.6944 -34.5511 10.8641 -34.2639C11.037 -33.9801 11.1238 -33.6477 11.1243 -33.2668C11.1246 -33.0585 11.0891 -32.847 11.0178 -32.6325C10.9498 -32.4212 10.854 -32.21 10.7307 -31.9989C10.6105 -31.7878 10.4692 -31.58 10.3068 -31.3755C10.1476 -31.1711 9.97695 -30.97 9.79495 -30.7721L7.89366 -28.7142L11.4581 -28.7001ZM16.8828 -32.0575L16.8844 -30.9735C16.8853 -30.3908 16.8339 -29.8995 16.7303 -29.4995C16.6267 -29.0995 16.4775 -28.7779 16.2825 -28.5345C16.0875 -28.2911 15.8518 -28.1147 15.5753 -28.0051C15.302 -27.8987 14.9928 -27.8463 14.6478 -27.8476C14.3743 -27.8487 14.122 -27.8839 13.8908 -27.9532C13.6596 -28.0224 13.4511 -28.1323 13.2653 -28.2828C13.0828 -28.4365 12.9263 -28.6357 12.7957 -28.8804C12.6651 -29.125 12.5654 -29.4216 12.4966 -29.7702C12.4277 -30.1188 12.3929 -30.5258 12.3923 -30.9913L12.3907 -32.0753C12.3898 -32.658 12.4412 -33.146 12.5448 -33.5395C12.6517 -33.933 12.8026 -34.2481 12.9975 -34.485C13.1925 -34.7251 13.4266 -34.8967 13.6999 -34.9998C13.9764 -35.1028 14.2856 -35.1537 14.6274 -35.1523C14.9041 -35.1512 15.158 -35.1161 15.3893 -35.0468C15.6237 -34.9808 15.8322 -34.8741 16.0147 -34.7269C16.1972 -34.583 16.3521 -34.3903 16.4794 -34.1489C16.61 -33.9108 16.7097 -33.619 16.7785 -33.2737C16.8474 -32.9284 16.8822 -32.523 16.8828 -32.0575ZM15.9764 -30.8306L15.9744 -32.2125C15.974 -32.5315 15.954 -32.8115 15.9146 -33.0525C15.8785 -33.2968 15.8244 -33.5054 15.7526 -33.6782C15.6807 -33.851 15.5894 -33.9913 15.4785 -34.0992C15.371 -34.207 15.2455 -34.2856 15.1022 -34.335C14.9622 -34.3877 14.8042 -34.4143 14.6285 -34.415C14.4136 -34.4159 14.2233 -34.376 14.0574 -34.2952C13.8915 -34.2178 13.7517 -34.093 13.638 -33.9209C13.5276 -33.7488 13.4433 -33.5229 13.3851 -33.2432C13.3269 -32.9635 13.2981 -32.6234 13.2987 -32.2231L13.3007 -30.8412C13.3011 -30.5222 13.3194 -30.2406 13.3556 -29.9963C13.395 -29.752 13.4523 -29.5402 13.5274 -29.3608C13.6025 -29.1848 13.6939 -29.0395 13.8015 -28.9252C13.9091 -28.8108 14.0329 -28.7257 14.1729 -28.6698C14.3163 -28.6172 14.4742 -28.5905 14.6467 -28.5898C14.868 -28.5889 15.0617 -28.6305 15.2276 -28.7145C15.3934 -28.7984 15.5316 -28.9297 15.642 -29.1083C15.7557 -29.2902 15.84 -29.5226 15.8949 -29.8056C15.9498 -30.0918 15.977 -30.4335 15.9764 -30.8306ZM22.5078 -32.0352L22.5094 -30.9512C22.5102 -30.3685 22.4589 -29.8772 22.3553 -29.4772C22.2517 -29.0772 22.1024 -28.7556 21.9075 -28.5122C21.7125 -28.2688 21.4768 -28.0924 21.2002 -27.9828C20.927 -27.8765 20.6178 -27.824 20.2727 -27.8253C19.9993 -27.8264 19.747 -27.8616 19.5158 -27.9309C19.2845 -28.0001 19.076 -28.11 18.8903 -28.2605C18.7078 -28.4142 18.5512 -28.6134 18.4207 -28.8581C18.2901 -29.1027 18.1904 -29.3993 18.1215 -29.7479C18.0527 -30.0965 18.0179 -30.5035 18.0172 -30.969L18.0156 -32.053C18.0148 -32.6357 18.0662 -33.1238 18.1698 -33.5172C18.2766 -33.9107 18.4275 -34.2258 18.6225 -34.4627C18.8175 -34.7028 19.0516 -34.8744 19.3249 -34.9775C19.6014 -35.0805 19.9106 -35.1314 20.2524 -35.1301C20.5291 -35.129 20.783 -35.0938 21.0142 -35.0245C21.2487 -34.9585 21.4572 -34.8518 21.6397 -34.7046C21.8222 -34.5607 21.9771 -34.368 22.1044 -34.1266C22.2349 -33.8885 22.3346 -33.5967 22.4035 -33.2514C22.4724 -32.9061 22.5071 -32.5007 22.5078 -32.0352ZM21.6014 -30.8083L21.5994 -32.1902C21.5989 -32.5092 21.579 -32.7892 21.5396 -33.0302C21.5034 -33.2745 21.4494 -33.4831 21.3775 -33.6559C21.3057 -33.8287 21.2143 -33.969 21.1035 -34.0769C20.9959 -34.1847 20.8705 -34.2633 20.7272 -34.3127C20.5871 -34.3654 20.4292 -34.392 20.2534 -34.3927C20.0386 -34.3936 19.8482 -34.3537 19.6823 -34.2729C19.5164 -34.1955 19.3766 -34.0707 19.263 -33.8986C19.1525 -33.7265 19.0682 -33.5006 19.01 -33.2209C18.9518 -32.9412 18.923 -32.6012 18.9236 -32.2008L18.9256 -30.8189C18.9261 -30.4999 18.9444 -30.2183 18.9806 -29.974C19.02 -29.7297 19.0773 -29.5179 19.1524 -29.3386C19.2275 -29.1625 19.3189 -29.0173 19.4265 -28.9029C19.534 -28.7885 19.6579 -28.7034 19.7979 -28.6475C19.9412 -28.5949 20.0991 -28.5682 20.2717 -28.5675C20.493 -28.5666 20.6866 -28.6082 20.8525 -28.6922C21.0184 -28.7761 21.1566 -28.9074 21.267 -29.086C21.3807 -29.2679 21.465 -29.5003 21.5199 -29.7833C21.5748 -30.0695 21.602 -30.4112 21.6014 -30.8083ZM22.5514 -2.03524L22.5529 -0.951256C22.5538 -0.368575 22.5024 0.122755 22.3988 0.522732C22.2952 0.922709 22.146 1.24438 21.951 1.48775C21.7561 1.73111 21.5203 1.90759 21.2438 2.01717C20.9705 2.1235 20.6613 2.17599 20.3163 2.17462C20.0428 2.17354 19.7905 2.13836 19.5593 2.06908C19.3281 1.99981 19.1196 1.88993 18.9338 1.73946C18.7513 1.58574 18.5948 1.38656 18.4642 1.1419C18.3337 0.897243 18.2339 0.600626 18.1651 0.252048C18.0962 -0.0965293 18.0614 -0.503565 18.0608 -0.969059L18.0592 -2.05304C18.0583 -2.63572 18.1097 -3.1238 18.2133 -3.51726C18.3202 -3.91072 18.4711 -4.22587 18.666 -4.46273C18.861 -4.70284 19.0951 -4.87444 19.3684 -4.97752C19.645 -5.08059 19.9541 -5.13145 20.2959 -5.13009C20.5726 -5.129 20.8266 -5.09381 21.0578 -5.02454C21.2922 -4.9585 21.5007 -4.85188 21.6832 -4.70468C21.8657 -4.56072 22.0206 -4.36805 22.1479 -4.12667C22.2785 -3.88852 22.3782 -3.59679 22.4471 -3.25146C22.5159 -2.90614 22.5507 -2.50073 22.5514 -2.03524ZM21.6449 -0.808371L21.6429 -2.19021C21.6425 -2.50922 21.6225 -2.78924 21.5831 -3.03028C21.547 -3.27456 21.493 -3.48311 21.4211 -3.65592C21.3492 -3.82873 21.2579 -3.96906 21.147 -4.07692C21.0395 -4.18477 20.914 -4.26339 20.7707 -4.31279C20.6307 -4.36543 20.4728 -4.39209 20.297 -4.39279C20.0821 -4.39364 19.8918 -4.35371 19.7259 -4.27298C19.56 -4.19552 19.4202 -4.07075 19.3065 -3.89867C19.1961 -3.72658 19.1118 -3.50068 19.0536 -3.22097C18.9954 -2.94125 18.9666 -2.6012 18.9672 -2.20081L18.9692 -0.818976C18.9696 -0.499966 18.988 -0.21832 19.0241 0.0259624C19.0635 0.270257 19.1208 0.482071 19.1959 0.661404C19.2711 0.837482 19.3624 0.9827 19.47 1.09706C19.5776 1.21142 19.7014 1.29654 19.8415 1.35243C19.9848 1.40509 20.1427 1.43175 20.3152 1.43244C20.5366 1.43331 20.7302 1.39176 20.8961 1.30779C21.062 1.22381 21.2001 1.09252 21.3105 0.913924C21.4242 0.732084 21.5085 0.499672 21.5634 0.216689C21.6183 -0.0695498 21.6455 -0.411236 21.6449 -0.808371Z" fill="#667085"/>
<path d="M39.0605 175L69.5456 139.661L100.341 71.8748L130.706 81.5372L161.286 78.973L191.651 7.17365L247.698 -9.5" stroke="#FF1826"/>
<path d="M70.5098 141.096C71.5842 141.096 72.4551 140.2 72.4551 139.096C72.4551 137.991 71.5842 137.096 70.5098 137.096C69.4354 137.096 68.5645 137.991 68.5645 139.096C68.5645 140.2 69.4354 141.096 70.5098 141.096Z" fill="white" stroke="#FF1826"/>
<path d="M39.0606 177C40.135 177 41.0059 176.105 41.0059 175C41.0059 173.895 40.135 173 39.0606 173C37.9862 173 37.1152 173.895 37.1152 175C37.1152 176.105 37.9862 177 39.0606 177Z" fill="white" stroke="#FF1826"/>
<path d="M101.148 73.5703C102.223 73.5703 103.094 72.6749 103.094 71.5703C103.094 70.4657 102.223 69.5703 101.148 69.5703C100.074 69.5703 99.2031 70.4657 99.2031 71.5703C99.2031 72.6749 100.074 73.5703 101.148 73.5703Z" fill="white" stroke="#FF1826"/>
<path d="M131.494 82.9727C132.569 82.9727 133.44 82.0772 133.44 80.9727C133.44 79.8681 132.569 78.9727 131.494 78.9727C130.42 78.9727 129.549 79.8681 129.549 80.9727C129.549 82.0772 130.42 82.9727 131.494 82.9727Z" fill="white" stroke="#FF1826"/>
<path d="M162.197 80.4082C163.272 80.4082 164.143 79.5128 164.143 78.4082C164.143 77.3036 163.272 76.4082 162.197 76.4082C161.123 76.4082 160.252 77.3036 160.252 78.4082C160.252 79.5128 161.123 80.4082 162.197 80.4082Z" fill="white" stroke="#FF1826"/>
<path d="M192.734 8.60937C193.809 8.60937 194.68 7.71394 194.68 6.60937C194.68 5.50481 193.809 4.60937 192.734 4.60937C191.66 4.60937 190.789 5.50481 190.789 6.60937C190.789 7.71394 191.66 8.60937 192.734 8.60937Z" fill="white" stroke="#FF1826"/>
<g filter="url(#filter0_dd_997_4085)">
<rect x="180.635" y="-31" width="75" height="203" rx="4" fill="white"/>
<path d="M196.092 11.354L193.738 17.8335L192.776 17.8335L195.486 10.7241L196.106 10.7241L196.092 11.354ZM198.064 17.8335L195.706 11.354L195.691 10.7241L196.312 10.7241L199.031 17.8335L198.064 17.8335ZM197.942 15.2017L197.942 15.9731L193.948 15.9731L193.948 15.2017L197.942 15.2017ZM204.217 15.5728L205.154 15.5728C205.105 16.022 204.977 16.424 204.769 16.7788C204.56 17.1336 204.266 17.4152 203.885 17.6235C203.504 17.8286 203.029 17.9312 202.459 17.9312C202.042 17.9312 201.663 17.853 201.321 17.6968C200.983 17.5405 200.691 17.3192 200.447 17.0327C200.203 16.743 200.014 16.3963 199.881 15.9927C199.751 15.5858 199.686 15.1333 199.686 14.6353L199.686 13.9272C199.686 13.4292 199.751 12.9784 199.881 12.5747C200.014 12.1678 200.205 11.8195 200.452 11.5298C200.703 11.2401 201.004 11.0171 201.355 10.8608C201.707 10.7046 202.103 10.6265 202.542 10.6265C203.079 10.6265 203.533 10.7274 203.904 10.9292C204.275 11.131 204.563 11.411 204.769 11.769C204.977 12.1239 205.105 12.5356 205.154 13.0044L204.217 13.0044C204.171 12.6724 204.087 12.3875 203.963 12.1499C203.839 11.909 203.663 11.7235 203.436 11.5933C203.208 11.4631 202.91 11.3979 202.542 11.3979C202.226 11.3979 201.948 11.4582 201.707 11.5786C201.469 11.6991 201.269 11.87 201.106 12.0913C200.947 12.3127 200.826 12.578 200.745 12.8872C200.664 13.1965 200.623 13.5399 200.623 13.9175L200.623 14.6353C200.623 14.9836 200.659 15.3107 200.73 15.6167C200.805 15.9227 200.918 16.1912 201.067 16.4224C201.217 16.6535 201.408 16.8358 201.639 16.9692C201.87 17.0994 202.143 17.1646 202.459 17.1646C202.859 17.1646 203.178 17.1011 203.416 16.9741C203.654 16.8472 203.833 16.6649 203.953 16.4272C204.077 16.1896 204.165 15.9048 204.217 15.5728ZM208.973 14.5083L207.171 14.5083L207.161 13.7515L208.797 13.7515C209.067 13.7515 209.303 13.7059 209.505 13.6147C209.707 13.5236 209.863 13.3934 209.974 13.2241C210.088 13.0516 210.145 12.8465 210.145 12.6089C210.145 12.3485 210.094 12.1369 209.993 11.9741C209.896 11.8081 209.744 11.6877 209.539 11.6128C209.337 11.5347 209.08 11.4956 208.768 11.4956L207.381 11.4956L207.381 17.8335L206.438 17.8335L206.438 10.7241L208.768 10.7241C209.132 10.7241 209.458 10.7616 209.744 10.8364C210.031 10.908 210.273 11.022 210.472 11.1782C210.674 11.3312 210.826 11.5265 210.931 11.7642C211.035 12.0018 211.087 12.2866 211.087 12.6187C211.087 12.9116 211.012 13.1769 210.862 13.4146C210.713 13.6489 210.504 13.841 210.237 13.9907C209.974 14.1405 209.664 14.2365 209.31 14.2788L208.973 14.5083ZM208.929 17.8335L206.8 17.8335L207.332 17.0669L208.929 17.0669C209.228 17.0669 209.482 17.0148 209.69 16.9106C209.902 16.8065 210.063 16.66 210.174 16.4712C210.285 16.2791 210.34 16.0529 210.34 15.7925C210.34 15.5288 210.293 15.3009 210.198 15.1089C210.104 14.9168 209.956 14.7687 209.754 14.6646C209.552 14.5604 209.292 14.5083 208.973 14.5083L207.63 14.5083L207.64 13.7515L209.476 13.7515L209.676 14.0249C210.018 14.0542 210.307 14.1519 210.545 14.3179C210.783 14.4806 210.963 14.689 211.087 14.9429C211.214 15.1968 211.277 15.4767 211.277 15.7827C211.277 16.2254 211.18 16.5998 210.984 16.9058C210.792 17.2085 210.521 17.4396 210.169 17.5991C209.817 17.7554 209.404 17.8335 208.929 17.8335Z" fill="#344054"/>
<rect x="229.635" y="6.8335" width="14" height="14" rx="2" fill="#00BF71"/>
<path d="M235.489 15.8436L240.276 11.0566C240.424 10.9079 240.614 10.8335 240.844 10.8335C241.074 10.8335 241.263 10.9079 241.412 11.0566C241.56 11.2054 241.635 11.3947 241.635 11.6246C241.635 11.8545 241.56 12.0438 241.412 12.1925L236.057 17.5475C235.894 17.7098 235.705 17.7909 235.489 17.7909C235.272 17.7909 235.083 17.7098 234.921 17.5475L231.858 13.9978C231.709 13.849 231.635 13.6597 231.635 13.4298C231.635 13.2 231.709 13.0106 231.858 12.8619C232.006 12.7131 232.196 12.6388 232.426 12.6388C232.656 12.6388 232.845 12.7131 232.994 12.8619L235.489 15.8436Z" fill="white"/>
<path d="M196.087 35.5571L196.087 42.6665L195.159 42.6665L195.159 35.5571L196.087 35.5571ZM198.372 35.5571L198.372 36.3286L192.879 36.3286L192.879 35.5571L198.372 35.5571ZM203.582 40.4058L204.52 40.4058C204.471 40.855 204.342 41.257 204.134 41.6118C203.925 41.9666 203.631 42.2482 203.25 42.4565C202.869 42.6616 202.394 42.7642 201.824 42.7642C201.408 42.7642 201.028 42.686 200.687 42.5298C200.348 42.3735 200.057 42.1522 199.813 41.8657C199.568 41.576 199.38 41.2293 199.246 40.8257C199.116 40.4188 199.051 39.9663 199.051 39.4683L199.051 38.7603C199.051 38.2622 199.116 37.8114 199.246 37.4077C199.38 37.0008 199.57 36.6525 199.817 36.3628C200.068 36.0731 200.369 35.8501 200.721 35.6938C201.072 35.5376 201.468 35.4595 201.907 35.4595C202.444 35.4595 202.898 35.5604 203.27 35.7622C203.641 35.964 203.929 36.244 204.134 36.6021C204.342 36.9569 204.471 37.3687 204.52 37.8374L203.582 37.8374C203.536 37.5054 203.452 37.2205 203.328 36.9829C203.204 36.742 203.029 36.5565 202.801 36.4263C202.573 36.2961 202.275 36.231 201.907 36.231C201.591 36.231 201.313 36.2912 201.072 36.4116C200.835 36.5321 200.634 36.703 200.472 36.9243C200.312 37.1457 200.192 37.411 200.11 37.7202C200.029 38.0295 199.988 38.3729 199.988 38.7505L199.988 39.4683C199.988 39.8166 200.024 40.1437 200.096 40.4497C200.171 40.7557 200.283 41.0243 200.433 41.2554C200.582 41.4865 200.773 41.6688 201.004 41.8022C201.235 41.9325 201.508 41.9976 201.824 41.9976C202.225 41.9976 202.544 41.9341 202.781 41.8071C203.019 41.6802 203.198 41.4979 203.318 41.2603C203.442 41.0226 203.53 40.7378 203.582 40.4058ZM208.338 39.3413L206.536 39.3413L206.526 38.5845L208.162 38.5845C208.432 38.5845 208.668 38.5389 208.87 38.4478C209.072 38.3566 209.228 38.2264 209.339 38.0571C209.453 37.8846 209.51 37.6795 209.51 37.4419C209.51 37.1815 209.459 36.9699 209.358 36.8071C209.261 36.6411 209.109 36.5207 208.904 36.4458C208.702 36.3677 208.445 36.3286 208.133 36.3286L206.746 36.3286L206.746 42.6665L205.804 42.6665L205.804 35.5571L208.133 35.5571C208.497 35.5571 208.823 35.5946 209.109 35.6694C209.396 35.741 209.638 35.855 209.837 36.0112C210.039 36.1642 210.192 36.3595 210.296 36.5972C210.4 36.8348 210.452 37.1196 210.452 37.4517C210.452 37.7446 210.377 38.0099 210.228 38.2476C210.078 38.4819 209.869 38.674 209.603 38.8237C209.339 38.9735 209.03 39.0695 208.675 39.1118L208.338 39.3413ZM208.294 42.6665L206.165 42.6665L206.697 41.8999L208.294 41.8999C208.593 41.8999 208.847 41.8478 209.056 41.7437C209.267 41.6395 209.428 41.493 209.539 41.3042C209.65 41.1121 209.705 40.8859 209.705 40.6255C209.705 40.3618 209.658 40.134 209.563 39.9419C209.469 39.7498 209.321 39.6017 209.119 39.4976C208.917 39.3934 208.657 39.3413 208.338 39.3413L206.995 39.3413L207.005 38.5845L208.841 38.5845L209.041 38.8579C209.383 38.8872 209.673 38.9849 209.91 39.1509C210.148 39.3136 210.328 39.522 210.452 39.7759C210.579 40.0298 210.643 40.3097 210.643 40.6157C210.643 41.0584 210.545 41.4328 210.35 41.7388C210.158 42.0415 209.886 42.2726 209.534 42.4321C209.183 42.5884 208.769 42.6665 208.294 42.6665Z" fill="#344054"/>
<rect x="230.135" y="32.1665" width="13" height="13" rx="1.5" stroke="#D0D5DD"/>
<path d="M195.755 66.4209L197.85 60.3906L198.87 60.3906L196.238 67.5L195.511 67.5L195.755 66.4209ZM193.797 60.3906L195.872 66.4209L196.131 67.5L195.403 67.5L192.776 60.3906L193.797 60.3906ZM204.051 65.2393L204.988 65.2393C204.939 65.6885 204.811 66.0905 204.603 66.4453C204.394 66.8001 204.1 67.0817 203.719 67.29C203.338 67.4951 202.863 67.5977 202.293 67.5977C201.876 67.5977 201.497 67.5195 201.155 67.3633C200.817 67.207 200.525 66.9857 200.281 66.6992C200.037 66.4095 199.848 66.0628 199.715 65.6592C199.585 65.2523 199.52 64.7998 199.52 64.3018L199.52 63.5937C199.52 63.0957 199.585 62.6449 199.715 62.2412C199.848 61.8343 200.039 61.486 200.286 61.1963C200.537 60.9066 200.838 60.6836 201.189 60.5273C201.541 60.3711 201.937 60.293 202.376 60.293C202.913 60.293 203.367 60.3939 203.738 60.5957C204.109 60.7975 204.397 61.0775 204.603 61.4355C204.811 61.7904 204.939 62.2021 204.988 62.6709L204.051 62.6709C204.005 62.3389 203.921 62.054 203.797 61.8164C203.673 61.5755 203.497 61.39 203.27 61.2598C203.042 61.1296 202.744 61.0645 202.376 61.0645C202.06 61.0645 201.782 61.1247 201.541 61.2451C201.303 61.3656 201.103 61.5365 200.94 61.7578C200.781 61.9792 200.66 62.2445 200.579 62.5537C200.498 62.863 200.457 63.2064 200.457 63.584L200.457 64.3018C200.457 64.6501 200.493 64.9772 200.564 65.2832C200.639 65.5892 200.752 65.8577 200.901 66.0889C201.051 66.32 201.242 66.5023 201.473 66.6357C201.704 66.766 201.977 66.8311 202.293 66.8311C202.693 66.8311 203.012 66.7676 203.25 66.6406C203.488 66.5137 203.667 66.3314 203.787 66.0937C203.911 65.8561 203.999 65.5713 204.051 65.2393ZM208.807 64.1748L207.005 64.1748L206.995 63.418L208.631 63.418C208.901 63.418 209.137 63.3724 209.339 63.2812C209.541 63.1901 209.697 63.0599 209.808 62.8906C209.922 62.7181 209.979 62.513 209.979 62.2754C209.979 62.015 209.928 61.8034 209.827 61.6406C209.729 61.4746 209.578 61.3542 209.373 61.2793C209.171 61.2012 208.914 61.1621 208.602 61.1621L207.215 61.1621L207.215 67.5L206.272 67.5L206.272 60.3906L208.602 60.3906C208.966 60.3906 209.292 60.4281 209.578 60.5029C209.865 60.5745 210.107 60.6885 210.306 60.8447C210.507 60.9977 210.66 61.193 210.765 61.4307C210.869 61.6683 210.921 61.9531 210.921 62.2852C210.921 62.5781 210.846 62.8434 210.696 63.0811C210.547 63.3154 210.338 63.5075 210.071 63.6572C209.808 63.807 209.498 63.903 209.144 63.9453L208.807 64.1748ZM208.763 67.5L206.634 67.5L207.166 66.7334L208.763 66.7334C209.062 66.7334 209.316 66.6813 209.524 66.5771C209.736 66.473 209.897 66.3265 210.008 66.1377C210.118 65.9456 210.174 65.7194 210.174 65.459C210.174 65.1953 210.127 64.9674 210.032 64.7754C209.938 64.5833 209.79 64.4352 209.588 64.3311C209.386 64.2269 209.126 64.1748 208.807 64.1748L207.464 64.1748L207.474 63.418L209.31 63.418L209.51 63.6914C209.852 63.7207 210.141 63.8184 210.379 63.9844C210.617 64.1471 210.797 64.3555 210.921 64.6094C211.048 64.8633 211.111 65.1432 211.111 65.4492C211.111 65.8919 211.014 66.2663 210.818 66.5723C210.626 66.875 210.354 67.1061 210.003 67.2656C209.651 67.4219 209.238 67.5 208.763 67.5Z" fill="#344054"/>
<rect x="229.635" y="56.5" width="14" height="14" rx="2" fill="#00BF71"/>
<path d="M235.489 65.5101L240.276 60.7231C240.424 60.5744 240.614 60.5 240.844 60.5C241.074 60.5 241.263 60.5744 241.412 60.7231C241.56 60.8719 241.635 61.0612 241.635 61.2911C241.635 61.521 241.56 61.7103 241.412 61.859L236.057 67.214C235.894 67.3763 235.705 67.4574 235.489 67.4574C235.272 67.4574 235.083 67.3763 234.921 67.214L231.858 63.6643C231.709 63.5156 231.635 63.3262 231.635 63.0963C231.635 62.8665 231.709 62.6771 231.858 62.5284C232.006 62.3796 232.196 62.3053 232.426 62.3053C232.656 62.3053 232.845 62.3796 232.994 62.5284L235.489 65.5101Z" fill="white"/>
<path d="M193.758 85.2241L194.671 85.2241L197 91.02L199.324 85.2241L200.242 85.2241L197.352 92.3335L196.639 92.3335L193.758 85.2241ZM193.46 85.2241L194.266 85.2241L194.397 89.5601L194.397 92.3335L193.46 92.3335L193.46 85.2241ZM199.729 85.2241L200.535 85.2241L200.535 92.3335L199.598 92.3335L199.598 89.5601L199.729 85.2241ZM204.725 89.0083L202.923 89.0083L202.913 88.2515L204.549 88.2515C204.819 88.2515 205.055 88.2059 205.257 88.1147C205.459 88.0236 205.615 87.8934 205.726 87.7241C205.84 87.5516 205.896 87.3465 205.896 87.1089C205.896 86.8485 205.846 86.6369 205.745 86.4741C205.647 86.3081 205.496 86.1877 205.291 86.1128C205.089 86.0347 204.832 85.9956 204.52 85.9956L203.133 85.9956L203.133 92.3335L202.19 92.3335L202.19 85.2241L204.52 85.2241C204.884 85.2241 205.21 85.2616 205.496 85.3364C205.783 85.408 206.025 85.522 206.224 85.6782C206.425 85.8312 206.578 86.0265 206.683 86.2642C206.787 86.5018 206.839 86.7866 206.839 87.1187C206.839 87.4116 206.764 87.6769 206.614 87.9146C206.465 88.1489 206.256 88.341 205.989 88.4907C205.726 88.6405 205.416 88.7365 205.062 88.7788L204.725 89.0083ZM204.681 92.3335L202.552 92.3335L203.084 91.5669L204.681 91.5669C204.98 91.5669 205.234 91.5148 205.442 91.4106C205.654 91.3065 205.815 91.16 205.926 90.9712C206.036 90.7791 206.092 90.5529 206.092 90.2925C206.092 90.0288 206.045 89.8009 205.95 89.6089C205.856 89.4168 205.708 89.2687 205.506 89.1646C205.304 89.0604 205.044 89.0083 204.725 89.0083L203.382 89.0083L203.392 88.2515L205.228 88.2515L205.428 88.5249C205.77 88.5542 206.059 88.6519 206.297 88.8179C206.535 88.9806 206.715 89.189 206.839 89.4429C206.966 89.6968 207.029 89.9767 207.029 90.2827C207.029 90.7254 206.932 91.0998 206.736 91.4058C206.544 91.7085 206.272 91.9396 205.921 92.0991C205.569 92.2554 205.156 92.3335 204.681 92.3335ZM210.955 89.0083L209.153 89.0083L209.144 88.2515L210.779 88.2515C211.049 88.2515 211.285 88.2059 211.487 88.1147C211.689 88.0236 211.845 87.8934 211.956 87.7241C212.07 87.5516 212.127 87.3465 212.127 87.1089C212.127 86.8485 212.076 86.6369 211.976 86.4741C211.878 86.3081 211.727 86.1877 211.521 86.1128C211.32 86.0347 211.063 85.9956 210.75 85.9956L209.363 85.9956L209.363 92.3335L208.421 92.3335L208.421 85.2241L210.75 85.2241C211.115 85.2241 211.44 85.2616 211.727 85.3364C212.013 85.408 212.256 85.522 212.454 85.6782C212.656 85.8312 212.809 86.0265 212.913 86.2642C213.017 86.5018 213.069 86.7866 213.069 87.1187C213.069 87.4116 212.994 87.6769 212.845 87.9146C212.695 88.1489 212.487 88.341 212.22 88.4907C211.956 88.6405 211.647 88.7365 211.292 88.7788L210.955 89.0083ZM210.911 92.3335L208.782 92.3335L209.314 91.5669L210.911 91.5669C211.211 91.5669 211.465 91.5148 211.673 91.4106C211.884 91.3065 212.046 91.16 212.156 90.9712C212.267 90.7791 212.322 90.5529 212.322 90.2925C212.322 90.0288 212.275 89.8009 212.181 89.6089C212.086 89.4168 211.938 89.2687 211.736 89.1646C211.535 89.0604 211.274 89.0083 210.955 89.0083L209.612 89.0083L209.622 88.2515L211.458 88.2515L211.658 88.5249C212 88.5542 212.29 88.6519 212.527 88.8179C212.765 88.9806 212.946 89.189 213.069 89.4429C213.196 89.6968 213.26 89.9767 213.26 90.2827C213.26 90.7254 213.162 91.0998 212.967 91.4058C212.775 91.7085 212.503 91.9396 212.151 92.0991C211.8 92.2554 211.386 92.3335 210.911 92.3335Z" fill="#344054"/>
<rect x="230.135" y="81.8335" width="13" height="13" rx="1.5" stroke="#D0D5DD"/>
<path d="M195.755 116.087L197.85 110.057L198.87 110.057L196.238 117.167L195.511 117.167L195.755 116.087ZM193.797 110.057L195.872 116.087L196.131 117.167L195.403 117.167L192.776 110.057L193.797 110.057ZM202.449 114.378L200.55 114.378L200.55 113.612L202.449 113.612C202.817 113.612 203.115 113.553 203.343 113.436C203.571 113.319 203.737 113.156 203.841 112.948C203.948 112.739 204.002 112.502 204.002 112.235C204.002 111.991 203.948 111.761 203.841 111.546C203.737 111.332 203.571 111.159 203.343 111.029C203.115 110.895 202.817 110.829 202.449 110.829L200.77 110.829L200.77 117.167L199.827 117.167L199.827 110.057L202.449 110.057C202.986 110.057 203.44 110.15 203.812 110.335C204.183 110.521 204.464 110.778 204.656 111.107C204.848 111.432 204.944 111.805 204.944 112.225C204.944 112.681 204.848 113.07 204.656 113.392C204.464 113.714 204.183 113.96 203.812 114.129C203.44 114.295 202.986 114.378 202.449 114.378ZM208.758 114.378L206.858 114.378L206.858 113.612L208.758 113.612C209.126 113.612 209.424 113.553 209.651 113.436C209.879 113.319 210.045 113.156 210.149 112.948C210.257 112.739 210.311 112.502 210.311 112.235C210.311 111.991 210.257 111.761 210.149 111.546C210.045 111.332 209.879 111.159 209.651 111.029C209.424 110.895 209.126 110.829 208.758 110.829L207.078 110.829L207.078 117.167L206.136 117.167L206.136 110.057L208.758 110.057C209.295 110.057 209.749 110.15 210.12 110.335C210.491 110.521 210.773 110.778 210.965 111.107C211.157 111.432 211.253 111.805 211.253 112.225C211.253 112.681 211.157 113.07 210.965 113.392C210.773 113.714 210.491 113.96 210.12 114.129C209.749 114.295 209.295 114.378 208.758 114.378Z" fill="#344054"/>
<rect x="230.135" y="106.667" width="13" height="13" rx="1.5" stroke="#D0D5DD"/>
<path d="M193.758 134.891L194.671 134.891L197 140.687L199.324 134.891L200.242 134.891L197.352 142L196.639 142L193.758 134.891ZM193.46 134.891L194.266 134.891L194.397 139.227L194.397 142L193.46 142L193.46 134.891ZM199.729 134.891L200.535 134.891L200.535 142L199.598 142L199.598 139.227L199.729 134.891ZM204.725 138.675L202.923 138.675L202.913 137.918L204.549 137.918C204.819 137.918 205.055 137.872 205.257 137.781C205.459 137.69 205.615 137.56 205.726 137.391C205.84 137.218 205.896 137.013 205.896 136.775C205.896 136.515 205.846 136.303 205.745 136.141C205.647 135.975 205.496 135.854 205.291 135.779C205.089 135.701 204.832 135.662 204.52 135.662L203.133 135.662L203.133 142L202.19 142L202.19 134.891L204.52 134.891C204.884 134.891 205.21 134.928 205.496 135.003C205.783 135.075 206.025 135.188 206.224 135.345C206.425 135.498 206.578 135.693 206.683 135.931C206.787 136.168 206.839 136.453 206.839 136.785C206.839 137.078 206.764 137.343 206.614 137.581C206.465 137.815 206.256 138.007 205.989 138.157C205.726 138.307 205.416 138.403 205.062 138.445L204.725 138.675ZM204.681 142L202.552 142L203.084 141.233L204.681 141.233C204.98 141.233 205.234 141.181 205.442 141.077C205.654 140.973 205.815 140.826 205.926 140.638C206.036 140.446 206.092 140.219 206.092 139.959C206.092 139.695 206.045 139.467 205.95 139.275C205.856 139.083 205.708 138.935 205.506 138.831C205.304 138.727 205.044 138.675 204.725 138.675L203.382 138.675L203.392 137.918L205.228 137.918L205.428 138.191C205.77 138.221 206.059 138.318 206.297 138.484C206.535 138.647 206.715 138.855 206.839 139.109C206.966 139.363 207.029 139.643 207.029 139.949C207.029 140.392 206.932 140.766 206.736 141.072C206.544 141.375 206.272 141.606 205.921 141.766C205.569 141.922 205.156 142 204.681 142ZM210.955 138.675L209.153 138.675L209.144 137.918L210.779 137.918C211.049 137.918 211.285 137.872 211.487 137.781C211.689 137.69 211.845 137.56 211.956 137.391C212.07 137.218 212.127 137.013 212.127 136.775C212.127 136.515 212.076 136.303 211.976 136.141C211.878 135.975 211.727 135.854 211.521 135.779C211.32 135.701 211.063 135.662 210.75 135.662L209.363 135.662L209.363 142L208.421 142L208.421 134.891L210.75 134.891C211.115 134.891 211.44 134.928 211.727 135.003C212.013 135.075 212.256 135.188 212.454 135.345C212.656 135.498 212.809 135.693 212.913 135.931C213.017 136.168 213.069 136.453 213.069 136.785C213.069 137.078 212.994 137.343 212.845 137.581C212.695 137.815 212.487 138.007 212.22 138.157C211.956 138.307 211.647 138.403 211.292 138.445L210.955 138.675ZM210.911 142L208.782 142L209.314 141.233L210.911 141.233C211.211 141.233 211.465 141.181 211.673 141.077C211.884 140.973 212.046 140.826 212.156 140.638C212.267 140.446 212.322 140.219 212.322 139.959C212.322 139.695 212.275 139.467 212.181 139.275C212.086 139.083 211.938 138.935 211.736 138.831C211.535 138.727 211.274 138.675 210.955 138.675L209.612 138.675L209.622 137.918L211.458 137.918L211.658 138.191C212 138.221 212.29 138.318 212.527 138.484C212.765 138.647 212.946 138.855 213.069 139.109C213.196 139.363 213.26 139.643 213.26 139.949C213.26 140.392 213.162 140.766 212.967 141.072C212.775 141.375 212.503 141.606 212.151 141.766C211.8 141.922 211.386 142 210.911 142Z" fill="#344054"/>
<rect x="229.635" y="131" width="14" height="14" rx="2" fill="#00BF71"/>
<path d="M235.489 140.01L240.276 135.223C240.424 135.074 240.614 135 240.844 135C241.074 135 241.263 135.074 241.412 135.223C241.56 135.372 241.635 135.561 241.635 135.791C241.635 136.021 241.56 136.21 241.412 136.359L236.057 141.714C235.894 141.876 235.705 141.957 235.489 141.957C235.272 141.957 235.083 141.876 234.921 141.714L231.858 138.164C231.709 138.016 231.635 137.826 231.635 137.596C231.635 137.366 231.709 137.177 231.858 137.028C232.006 136.88 232.196 136.805 232.426 136.805C232.656 136.805 232.845 136.88 232.994 137.028L235.489 140.01Z" fill="white"/>
<path d="M213.103 158.189L217.748 162.848C217.804 162.903 217.863 162.942 217.928 162.965C217.993 162.988 218.062 163 218.135 163C218.209 163 218.278 162.988 218.343 162.965C218.407 162.942 218.467 162.903 218.522 162.848L223.181 158.189C223.31 158.06 223.375 157.899 223.375 157.705C223.375 157.512 223.306 157.346 223.168 157.207C223.029 157.069 222.868 157 222.684 157C222.499 157 222.338 157.069 222.2 157.207L218.135 161.272L214.071 157.207C213.942 157.078 213.783 157.014 213.594 157.014C213.405 157.014 213.241 157.083 213.103 157.221C212.965 157.359 212.896 157.521 212.896 157.705C212.896 157.889 212.965 158.051 213.103 158.189Z" fill="#667085"/>
</g>
<defs>
<filter id="filter0_dd_997_4085" x="174.635" y="-33" width="87" height="215" filterUnits="userSpaceOnUse" color-interpolation-filters="sRGB">
<feFlood flood-opacity="0" result="BackgroundImageFix"/>
<feColorMatrix in="SourceAlpha" type="matrix" values="0 0 0 0 0 0 0 0 0 0 0 0 0 0 0 0 0 0 127 0" result="hardAlpha"/>
<feMorphology radius="2" operator="erode" in="SourceAlpha" result="effect1_dropShadow_997_4085"/>
<feOffset dy="2"/>
<feGaussianBlur stdDeviation="2"/>
<feColorMatrix type="matrix" values="0 0 0 0 0.0627451 0 0 0 0 0.0941176 0 0 0 0 0.156863 0 0 0 0.06 0"/>
<feBlend mode="normal" in2="BackgroundImageFix" result="effect1_dropShadow_997_4085"/>
<feColorMatrix in="SourceAlpha" type="matrix" values="0 0 0 0 0 0 0 0 0 0 0 0 0 0 0 0 0 0 127 0" result="hardAlpha"/>
<feMorphology radius="2" operator="erode" in="SourceAlpha" result="effect2_dropShadow_997_4085"/>
<feOffset dy="4"/>
<feGaussianBlur stdDeviation="4"/>
<feColorMatrix type="matrix" values="0 0 0 0 0.0627451 0 0 0 0 0.0941176 0 0 0 0 0.156863 0 0 0 0.1 0"/>
<feBlend mode="normal" in2="effect1_dropShadow_997_4085" result="effect2_dropShadow_997_4085"/>
<feBlend mode="normal" in="SourceGraphic" in2="effect2_dropShadow_997_4085" result="shape"/>
</filter>
</defs>
</svg>
