<svg width="15" height="15" viewBox="0 0 15 15" fill="none" xmlns="http://www.w3.org/2000/svg">
<path d="M10.3339 9.3387L9.70979 9.34051L9.48799 9.13499C10.2863 8.23475 10.7232 7.08714 10.7189 5.90159C10.7161 4.91999 10.4121 3.96131 9.84552 3.14677C9.27892 2.33223 8.4751 1.69843 7.53572 1.3255C6.59633 0.952574 5.56357 0.857278 4.56804 1.05166C3.57251 1.24605 2.65891 1.72138 1.94279 2.41756C1.22666 3.11373 0.740166 3.99948 0.544823 4.96279C0.349481 5.9261 0.454064 6.92372 0.845348 7.82947C1.23663 8.73523 1.89704 9.50845 2.74307 10.0513C3.58909 10.5943 4.58273 10.8825 5.59833 10.8795C6.87023 10.8758 8.03811 10.422 8.93654 9.67107L9.15046 9.88425L9.15221 10.4875L13.1132 14.2861L14.287 13.145L10.3339 9.3387ZM5.5939 9.35242C3.62681 9.35812 2.03447 7.82798 2.02896 5.92675C2.02344 4.02552 3.60689 2.48619 5.57398 2.48049C7.54107 2.4748 9.13341 4.00493 9.13892 5.90617C9.14444 7.8074 7.561 9.34673 5.5939 9.35242Z" fill="black" fill-opacity="0.24"/>
</svg>
