<svg width="151" height="29" viewBox="0 0 151 29" fill="none" xmlns="http://www.w3.org/2000/svg">
<path d="M20.9002 16.0055L20.3582 16.007L20.1655 15.8286C20.8589 15.0467 21.2383 14.05 21.2346 13.0204C21.2321 12.1679 20.9681 11.3353 20.476 10.6279C19.984 9.92043 19.2858 9.36998 18.47 9.0461C17.6542 8.72222 16.7572 8.63945 15.8926 8.80827C15.028 8.97709 14.2346 9.38992 13.6126 9.99454C12.9907 10.5992 12.5681 11.3684 12.3985 12.205C12.2288 13.0417 12.3197 13.9081 12.6595 14.6947C12.9993 15.4814 13.5729 16.1529 14.3076 16.6244C15.0424 17.0959 15.9054 17.3462 16.7874 17.3437C17.892 17.3405 18.9063 16.9463 19.6866 16.2941L19.8724 16.4793L19.8739 17.0032L23.314 20.3023L24.3334 19.3112L20.9002 16.0055V16.0055ZM16.7836 16.0174C15.0752 16.0223 13.6922 14.6934 13.6874 13.0422C13.6827 11.391 15.0579 10.0541 16.7663 10.0492C18.4747 10.0443 19.8576 11.3732 19.8624 13.0244C19.8672 14.6756 18.492 16.0124 16.7836 16.0174Z" fill="black" fill-opacity="0.24"/>
<path d="M40.9786 11.1796L40.9997 18.4523L39.9911 18.4552L36.279 13.1322L36.2115 13.1324L36.227 18.4661L35.1297 18.4693L35.1086 11.1966L36.1242 11.1937L39.84 16.5239L39.9074 16.5237L39.8919 11.1828L40.9786 11.1796ZM43.5675 15.2062L43.5769 18.4449L42.5151 18.4479L42.494 11.1752L43.5416 11.1722L43.5494 13.8782L43.6169 13.878C43.7439 13.584 43.9385 13.3503 44.2008 13.1767C44.4631 13.0031 44.8061 12.9157 45.2299 12.9145C45.604 12.9134 45.9309 12.9894 46.2107 13.1425C46.4928 13.2955 46.7113 13.5245 46.8661 13.8295C47.0232 14.1321 47.1024 14.5106 47.1038 14.9652L47.1138 18.4346L46.052 18.4377L46.0423 15.0961C46.0412 14.696 45.9373 14.3862 45.7307 14.1666C45.5241 13.9446 45.2373 13.8342 44.8704 13.8353C44.6194 13.836 44.3947 13.8899 44.1961 13.997C43.9999 14.1041 43.8453 14.2608 43.7323 14.4671C43.6216 14.671 43.5667 14.9174 43.5675 15.2062ZM50.1184 18.5467C49.7728 18.5477 49.4601 18.4846 49.1804 18.3576C48.9006 18.2282 48.6787 18.0406 48.5147 17.7949C48.353 17.5492 48.2716 17.2476 48.2706 16.8901C48.2697 16.5823 48.3281 16.3288 48.4459 16.1296C48.5637 15.9304 48.723 15.7725 48.9239 15.6559C49.1248 15.5393 49.3495 15.4511 49.5979 15.3912C49.8463 15.3313 50.0995 15.2856 50.3574 15.2541C50.684 15.2152 50.9491 15.1837 51.1526 15.1594C51.3561 15.1328 51.504 15.0909 51.5962 15.0338C51.6883 14.9768 51.7342 14.8843 51.7338 14.7565L51.7338 14.7316C51.7329 14.4215 51.6446 14.1814 51.4689 14.0115C51.2956 13.8415 51.0373 13.757 50.694 13.758C50.3365 13.7591 50.055 13.8392 49.8495 13.9984C49.6464 14.1553 49.506 14.3297 49.4285 14.5217L48.4299 14.2973C48.5474 13.9655 48.7194 13.6975 48.9461 13.4932C49.1751 13.2866 49.4387 13.1367 49.7367 13.0435C50.0347 12.9479 50.3482 12.8997 50.6773 12.8987C50.8951 12.8981 51.126 12.9235 51.37 12.9748C51.6164 13.0238 51.8463 13.1155 52.0597 13.2498C52.2756 13.3841 52.4525 13.5766 52.5905 13.8271C52.7286 14.0753 52.7982 14.3983 52.7993 14.796L52.8098 18.4181L51.7729 18.4211L51.7707 17.6754L51.7281 17.6755C51.6598 17.813 51.5573 17.9483 51.4203 18.0812C51.2834 18.2142 51.1074 18.3248 50.8922 18.413C50.677 18.5012 50.4191 18.5458 50.1184 18.5467ZM50.3468 17.6937C50.6403 17.6929 50.8911 17.6341 51.0991 17.5175C51.3095 17.4009 51.4688 17.249 51.5772 17.0616C51.6879 16.8719 51.7429 16.6693 51.7423 16.4539L51.7403 15.7508C51.7025 15.7888 51.6292 15.8245 51.5204 15.8579C51.414 15.889 51.2921 15.9166 51.1549 15.9407C51.0176 15.9624 50.8839 15.9829 50.7538 16.0022C50.6236 16.0191 50.5148 16.0337 50.4272 16.0458C50.2213 16.0724 50.0332 16.1167 49.863 16.1788C49.6951 16.2408 49.5604 16.33 49.4589 16.4463C49.3598 16.5602 49.3105 16.7119 49.3111 16.9013C49.3118 17.164 49.4095 17.3626 49.604 17.497C49.7985 17.629 50.0461 17.6946 50.3468 17.6937ZM51.4604 12.3141L50.7297 11.3645L50.0009 12.3183L49.0421 12.3211L49.042 12.2678L50.284 10.7585L51.1683 10.7559L52.4226 12.258L52.4228 12.3113L51.4604 12.3141ZM50.7059 20.3063C50.5236 20.3069 50.366 20.2458 50.2331 20.123C50.1001 20.0003 50.0334 19.8514 50.0329 19.6762C50.0324 19.501 50.0983 19.3516 50.2305 19.2282C50.3627 19.1047 50.5199 19.0427 50.7022 19.0421C50.8869 19.0416 51.0445 19.1027 51.1751 19.2254C51.308 19.3481 51.3747 19.4971 51.3752 19.6723C51.3757 19.8475 51.3099 19.9968 51.1777 20.1203C51.0478 20.2438 50.8906 20.3058 50.7059 20.3063ZM54.23 20.4595L54.2082 12.9595L55.2452 12.9565L55.2477 13.8407L55.3365 13.8405C55.3977 13.7267 55.4861 13.595 55.6017 13.4455C55.7173 13.2961 55.8779 13.1654 56.0835 13.0535C56.2891 12.9393 56.5612 12.8817 56.8998 12.8807C57.3401 12.8794 57.7334 12.9896 58.0797 13.2111C58.426 13.4326 58.698 13.7526 58.8957 14.1711C59.0958 14.5895 59.1967 15.0935 59.1984 15.683C59.2001 16.2725 59.1033 16.7782 58.908 17.2002C58.7128 17.6198 58.4438 17.9437 58.1012 18.172C57.7586 18.3979 57.3671 18.5115 56.9268 18.5127C56.5953 18.5137 56.3241 18.4589 56.1131 18.3482C55.9044 18.2375 55.7407 18.1078 55.6219 17.959C55.5031 17.8102 55.4115 17.6779 55.3473 17.5621L55.2834 17.5622L55.2918 20.4564L54.23 20.4595ZM55.2566 15.6838C55.2577 16.0673 55.3143 16.4033 55.4264 16.6918C55.5385 16.9803 55.7002 17.2059 55.9114 17.3687C56.1225 17.529 56.3808 17.6088 56.6862 17.6079C57.0034 17.607 57.2683 17.5222 57.4809 17.3535C57.6935 17.1824 57.8538 16.9511 57.9619 16.6596C58.0723 16.3681 58.127 16.04 58.1259 15.6755C58.1249 15.3156 58.0695 14.9926 57.9598 14.7065C57.8524 14.4203 57.6908 14.1947 57.4748 14.0296C57.2613 13.8645 56.9947 13.7824 56.6751 13.7833C56.3674 13.7842 56.1072 13.8643 55.8946 14.0235C55.6843 14.1828 55.5252 14.4046 55.4171 14.689C55.309 14.9734 55.2555 15.305 55.2566 15.6838ZM63.0424 18.3885L63.0266 12.934L64.0457 12.931L64.0483 13.8188L64.1158 13.8186C64.2285 13.5176 64.4137 13.2827 64.6713 13.1139C64.9288 12.9427 65.2375 12.8566 65.5974 12.8555C65.9619 12.8545 66.2676 12.9388 66.5143 13.1086C66.7634 13.2783 66.9475 13.5121 67.0668 13.8101L67.1236 13.8099C67.2529 13.5183 67.4594 13.2857 67.743 13.1121C68.0266 12.9361 68.3649 12.8475 68.7579 12.8464C69.2526 12.8449 69.6567 12.9988 69.9701 13.3081C70.2859 13.6173 70.4447 14.0844 70.4465 14.7094L70.4571 18.367L69.3953 18.3701L69.385 14.8119C69.3839 14.4426 69.2825 14.1754 69.0808 14.0102C68.8791 13.8451 68.6386 13.7629 68.3592 13.7637C68.0136 13.7647 67.7452 13.872 67.5541 14.0857C67.3629 14.2969 67.2678 14.5683 67.2688 14.8997L67.2789 18.3762L66.2206 18.3793L66.2101 14.7536C66.2092 14.4577 66.1162 14.22 65.9311 14.0406C65.7459 13.8613 65.5053 13.772 65.2094 13.7728C65.0082 13.7734 64.8225 13.8272 64.6523 13.9343C64.4845 14.0389 64.3488 14.1849 64.2452 14.3722C64.144 14.5595 64.0937 14.7763 64.0944 15.0225L64.1042 18.3854L63.0424 18.3885ZM73.4679 18.4791C73.1223 18.4801 72.8096 18.4171 72.5299 18.29C72.2501 18.1606 72.0282 17.9731 71.8642 17.7273C71.7025 17.4816 71.6211 17.18 71.6201 16.8225C71.6192 16.5147 71.6776 16.2612 71.7954 16.062C71.9132 15.8628 72.0726 15.7049 72.2735 15.5883C72.4743 15.4718 72.699 15.3835 72.9474 15.3236C73.1958 15.2637 73.449 15.218 73.707 15.1865C74.0335 15.1476 74.2986 15.1161 74.5021 15.0918C74.7057 15.0652 74.8535 15.0233 74.9457 14.9663C75.0378 14.9092 75.0837 14.8167 75.0834 14.6889L75.0833 14.664C75.0824 14.3539 74.9941 14.1138 74.8184 13.9439C74.6451 13.7739 74.3868 13.6895 74.0435 13.6905C73.686 13.6915 73.4046 13.7716 73.1991 13.9308C72.9959 14.0877 72.8556 14.2621 72.778 14.4541L71.7795 14.2297C71.8969 13.8979 72.0689 13.6299 72.2956 13.4256C72.5246 13.219 72.7882 13.0691 73.0862 12.9759C73.3842 12.8803 73.6978 12.8321 74.0268 12.8311C74.2446 12.8305 74.4755 12.8559 74.7195 12.9072C74.9659 12.9562 75.1958 13.0479 75.4092 13.1822C75.6251 13.3166 75.802 13.509 75.94 13.7595C76.0781 14.0077 76.1477 14.3307 76.1488 14.7284L76.1593 18.3505L75.1224 18.3535L75.1202 17.6078L75.0776 17.6079C75.0094 17.7454 74.9068 17.8807 74.7698 18.0137C74.6329 18.1466 74.4569 18.2572 74.2417 18.3454C74.0265 18.4337 73.7686 18.4782 73.4679 18.4791ZM73.6963 17.6261C73.9898 17.6253 74.2406 17.5666 74.4486 17.4499C74.659 17.3333 74.8183 17.1814 74.9267 16.994C75.0374 16.8043 75.0925 16.6017 75.0918 16.3863L75.0898 15.6832C75.052 15.7212 74.9787 15.7569 74.8699 15.7903C74.7635 15.8214 74.6416 15.849 74.5044 15.8731C74.3672 15.8948 74.2335 15.9153 74.1033 15.9346C73.9731 15.9516 73.8643 15.9661 73.7767 15.9782C73.5708 16.0048 73.3828 16.0491 73.2125 16.1112C73.0446 16.1732 72.9099 16.2624 72.8084 16.3787C72.7093 16.4926 72.66 16.6443 72.6606 16.8337C72.6614 17.0965 72.759 17.295 72.9535 17.4294C73.148 17.5614 73.3956 17.627 73.6963 17.6261ZM73.0131 12.2446L72.2992 12.2253C72.2981 11.8323 72.4025 11.5183 72.6125 11.2834C72.8249 11.0484 73.0874 10.9304 73.3999 10.9295C73.5443 10.9291 73.671 10.9536 73.7801 11.003C73.8891 11.05 73.9911 11.1054 74.0859 11.169C74.1832 11.2303 74.2792 11.2856 74.3741 11.3351C74.4713 11.3821 74.579 11.4055 74.6974 11.4052C74.8347 11.4048 74.9458 11.3524 75.0308 11.248C75.1181 11.1435 75.1615 11.0144 75.161 10.8605L75.8607 10.9046C75.8619 11.3 75.7563 11.6116 75.5438 11.8395C75.3314 12.065 75.0702 12.1794 74.76 12.1827C74.592 12.1832 74.4522 12.1599 74.3408 12.1129C74.2318 12.0635 74.1345 12.0081 74.0491 11.9468C73.9637 11.8831 73.876 11.8266 73.7858 11.7771C73.6957 11.7277 73.588 11.7031 73.4625 11.7035C73.3299 11.7039 73.2212 11.7563 73.1362 11.8607C73.0537 11.9627 73.0126 12.0907 73.0131 12.2446ZM82.5179 18.4422C81.99 18.4437 81.5351 18.3255 81.1533 18.0875C80.7738 17.8471 80.4816 17.5153 80.2768 17.0922C80.072 16.669 79.9688 16.184 79.9672 15.6371C79.9656 15.0831 80.0683 14.5939 80.2754 14.1696C80.4825 13.7428 80.7751 13.4094 81.1532 13.1692C81.5313 12.929 81.9772 12.8081 82.4909 12.8066C82.9052 12.8054 83.2748 12.8813 83.5995 13.0342C83.9243 13.1848 84.1865 13.3971 84.3862 13.6712C84.5882 13.9452 84.7087 14.2656 84.7477 14.6325L83.7143 14.6355C83.6567 14.38 83.5259 14.1602 83.3217 13.9761C83.12 13.792 82.8498 13.7005 82.5113 13.7015C82.2154 13.7023 81.9563 13.7812 81.7343 13.9381C81.5145 14.0926 81.3435 14.3133 81.2213 14.6001C81.099 14.8845 81.0384 15.2209 81.0395 15.6091C81.0407 16.0069 81.1021 16.35 81.2236 16.6384C81.3452 16.9269 81.5163 17.1501 81.7369 17.3081C81.9599 17.4661 82.2218 17.5446 82.5224 17.5438C82.7237 17.5432 82.9058 17.506 83.069 17.4321C83.2345 17.3559 83.3727 17.2477 83.4835 17.1077C83.5967 16.9677 83.6756 16.7994 83.72 16.6028L84.7534 16.5998C84.7165 16.9527 84.6026 17.2679 84.4116 17.5454C84.2207 17.8229 83.9644 18.0415 83.6429 18.201C83.3238 18.3606 82.9488 18.441 82.5179 18.4422ZM88.1917 18.4258C87.6804 18.4273 87.2338 18.3114 86.8519 18.0781C86.4701 17.8448 86.1732 17.5178 85.9613 17.097C85.7494 16.6762 85.6426 16.1841 85.641 15.6207C85.6393 15.0549 85.7432 14.5598 85.9527 14.1354C86.1622 13.711 86.4572 13.3811 86.8376 13.1456C87.2181 12.9101 87.664 12.7916 88.1754 12.7902C88.6867 12.7887 89.1333 12.9046 89.5152 13.1378C89.897 13.3711 90.1939 13.6993 90.4058 14.1225C90.6178 14.5456 90.7245 15.0401 90.7262 15.6059C90.7278 16.1694 90.6239 16.6621 90.4144 17.0841C90.2049 17.5061 89.91 17.8349 89.5295 18.0704C89.149 18.3058 88.7031 18.4243 88.1917 18.4258ZM88.1927 17.5345C88.5241 17.5335 88.7985 17.4451 89.0158 17.2693C89.2331 17.0935 89.3934 16.8598 89.4967 16.5683C89.6024 16.2768 89.6547 15.9559 89.6537 15.6055C89.6527 15.2575 89.5985 14.938 89.4911 14.6472C89.3861 14.3539 89.2245 14.1188 89.0061 13.9419C88.7878 13.765 88.513 13.677 88.1815 13.6779C87.8477 13.6789 87.571 13.7685 87.3513 13.9467C87.134 14.1249 86.9726 14.3609 86.8669 14.6548C86.7635 14.9462 86.7124 15.266 86.7134 15.614C86.7144 15.9644 86.7674 16.285 86.8724 16.5759C86.9798 16.8668 87.1427 17.0995 87.361 17.2741C87.5816 17.4486 87.8589 17.5354 88.1927 17.5345ZM88.632 11.0559L90.0028 12.2842L89.0688 12.2869L88.1574 11.4834L87.2613 12.2921L86.3274 12.2948L87.6874 11.0586L88.632 11.0559ZM90.2033 11.6195L89.5427 11.6214L89.5197 11.0107C89.7185 10.9959 89.8652 10.9683 89.9598 10.9277C90.0543 10.8872 90.1015 10.8184 90.1012 10.7214C90.1009 10.6077 90.0391 10.5298 89.9159 10.4875C89.7926 10.4429 89.6375 10.4209 89.4505 10.4214L89.481 9.91705C89.9261 9.91577 90.2636 9.987 90.4937 10.1307C90.7237 10.2721 90.8391 10.4659 90.8398 10.7121C90.8404 10.9134 90.7746 11.0627 90.6423 11.1601C90.51 11.2552 90.3634 11.3137 90.2024 11.3354L90.2033 11.6195ZM94.5716 20.3427L94.5499 12.8427L95.5868 12.8397L95.5893 13.724L95.6781 13.7237C95.7394 13.6099 95.8277 13.4782 95.9433 13.3288C96.0589 13.1793 96.2195 13.0486 96.4251 12.9367C96.6308 12.8225 96.9029 12.7649 97.2414 12.7639C97.6817 12.7626 98.0751 12.8728 98.4213 13.0943C98.7676 13.3158 99.0396 13.6358 99.2373 14.0543C99.4374 14.4728 99.5383 14.9767 99.54 15.5662C99.5417 16.1557 99.4449 16.6614 99.2497 17.0834C99.0544 17.503 98.7854 17.8269 98.4428 18.0552C98.1002 18.2811 97.7087 18.3947 97.2684 18.396C96.9369 18.3969 96.6657 18.3421 96.4547 18.2314C96.246 18.1208 96.0823 17.991 95.9635 17.8422C95.8447 17.6934 95.7532 17.5611 95.6889 17.4453L95.625 17.4455L95.6334 20.3396L94.5716 20.3427ZM95.5982 15.567C95.5994 15.9505 95.656 16.2865 95.7681 16.575C95.8802 16.8635 96.0418 17.0891 96.253 17.2519C96.4642 17.4123 96.7224 17.492 97.0278 17.4911C97.3451 17.4902 97.61 17.4054 97.8226 17.2367C98.0351 17.0656 98.1954 16.8343 98.3035 16.5428C98.4139 16.2513 98.4686 15.9233 98.4675 15.5587C98.4665 15.1988 98.4111 14.8758 98.3014 14.5897C98.194 14.3035 98.0324 14.0779 97.8165 13.9128C97.6029 13.7477 97.3363 13.6656 97.0167 13.6666C96.709 13.6675 96.4488 13.7475 96.2362 13.9067C96.0259 14.066 95.8668 14.2878 95.7587 14.5722C95.6506 14.8566 95.5971 15.1882 95.5982 15.567ZM101.79 15.0377L101.799 18.2763L100.738 18.2794L100.716 11.0067L101.764 11.0037L101.772 13.7096L101.839 13.7094C101.966 13.4155 102.161 13.1817 102.423 13.0082C102.686 12.8346 103.029 12.7472 103.452 12.7459C103.826 12.7449 104.153 12.8209 104.433 12.9739C104.715 13.127 104.934 13.356 105.088 13.661C105.246 13.9635 105.325 14.3421 105.326 14.7966L105.336 18.2661L104.274 18.2692L104.265 14.9275C104.264 14.5275 104.16 14.2176 103.953 13.998C103.746 13.7761 103.46 13.6657 103.093 13.6667C102.842 13.6675 102.617 13.7214 102.419 13.8285C102.222 13.9356 102.068 14.0923 101.955 14.2986C101.844 14.5025 101.789 14.7489 101.79 15.0377ZM106.753 18.262L106.737 12.8075L107.799 12.8044L107.815 18.2589L106.753 18.262ZM107.271 11.9643C107.086 11.9648 106.928 11.9037 106.795 11.781C106.664 11.6559 106.599 11.507 106.598 11.3341C106.598 11.1589 106.662 11.0096 106.792 10.8861C106.924 10.7603 107.083 10.6971 107.267 10.6965C107.452 10.696 107.61 10.7583 107.74 10.8834C107.873 11.0061 107.94 11.1551 107.94 11.3302C107.941 11.5031 107.875 11.6524 107.743 11.7783C107.613 11.9017 107.456 11.9638 107.271 11.9643ZM111.595 18.358C111.057 18.3596 110.594 18.2461 110.205 18.0176C109.818 17.7867 109.519 17.4621 109.307 17.0436C109.098 16.6228 108.992 16.1295 108.991 15.5637C108.989 15.005 109.092 14.5123 109.299 14.0856C109.508 13.6588 109.801 13.3253 110.177 13.0851C110.555 12.8449 110.997 12.7241 111.504 12.7226C111.811 12.7217 112.11 12.7718 112.399 12.8727C112.688 12.9737 112.948 13.1328 113.178 13.3499C113.408 13.567 113.59 13.8494 113.724 14.197C113.857 14.5423 113.925 14.9623 113.926 15.4571L113.927 15.8335L109.591 15.8461L109.589 15.0506L112.885 15.0411C112.884 14.7617 112.826 14.5145 112.712 14.2994C112.598 14.0819 112.437 13.9107 112.231 13.7859C112.027 13.661 111.788 13.5989 111.513 13.5997C111.215 13.6006 110.955 13.6747 110.733 13.8222C110.513 13.9672 110.343 14.1571 110.223 14.3918C110.105 14.6242 110.047 14.8765 110.048 15.1487L110.049 15.7702C110.05 16.1348 110.115 16.4447 110.244 16.7C110.375 16.9553 110.556 17.1501 110.789 17.2844C111.021 17.4163 111.292 17.4818 111.603 17.4809C111.804 17.4803 111.987 17.4514 112.153 17.3941C112.318 17.3344 112.461 17.2464 112.582 17.13C112.702 17.0137 112.794 16.8702 112.857 16.6996L113.863 16.8778C113.783 17.1739 113.64 17.4336 113.432 17.6567C113.227 17.8775 112.968 18.0499 112.656 18.1739C112.346 18.2955 111.992 18.3569 111.595 18.358ZM109.623 12.1457L111.062 10.9093L111.853 10.907L113.302 12.135L112.258 12.1381L111.468 11.4372L110.674 12.1426L109.623 12.1457ZM112.92 11.3478L113.658 10.0495L114.742 10.0463L113.698 11.3455L112.92 11.3478ZM118.561 15.9657L118.552 12.7733L119.617 12.7702L119.633 18.2247L118.589 18.2277L118.586 17.2831L118.529 17.2833C118.405 17.5748 118.204 17.8181 117.928 18.013C117.654 18.2056 117.312 18.3024 116.902 18.3036C116.552 18.3046 116.242 18.2286 115.971 18.0755C115.703 17.92 115.492 17.6898 115.337 17.3849C115.185 17.0799 115.108 16.7025 115.107 16.2527L115.097 12.7833L116.158 12.7802L116.168 16.1218C116.169 16.4935 116.273 16.7891 116.48 17.0087C116.686 17.2282 116.954 17.3376 117.283 17.3366C117.482 17.336 117.68 17.2857 117.876 17.1857C118.074 17.0857 118.238 16.9349 118.368 16.7333C118.5 16.5317 118.564 16.2758 118.561 15.9657Z" fill="#B9B9B9" fill-opacity="0.38"/>
<rect x="0.501448" y="0.498551" width="149.406" height="27" rx="3.5" transform="matrix(0.999996 -0.00289479 0.00289938 0.999996 0.277853 0.571278)" stroke="black" stroke-opacity="0.2"/>
</svg>
