<svg width="250" height="112" viewBox="0 0 250 112" fill="none" xmlns="http://www.w3.org/2000/svg">
<rect x="0.80957" y="0.75" width="248.5" height="184.5" rx="8.25" fill="white" stroke="#667085" stroke-width="0.5"/>
<path d="M53.7405 91.1367L55.4163 86.3125H56.2327L54.1272 92H53.5452L53.7405 91.1367ZM52.1741 86.3125L53.8342 91.1367L54.0413 92H53.4592L51.3577 86.3125H52.1741ZM60.3772 90.1914H61.1272C61.0881 90.5508 60.9853 90.8724 60.8186 91.1562C60.6519 91.4401 60.4163 91.6654 60.1116 91.832C59.8069 91.9961 59.4267 92.0781 58.9709 92.0781C58.6376 92.0781 58.3342 92.0156 58.0608 91.8906C57.79 91.7656 57.5569 91.5885 57.3616 91.3594C57.1663 91.1276 57.0152 90.8503 56.9084 90.5273C56.8043 90.2018 56.7522 89.8398 56.7522 89.4414V88.875C56.7522 88.4766 56.8043 88.1159 56.9084 87.793C57.0152 87.4674 57.1676 87.1888 57.3655 86.957C57.566 86.7253 57.8069 86.5469 58.0881 86.4219C58.3694 86.2969 58.6858 86.2344 59.0374 86.2344C59.467 86.2344 59.8303 86.3151 60.1272 86.4766C60.4241 86.638 60.6545 86.862 60.8186 87.1484C60.9853 87.4323 61.0881 87.7617 61.1272 88.1367H60.3772C60.3407 87.8711 60.273 87.6432 60.1741 87.4531C60.0751 87.2604 59.9345 87.112 59.7522 87.0078C59.5699 86.9036 59.3316 86.8516 59.0374 86.8516C58.7847 86.8516 58.5621 86.8997 58.3694 86.9961C58.1793 87.0924 58.0191 87.2292 57.8889 87.4062C57.7613 87.5833 57.665 87.7956 57.5999 88.043C57.5347 88.2904 57.5022 88.5651 57.5022 88.8672V89.4414C57.5022 89.7201 57.5308 89.9818 57.5881 90.2266C57.648 90.4714 57.7379 90.6862 57.8577 90.8711C57.9775 91.056 58.1298 91.2018 58.3147 91.3086C58.4996 91.4128 58.7183 91.4648 58.9709 91.4648C59.2913 91.4648 59.5465 91.4141 59.7366 91.3125C59.9267 91.2109 60.0699 91.0651 60.1663 90.875C60.2652 90.6849 60.3355 90.457 60.3772 90.1914ZM64.1819 89.3398H62.7405L62.7327 88.7344H64.0413C64.2574 88.7344 64.4462 88.6979 64.6077 88.625C64.7691 88.5521 64.8941 88.4479 64.9827 88.3125C65.0738 88.1745 65.1194 88.0104 65.1194 87.8203C65.1194 87.612 65.079 87.4427 64.9983 87.3125C64.9202 87.1797 64.7991 87.0833 64.635 87.0234C64.4736 86.9609 64.2678 86.9297 64.0178 86.9297H62.9084V92H62.1545V86.3125H64.0178C64.3095 86.3125 64.5699 86.3424 64.7991 86.4023C65.0282 86.4596 65.2222 86.5508 65.3811 86.6758C65.5426 86.7982 65.665 86.9544 65.7483 87.1445C65.8316 87.3346 65.8733 87.5625 65.8733 87.8281C65.8733 88.0625 65.8134 88.2747 65.6936 88.4648C65.5738 88.6523 65.4071 88.806 65.1936 88.9258C64.9827 89.0456 64.7353 89.1224 64.4514 89.1562L64.1819 89.3398ZM64.1467 92H62.4436L62.8694 91.3867H64.1467C64.3863 91.3867 64.5894 91.3451 64.7561 91.2617C64.9254 91.1784 65.0543 91.0612 65.1428 90.9102C65.2314 90.7565 65.2756 90.5755 65.2756 90.3672C65.2756 90.1562 65.2379 89.974 65.1624 89.8203C65.0868 89.6667 64.9683 89.5482 64.8069 89.4648C64.6454 89.3815 64.4371 89.3398 64.1819 89.3398H63.1077L63.1155 88.7344H64.5842L64.7444 88.9531C65.0178 88.9766 65.2496 89.0547 65.4397 89.1875C65.6298 89.3177 65.7743 89.4844 65.8733 89.6875C65.9749 89.8906 66.0256 90.1146 66.0256 90.3594C66.0256 90.7135 65.9475 91.013 65.7913 91.2578C65.6376 91.5 65.4202 91.6849 65.1389 91.8125C64.8577 91.9375 64.5269 92 64.1467 92Z" fill="#29FF34"/>
<g filter="url(#filter0_d_698_1317)">
<circle cx="5" cy="5" r="5" transform="matrix(0.999996 -0.00289498 0.00289967 0.999996 54.2297 96.0288)" fill="#29FF34"/>
<circle cx="5" cy="5" r="4.13791" transform="matrix(0.999996 -0.00289498 0.00289967 0.999996 54.2297 96.0288)" stroke="white" stroke-width="1.72418"/>
</g>
<path d="M55.2874 111.732V112.599C55.2874 113.065 55.2457 113.458 55.1624 113.779C55.079 114.099 54.9592 114.357 54.803 114.552C54.6467 114.748 54.4579 114.889 54.2366 114.978C54.0178 115.064 53.7704 115.107 53.4944 115.107C53.2756 115.107 53.0738 115.08 52.8889 115.025C52.704 114.97 52.5374 114.883 52.3889 114.763C52.2431 114.641 52.1181 114.482 52.0139 114.287C51.9097 114.091 51.8303 113.854 51.7756 113.576C51.7209 113.297 51.6936 112.972 51.6936 112.599V111.732C51.6936 111.266 51.7353 110.875 51.8186 110.56C51.9045 110.245 52.0256 109.992 52.1819 109.802C52.3381 109.61 52.5256 109.472 52.7444 109.388C52.9657 109.305 53.2131 109.263 53.4866 109.263C53.7079 109.263 53.9111 109.291 54.0959 109.345C54.2834 109.397 54.4501 109.482 54.5959 109.599C54.7418 109.714 54.8655 109.867 54.967 110.06C55.0712 110.25 55.1506 110.483 55.2053 110.759C55.26 111.035 55.2874 111.36 55.2874 111.732ZM54.5608 112.716V111.611C54.5608 111.356 54.5452 111.132 54.5139 110.939C54.4853 110.744 54.4423 110.577 54.385 110.439C54.3277 110.301 54.2548 110.189 54.1663 110.103C54.0803 110.017 53.9801 109.955 53.8655 109.916C53.7535 109.874 53.6272 109.853 53.4866 109.853C53.3147 109.853 53.1624 109.886 53.0295 109.951C52.8967 110.013 52.7847 110.113 52.6936 110.251C52.6051 110.389 52.5374 110.57 52.4905 110.794C52.4436 111.018 52.4202 111.291 52.4202 111.611V112.716C52.4202 112.972 52.4345 113.197 52.4631 113.392C52.4944 113.587 52.54 113.757 52.5999 113.9C52.6597 114.041 52.7327 114.156 52.8186 114.248C52.9045 114.339 53.0035 114.406 53.1155 114.451C53.2301 114.492 53.3564 114.513 53.4944 114.513C53.6715 114.513 53.8264 114.479 53.9592 114.412C54.092 114.344 54.2027 114.238 54.2913 114.095C54.3824 113.949 54.4501 113.763 54.4944 113.537C54.5387 113.307 54.5608 113.034 54.5608 112.716ZM56.3069 114.646C56.3069 114.524 56.3446 114.421 56.4202 114.337C56.4983 114.251 56.6103 114.208 56.7561 114.208C56.9019 114.208 57.0126 114.251 57.0881 114.337C57.1663 114.421 57.2053 114.524 57.2053 114.646C57.2053 114.766 57.1663 114.867 57.0881 114.951C57.0126 115.034 56.9019 115.076 56.7561 115.076C56.6103 115.076 56.4983 115.034 56.4202 114.951C56.3446 114.867 56.3069 114.766 56.3069 114.646ZM61.0999 109.333H61.1624V109.947H61.0999C60.717 109.947 60.3967 110.009 60.1389 110.134C59.8811 110.257 59.6767 110.422 59.5256 110.63C59.3746 110.836 59.2652 111.068 59.1975 111.326C59.1324 111.583 59.0999 111.845 59.0999 112.111V112.947C59.0999 113.199 59.1298 113.423 59.1897 113.619C59.2496 113.811 59.3316 113.974 59.4358 114.107C59.54 114.24 59.6571 114.34 59.7874 114.408C59.9202 114.475 60.0582 114.509 60.2014 114.509C60.3681 114.509 60.5165 114.478 60.6467 114.416C60.7769 114.35 60.8863 114.261 60.9749 114.146C61.066 114.029 61.135 113.891 61.1819 113.732C61.2288 113.573 61.2522 113.399 61.2522 113.208C61.2522 113.039 61.2314 112.876 61.1897 112.72C61.148 112.561 61.0842 112.421 60.9983 112.298C60.9124 112.173 60.8043 112.076 60.6741 112.005C60.5465 111.932 60.3941 111.896 60.217 111.896C60.0165 111.896 59.829 111.945 59.6545 112.044C59.4827 112.141 59.3407 112.268 59.2288 112.427C59.1194 112.583 59.0569 112.754 59.0413 112.939L58.6584 112.935C58.6949 112.643 58.7626 112.395 58.8616 112.189C58.9631 111.981 59.0881 111.811 59.2366 111.681C59.3876 111.548 59.5556 111.452 59.7405 111.392C59.928 111.33 60.1259 111.298 60.3342 111.298C60.6181 111.298 60.8629 111.352 61.0686 111.458C61.2743 111.565 61.4436 111.708 61.5764 111.888C61.7092 112.065 61.8069 112.266 61.8694 112.49C61.9345 112.711 61.967 112.939 61.967 113.173C61.967 113.442 61.9293 113.693 61.8538 113.927C61.7782 114.162 61.665 114.367 61.5139 114.544C61.3655 114.722 61.1819 114.86 60.9631 114.958C60.7444 115.057 60.4905 115.107 60.2014 115.107C59.8941 115.107 59.6259 115.044 59.3967 114.919C59.1676 114.792 58.9775 114.623 58.8264 114.412C58.6754 114.201 58.5621 113.966 58.4866 113.708C58.4111 113.451 58.3733 113.189 58.3733 112.923V112.583C58.3733 112.182 58.4137 111.789 58.4944 111.404C58.5751 111.018 58.7144 110.669 58.9124 110.357C59.1129 110.044 59.3902 109.796 59.7444 109.611C60.0986 109.426 60.5504 109.333 61.0999 109.333ZM66.6702 113.115V113.708H62.5608V113.283L65.1077 109.341H65.6975L65.0647 110.482L63.3811 113.115H66.6702ZM65.8772 109.341V115.029H65.1545V109.341H65.8772Z" fill="#29FF34"/>
<path d="M89.6768 93.1914H90.4268C90.3877 93.5508 90.2848 93.8724 90.1182 94.1562C89.9515 94.4401 89.7158 94.6654 89.4111 94.832C89.1064 94.9961 88.7262 95.0781 88.2705 95.0781C87.9372 95.0781 87.6338 95.0156 87.3604 94.8906C87.0895 94.7656 86.8564 94.5885 86.6611 94.3594C86.4658 94.1276 86.3148 93.8503 86.208 93.5273C86.1038 93.2018 86.0518 92.8398 86.0518 92.4414V91.875C86.0518 91.4766 86.1038 91.1159 86.208 90.793C86.3148 90.4674 86.4671 90.1888 86.665 89.957C86.8656 89.7253 87.1064 89.5469 87.3877 89.4219C87.6689 89.2969 87.9854 89.2344 88.3369 89.2344C88.7666 89.2344 89.1299 89.3151 89.4268 89.4766C89.7236 89.638 89.9541 89.862 90.1182 90.1484C90.2848 90.4323 90.3877 90.7617 90.4268 91.1367H89.6768C89.6403 90.8711 89.5726 90.6432 89.4736 90.4531C89.3747 90.2604 89.234 90.112 89.0518 90.0078C88.8695 89.9036 88.6312 89.8516 88.3369 89.8516C88.0843 89.8516 87.8617 89.8997 87.6689 89.9961C87.4788 90.0924 87.3187 90.2292 87.1885 90.4062C87.0609 90.5833 86.9645 90.7956 86.8994 91.043C86.8343 91.2904 86.8018 91.5651 86.8018 91.8672V92.4414C86.8018 92.7201 86.8304 92.9818 86.8877 93.2266C86.9476 93.4714 87.0374 93.6862 87.1572 93.8711C87.277 94.056 87.4294 94.2018 87.6143 94.3086C87.7992 94.4128 88.0179 94.4648 88.2705 94.4648C88.5908 94.4648 88.846 94.4141 89.0361 94.3125C89.2262 94.2109 89.3695 94.0651 89.4658 93.875C89.5648 93.6849 89.6351 93.457 89.6768 93.1914ZM93.4385 89.3125V95H92.6963V89.3125H93.4385ZM95.2666 89.3125V89.9297H90.8721V89.3125H95.2666ZM100.204 92.168V94.25C100.134 94.3542 100.022 94.4714 99.8682 94.6016C99.7145 94.7292 99.5023 94.8411 99.2314 94.9375C98.9632 95.0312 98.6169 95.0781 98.1924 95.0781C97.846 95.0781 97.527 95.0182 97.2354 94.8984C96.9463 94.776 96.695 94.599 96.4814 94.3672C96.2705 94.1328 96.1064 93.849 95.9893 93.5156C95.8747 93.1797 95.8174 92.7995 95.8174 92.375V91.9336C95.8174 91.5091 95.8669 91.1302 95.9658 90.7969C96.0674 90.4635 96.2158 90.181 96.4111 89.9492C96.6064 89.7148 96.846 89.5378 97.1299 89.418C97.4137 89.2956 97.7393 89.2344 98.1064 89.2344C98.5413 89.2344 98.9046 89.3099 99.1963 89.4609C99.4906 89.6094 99.7197 89.8151 99.8838 90.0781C100.05 90.3411 100.157 90.6406 100.204 90.9766H99.4502C99.4163 90.7708 99.3486 90.5833 99.2471 90.4141C99.1481 90.2448 99.0062 90.1094 98.8213 90.0078C98.6364 89.9036 98.3981 89.8516 98.1064 89.8516C97.8434 89.8516 97.6156 89.8997 97.4229 89.9961C97.2301 90.0924 97.0713 90.2305 96.9463 90.4102C96.8213 90.5898 96.7275 90.8073 96.665 91.0625C96.6051 91.3177 96.5752 91.6055 96.5752 91.9258V92.375C96.5752 92.7031 96.613 92.9961 96.6885 93.2539C96.7666 93.5117 96.8773 93.7318 97.0205 93.9141C97.1637 94.0938 97.3343 94.2305 97.5322 94.3242C97.7327 94.418 97.9541 94.4648 98.1963 94.4648C98.4645 94.4648 98.682 94.4427 98.8486 94.3984C99.0153 94.3516 99.1455 94.2969 99.2393 94.2344C99.333 94.1693 99.4046 94.1081 99.4541 94.0508V92.7773H98.1377V92.168H100.204Z" fill="#FF1826"/>
<g filter="url(#filter1_d_698_1317)">
<circle cx="5" cy="5" r="5" transform="matrix(0.999996 -0.00289498 0.00289967 0.999996 88.5684 99.0288)" fill="#FF1826"/>
<circle cx="5" cy="5" r="4.13791" transform="matrix(0.999996 -0.00289498 0.00289967 0.999996 88.5684 99.0288)" stroke="white" stroke-width="1.72418"/>
</g>
<path d="M71.1965 15.3125H71.927L73.7903 19.9492L75.6497 15.3125H76.384L74.0715 21H73.5012L71.1965 15.3125ZM70.9583 15.3125H71.6028L71.7083 18.7812V21H70.9583V15.3125ZM75.9739 15.3125H76.6184V21H75.8684V18.7812L75.9739 15.3125ZM79.97 18.3398H78.5286L78.5208 17.7344H79.8293C80.0455 17.7344 80.2343 17.6979 80.3958 17.625C80.5572 17.5521 80.6822 17.4479 80.7708 17.3125C80.8619 17.1745 80.9075 17.0104 80.9075 16.8203C80.9075 16.612 80.8671 16.4427 80.7864 16.3125C80.7083 16.1797 80.5872 16.0833 80.4231 16.0234C80.2616 15.9609 80.0559 15.9297 79.8059 15.9297H78.6965V21H77.9426V15.3125H79.8059C80.0976 15.3125 80.358 15.3424 80.5872 15.4023C80.8163 15.4596 81.0103 15.5508 81.1692 15.6758C81.3306 15.7982 81.453 15.9544 81.5364 16.1445C81.6197 16.3346 81.6614 16.5625 81.6614 16.8281C81.6614 17.0625 81.6015 17.2747 81.4817 17.4648C81.3619 17.6523 81.1952 17.806 80.9817 17.9258C80.7708 18.0456 80.5234 18.1224 80.2395 18.1562L79.97 18.3398ZM79.9348 21H78.2317L78.6575 20.3867H79.9348C80.1744 20.3867 80.3775 20.3451 80.5442 20.2617C80.7135 20.1784 80.8424 20.0612 80.9309 19.9102C81.0194 19.7565 81.0637 19.5755 81.0637 19.3672C81.0637 19.1562 81.026 18.974 80.9504 18.8203C80.8749 18.6667 80.7564 18.5482 80.595 18.4648C80.4335 18.3815 80.2252 18.3398 79.97 18.3398H78.8958L78.9036 17.7344H80.3723L80.5325 17.9531C80.8059 17.9766 81.0377 18.0547 81.2278 18.1875C81.4179 18.3177 81.5624 18.4844 81.6614 18.6875C81.7629 18.8906 81.8137 19.1146 81.8137 19.3594C81.8137 19.7135 81.7356 20.013 81.5793 20.2578C81.4257 20.5 81.2083 20.6849 80.927 20.8125C80.6458 20.9375 80.315 21 79.9348 21ZM84.9543 18.3398H83.5129L83.5051 17.7344H84.8137C85.0299 17.7344 85.2187 17.6979 85.3801 17.625C85.5416 17.5521 85.6666 17.4479 85.7551 17.3125C85.8463 17.1745 85.8918 17.0104 85.8918 16.8203C85.8918 16.612 85.8515 16.4427 85.7708 16.3125C85.6926 16.1797 85.5715 16.0833 85.4075 16.0234C85.246 15.9609 85.0403 15.9297 84.7903 15.9297H83.6809V21H82.927V15.3125H84.7903C85.0819 15.3125 85.3424 15.3424 85.5715 15.4023C85.8007 15.4596 85.9947 15.5508 86.1536 15.6758C86.315 15.7982 86.4374 15.9544 86.5208 16.1445C86.6041 16.3346 86.6458 16.5625 86.6458 16.8281C86.6458 17.0625 86.5859 17.2747 86.4661 17.4648C86.3463 17.6523 86.1796 17.806 85.9661 17.9258C85.7551 18.0456 85.5077 18.1224 85.2239 18.1562L84.9543 18.3398ZM84.9192 21H83.2161L83.6418 20.3867H84.9192C85.1588 20.3867 85.3619 20.3451 85.5286 20.2617C85.6978 20.1784 85.8267 20.0612 85.9153 19.9102C86.0038 19.7565 86.0481 19.5755 86.0481 19.3672C86.0481 19.1562 86.0103 18.974 85.9348 18.8203C85.8593 18.6667 85.7408 18.5482 85.5793 18.4648C85.4179 18.3815 85.2096 18.3398 84.9543 18.3398H83.8801L83.8879 17.7344H85.3567L85.5168 17.9531C85.7903 17.9766 86.0221 18.0547 86.2122 18.1875C86.4023 18.3177 86.5468 18.4844 86.6458 18.6875C86.7473 18.8906 86.7981 19.1146 86.7981 19.3594C86.7981 19.7135 86.72 20.013 86.5637 20.2578C86.4101 20.5 86.1926 20.6849 85.9114 20.8125C85.6301 20.9375 85.2994 21 84.9192 21Z" fill="#F000FF"/>
<g filter="url(#filter2_d_698_1317)">
<circle cx="5" cy="5" r="5" transform="matrix(0.999996 -0.00289498 0.00289967 0.999996 73.7837 25.0288)" fill="#F000FF"/>
<circle cx="5" cy="5" r="4.13791" transform="matrix(0.999996 -0.00289498 0.00289967 0.999996 73.7837 25.0288)" stroke="white" stroke-width="1.72418"/>
</g>
<path d="M76.8411 40.7319V41.5991C76.8411 42.0653 76.7994 42.4585 76.7161 42.7788C76.6327 43.0991 76.5129 43.3569 76.3567 43.5522C76.2004 43.7476 76.0116 43.8895 75.7903 43.978C75.5715 44.064 75.3241 44.1069 75.0481 44.1069C74.8293 44.1069 74.6275 44.0796 74.4426 44.0249C74.2577 43.9702 74.0911 43.883 73.9426 43.7632C73.7968 43.6408 73.6718 43.4819 73.5676 43.2866C73.4635 43.0913 73.384 42.8543 73.3293 42.5757C73.2747 42.297 73.2473 41.9715 73.2473 41.5991V40.7319C73.2473 40.2658 73.289 39.8752 73.3723 39.5601C73.4583 39.245 73.5793 38.9924 73.7356 38.8022C73.8918 38.6095 74.0793 38.4715 74.2981 38.3882C74.5194 38.3049 74.7668 38.2632 75.0403 38.2632C75.2616 38.2632 75.4648 38.2905 75.6497 38.3452C75.8372 38.3973 76.0038 38.4819 76.1497 38.5991C76.2955 38.7137 76.4192 38.8674 76.5208 39.0601C76.6249 39.2502 76.7043 39.4832 76.759 39.7593C76.8137 40.0353 76.8411 40.3595 76.8411 40.7319ZM76.1145 41.7163V40.6108C76.1145 40.3556 76.0989 40.1317 76.0676 39.939C76.039 39.7437 75.996 39.577 75.9387 39.439C75.8814 39.3009 75.8085 39.189 75.72 39.103C75.634 39.0171 75.5338 38.9546 75.4192 38.9155C75.3072 38.8739 75.1809 38.853 75.0403 38.853C74.8684 38.853 74.7161 38.8856 74.5833 38.9507C74.4504 39.0132 74.3385 39.1134 74.2473 39.2515C74.1588 39.3895 74.0911 39.5705 74.0442 39.7944C73.9973 40.0184 73.9739 40.2905 73.9739 40.6108V41.7163C73.9739 41.9715 73.9882 42.1968 74.0168 42.3921C74.0481 42.5874 74.0937 42.7567 74.1536 42.8999C74.2135 43.0405 74.2864 43.1564 74.3723 43.2476C74.4583 43.3387 74.5572 43.4064 74.6692 43.4507C74.7838 43.4924 74.9101 43.5132 75.0481 43.5132C75.2252 43.5132 75.3801 43.4793 75.5129 43.4116C75.6458 43.3439 75.7564 43.2384 75.845 43.0952C75.9361 42.9494 76.0038 42.7632 76.0481 42.5366C76.0924 42.3075 76.1145 42.034 76.1145 41.7163ZM77.8606 43.646C77.8606 43.5236 77.8984 43.4207 77.9739 43.3374C78.052 43.2515 78.164 43.2085 78.3098 43.2085C78.4556 43.2085 78.5663 43.2515 78.6418 43.3374C78.72 43.4207 78.759 43.5236 78.759 43.646C78.759 43.7658 78.72 43.8674 78.6418 43.9507C78.5663 44.034 78.4556 44.0757 78.3098 44.0757C78.164 44.0757 78.052 44.034 77.9739 43.9507C77.8984 43.8674 77.8606 43.7658 77.8606 43.646ZM80.5989 43.4233H80.6731C81.0898 43.4233 81.4283 43.3647 81.6887 43.2476C81.9491 43.1304 82.1497 42.9728 82.2903 42.7749C82.4309 42.577 82.5273 42.3543 82.5793 42.1069C82.6314 41.8569 82.6575 41.6004 82.6575 41.3374V40.4663C82.6575 40.2085 82.6275 39.9793 82.5676 39.7788C82.5103 39.5783 82.4296 39.4103 82.3254 39.2749C82.2239 39.1395 82.108 39.0366 81.9778 38.9663C81.8476 38.896 81.7096 38.8608 81.5637 38.8608C81.3971 38.8608 81.2473 38.8947 81.1145 38.9624C80.9843 39.0275 80.8736 39.12 80.7825 39.2397C80.6939 39.3595 80.6262 39.5002 80.5793 39.6616C80.5325 39.8231 80.509 39.9989 80.509 40.189C80.509 40.3582 80.5299 40.5223 80.5715 40.6812C80.6132 40.84 80.677 40.9832 80.7629 41.1108C80.8489 41.2384 80.9556 41.34 81.0833 41.4155C81.2135 41.4884 81.3658 41.5249 81.5403 41.5249C81.7017 41.5249 81.8528 41.4937 81.9934 41.4312C82.1366 41.366 82.2629 41.2788 82.3723 41.1694C82.4843 41.0575 82.5728 40.9312 82.6379 40.7905C82.7056 40.6499 82.7447 40.5028 82.7551 40.3491H83.0989C83.0989 40.5653 83.0559 40.7788 82.97 40.9897C82.8866 41.1981 82.7694 41.3882 82.6184 41.5601C82.4674 41.7319 82.2903 41.87 82.0872 41.9741C81.884 42.0757 81.6627 42.1265 81.4231 42.1265C81.1418 42.1265 80.8984 42.0718 80.6926 41.9624C80.4869 41.853 80.3176 41.7072 80.1848 41.5249C80.0546 41.3426 79.9569 41.1395 79.8918 40.9155C79.8293 40.689 79.7981 40.4598 79.7981 40.228C79.7981 39.9572 79.8359 39.7033 79.9114 39.4663C79.9869 39.2293 80.0989 39.021 80.2473 38.8413C80.3958 38.659 80.5793 38.5171 80.7981 38.4155C81.0194 38.314 81.2747 38.2632 81.5637 38.2632C81.8892 38.2632 82.1666 38.3283 82.3958 38.4585C82.6249 38.5887 82.8111 38.7632 82.9543 38.9819C83.1002 39.2007 83.2069 39.4468 83.2747 39.7202C83.3424 39.9937 83.3762 40.2749 83.3762 40.564V40.8257C83.3762 41.12 83.3567 41.4194 83.3176 41.7241C83.2812 42.0262 83.2096 42.3153 83.1028 42.5913C82.9986 42.8674 82.8463 43.1147 82.6458 43.3335C82.4452 43.5496 82.1835 43.7215 81.8606 43.8491C81.5403 43.9741 81.1444 44.0366 80.6731 44.0366H80.5989V43.4233Z" fill="#F000FF"/>
<path d="M58.3213 42.3125V48H57.5791V42.3125H58.3213ZM60.1494 42.3125V42.9297H55.7549V42.3125H60.1494ZM64.3174 46.1914H65.0674C65.0283 46.5508 64.9255 46.8724 64.7588 47.1562C64.5921 47.4401 64.3564 47.6654 64.0518 47.832C63.7471 47.9961 63.3669 48.0781 62.9111 48.0781C62.5778 48.0781 62.2744 48.0156 62.001 47.8906C61.7301 47.7656 61.4971 47.5885 61.3018 47.3594C61.1064 47.1276 60.9554 46.8503 60.8486 46.5273C60.7445 46.2018 60.6924 45.8398 60.6924 45.4414V44.875C60.6924 44.4766 60.7445 44.1159 60.8486 43.793C60.9554 43.4674 61.1077 43.1888 61.3057 42.957C61.5062 42.7253 61.7471 42.5469 62.0283 42.4219C62.3096 42.2969 62.626 42.2344 62.9775 42.2344C63.4072 42.2344 63.7705 42.3151 64.0674 42.4766C64.3643 42.638 64.5947 42.862 64.7588 43.1484C64.9255 43.4323 65.0283 43.7617 65.0674 44.1367H64.3174C64.2809 43.8711 64.2132 43.6432 64.1143 43.4531C64.0153 43.2604 63.8747 43.112 63.6924 43.0078C63.5101 42.9036 63.2718 42.8516 62.9775 42.8516C62.7249 42.8516 62.5023 42.8997 62.3096 42.9961C62.1195 43.0924 61.9593 43.2292 61.8291 43.4062C61.7015 43.5833 61.6051 43.7956 61.54 44.043C61.4749 44.2904 61.4424 44.5651 61.4424 44.8672V45.4414C61.4424 45.7201 61.471 45.9818 61.5283 46.2266C61.5882 46.4714 61.6781 46.6862 61.7979 46.8711C61.9176 47.056 62.07 47.2018 62.2549 47.3086C62.4398 47.4128 62.6585 47.4648 62.9111 47.4648C63.2314 47.4648 63.4867 47.4141 63.6768 47.3125C63.8669 47.2109 64.0101 47.0651 64.1064 46.875C64.2054 46.6849 64.2757 46.457 64.3174 46.1914ZM68.1221 45.3398H66.6807L66.6729 44.7344H67.9814C68.1976 44.7344 68.3864 44.6979 68.5479 44.625C68.7093 44.5521 68.8343 44.4479 68.9229 44.3125C69.014 44.1745 69.0596 44.0104 69.0596 43.8203C69.0596 43.612 69.0192 43.4427 68.9385 43.3125C68.8604 43.1797 68.7393 43.0833 68.5752 43.0234C68.4137 42.9609 68.208 42.9297 67.958 42.9297H66.8486V48H66.0947V42.3125H67.958C68.2497 42.3125 68.5101 42.3424 68.7393 42.4023C68.9684 42.4596 69.1624 42.5508 69.3213 42.6758C69.4827 42.7982 69.6051 42.9544 69.6885 43.1445C69.7718 43.3346 69.8135 43.5625 69.8135 43.8281C69.8135 44.0625 69.7536 44.2747 69.6338 44.4648C69.514 44.6523 69.3473 44.806 69.1338 44.9258C68.9229 45.0456 68.6755 45.1224 68.3916 45.1562L68.1221 45.3398ZM68.0869 48H66.3838L66.8096 47.3867H68.0869C68.3265 47.3867 68.5296 47.3451 68.6963 47.2617C68.8656 47.1784 68.9945 47.0612 69.083 46.9102C69.1715 46.7565 69.2158 46.5755 69.2158 46.3672C69.2158 46.1562 69.1781 45.974 69.1025 45.8203C69.027 45.6667 68.9085 45.5482 68.7471 45.4648C68.5856 45.3815 68.3773 45.3398 68.1221 45.3398H67.0479L67.0557 44.7344H68.5244L68.6846 44.9531C68.958 44.9766 69.1898 45.0547 69.3799 45.1875C69.57 45.3177 69.7145 45.4844 69.8135 45.6875C69.915 45.8906 69.9658 46.1146 69.9658 46.3594C69.9658 46.7135 69.8877 47.013 69.7314 47.2578C69.5778 47.5 69.3604 47.6849 69.0791 47.8125C68.7979 47.9375 68.4671 48 68.0869 48Z" fill="#0067FF"/>
<g filter="url(#filter3_d_698_1317)">
<circle cx="5" cy="5" r="5" transform="matrix(0.999996 -0.00289498 0.00289967 0.999996 58.0449 52.0288)" fill="#0067FF"/>
<circle cx="5" cy="5" r="4.13791" transform="matrix(0.999996 -0.00289498 0.00289967 0.999996 58.0449 52.0288)" stroke="white" stroke-width="1.72418"/>
</g>
<path d="M59.1025 67.7319V68.5991C59.1025 69.0653 59.0609 69.4585 58.9775 69.7788C58.8942 70.0991 58.7744 70.3569 58.6182 70.5522C58.4619 70.7476 58.2731 70.8895 58.0518 70.978C57.833 71.064 57.5856 71.1069 57.3096 71.1069C57.0908 71.1069 56.889 71.0796 56.7041 71.0249C56.5192 70.9702 56.3525 70.883 56.2041 70.7632C56.0583 70.6408 55.9333 70.4819 55.8291 70.2866C55.7249 70.0913 55.6455 69.8543 55.5908 69.5757C55.5361 69.297 55.5088 68.9715 55.5088 68.5991V67.7319C55.5088 67.2658 55.5505 66.8752 55.6338 66.5601C55.7197 66.245 55.8408 65.9924 55.9971 65.8022C56.1533 65.6095 56.3408 65.4715 56.5596 65.3882C56.7809 65.3049 57.0283 65.2632 57.3018 65.2632C57.5231 65.2632 57.7262 65.2905 57.9111 65.3452C58.0986 65.3973 58.2653 65.4819 58.4111 65.5991C58.557 65.7137 58.6807 65.8674 58.7822 66.0601C58.8864 66.2502 58.9658 66.4832 59.0205 66.7593C59.0752 67.0353 59.1025 67.3595 59.1025 67.7319ZM58.376 68.7163V67.6108C58.376 67.3556 58.3604 67.1317 58.3291 66.939C58.3005 66.7437 58.2575 66.577 58.2002 66.439C58.1429 66.3009 58.07 66.189 57.9814 66.103C57.8955 66.0171 57.7952 65.9546 57.6807 65.9155C57.5687 65.8739 57.4424 65.853 57.3018 65.853C57.1299 65.853 56.9775 65.8856 56.8447 65.9507C56.7119 66.0132 56.5999 66.1134 56.5088 66.2515C56.4202 66.3895 56.3525 66.5705 56.3057 66.7944C56.2588 67.0184 56.2354 67.2905 56.2354 67.6108V68.7163C56.2354 68.9715 56.2497 69.1968 56.2783 69.3921C56.3096 69.5874 56.3551 69.7567 56.415 69.8999C56.4749 70.0405 56.5479 70.1564 56.6338 70.2476C56.7197 70.3387 56.8187 70.4064 56.9307 70.4507C57.0452 70.4924 57.1715 70.5132 57.3096 70.5132C57.4867 70.5132 57.6416 70.4793 57.7744 70.4116C57.9072 70.3439 58.0179 70.2384 58.1064 70.0952C58.1976 69.9494 58.2653 69.7632 58.3096 69.5366C58.3538 69.3075 58.376 69.034 58.376 68.7163ZM60.1221 70.646C60.1221 70.5236 60.1598 70.4207 60.2354 70.3374C60.3135 70.2515 60.4255 70.2085 60.5713 70.2085C60.7171 70.2085 60.8278 70.2515 60.9033 70.3374C60.9814 70.4207 61.0205 70.5236 61.0205 70.646C61.0205 70.7658 60.9814 70.8674 60.9033 70.9507C60.8278 71.034 60.7171 71.0757 60.5713 71.0757C60.4255 71.0757 60.3135 71.034 60.2354 70.9507C60.1598 70.8674 60.1221 70.7658 60.1221 70.646ZM64.915 65.3335H64.9775V65.9468H64.915C64.5322 65.9468 64.2119 66.0093 63.9541 66.1343C63.6963 66.2567 63.4919 66.422 63.3408 66.6304C63.1898 66.8361 63.0804 67.0679 63.0127 67.3257C62.9476 67.5835 62.915 67.8452 62.915 68.1108V68.9468C62.915 69.1994 62.945 69.4233 63.0049 69.6187C63.0648 69.8114 63.1468 69.9741 63.251 70.1069C63.3551 70.2397 63.4723 70.34 63.6025 70.4077C63.7354 70.4754 63.8734 70.5093 64.0166 70.5093C64.1833 70.5093 64.3317 70.478 64.4619 70.4155C64.5921 70.3504 64.7015 70.2606 64.79 70.146C64.8812 70.0288 64.9502 69.8908 64.9971 69.7319C65.0439 69.5731 65.0674 69.3986 65.0674 69.2085C65.0674 69.0392 65.0465 68.8765 65.0049 68.7202C64.9632 68.5614 64.8994 68.4207 64.8135 68.2983C64.7275 68.1733 64.6195 68.0757 64.4893 68.0054C64.3617 67.9325 64.2093 67.896 64.0322 67.896C63.8317 67.896 63.6442 67.9455 63.4697 68.0444C63.2979 68.1408 63.1559 68.2684 63.0439 68.4272C62.9346 68.5835 62.8721 68.7541 62.8564 68.939L62.4736 68.9351C62.5101 68.6434 62.5778 68.3947 62.6768 68.189C62.7783 67.9806 62.9033 67.8114 63.0518 67.6812C63.2028 67.5483 63.3708 67.452 63.5557 67.3921C63.7432 67.3296 63.9411 67.2983 64.1494 67.2983C64.4333 67.2983 64.6781 67.3517 64.8838 67.4585C65.0895 67.5653 65.2588 67.7085 65.3916 67.8882C65.5244 68.0653 65.6221 68.2658 65.6846 68.4897C65.7497 68.7111 65.7822 68.939 65.7822 69.1733C65.7822 69.4416 65.7445 69.6929 65.6689 69.9272C65.5934 70.1616 65.4801 70.3674 65.3291 70.5444C65.1807 70.7215 64.9971 70.8595 64.7783 70.9585C64.5596 71.0575 64.3057 71.1069 64.0166 71.1069C63.7093 71.1069 63.4411 71.0444 63.2119 70.9194C62.9827 70.7918 62.7926 70.6226 62.6416 70.4116C62.4906 70.2007 62.3773 69.9663 62.3018 69.7085C62.2262 69.4507 62.1885 69.189 62.1885 68.9233V68.5835C62.1885 68.1825 62.2288 67.7892 62.3096 67.4038C62.3903 67.0184 62.5296 66.6694 62.7275 66.3569C62.9281 66.0444 63.2054 65.7957 63.5596 65.6108C63.9137 65.4259 64.3656 65.3335 64.915 65.3335ZM69.415 65.3335H69.4775V65.9468H69.415C69.0322 65.9468 68.7119 66.0093 68.4541 66.1343C68.1963 66.2567 67.9919 66.422 67.8408 66.6304C67.6898 66.8361 67.5804 67.0679 67.5127 67.3257C67.4476 67.5835 67.415 67.8452 67.415 68.1108V68.9468C67.415 69.1994 67.445 69.4233 67.5049 69.6187C67.5648 69.8114 67.6468 69.9741 67.751 70.1069C67.8551 70.2397 67.9723 70.34 68.1025 70.4077C68.2354 70.4754 68.3734 70.5093 68.5166 70.5093C68.6833 70.5093 68.8317 70.478 68.9619 70.4155C69.0921 70.3504 69.2015 70.2606 69.29 70.146C69.3812 70.0288 69.4502 69.8908 69.4971 69.7319C69.5439 69.5731 69.5674 69.3986 69.5674 69.2085C69.5674 69.0392 69.5465 68.8765 69.5049 68.7202C69.4632 68.5614 69.3994 68.4207 69.3135 68.2983C69.2275 68.1733 69.1195 68.0757 68.9893 68.0054C68.8617 67.9325 68.7093 67.896 68.5322 67.896C68.3317 67.896 68.1442 67.9455 67.9697 68.0444C67.7979 68.1408 67.6559 68.2684 67.5439 68.4272C67.4346 68.5835 67.3721 68.7541 67.3564 68.939L66.9736 68.9351C67.0101 68.6434 67.0778 68.3947 67.1768 68.189C67.2783 67.9806 67.4033 67.8114 67.5518 67.6812C67.7028 67.5483 67.8708 67.452 68.0557 67.3921C68.2432 67.3296 68.4411 67.2983 68.6494 67.2983C68.9333 67.2983 69.1781 67.3517 69.3838 67.4585C69.5895 67.5653 69.7588 67.7085 69.8916 67.8882C70.0244 68.0653 70.1221 68.2658 70.1846 68.4897C70.2497 68.7111 70.2822 68.939 70.2822 69.1733C70.2822 69.4416 70.2445 69.6929 70.1689 69.9272C70.0934 70.1616 69.9801 70.3674 69.8291 70.5444C69.6807 70.7215 69.4971 70.8595 69.2783 70.9585C69.0596 71.0575 68.8057 71.1069 68.5166 71.1069C68.2093 71.1069 67.9411 71.0444 67.7119 70.9194C67.4827 70.7918 67.2926 70.6226 67.1416 70.4116C66.9906 70.2007 66.8773 69.9663 66.8018 69.7085C66.7262 69.4507 66.6885 69.189 66.6885 68.9233V68.5835C66.6885 68.1825 66.7288 67.7892 66.8096 67.4038C66.8903 67.0184 67.0296 66.6694 67.2275 66.3569C67.4281 66.0444 67.7054 65.7957 68.0596 65.6108C68.4137 65.4259 68.8656 65.3335 69.415 65.3335Z" fill="#0067FF"/>
<path d="M74.5088 95.3398H73.0674L73.0596 94.7344H74.3682C74.5843 94.7344 74.7731 94.6979 74.9346 94.625C75.096 94.5521 75.221 94.4479 75.3096 94.3125C75.4007 94.1745 75.4463 94.0104 75.4463 93.8203C75.4463 93.612 75.4059 93.4427 75.3252 93.3125C75.2471 93.1797 75.126 93.0833 74.9619 93.0234C74.8005 92.9609 74.5947 92.9297 74.3447 92.9297H73.2354V98H72.4814V92.3125H74.3447C74.6364 92.3125 74.8968 92.3424 75.126 92.4023C75.3551 92.4596 75.5492 92.5508 75.708 92.6758C75.8695 92.7982 75.9919 92.9544 76.0752 93.1445C76.1585 93.3346 76.2002 93.5625 76.2002 93.8281C76.2002 94.0625 76.1403 94.2747 76.0205 94.4648C75.9007 94.6523 75.734 94.806 75.5205 94.9258C75.3096 95.0456 75.0622 95.1224 74.7783 95.1562L74.5088 95.3398ZM74.4736 98H72.7705L73.1963 97.3867H74.4736C74.7132 97.3867 74.9163 97.3451 75.083 97.2617C75.2523 97.1784 75.3812 97.0612 75.4697 96.9102C75.5583 96.7565 75.6025 96.5755 75.6025 96.3672C75.6025 96.1562 75.5648 95.974 75.4893 95.8203C75.4137 95.6667 75.2952 95.5482 75.1338 95.4648C74.9723 95.3815 74.764 95.3398 74.5088 95.3398H73.4346L73.4424 94.7344H74.9111L75.0713 94.9531C75.3447 94.9766 75.5765 95.0547 75.7666 95.1875C75.9567 95.3177 76.1012 95.4844 76.2002 95.6875C76.3018 95.8906 76.3525 96.1146 76.3525 96.3594C76.3525 96.7135 76.2744 97.013 76.1182 97.2578C75.9645 97.5 75.7471 97.6849 75.4658 97.8125C75.1846 97.9375 74.8538 98 74.4736 98ZM78.2744 92.3125V98H77.5205V92.3125H78.2744ZM81.1846 98H79.9971L80.0049 97.3867H81.1846C81.5908 97.3867 81.9294 97.3021 82.2002 97.1328C82.471 96.9609 82.6742 96.7214 82.8096 96.4141C82.9476 96.1042 83.0166 95.7422 83.0166 95.3281V94.9805C83.0166 94.6549 82.9775 94.3659 82.8994 94.1133C82.8213 93.8581 82.7067 93.6432 82.5557 93.4688C82.4046 93.2917 82.2197 93.1576 82.001 93.0664C81.7848 92.9753 81.5361 92.9297 81.2549 92.9297H79.9736V92.3125H81.2549C81.6273 92.3125 81.9671 92.375 82.2744 92.5C82.5817 92.6224 82.846 92.8008 83.0674 93.0352C83.2913 93.2669 83.4632 93.5482 83.583 93.8789C83.7028 94.207 83.7627 94.5768 83.7627 94.9883V95.3281C83.7627 95.7396 83.7028 96.1107 83.583 96.4414C83.4632 96.7695 83.29 97.0495 83.0635 97.2812C82.8395 97.513 82.5687 97.6914 82.251 97.8164C81.9359 97.9388 81.5804 98 81.1846 98ZM80.3994 92.3125V98H79.6455V92.3125H80.3994Z" fill="#9100FF"/>
<g filter="url(#filter4_d_698_1317)">
<circle cx="5" cy="5" r="5" transform="matrix(0.999996 -0.00289498 0.00289967 0.999996 73.3066 102.029)" fill="#9100FF"/>
<circle cx="5" cy="5" r="4.13791" transform="matrix(0.999996 -0.00289498 0.00289967 0.999996 73.3066 102.029)" stroke="white" stroke-width="1.72418"/>
</g>
<path d="M139.179 95.1367L140.854 90.3125H141.671L139.565 96H138.983L139.179 95.1367ZM137.612 90.3125L139.272 95.1367L139.479 96H138.897L136.796 90.3125H137.612ZM143.245 90.3125V96H142.491V90.3125H143.245ZM146.644 93.3398H145.202L145.194 92.7344H146.503C146.719 92.7344 146.908 92.6979 147.069 92.625C147.231 92.5521 147.356 92.4479 147.444 92.3125C147.535 92.1745 147.581 92.0104 147.581 91.8203C147.581 91.612 147.541 91.4427 147.46 91.3125C147.382 91.1797 147.261 91.0833 147.097 91.0234C146.935 90.9609 146.729 90.9297 146.479 90.9297H145.37V96H144.616V90.3125H146.479C146.771 90.3125 147.032 90.3424 147.261 90.4023C147.49 90.4596 147.684 90.5508 147.843 90.6758C148.004 90.7982 148.127 90.9544 148.21 91.1445C148.293 91.3346 148.335 91.5625 148.335 91.8281C148.335 92.0625 148.275 92.2747 148.155 92.4648C148.035 92.6523 147.869 92.806 147.655 92.9258C147.444 93.0456 147.197 93.1224 146.913 93.1562L146.644 93.3398ZM146.608 96H144.905L145.331 95.3867H146.608C146.848 95.3867 147.051 95.3451 147.218 95.2617C147.387 95.1784 147.516 95.0612 147.604 94.9102C147.693 94.7565 147.737 94.5755 147.737 94.3672C147.737 94.1562 147.7 93.974 147.624 93.8203C147.549 93.6667 147.43 93.5482 147.269 93.4648C147.107 93.3815 146.899 93.3398 146.644 93.3398H145.569L145.577 92.7344H147.046L147.206 92.9531C147.479 92.9766 147.711 93.0547 147.901 93.1875C148.091 93.3177 148.236 93.4844 148.335 93.6875C148.437 93.8906 148.487 94.1146 148.487 94.3594C148.487 94.7135 148.409 95.013 148.253 95.2578C148.099 95.5 147.882 95.6849 147.601 95.8125C147.319 95.9375 146.989 96 146.608 96Z" fill="#FFD000"/>
<g filter="url(#filter5_d_698_1317)">
<circle cx="5" cy="5" r="5" transform="matrix(0.999996 -0.00289498 0.00289967 0.999996 138.168 102.029)" fill="#FFD000"/>
<circle cx="5" cy="5" r="4.13791" transform="matrix(0.999996 -0.00289498 0.00289967 0.999996 138.168 102.029)" stroke="white" stroke-width="1.72418"/>
</g>
<path d="M157.979 42.8164L156.097 48H155.327L157.495 42.3125H157.991L157.979 42.8164ZM159.558 48L157.671 42.8164L157.659 42.3125H158.155L160.331 48H159.558ZM159.46 45.8945V46.5117H156.265V45.8945H159.46ZM164.479 46.1914H165.229C165.19 46.5508 165.088 46.8724 164.921 47.1562C164.754 47.4401 164.519 47.6654 164.214 47.832C163.909 47.9961 163.529 48.0781 163.073 48.0781C162.74 48.0781 162.437 48.0156 162.163 47.8906C161.892 47.7656 161.659 47.5885 161.464 47.3594C161.269 47.1276 161.118 46.8503 161.011 46.5273C160.907 46.2018 160.854 45.8398 160.854 45.4414V44.875C160.854 44.4766 160.907 44.1159 161.011 43.793C161.118 43.4674 161.27 43.1888 161.468 42.957C161.668 42.7253 161.909 42.5469 162.19 42.4219C162.472 42.2969 162.788 42.2344 163.14 42.2344C163.569 42.2344 163.933 42.3151 164.229 42.4766C164.526 42.638 164.757 42.862 164.921 43.1484C165.088 43.4323 165.19 43.7617 165.229 44.1367H164.479C164.443 43.8711 164.375 43.6432 164.276 43.4531C164.177 43.2604 164.037 43.112 163.854 43.0078C163.672 42.9036 163.434 42.8516 163.14 42.8516C162.887 42.8516 162.664 42.8997 162.472 42.9961C162.282 43.0924 162.121 43.2292 161.991 43.4062C161.864 43.5833 161.767 43.7956 161.702 44.043C161.637 44.2904 161.604 44.5651 161.604 44.8672V45.4414C161.604 45.7201 161.633 45.9818 161.69 46.2266C161.75 46.4714 161.84 46.6862 161.96 46.8711C162.08 47.056 162.232 47.2018 162.417 47.3086C162.602 47.4128 162.821 47.4648 163.073 47.4648C163.394 47.4648 163.649 47.4141 163.839 47.3125C164.029 47.2109 164.172 47.0651 164.269 46.875C164.368 46.6849 164.438 46.457 164.479 46.1914ZM168.284 45.3398H166.843L166.835 44.7344H168.144C168.36 44.7344 168.549 44.6979 168.71 44.625C168.871 44.5521 168.996 44.4479 169.085 44.3125C169.176 44.1745 169.222 44.0104 169.222 43.8203C169.222 43.612 169.181 43.4427 169.101 43.3125C169.022 43.1797 168.901 43.0833 168.737 43.0234C168.576 42.9609 168.37 42.9297 168.12 42.9297H167.011V48H166.257V42.3125H168.12C168.412 42.3125 168.672 42.3424 168.901 42.4023C169.131 42.4596 169.325 42.5508 169.483 42.6758C169.645 42.7982 169.767 42.9544 169.851 43.1445C169.934 43.3346 169.976 43.5625 169.976 43.8281C169.976 44.0625 169.916 44.2747 169.796 44.4648C169.676 44.6523 169.509 44.806 169.296 44.9258C169.085 45.0456 168.838 45.1224 168.554 45.1562L168.284 45.3398ZM168.249 48H166.546L166.972 47.3867H168.249C168.489 47.3867 168.692 47.3451 168.858 47.2617C169.028 47.1784 169.157 47.0612 169.245 46.9102C169.334 46.7565 169.378 46.5755 169.378 46.3672C169.378 46.1562 169.34 45.974 169.265 45.8203C169.189 45.6667 169.071 45.5482 168.909 45.4648C168.748 45.3815 168.539 45.3398 168.284 45.3398H167.21L167.218 44.7344H168.687L168.847 44.9531C169.12 44.9766 169.352 45.0547 169.542 45.1875C169.732 45.3177 169.877 45.4844 169.976 45.6875C170.077 45.8906 170.128 46.1146 170.128 46.3594C170.128 46.7135 170.05 47.013 169.894 47.2578C169.74 47.5 169.522 47.6849 169.241 47.8125C168.96 47.9375 168.629 48 168.249 48Z" fill="#00EEFF"/>
<g filter="url(#filter6_d_698_1317)">
<circle cx="5" cy="5" r="5" transform="matrix(0.999996 -0.00289498 0.00289967 0.999996 158.199 54.0288)" fill="#00EEFF"/>
<circle cx="5" cy="5" r="4.13791" transform="matrix(0.999996 -0.00289498 0.00289967 0.999996 158.199 54.0288)" stroke="white" stroke-width="1.72418"/>
</g>
<path d="M159.413 74.4351V75.0288H155.69V74.5093L157.554 72.4351C157.783 72.1799 157.96 71.9637 158.085 71.7866C158.213 71.6069 158.301 71.4468 158.351 71.3062C158.403 71.1629 158.429 71.0171 158.429 70.8687C158.429 70.6812 158.39 70.5119 158.312 70.3608C158.236 70.2072 158.124 70.0848 157.976 69.9937C157.827 69.9025 157.647 69.8569 157.437 69.8569C157.184 69.8569 156.973 69.9064 156.804 70.0054C156.637 70.1017 156.512 70.2371 156.429 70.4116C156.345 70.5861 156.304 70.7866 156.304 71.0132H155.581C155.581 70.6929 155.651 70.3999 155.792 70.1343C155.933 69.8687 156.141 69.6577 156.417 69.5015C156.693 69.3426 157.033 69.2632 157.437 69.2632C157.796 69.2632 158.103 69.327 158.358 69.4546C158.614 69.5796 158.809 69.7567 158.944 69.9858C159.082 70.2124 159.151 70.478 159.151 70.7827C159.151 70.9494 159.123 71.1187 159.065 71.2905C159.011 71.4598 158.934 71.6291 158.835 71.7983C158.739 71.9676 158.625 72.1343 158.495 72.2983C158.368 72.4624 158.231 72.6239 158.085 72.7827L156.562 74.4351H159.413ZM160.276 74.646C160.276 74.5236 160.314 74.4207 160.39 74.3374C160.468 74.2515 160.58 74.2085 160.726 74.2085C160.871 74.2085 160.982 74.2515 161.058 74.3374C161.136 74.4207 161.175 74.5236 161.175 74.646C161.175 74.7658 161.136 74.8674 161.058 74.9507C160.982 75.034 160.871 75.0757 160.726 75.0757C160.58 75.0757 160.468 75.034 160.39 74.9507C160.314 74.8674 160.276 74.7658 160.276 74.646ZM165.972 69.3413V69.7476L163.616 75.0288H162.854L165.206 69.9351H162.128V69.3413H165.972ZM170.472 69.3413V69.7476L168.116 75.0288H167.354L169.706 69.9351H166.628V69.3413H170.472Z" fill="#00EEFF"/>
<path d="M205.689 82.3125H206.419L208.282 86.9492L210.142 82.3125H210.876L208.564 88H207.993L205.689 82.3125ZM205.45 82.3125H206.095L206.2 85.7812V88H205.45V82.3125ZM210.466 82.3125H211.111V88H210.361V85.7812L210.466 82.3125ZM215.466 86.5625C215.466 86.4297 215.445 86.3125 215.404 86.2109C215.365 86.1068 215.294 86.013 215.193 85.9297C215.094 85.8464 214.956 85.7669 214.779 85.6914C214.604 85.6159 214.383 85.5391 214.115 85.4609C213.833 85.3776 213.579 85.2852 213.353 85.1836C213.126 85.0794 212.932 84.9609 212.771 84.8281C212.609 84.6953 212.486 84.543 212.4 84.3711C212.314 84.1992 212.271 84.0026 212.271 83.7812C212.271 83.5599 212.316 83.3555 212.407 83.168C212.499 82.9805 212.629 82.8177 212.798 82.6797C212.97 82.5391 213.174 82.4297 213.411 82.3516C213.648 82.2734 213.913 82.2344 214.204 82.2344C214.631 82.2344 214.993 82.3164 215.29 82.4805C215.59 82.6419 215.818 82.8542 215.974 83.1172C216.13 83.3776 216.208 83.6562 216.208 83.9531H215.458C215.458 83.7396 215.413 83.5508 215.322 83.3867C215.23 83.2201 215.092 83.0898 214.907 82.9961C214.723 82.8997 214.488 82.8516 214.204 82.8516C213.936 82.8516 213.715 82.8919 213.54 82.9727C213.366 83.0534 213.236 83.1628 213.15 83.3008C213.066 83.4388 213.025 83.5964 213.025 83.7734C213.025 83.8932 213.049 84.0026 213.099 84.1016C213.151 84.1979 213.23 84.2878 213.337 84.3711C213.447 84.4544 213.585 84.5312 213.751 84.6016C213.92 84.6719 214.122 84.7396 214.357 84.8047C214.68 84.8958 214.958 84.9974 215.193 85.1094C215.427 85.2214 215.62 85.3477 215.771 85.4883C215.924 85.6263 216.038 85.7839 216.111 85.9609C216.186 86.1354 216.224 86.3333 216.224 86.5547C216.224 86.7865 216.177 86.9961 216.083 87.1836C215.99 87.3711 215.855 87.5312 215.681 87.6641C215.506 87.7969 215.297 87.8997 215.052 87.9727C214.81 88.043 214.539 88.0781 214.24 88.0781C213.976 88.0781 213.717 88.0417 213.462 87.9688C213.21 87.8958 212.979 87.7865 212.771 87.6406C212.565 87.4948 212.4 87.3151 212.275 87.1016C212.152 86.8854 212.091 86.6354 212.091 86.3516H212.841C212.841 86.5469 212.879 86.7148 212.954 86.8555C213.03 86.9935 213.133 87.1081 213.263 87.1992C213.396 87.2904 213.545 87.3581 213.712 87.4023C213.881 87.444 214.057 87.4648 214.24 87.4648C214.503 87.4648 214.725 87.4284 214.907 87.3555C215.09 87.2826 215.228 87.1784 215.322 87.043C215.418 86.9076 215.466 86.7474 215.466 86.5625ZM219.212 85.3398H217.771L217.763 84.7344H219.072C219.288 84.7344 219.476 84.6979 219.638 84.625C219.799 84.5521 219.924 84.4479 220.013 84.3125C220.104 84.1745 220.15 84.0104 220.15 83.8203C220.15 83.612 220.109 83.4427 220.029 83.3125C219.95 83.1797 219.829 83.0833 219.665 83.0234C219.504 82.9609 219.298 82.9297 219.048 82.9297H217.939V88H217.185V82.3125H219.048C219.34 82.3125 219.6 82.3424 219.829 82.4023C220.059 82.4596 220.253 82.5508 220.411 82.6758C220.573 82.7982 220.695 82.9544 220.779 83.1445C220.862 83.3346 220.904 83.5625 220.904 83.8281C220.904 84.0625 220.844 84.2747 220.724 84.4648C220.604 84.6523 220.437 84.806 220.224 84.9258C220.013 85.0456 219.766 85.1224 219.482 85.1562L219.212 85.3398ZM219.177 88H217.474L217.9 87.3867H219.177C219.417 87.3867 219.62 87.3451 219.786 87.2617C219.956 87.1784 220.085 87.0612 220.173 86.9102C220.262 86.7565 220.306 86.5755 220.306 86.3672C220.306 86.1562 220.268 85.974 220.193 85.8203C220.117 85.6667 219.999 85.5482 219.837 85.4648C219.676 85.3815 219.467 85.3398 219.212 85.3398H218.138L218.146 84.7344H219.615L219.775 84.9531C220.048 84.9766 220.28 85.0547 220.47 85.1875C220.66 85.3177 220.805 85.4844 220.904 85.6875C221.005 85.8906 221.056 86.1146 221.056 86.3594C221.056 86.7135 220.978 87.013 220.822 87.2578C220.668 87.5 220.45 87.6849 220.169 87.8125C219.888 87.9375 219.557 88 219.177 88Z" fill="#FF00AE"/>
<g filter="url(#filter7_d_698_1317)">
<circle cx="5" cy="5" r="5" transform="matrix(0.999996 -0.00289498 0.00289967 0.999996 208.276 94.0288)" fill="#FF00AE"/>
<circle cx="5" cy="5" r="4.13791" transform="matrix(0.999996 -0.00289498 0.00289967 0.999996 208.276 94.0288)" stroke="white" stroke-width="1.72418"/>
</g>
<path d="M206.818 111.83H207.333C207.586 111.83 207.794 111.788 207.958 111.705C208.125 111.619 208.249 111.503 208.329 111.357C208.413 111.208 208.454 111.042 208.454 110.857C208.454 110.638 208.418 110.455 208.345 110.306C208.272 110.158 208.163 110.046 208.017 109.97C207.871 109.895 207.686 109.857 207.462 109.857C207.259 109.857 207.079 109.897 206.923 109.978C206.769 110.056 206.648 110.168 206.56 110.314C206.474 110.46 206.431 110.632 206.431 110.83H205.708C205.708 110.541 205.781 110.278 205.927 110.041C206.073 109.804 206.277 109.615 206.54 109.474C206.806 109.333 207.113 109.263 207.462 109.263C207.806 109.263 208.107 109.324 208.365 109.447C208.622 109.567 208.823 109.746 208.966 109.986C209.109 110.223 209.181 110.518 209.181 110.873C209.181 111.016 209.147 111.169 209.079 111.333C209.014 111.495 208.911 111.646 208.771 111.787C208.633 111.927 208.453 112.043 208.232 112.134C208.01 112.223 207.745 112.267 207.435 112.267H206.818V111.83ZM206.818 112.423V111.99H207.435C207.797 111.99 208.096 112.033 208.333 112.119C208.57 112.205 208.756 112.319 208.892 112.462C209.03 112.606 209.126 112.763 209.181 112.935C209.238 113.104 209.267 113.274 209.267 113.443C209.267 113.708 209.221 113.944 209.13 114.15C209.042 114.356 208.915 114.53 208.751 114.673C208.59 114.817 208.4 114.925 208.181 114.998C207.962 115.07 207.724 115.107 207.466 115.107C207.219 115.107 206.986 115.072 206.767 115.001C206.551 114.931 206.359 114.83 206.193 114.697C206.026 114.561 205.896 114.396 205.802 114.201C205.708 114.003 205.661 113.778 205.661 113.525H206.384C206.384 113.723 206.427 113.896 206.513 114.044C206.601 114.193 206.726 114.309 206.888 114.392C207.052 114.473 207.245 114.513 207.466 114.513C207.687 114.513 207.878 114.475 208.036 114.4C208.198 114.322 208.322 114.205 208.407 114.048C208.496 113.892 208.54 113.695 208.54 113.458C208.54 113.222 208.491 113.028 208.392 112.876C208.293 112.723 208.152 112.61 207.97 112.537C207.79 112.461 207.578 112.423 207.333 112.423H206.818ZM210.353 114.646C210.353 114.524 210.391 114.421 210.466 114.337C210.544 114.251 210.656 114.208 210.802 114.208C210.948 114.208 211.059 114.251 211.134 114.337C211.212 114.421 211.251 114.524 211.251 114.646C211.251 114.766 211.212 114.867 211.134 114.951C211.059 115.034 210.948 115.076 210.802 115.076C210.656 115.076 210.544 115.034 210.466 114.951C210.391 114.867 210.353 114.766 210.353 114.646ZM216.048 109.341V109.748L213.693 115.029H212.931L215.282 109.935H212.204V109.341H216.048ZM220.716 113.115V113.708H216.607V113.283L219.154 109.341H219.743L219.111 110.482L217.427 113.115H220.716ZM219.923 109.341V115.029H219.2V109.341H219.923Z" fill="#FF00AE"/>
<defs>
<filter id="filter0_d_698_1317" x="47.3474" y="92.5658" width="23.7935" height="23.7935" filterUnits="userSpaceOnUse" color-interpolation-filters="sRGB">
<feFlood flood-opacity="0" result="BackgroundImageFix"/>
<feColorMatrix in="SourceAlpha" type="matrix" values="0 0 0 0 0 0 0 0 0 0 0 0 0 0 0 0 0 0 127 0" result="hardAlpha"/>
<feOffset dy="3.44837"/>
<feGaussianBlur stdDeviation="3.44837"/>
<feComposite in2="hardAlpha" operator="out"/>
<feColorMatrix type="matrix" values="0 0 0 0 0 0 0 0 0 0 0 0 0 0 0 0 0 0 0.09 0"/>
<feBlend mode="normal" in2="BackgroundImageFix" result="effect1_dropShadow_698_1317"/>
<feBlend mode="normal" in="SourceGraphic" in2="effect1_dropShadow_698_1317" result="shape"/>
</filter>
<filter id="filter1_d_698_1317" x="81.686" y="95.5658" width="23.7935" height="23.7935" filterUnits="userSpaceOnUse" color-interpolation-filters="sRGB">
<feFlood flood-opacity="0" result="BackgroundImageFix"/>
<feColorMatrix in="SourceAlpha" type="matrix" values="0 0 0 0 0 0 0 0 0 0 0 0 0 0 0 0 0 0 127 0" result="hardAlpha"/>
<feOffset dy="3.44837"/>
<feGaussianBlur stdDeviation="3.44837"/>
<feComposite in2="hardAlpha" operator="out"/>
<feColorMatrix type="matrix" values="0 0 0 0 0 0 0 0 0 0 0 0 0 0 0 0 0 0 0.09 0"/>
<feBlend mode="normal" in2="BackgroundImageFix" result="effect1_dropShadow_698_1317"/>
<feBlend mode="normal" in="SourceGraphic" in2="effect1_dropShadow_698_1317" result="shape"/>
</filter>
<filter id="filter2_d_698_1317" x="66.9014" y="21.5658" width="23.7935" height="23.7935" filterUnits="userSpaceOnUse" color-interpolation-filters="sRGB">
<feFlood flood-opacity="0" result="BackgroundImageFix"/>
<feColorMatrix in="SourceAlpha" type="matrix" values="0 0 0 0 0 0 0 0 0 0 0 0 0 0 0 0 0 0 127 0" result="hardAlpha"/>
<feOffset dy="3.44837"/>
<feGaussianBlur stdDeviation="3.44837"/>
<feComposite in2="hardAlpha" operator="out"/>
<feColorMatrix type="matrix" values="0 0 0 0 0 0 0 0 0 0 0 0 0 0 0 0 0 0 0.09 0"/>
<feBlend mode="normal" in2="BackgroundImageFix" result="effect1_dropShadow_698_1317"/>
<feBlend mode="normal" in="SourceGraphic" in2="effect1_dropShadow_698_1317" result="shape"/>
</filter>
<filter id="filter3_d_698_1317" x="51.1626" y="48.5658" width="23.7935" height="23.7935" filterUnits="userSpaceOnUse" color-interpolation-filters="sRGB">
<feFlood flood-opacity="0" result="BackgroundImageFix"/>
<feColorMatrix in="SourceAlpha" type="matrix" values="0 0 0 0 0 0 0 0 0 0 0 0 0 0 0 0 0 0 127 0" result="hardAlpha"/>
<feOffset dy="3.44837"/>
<feGaussianBlur stdDeviation="3.44837"/>
<feComposite in2="hardAlpha" operator="out"/>
<feColorMatrix type="matrix" values="0 0 0 0 0 0 0 0 0 0 0 0 0 0 0 0 0 0 0.09 0"/>
<feBlend mode="normal" in2="BackgroundImageFix" result="effect1_dropShadow_698_1317"/>
<feBlend mode="normal" in="SourceGraphic" in2="effect1_dropShadow_698_1317" result="shape"/>
</filter>
<filter id="filter4_d_698_1317" x="66.4243" y="98.5658" width="23.7935" height="23.7935" filterUnits="userSpaceOnUse" color-interpolation-filters="sRGB">
<feFlood flood-opacity="0" result="BackgroundImageFix"/>
<feColorMatrix in="SourceAlpha" type="matrix" values="0 0 0 0 0 0 0 0 0 0 0 0 0 0 0 0 0 0 127 0" result="hardAlpha"/>
<feOffset dy="3.44837"/>
<feGaussianBlur stdDeviation="3.44837"/>
<feComposite in2="hardAlpha" operator="out"/>
<feColorMatrix type="matrix" values="0 0 0 0 0 0 0 0 0 0 0 0 0 0 0 0 0 0 0.09 0"/>
<feBlend mode="normal" in2="BackgroundImageFix" result="effect1_dropShadow_698_1317"/>
<feBlend mode="normal" in="SourceGraphic" in2="effect1_dropShadow_698_1317" result="shape"/>
</filter>
<filter id="filter5_d_698_1317" x="131.286" y="98.5658" width="23.7935" height="23.7935" filterUnits="userSpaceOnUse" color-interpolation-filters="sRGB">
<feFlood flood-opacity="0" result="BackgroundImageFix"/>
<feColorMatrix in="SourceAlpha" type="matrix" values="0 0 0 0 0 0 0 0 0 0 0 0 0 0 0 0 0 0 127 0" result="hardAlpha"/>
<feOffset dy="3.44837"/>
<feGaussianBlur stdDeviation="3.44837"/>
<feComposite in2="hardAlpha" operator="out"/>
<feColorMatrix type="matrix" values="0 0 0 0 0 0 0 0 0 0 0 0 0 0 0 0 0 0 0.09 0"/>
<feBlend mode="normal" in2="BackgroundImageFix" result="effect1_dropShadow_698_1317"/>
<feBlend mode="normal" in="SourceGraphic" in2="effect1_dropShadow_698_1317" result="shape"/>
</filter>
<filter id="filter6_d_698_1317" x="151.317" y="50.5658" width="23.7935" height="23.7935" filterUnits="userSpaceOnUse" color-interpolation-filters="sRGB">
<feFlood flood-opacity="0" result="BackgroundImageFix"/>
<feColorMatrix in="SourceAlpha" type="matrix" values="0 0 0 0 0 0 0 0 0 0 0 0 0 0 0 0 0 0 127 0" result="hardAlpha"/>
<feOffset dy="3.44837"/>
<feGaussianBlur stdDeviation="3.44837"/>
<feComposite in2="hardAlpha" operator="out"/>
<feColorMatrix type="matrix" values="0 0 0 0 0 0 0 0 0 0 0 0 0 0 0 0 0 0 0.09 0"/>
<feBlend mode="normal" in2="BackgroundImageFix" result="effect1_dropShadow_698_1317"/>
<feBlend mode="normal" in="SourceGraphic" in2="effect1_dropShadow_698_1317" result="shape"/>
</filter>
<filter id="filter7_d_698_1317" x="201.394" y="90.5658" width="23.7935" height="23.7935" filterUnits="userSpaceOnUse" color-interpolation-filters="sRGB">
<feFlood flood-opacity="0" result="BackgroundImageFix"/>
<feColorMatrix in="SourceAlpha" type="matrix" values="0 0 0 0 0 0 0 0 0 0 0 0 0 0 0 0 0 0 127 0" result="hardAlpha"/>
<feOffset dy="3.44837"/>
<feGaussianBlur stdDeviation="3.44837"/>
<feComposite in2="hardAlpha" operator="out"/>
<feColorMatrix type="matrix" values="0 0 0 0 0 0 0 0 0 0 0 0 0 0 0 0 0 0 0.09 0"/>
<feBlend mode="normal" in2="BackgroundImageFix" result="effect1_dropShadow_698_1317"/>
<feBlend mode="normal" in="SourceGraphic" in2="effect1_dropShadow_698_1317" result="shape"/>
</filter>
</defs>
</svg>
