<svg width="576" height="260" viewBox="0 0 576 260" fill="none" xmlns="http://www.w3.org/2000/svg">
<path d="M6.3669 11.0218V12.0469H1.934V11.0218H3.55755V6.3506C3.55755 6.1659 3.56309 5.97565 3.57417 5.77986L2.42162 6.74402C2.35513 6.79574 2.28863 6.82898 2.22214 6.84376C2.15934 6.85484 2.09839 6.85484 2.03928 6.84376C1.98387 6.83268 1.934 6.81421 1.88967 6.78835C1.84534 6.7588 1.8121 6.7274 1.78993 6.69415L1.35772 6.10125L3.80136 4.02333H4.92621V11.0218H6.3669ZM9.3101 6.9435C9.48742 6.90656 9.65734 6.8807 9.81988 6.86592C9.98242 6.84745 10.1394 6.83822 10.2909 6.83822C10.712 6.83822 11.0833 6.90102 11.4046 7.02662C11.726 7.15222 11.9957 7.32584 12.2136 7.54748C12.4316 7.76913 12.596 8.02956 12.7068 8.32878C12.8176 8.62431 12.873 8.94385 12.873 9.2874C12.873 9.71222 12.7973 10.1001 12.6459 10.451C12.4981 10.802 12.2912 11.103 12.0253 11.3542C11.7593 11.6017 11.4434 11.7938 11.0777 11.9305C10.7157 12.0672 10.3204 12.1355 9.89192 12.1355C9.64072 12.1355 9.40245 12.1097 9.17711 12.058C8.95177 12.0062 8.73936 11.9379 8.53988 11.8529C8.3441 11.7643 8.16124 11.6645 7.99131 11.5537C7.82508 11.4392 7.67547 11.3191 7.54248 11.1935L7.96361 10.6117C8.05227 10.4861 8.16863 10.4233 8.3127 10.4233C8.40505 10.4233 8.49925 10.4529 8.5953 10.512C8.69134 10.5711 8.80032 10.6357 8.92222 10.7059C9.04782 10.7761 9.19374 10.8408 9.35997 10.8999C9.5299 10.959 9.73307 10.9885 9.96949 10.9885C10.2207 10.9885 10.4423 10.9479 10.6344 10.8666C10.8265 10.7853 10.9854 10.6727 11.111 10.5286C11.2403 10.3808 11.3363 10.2072 11.3991 10.0077C11.4656 9.80457 11.4988 9.58477 11.4988 9.34835C11.4988 8.91245 11.3714 8.57259 11.1165 8.32878C10.8653 8.08128 10.4922 7.95753 9.9972 7.95753C9.61671 7.95753 9.22698 8.02771 8.82802 8.16809L7.97469 7.92428L8.63962 4.03441H12.596V4.61623C12.596 4.81201 12.535 4.97086 12.4131 5.09277C12.2912 5.21467 12.0844 5.27562 11.7925 5.27562H9.5927L9.3101 6.9435ZM17.4343 9.02696V6.40601C17.4343 6.15851 17.4509 5.88515 17.4841 5.58593L14.9962 9.02696H17.4343ZM19.6341 9.02696V9.81934C19.6341 9.89323 19.6101 9.95787 19.562 10.0133C19.514 10.065 19.4457 10.0909 19.357 10.0909H18.6256V12.0469H17.4343V10.0909H14.0542C13.9618 10.0909 13.8805 10.0632 13.8104 10.0077C13.7402 9.94864 13.6958 9.8766 13.6774 9.79164L13.5333 9.099L17.329 4.02887H18.6256V9.02696H19.6341ZM29.4981 4.03441V12.0469H28.1849V6.87147C28.1849 6.6646 28.196 6.44111 28.2181 6.20099L25.7967 10.7503C25.6822 10.9682 25.5067 11.0772 25.2703 11.0772H25.0597C24.8233 11.0772 24.6478 10.9682 24.5333 10.7503L22.0841 6.18437C22.0952 6.30627 22.1044 6.42633 22.1118 6.54454C22.1192 6.66275 22.1229 6.77173 22.1229 6.87147V12.0469H20.8097V4.03441H21.9345C22.001 4.03441 22.0583 4.03626 22.1063 4.03995C22.1543 4.04365 22.1968 4.05288 22.2337 4.06766C22.2744 4.08243 22.3095 4.10645 22.339 4.13969C22.3723 4.17294 22.4037 4.21727 22.4332 4.27268L24.8325 8.7222C24.8953 8.84041 24.9526 8.96232 25.0043 9.08792C25.0597 9.21351 25.1133 9.34281 25.165 9.47579C25.2167 9.33911 25.2703 9.20797 25.3257 9.08237C25.3811 8.95308 25.4402 8.82933 25.503 8.71112L27.8691 4.27268C27.8986 4.21727 27.93 4.17294 27.9633 4.13969C27.9965 4.10645 28.0316 4.08243 28.0685 4.06766C28.1092 4.05288 28.1535 4.04365 28.2015 4.03995C28.2495 4.03626 28.3068 4.03441 28.3733 4.03441H29.4981Z" fill="#BFC3C8"/>
<path d="M6.3669 47.9837V49.0088H1.934V47.9837H3.55755V43.3125C3.55755 43.1278 3.56309 42.9376 3.57417 42.7418L2.42162 43.7059C2.35513 43.7577 2.28863 43.7909 2.22214 43.8057C2.15934 43.8168 2.09839 43.8168 2.03928 43.8057C1.98387 43.7946 1.934 43.7761 1.88967 43.7503C1.84534 43.7207 1.8121 43.6893 1.78993 43.6561L1.35772 43.0632L3.80136 40.9852H4.92621V47.9837H6.3669ZM11.0057 45.9889V43.3679C11.0057 43.1204 11.0223 42.8471 11.0556 42.5478L8.56759 45.9889H11.0057ZM13.2055 45.9889V46.7813C13.2055 46.8551 13.1815 46.9198 13.1335 46.9752C13.0855 47.0269 13.0171 47.0528 12.9285 47.0528H12.197V49.0088H11.0057V47.0528H7.6256C7.53325 47.0528 7.45198 47.0251 7.38179 46.9697C7.3116 46.9106 7.26727 46.8385 7.2488 46.7536L7.10473 46.0609L10.9004 40.9908H12.197V45.9889H13.2055ZM19.6396 45.0026C19.6396 45.7007 19.5639 46.3084 19.4124 46.8256C19.2647 47.3391 19.0578 47.7639 18.7918 48.1C18.5295 48.4362 18.2174 48.6874 17.8554 48.8536C17.4971 49.0162 17.1092 49.0974 16.6917 49.0974C16.2743 49.0974 15.8864 49.0162 15.5281 48.8536C15.1735 48.6874 14.865 48.4362 14.6027 48.1C14.3405 47.7639 14.1354 47.3391 13.9877 46.8256C13.8399 46.3084 13.766 45.7007 13.766 45.0026C13.766 44.3007 13.8399 43.693 13.9877 43.1795C14.1354 42.666 14.3405 42.2412 14.6027 41.9051C14.865 41.5689 15.1735 41.3196 15.5281 41.157C15.8864 40.9908 16.2743 40.9077 16.6917 40.9077C17.1092 40.9077 17.4971 40.9908 17.8554 41.157C18.2174 41.3196 18.5295 41.5689 18.7918 41.9051C19.0578 42.2412 19.2647 42.666 19.4124 43.1795C19.5639 43.693 19.6396 44.3007 19.6396 45.0026ZM18.2266 45.0026C18.2266 44.4226 18.1842 43.9424 18.0992 43.5619C18.0142 43.1814 17.8997 42.8785 17.7556 42.6531C17.6153 42.4278 17.4527 42.2708 17.268 42.1821C17.0833 42.0898 16.8912 42.0436 16.6917 42.0436C16.496 42.0436 16.3057 42.0898 16.121 42.1821C15.94 42.2708 15.7793 42.4278 15.6389 42.6531C15.4986 42.8785 15.3859 43.1814 15.3009 43.5619C15.2197 43.9424 15.179 44.4226 15.179 45.0026C15.179 45.5825 15.2197 46.0628 15.3009 46.4432C15.3859 46.8237 15.4986 47.1267 15.6389 47.352C15.7793 47.5773 15.94 47.7362 16.121 47.8285C16.3057 47.9172 16.496 47.9615 16.6917 47.9615C16.8912 47.9615 17.0833 47.9172 17.268 47.8285C17.4527 47.7362 17.6153 47.5773 17.7556 47.352C17.8997 47.1267 18.0142 46.8237 18.0992 46.4432C18.1842 46.0628 18.2266 45.5825 18.2266 45.0026ZM29.4981 40.9963V49.0088H28.1849V43.8334C28.1849 43.6265 28.196 43.403 28.2181 43.1629L25.7967 47.7122C25.6822 47.9301 25.5067 48.0391 25.2703 48.0391H25.0597C24.8233 48.0391 24.6478 47.9301 24.5333 47.7122L22.0841 43.1463C22.0952 43.2682 22.1044 43.3882 22.1118 43.5065C22.1192 43.6247 22.1229 43.7336 22.1229 43.8334V49.0088H20.8097V40.9963H21.9345C22.001 40.9963 22.0583 40.9982 22.1063 41.0019C22.1543 41.0056 22.1968 41.0148 22.2337 41.0296C22.2744 41.0443 22.3095 41.0684 22.339 41.1016C22.3723 41.1349 22.4037 41.1792 22.4332 41.2346L24.8325 45.6841C24.8953 45.8023 24.9526 45.9242 25.0043 46.0498C25.0597 46.1754 25.1133 46.3047 25.165 46.4377C25.2167 46.301 25.2703 46.1699 25.3257 46.0443C25.3811 45.915 25.4402 45.7912 25.503 45.673L27.8691 41.2346C27.8986 41.1792 27.93 41.1349 27.9633 41.1016C27.9965 41.0684 28.0316 41.0443 28.0685 41.0296C28.1092 41.0148 28.1535 41.0056 28.2015 41.0019C28.2495 40.9982 28.3068 40.9963 28.3733 40.9963H29.4981Z" fill="#BFC3C8"/>
<path d="M6.3669 84.9466V85.9717H1.934V84.9466H3.55755V80.2754C3.55755 80.0907 3.56309 79.9005 3.57417 79.7047L2.42162 80.6688C2.35513 80.7205 2.28863 80.7538 2.22214 80.7686C2.15934 80.7796 2.09839 80.7796 2.03928 80.7686C1.98387 80.7575 1.934 80.739 1.88967 80.7132C1.84534 80.6836 1.8121 80.6522 1.78993 80.619L1.35772 80.0261L3.80136 77.9481H4.92621V84.9466H6.3669ZM12.4962 84.6972C12.644 84.6972 12.7604 84.7397 12.8453 84.8247C12.934 84.9059 12.9783 85.0149 12.9783 85.1516V85.9717H7.48153V85.5173C7.48153 85.425 7.5 85.3289 7.53694 85.2292C7.57758 85.1257 7.64038 85.0334 7.72534 84.9521L10.1579 82.514C10.3611 82.3072 10.5421 82.1095 10.7009 81.9211C10.8635 81.7327 10.9983 81.5462 11.1054 81.3615C11.2126 81.1768 11.2938 80.9902 11.3492 80.8018C11.4083 80.6097 11.4379 80.4084 11.4379 80.1978C11.4379 80.0057 11.4102 79.8377 11.3548 79.6936C11.2994 79.5458 11.2199 79.4221 11.1165 79.3223C11.0168 79.2226 10.8949 79.1487 10.7508 79.1007C10.6104 79.049 10.4516 79.0231 10.2743 79.0231C10.1117 79.0231 9.96026 79.0471 9.81988 79.0951C9.6832 79.1395 9.5613 79.2041 9.45417 79.2891C9.34704 79.3704 9.25654 79.4664 9.18265 79.5772C9.10877 79.688 9.05336 79.81 9.01642 79.9429C8.95362 80.1129 8.87235 80.2255 8.77261 80.2809C8.67287 80.3364 8.5288 80.3493 8.3404 80.3197L7.62006 80.1923C7.67547 79.8081 7.7826 79.4719 7.94144 79.1838C8.10029 78.892 8.29792 78.65 8.53434 78.4579C8.77446 78.2621 9.04782 78.1162 9.35443 78.0202C9.66473 77.9204 9.9972 77.8706 10.3518 77.8706C10.7212 77.8706 11.0592 77.926 11.3659 78.0368C11.6725 78.1439 11.9347 78.2972 12.1527 78.4967C12.3706 78.6962 12.5406 78.9363 12.6625 79.2171C12.7844 79.4978 12.8453 79.81 12.8453 80.1535C12.8453 80.449 12.801 80.7224 12.7124 80.9736C12.6274 81.2248 12.511 81.4649 12.3633 81.6939C12.2192 81.923 12.0493 82.1446 11.8535 82.3589C11.6577 82.5731 11.4527 82.7911 11.2384 83.0127L9.43201 84.8579C9.60563 84.8062 9.7774 84.7674 9.94733 84.7416C10.121 84.712 10.2853 84.6972 10.4405 84.6972H12.4962ZM19.6396 81.9654C19.6396 82.6636 19.5639 83.2713 19.4124 83.7885C19.2647 84.302 19.0578 84.7268 18.7918 85.0629C18.5295 85.3991 18.2174 85.6503 17.8554 85.8165C17.4971 85.9791 17.1092 86.0603 16.6917 86.0603C16.2743 86.0603 15.8864 85.9791 15.5281 85.8165C15.1735 85.6503 14.865 85.3991 14.6027 85.0629C14.3405 84.7268 14.1354 84.302 13.9877 83.7885C13.8399 83.2713 13.766 82.6636 13.766 81.9654C13.766 81.2636 13.8399 80.6559 13.9877 80.1424C14.1354 79.6289 14.3405 79.2041 14.6027 78.868C14.865 78.5318 15.1735 78.2824 15.5281 78.1199C15.8864 77.9537 16.2743 77.8706 16.6917 77.8706C17.1092 77.8706 17.4971 77.9537 17.8554 78.1199C18.2174 78.2824 18.5295 78.5318 18.7918 78.868C19.0578 79.2041 19.2647 79.6289 19.4124 80.1424C19.5639 80.6559 19.6396 81.2636 19.6396 81.9654ZM18.2266 81.9654C18.2266 81.3855 18.1842 80.9052 18.0992 80.5248C18.0142 80.1443 17.8997 79.8414 17.7556 79.616C17.6153 79.3907 17.4527 79.2337 17.268 79.145C17.0833 79.0527 16.8912 79.0065 16.6917 79.0065C16.496 79.0065 16.3057 79.0527 16.121 79.145C15.94 79.2337 15.7793 79.3907 15.6389 79.616C15.4986 79.8414 15.3859 80.1443 15.3009 80.5248C15.2197 80.9052 15.179 81.3855 15.179 81.9654C15.179 82.5454 15.2197 83.0256 15.3009 83.4061C15.3859 83.7866 15.4986 84.0895 15.6389 84.3149C15.7793 84.5402 15.94 84.6991 16.121 84.7914C16.3057 84.8801 16.496 84.9244 16.6917 84.9244C16.8912 84.9244 17.0833 84.8801 17.268 84.7914C17.4527 84.6991 17.6153 84.5402 17.7556 84.3149C17.8997 84.0895 18.0142 83.7866 18.0992 83.4061C18.1842 83.0256 18.2266 82.5454 18.2266 81.9654ZM29.4981 77.9592V85.9717H28.1849V80.7963C28.1849 80.5894 28.196 80.3659 28.2181 80.1258L25.7967 84.6751C25.6822 84.893 25.5067 85.002 25.2703 85.002H25.0597C24.8233 85.002 24.6478 84.893 24.5333 84.6751L22.0841 80.1092C22.0952 80.2311 22.1044 80.3511 22.1118 80.4693C22.1192 80.5876 22.1229 80.6965 22.1229 80.7963V85.9717H20.8097V77.9592H21.9345C22.001 77.9592 22.0583 77.9611 22.1063 77.9648C22.1543 77.9685 22.1968 77.9777 22.2337 77.9925C22.2744 78.0072 22.3095 78.0313 22.339 78.0645C22.3723 78.0977 22.4037 78.1421 22.4332 78.1975L24.8325 82.647C24.8953 82.7652 24.9526 82.8871 25.0043 83.0127C25.0597 83.1383 25.1133 83.2676 25.165 83.4006C25.2167 83.2639 25.2703 83.1328 25.3257 83.0072C25.3811 82.8779 25.4402 82.7541 25.503 82.6359L27.8691 78.1975C27.8986 78.1421 27.93 78.0977 27.9633 78.0645C27.9965 78.0313 28.0316 78.0072 28.0685 77.9925C28.1092 77.9777 28.1535 77.9685 28.2015 77.9648C28.2495 77.9611 28.3068 77.9592 28.3733 77.9592H29.4981Z" fill="#BFC3C8"/>
<path d="M6.3669 121.909V122.935H1.934V121.909H3.55755V117.238C3.55755 117.054 3.56309 116.863 3.57417 116.668L2.42162 117.632C2.35513 117.683 2.28863 117.717 2.22214 117.731C2.15934 117.743 2.09839 117.743 2.03928 117.731C1.98387 117.72 1.934 117.702 1.88967 117.676C1.84534 117.646 1.8121 117.615 1.78993 117.582L1.35772 116.989L3.80136 114.911H4.92621V121.909H6.3669ZM13.2111 118.928C13.2111 119.627 13.1353 120.234 12.9839 120.751C12.8361 121.265 12.6292 121.69 12.3633 122.026C12.101 122.362 11.7888 122.613 11.4268 122.779C11.0685 122.942 10.6806 123.023 10.2632 123.023C9.84574 123.023 9.45786 122.942 9.09954 122.779C8.74491 122.613 8.43645 122.362 8.17417 122.026C7.91189 121.69 7.70687 121.265 7.55911 120.751C7.41134 120.234 7.33746 119.627 7.33746 118.928C7.33746 118.226 7.41134 117.619 7.55911 117.105C7.70687 116.592 7.91189 116.167 8.17417 115.831C8.43645 115.495 8.74491 115.245 9.09954 115.083C9.45786 114.917 9.84574 114.833 10.2632 114.833C10.6806 114.833 11.0685 114.917 11.4268 115.083C11.7888 115.245 12.101 115.495 12.3633 115.831C12.6292 116.167 12.8361 116.592 12.9839 117.105C13.1353 117.619 13.2111 118.226 13.2111 118.928ZM11.7981 118.928C11.7981 118.348 11.7556 117.868 11.6706 117.488C11.5857 117.107 11.4711 116.804 11.3271 116.579C11.1867 116.354 11.0242 116.197 10.8395 116.108C10.6547 116.016 10.4627 115.969 10.2632 115.969C10.0674 115.969 9.87714 116.016 9.69244 116.108C9.51143 116.197 9.35074 116.354 9.21036 116.579C9.06998 116.804 8.95732 117.107 8.87235 117.488C8.79108 117.868 8.75045 118.348 8.75045 118.928C8.75045 119.508 8.79108 119.989 8.87235 120.369C8.95732 120.75 9.06998 121.052 9.21036 121.278C9.35074 121.503 9.51143 121.662 9.69244 121.754C9.87714 121.843 10.0674 121.887 10.2632 121.887C10.4627 121.887 10.6547 121.843 10.8395 121.754C11.0242 121.662 11.1867 121.503 11.3271 121.278C11.4711 121.052 11.5857 120.75 11.6706 120.369C11.7556 119.989 11.7981 119.508 11.7981 118.928ZM19.6396 118.928C19.6396 119.627 19.5639 120.234 19.4124 120.751C19.2647 121.265 19.0578 121.69 18.7918 122.026C18.5295 122.362 18.2174 122.613 17.8554 122.779C17.4971 122.942 17.1092 123.023 16.6917 123.023C16.2743 123.023 15.8864 122.942 15.5281 122.779C15.1735 122.613 14.865 122.362 14.6027 122.026C14.3405 121.69 14.1354 121.265 13.9877 120.751C13.8399 120.234 13.766 119.627 13.766 118.928C13.766 118.226 13.8399 117.619 13.9877 117.105C14.1354 116.592 14.3405 116.167 14.6027 115.831C14.865 115.495 15.1735 115.245 15.5281 115.083C15.8864 114.917 16.2743 114.833 16.6917 114.833C17.1092 114.833 17.4971 114.917 17.8554 115.083C18.2174 115.245 18.5295 115.495 18.7918 115.831C19.0578 116.167 19.2647 116.592 19.4124 117.105C19.5639 117.619 19.6396 118.226 19.6396 118.928ZM18.2266 118.928C18.2266 118.348 18.1842 117.868 18.0992 117.488C18.0142 117.107 17.8997 116.804 17.7556 116.579C17.6153 116.354 17.4527 116.197 17.268 116.108C17.0833 116.016 16.8912 115.969 16.6917 115.969C16.496 115.969 16.3057 116.016 16.121 116.108C15.94 116.197 15.7793 116.354 15.6389 116.579C15.4986 116.804 15.3859 117.107 15.3009 117.488C15.2197 117.868 15.179 118.348 15.179 118.928C15.179 119.508 15.2197 119.989 15.3009 120.369C15.3859 120.75 15.4986 121.052 15.6389 121.278C15.7793 121.503 15.94 121.662 16.121 121.754C16.3057 121.843 16.496 121.887 16.6917 121.887C16.8912 121.887 17.0833 121.843 17.268 121.754C17.4527 121.662 17.6153 121.503 17.7556 121.278C17.8997 121.052 18.0142 120.75 18.0992 120.369C18.1842 119.989 18.2266 119.508 18.2266 118.928ZM29.4981 114.922V122.935H28.1849V117.759C28.1849 117.552 28.196 117.329 28.2181 117.089L25.7967 121.638C25.6822 121.856 25.5067 121.965 25.2703 121.965H25.0597C24.8233 121.965 24.6478 121.856 24.5333 121.638L22.0841 117.072C22.0952 117.194 22.1044 117.314 22.1118 117.432C22.1192 117.55 22.1229 117.659 22.1229 117.759V122.935H20.8097V114.922H21.9345C22.001 114.922 22.0583 114.924 22.1063 114.928C22.1543 114.931 22.1968 114.941 22.2337 114.955C22.2744 114.97 22.3095 114.994 22.339 115.027C22.3723 115.061 22.4037 115.105 22.4332 115.16L24.8325 119.61C24.8953 119.728 24.9526 119.85 25.0043 119.976C25.0597 120.101 25.1133 120.231 25.165 120.363C25.2167 120.227 25.2703 120.096 25.3257 119.97C25.3811 119.841 25.4402 119.717 25.503 119.599L27.8691 115.16C27.8986 115.105 27.93 115.061 27.9633 115.027C27.9965 114.994 28.0316 114.97 28.0685 114.955C28.1092 114.941 28.1535 114.931 28.2015 114.928C28.2495 114.924 28.3068 114.922 28.3733 114.922H29.4981Z" fill="#BFC3C8"/>
<path d="M3.84569 158.916C4.07103 158.916 4.26866 158.885 4.43859 158.822C4.60852 158.756 4.75074 158.665 4.86525 158.55C4.98346 158.436 5.07212 158.299 5.13123 158.14C5.19033 157.982 5.21989 157.81 5.21989 157.625C5.21989 157.186 5.09798 156.853 4.85417 156.628C4.61036 156.402 4.2742 156.29 3.84569 156.29C3.41717 156.29 3.08101 156.402 2.8372 156.628C2.59339 156.853 2.47149 157.186 2.47149 157.625C2.47149 157.81 2.50104 157.982 2.56015 158.14C2.61925 158.299 2.70606 158.436 2.82058 158.55C2.93879 158.665 3.08286 158.756 3.25279 158.822C3.42272 158.885 3.62035 158.916 3.84569 158.916ZM3.84569 152.826C3.64251 152.826 3.46704 152.858 3.31928 152.921C3.17152 152.983 3.04777 153.068 2.94803 153.176C2.85198 153.279 2.77994 153.399 2.73192 153.536C2.68759 153.672 2.66543 153.817 2.66543 153.968C2.66543 154.127 2.6839 154.282 2.72084 154.433C2.76147 154.581 2.82797 154.714 2.92032 154.832C3.01267 154.947 3.13458 155.039 3.28603 155.109C3.43749 155.18 3.62404 155.215 3.84569 155.215C4.06733 155.215 4.25388 155.18 4.40534 155.109C4.5568 155.039 4.6787 154.947 4.77105 154.832C4.86341 154.714 4.92805 154.581 4.96499 154.433C5.00563 154.282 5.02595 154.127 5.02595 153.968C5.02595 153.817 5.00194 153.672 4.95391 153.536C4.90589 153.399 4.83385 153.279 4.73781 153.176C4.64176 153.068 4.51986 152.983 4.37209 152.921C4.22433 152.858 4.04886 152.826 3.84569 152.826ZM5.19772 155.719C5.68534 155.878 6.04551 156.122 6.27824 156.45C6.51097 156.775 6.62733 157.174 6.62733 157.647C6.62733 158.002 6.55899 158.323 6.42231 158.611C6.28932 158.9 6.10092 159.145 5.85711 159.348C5.61331 159.552 5.31963 159.709 4.97608 159.819C4.63622 159.93 4.25942 159.986 3.84569 159.986C3.43195 159.986 3.05331 159.93 2.70976 159.819C2.3699 159.709 2.07807 159.552 1.83426 159.348C1.59045 159.145 1.40021 158.9 1.26352 158.611C1.13054 158.323 1.06404 158.002 1.06404 157.647C1.06404 157.174 1.18041 156.775 1.41313 156.45C1.64586 156.122 2.00603 155.878 2.49365 155.719C2.10577 155.556 1.81394 155.326 1.61816 155.026C1.42606 154.727 1.33002 154.367 1.33002 153.946C1.33002 153.643 1.39097 153.36 1.51287 153.098C1.63847 152.836 1.8121 152.609 2.03374 152.416C2.25539 152.221 2.51951 152.069 2.82612 151.962C3.13642 151.851 3.47628 151.796 3.84569 151.796C4.2151 151.796 4.5531 151.851 4.85971 151.962C5.17002 152.069 5.43599 152.221 5.65763 152.416C5.87928 152.609 6.05105 152.836 6.17296 153.098C6.29856 153.36 6.36136 153.643 6.36136 153.946C6.36136 154.367 6.26346 154.727 6.06768 155.026C5.87559 155.326 5.5856 155.556 5.19772 155.719ZM13.2111 155.891C13.2111 156.589 13.1353 157.197 12.9839 157.714C12.8361 158.227 12.6292 158.652 12.3633 158.988C12.101 159.324 11.7888 159.576 11.4268 159.742C11.0685 159.904 10.6806 159.986 10.2632 159.986C9.84574 159.986 9.45786 159.904 9.09954 159.742C8.74491 159.576 8.43645 159.324 8.17417 158.988C7.91189 158.652 7.70687 158.227 7.55911 157.714C7.41134 157.197 7.33746 156.589 7.33746 155.891C7.33746 155.189 7.41134 154.581 7.55911 154.068C7.70687 153.554 7.91189 153.129 8.17417 152.793C8.43645 152.457 8.74491 152.208 9.09954 152.045C9.45786 151.879 9.84574 151.796 10.2632 151.796C10.6806 151.796 11.0685 151.879 11.4268 152.045C11.7888 152.208 12.101 152.457 12.3633 152.793C12.6292 153.129 12.8361 153.554 12.9839 154.068C13.1353 154.581 13.2111 155.189 13.2111 155.891ZM11.7981 155.891C11.7981 155.311 11.7556 154.831 11.6706 154.45C11.5857 154.07 11.4711 153.767 11.3271 153.541C11.1867 153.316 11.0242 153.159 10.8395 153.07C10.6547 152.978 10.4627 152.932 10.2632 152.932C10.0674 152.932 9.87714 152.978 9.69244 153.07C9.51143 153.159 9.35074 153.316 9.21036 153.541C9.06998 153.767 8.95732 154.07 8.87235 154.45C8.79108 154.831 8.75045 155.311 8.75045 155.891C8.75045 156.471 8.79108 156.951 8.87235 157.331C8.95732 157.712 9.06998 158.015 9.21036 158.24C9.35074 158.466 9.51143 158.624 9.69244 158.717C9.87714 158.805 10.0674 158.85 10.2632 158.85C10.4627 158.85 10.6547 158.805 10.8395 158.717C11.0242 158.624 11.1867 158.466 11.3271 158.24C11.4711 158.015 11.5857 157.712 11.6706 157.331C11.7556 156.951 11.7981 156.471 11.7981 155.891ZM23.0696 151.885V159.897H21.7563V154.722C21.7563 154.515 21.7674 154.291 21.7896 154.051L19.3681 158.6C19.2536 158.818 19.0781 158.927 18.8417 158.927H18.6311C18.3947 158.927 18.2192 158.818 18.1047 158.6L15.6556 154.034C15.6666 154.156 15.6759 154.276 15.6833 154.395C15.6906 154.513 15.6943 154.622 15.6943 154.722V159.897H14.3811V151.885H15.5059C15.5724 151.885 15.6297 151.886 15.6777 151.89C15.7257 151.894 15.7682 151.903 15.8052 151.918C15.8458 151.933 15.8809 151.957 15.9104 151.99C15.9437 152.023 15.9751 152.067 16.0046 152.123L18.4039 156.572C18.4667 156.691 18.524 156.812 18.5757 156.938C18.6311 157.064 18.6847 157.193 18.7364 157.326C18.7881 157.189 18.8417 157.058 18.8971 156.932C18.9525 156.803 19.0116 156.679 19.0744 156.561L21.4405 152.123C21.47 152.067 21.5014 152.023 21.5347 151.99C21.5679 151.957 21.603 151.933 21.64 151.918C21.6806 151.903 21.7249 151.894 21.773 151.89C21.821 151.886 21.8782 151.885 21.9447 151.885H23.0696Z" fill="#BFC3C8"/>
<path d="M3.5243 191.756L3.24725 192.1C3.4024 192.022 3.56863 191.963 3.74595 191.923C3.92696 191.878 4.1209 191.856 4.32777 191.856C4.63068 191.856 4.92436 191.906 5.2088 192.006C5.49694 192.106 5.74999 192.257 5.96794 192.46C6.18589 192.66 6.36136 192.909 6.49434 193.208C6.62733 193.507 6.69382 193.857 6.69382 194.256C6.69382 194.629 6.62548 194.98 6.4888 195.308C6.35212 195.633 6.16003 195.918 5.91253 196.162C5.66502 196.405 5.3658 196.598 5.01486 196.738C4.66762 196.878 4.28344 196.949 3.86231 196.949C3.4338 196.949 3.04961 196.88 2.70976 196.743C2.3699 196.607 2.07992 196.417 1.8398 196.173C1.59969 195.925 1.41498 195.63 1.28569 195.286C1.16009 194.939 1.09729 194.555 1.09729 194.134C1.09729 193.757 1.17302 193.371 1.32448 192.976C1.47963 192.577 1.7179 192.163 2.03928 191.734L3.95097 189.169C4.01746 189.08 4.11351 189.004 4.23911 188.942C4.3684 188.879 4.51616 188.847 4.6824 188.847H5.90144L3.5243 191.756ZM3.83461 195.829C4.05256 195.829 4.25204 195.792 4.43305 195.718C4.61775 195.645 4.77475 195.541 4.90404 195.408C5.03703 195.275 5.14046 195.12 5.21434 194.943C5.28823 194.762 5.32517 194.566 5.32517 194.355C5.32517 194.126 5.29007 193.921 5.21989 193.74C5.1497 193.556 5.04996 193.4 4.92067 193.275C4.79137 193.145 4.63622 193.048 4.45521 192.981C4.2742 192.915 4.07472 192.881 3.85677 192.881C3.63882 192.881 3.44119 192.918 3.26387 192.992C3.08655 193.066 2.9351 193.169 2.8095 193.302C2.6839 193.432 2.58601 193.587 2.51582 193.768C2.44563 193.945 2.41054 194.137 2.41054 194.344C2.41054 194.566 2.44009 194.769 2.49919 194.954C2.56199 195.135 2.6525 195.29 2.77071 195.419C2.89261 195.548 3.04222 195.65 3.21954 195.724C3.39686 195.794 3.60188 195.829 3.83461 195.829ZM9.3101 191.756C9.48742 191.72 9.65734 191.694 9.81988 191.679C9.98242 191.66 10.1394 191.651 10.2909 191.651C10.712 191.651 11.0833 191.714 11.4046 191.84C11.726 191.965 11.9957 192.139 12.2136 192.36C12.4316 192.582 12.596 192.843 12.7068 193.142C12.8176 193.437 12.873 193.757 12.873 194.1C12.873 194.525 12.7973 194.913 12.6459 195.264C12.4981 195.615 12.2912 195.916 12.0253 196.167C11.7593 196.415 11.4434 196.607 11.0777 196.743C10.7157 196.88 10.3204 196.949 9.89192 196.949C9.64072 196.949 9.40245 196.923 9.17711 196.871C8.95177 196.819 8.73936 196.751 8.53988 196.666C8.3441 196.577 8.16124 196.478 7.99131 196.367C7.82508 196.252 7.67547 196.132 7.54248 196.007L7.96361 195.425C8.05227 195.299 8.16863 195.236 8.3127 195.236C8.40505 195.236 8.49925 195.266 8.5953 195.325C8.69134 195.384 8.80032 195.449 8.92222 195.519C9.04782 195.589 9.19374 195.654 9.35997 195.713C9.5299 195.772 9.73307 195.802 9.96949 195.802C10.2207 195.802 10.4423 195.761 10.6344 195.68C10.8265 195.598 10.9854 195.486 11.111 195.342C11.2403 195.194 11.3363 195.02 11.3991 194.821C11.4656 194.618 11.4988 194.398 11.4988 194.161C11.4988 193.725 11.3714 193.386 11.1165 193.142C10.8653 192.894 10.4922 192.771 9.9972 192.771C9.61671 192.771 9.22698 192.841 8.82802 192.981L7.97469 192.737L8.63962 188.847H12.596V189.429C12.596 189.625 12.535 189.784 12.4131 189.906C12.2912 190.028 12.0844 190.089 11.7925 190.089H9.5927L9.3101 191.756ZM23.0696 188.847V196.86H21.7563V191.684C21.7563 191.478 21.7674 191.254 21.7896 191.014L19.3681 195.563C19.2536 195.781 19.0781 195.89 18.8417 195.89H18.6311C18.3947 195.89 18.2192 195.781 18.1047 195.563L15.6556 190.997C15.6666 191.119 15.6759 191.239 15.6833 191.358C15.6906 191.476 15.6943 191.585 15.6943 191.684V196.86H14.3811V188.847H15.5059C15.5724 188.847 15.6297 188.849 15.6777 188.853C15.7257 188.857 15.7682 188.866 15.8052 188.881C15.8458 188.895 15.8809 188.919 15.9104 188.953C15.9437 188.986 15.9751 189.03 16.0046 189.086L18.4039 193.535C18.4667 193.653 18.524 193.775 18.5757 193.901C18.6311 194.027 18.6847 194.156 18.7364 194.289C18.7881 194.152 18.8417 194.021 18.8971 193.895C18.9525 193.766 19.0116 193.642 19.0744 193.524L21.4405 189.086C21.47 189.03 21.5014 188.986 21.5347 188.953C21.5679 188.919 21.603 188.895 21.64 188.881C21.6806 188.866 21.7249 188.857 21.773 188.853C21.821 188.849 21.8782 188.847 21.9447 188.847H23.0696Z" fill="#BFC3C8"/>
<rect x="75.5" y="0.5" width="500" height="199" fill="url(#paint0_linear_750_188)" stroke="#ECFDF3"/>
<path d="M80.0547 198.235L100.603 93.202L121.151 155.57L139.211 193.561C139.984 195.187 142.388 194.859 142.698 193.086L162.248 81.3197L182.796 94.7955L203.345 75.3603L223.893 101.907L244.441 118.345L263.708 156.541C264.31 157.735 265.943 157.913 266.788 156.876L285.538 133.882L304 164.837C304.813 166.2 306.853 165.971 307.343 164.461L326.635 105.015L346.043 177.954C346.465 179.541 348.593 179.829 349.422 178.412L367.731 147.125L385.63 186.979C386.391 188.674 388.896 188.311 389.145 186.469L408.828 40.6689L429.376 104.405L449.925 123.123L468.928 160.699C469.591 162.011 471.446 162.06 472.178 160.786L491.021 127.987L511.57 56.2375L532.118 6.59009L551.74 96.6143C552.087 98.2065 554.176 98.6019 555.081 97.2467L573.215 70.0895" stroke="#00BF71" stroke-width="3.69408" stroke-linecap="round"/>
<g filter="url(#filter0_dd_750_188)">
<rect x="392.204" y="6.59009" width="79.4228" height="49.8997" rx="5.47743" fill="white"/>
</g>
<path d="M403.533 24.1158H401.407V26.3725H400.306V24.1158H398.192V23.1134H400.306V20.8677H401.407V23.1134H403.533V24.1158ZM409.706 26.2794V27.2927H405.324V26.2794H406.929V21.6619C406.929 21.4793 406.935 21.2913 406.946 21.0977L405.807 22.0508C405.741 22.1019 405.675 22.1348 405.609 22.1494C405.547 22.1604 405.487 22.1604 405.429 22.1494C405.374 22.1385 405.324 22.1202 405.281 22.0946C405.237 22.0654 405.204 22.0344 405.182 22.0015L404.755 21.4154L407.17 19.3614H408.282V26.2794H409.706ZM413.251 22.248L412.977 22.5876C413.131 22.5109 413.295 22.4525 413.47 22.4123C413.649 22.3685 413.841 22.3466 414.045 22.3466C414.345 22.3466 414.635 22.3959 414.916 22.4945C415.201 22.5931 415.451 22.7428 415.667 22.9436C415.882 23.1408 416.056 23.3873 416.187 23.6831C416.319 23.9789 416.384 24.324 416.384 24.7183C416.384 25.0871 416.317 25.434 416.182 25.759C416.047 26.0804 415.857 26.3616 415.612 26.6026C415.367 26.8436 415.072 27.0335 414.725 27.1722C414.381 27.311 414.002 27.3804 413.585 27.3804C413.162 27.3804 412.782 27.3128 412.446 27.1777C412.11 27.0426 411.823 26.8545 411.586 26.6135C411.349 26.3689 411.166 26.0767 411.038 25.7371C410.914 25.3939 410.852 25.0141 410.852 24.5978C410.852 24.2254 410.927 23.8438 411.077 23.453C411.23 23.0587 411.466 22.6497 411.783 22.2261L413.673 19.69C413.739 19.6024 413.834 19.5276 413.958 19.4655C414.086 19.4034 414.232 19.3724 414.396 19.3724H415.601L413.251 22.248ZM413.558 26.2739C413.773 26.2739 413.971 26.2374 414.149 26.1644C414.332 26.0913 414.487 25.9891 414.615 25.8576C414.747 25.7262 414.849 25.5728 414.922 25.3975C414.995 25.2186 415.031 25.0251 415.031 24.8169C415.031 24.5905 414.997 24.3879 414.927 24.2089C414.858 24.0263 414.759 23.873 414.632 23.7488C414.504 23.621 414.35 23.5243 414.171 23.4585C413.992 23.3928 413.795 23.3599 413.58 23.3599C413.364 23.3599 413.169 23.3964 412.994 23.4695C412.818 23.5425 412.669 23.6448 412.545 23.7762C412.42 23.904 412.324 24.0574 412.254 24.2363C412.185 24.4116 412.15 24.6015 412.15 24.806C412.15 25.0251 412.179 25.2259 412.238 25.4085C412.3 25.5874 412.389 25.7408 412.506 25.8686C412.627 25.9964 412.775 26.0968 412.95 26.1699C413.125 26.2392 413.328 26.2739 413.558 26.2739ZM417.393 28.6347C417.327 28.5799 417.294 28.5124 417.294 28.432C417.294 28.4028 417.304 28.37 417.322 28.3334C417.344 28.2969 417.369 28.2641 417.398 28.2348C417.439 28.191 417.488 28.1362 417.546 28.0705C417.605 28.0084 417.663 27.9354 417.722 27.8514C417.78 27.7711 417.833 27.6816 417.88 27.583C417.932 27.4881 417.97 27.3858 417.996 27.2763C417.879 27.2763 417.773 27.2562 417.678 27.216C417.583 27.1722 417.501 27.1138 417.431 27.0408C417.366 26.9677 417.313 26.8819 417.272 26.7833C417.236 26.6847 417.218 26.577 417.218 26.4602C417.218 26.3579 417.236 26.263 417.272 26.1753C417.313 26.084 417.367 26.0055 417.437 25.9398C417.506 25.8704 417.59 25.8175 417.689 25.781C417.787 25.7408 417.895 25.7207 418.012 25.7207C418.151 25.7207 418.271 25.7463 418.373 25.7974C418.479 25.8449 418.565 25.9124 418.631 26.0001C418.7 26.084 418.751 26.1826 418.784 26.2958C418.821 26.4054 418.839 26.5222 418.839 26.6464C418.839 26.8217 418.812 27.0061 418.757 27.1996C418.706 27.3931 418.629 27.5867 418.527 27.7802C418.425 27.9738 418.297 28.1618 418.143 28.3444C417.994 28.527 417.822 28.6949 417.629 28.8483L417.393 28.6347ZM425.296 19.3724V19.9584C425.296 20.1337 425.277 20.2761 425.241 20.3857C425.204 20.4916 425.168 20.581 425.131 20.6541L422.13 26.8326C422.068 26.9604 421.98 27.07 421.867 27.1613C421.753 27.2489 421.602 27.2927 421.412 27.2927H420.432L423.493 21.2402C423.563 21.116 423.63 21.0028 423.696 20.9006C423.766 20.7947 423.842 20.6942 423.926 20.5993H420.136C420.052 20.5993 419.979 20.5683 419.917 20.5062C419.855 20.4441 419.824 20.3711 419.824 20.2871V19.3724H425.296ZM427.893 22.248C428.068 22.2115 428.236 22.1859 428.397 22.1713C428.557 22.1531 428.712 22.1439 428.862 22.1439C429.278 22.1439 429.645 22.206 429.963 22.3302C430.281 22.4543 430.547 22.626 430.763 22.8451C430.978 23.0641 431.141 23.3216 431.25 23.6174C431.36 23.9095 431.415 24.2254 431.415 24.565C431.415 24.9849 431.34 25.3683 431.19 25.7152C431.044 26.0621 430.84 26.3597 430.577 26.608C430.314 26.8527 430.002 27.0426 429.64 27.1777C429.282 27.3128 428.891 27.3804 428.468 27.3804C428.22 27.3804 427.984 27.3548 427.761 27.3037C427.538 27.2526 427.329 27.185 427.131 27.101C426.938 27.0134 426.757 26.9148 426.589 26.8052C426.425 26.692 426.277 26.5734 426.145 26.4492L426.562 25.8741C426.649 25.7499 426.764 25.6878 426.907 25.6878C426.998 25.6878 427.091 25.7171 427.186 25.7755C427.281 25.8339 427.389 25.8978 427.509 25.9672C427.633 26.0366 427.778 26.1005 427.942 26.1589C428.11 26.2173 428.311 26.2465 428.545 26.2465C428.793 26.2465 429.012 26.2064 429.202 26.126C429.392 26.0457 429.549 25.9343 429.673 25.7919C429.801 25.6458 429.896 25.4742 429.958 25.277C430.023 25.0762 430.056 24.8589 430.056 24.6252C430.056 24.1943 429.93 23.8584 429.678 23.6174C429.43 23.3727 429.061 23.2504 428.572 23.2504C428.196 23.2504 427.811 23.3198 427.416 23.4585L426.573 23.2175L427.23 19.3724H431.141V19.9475C431.141 20.141 431.081 20.298 430.96 20.4185C430.84 20.5391 430.635 20.5993 430.347 20.5993H428.172L427.893 22.248ZM436.104 21.2895C436.104 21.5889 436.053 21.8591 435.951 22.1001C435.852 22.3411 435.719 22.5474 435.551 22.7191C435.383 22.887 435.188 23.0167 434.965 23.108C434.742 23.1993 434.51 23.2449 434.269 23.2449C434.006 23.2449 433.764 23.1993 433.541 23.108C433.318 23.0167 433.125 22.887 432.96 22.7191C432.8 22.5474 432.674 22.3411 432.582 22.1001C432.491 21.8591 432.445 21.5889 432.445 21.2895C432.445 20.9827 432.491 20.7052 432.582 20.4569C432.674 20.2086 432.8 19.9986 432.96 19.827C433.125 19.6554 433.318 19.5239 433.541 19.4326C433.764 19.3377 434.006 19.2902 434.269 19.2902C434.532 19.2902 434.775 19.3377 434.998 19.4326C435.224 19.5239 435.42 19.6554 435.584 19.827C435.748 19.9986 435.876 20.2086 435.967 20.4569C436.059 20.7052 436.104 20.9827 436.104 21.2895ZM435.064 21.2895C435.064 21.0777 435.042 20.9006 434.998 20.7581C434.958 20.6157 434.901 20.5007 434.828 20.4131C434.759 20.3254 434.675 20.2634 434.576 20.2268C434.481 20.1867 434.379 20.1666 434.269 20.1666C434.16 20.1666 434.057 20.1867 433.963 20.2268C433.868 20.2634 433.785 20.3254 433.716 20.4131C433.65 20.5007 433.597 20.6157 433.557 20.7581C433.517 20.9006 433.497 21.0777 433.497 21.2895C433.497 21.494 433.517 21.6656 433.557 21.8043C433.597 21.9394 433.65 22.049 433.716 22.133C433.785 22.217 433.868 22.2772 433.963 22.3137C434.057 22.3503 434.16 22.3685 434.269 22.3685C434.379 22.3685 434.481 22.3503 434.576 22.3137C434.675 22.2772 434.759 22.217 434.828 22.133C434.901 22.049 434.958 21.9394 434.998 21.8043C435.042 21.6656 435.064 21.494 435.064 21.2895ZM438.739 19.586C438.786 19.5312 438.841 19.4819 438.903 19.4381C438.969 19.3943 439.06 19.3724 439.177 19.3724H440.163L434.28 27.0901C434.233 27.1485 434.176 27.1978 434.11 27.238C434.045 27.2745 433.964 27.2927 433.869 27.2927H432.862L438.739 19.586ZM440.579 25.4304C440.579 25.7298 440.528 26.0001 440.426 26.2411C440.327 26.4821 440.194 26.6884 440.026 26.86C439.858 27.028 439.663 27.1594 439.44 27.2544C439.217 27.3457 438.985 27.3913 438.744 27.3913C438.481 27.3913 438.239 27.3457 438.016 27.2544C437.793 27.1594 437.6 27.028 437.435 26.86C437.275 26.6884 437.149 26.4821 437.057 26.2411C436.966 26.0001 436.92 25.7298 436.92 25.4304C436.92 25.1237 436.966 24.8461 437.057 24.5978C437.149 24.3495 437.275 24.1395 437.435 23.9679C437.6 23.7963 437.793 23.6648 438.016 23.5735C438.239 23.4786 438.481 23.4311 438.744 23.4311C439.007 23.4311 439.25 23.4786 439.473 23.5735C439.699 23.6648 439.893 23.7963 440.053 23.9679C440.218 24.1395 440.346 24.3495 440.437 24.5978C440.532 24.8461 440.579 25.1237 440.579 25.4304ZM439.533 25.4304C439.533 25.2186 439.513 25.0415 439.473 24.8991C439.433 24.7567 439.376 24.6416 439.303 24.554C439.234 24.4664 439.15 24.4043 439.051 24.3678C438.956 24.3276 438.854 24.3075 438.744 24.3075C438.635 24.3075 438.533 24.3276 438.438 24.3678C438.343 24.4043 438.261 24.4664 438.191 24.554C438.122 24.6416 438.067 24.7567 438.027 24.8991C437.99 25.0415 437.972 25.2186 437.972 25.4304C437.972 25.6349 437.99 25.8065 438.027 25.9453C438.067 26.084 438.122 26.1954 438.191 26.2794C438.261 26.3634 438.343 26.4236 438.438 26.4602C438.533 26.4967 438.635 26.5149 438.744 26.5149C438.854 26.5149 438.956 26.4967 439.051 26.4602C439.15 26.4236 439.234 26.3634 439.303 26.2794C439.376 26.1954 439.433 26.084 439.473 25.9453C439.513 25.8065 439.533 25.6349 439.533 25.4304Z" fill="#00BF71"/>
<path d="M404.097 36.4051H401.709V43.115H400.235V36.4051H397.847V35.1946H404.097V36.4051ZM406.09 37.4075C406.507 37.4075 406.885 37.4751 407.224 37.6102C407.567 37.7453 407.86 37.937 408.101 38.1853C408.345 38.4336 408.533 38.7367 408.665 39.0946C408.796 39.4524 408.862 39.8523 408.862 40.2941C408.862 40.7396 408.796 41.1413 408.665 41.4991C408.533 41.857 408.345 42.1619 408.101 42.4139C407.86 42.6658 407.567 42.8594 407.224 42.9945C406.885 43.1296 406.507 43.1972 406.09 43.1972C405.67 43.1972 405.289 43.1296 404.946 42.9945C404.602 42.8594 404.308 42.6658 404.064 42.4139C403.823 42.1619 403.635 41.857 403.5 41.4991C403.368 41.1413 403.302 40.7396 403.302 40.2941C403.302 39.8523 403.368 39.4524 403.5 39.0946C403.635 38.7367 403.823 38.4336 404.064 38.1853C404.308 37.937 404.602 37.7453 404.946 37.6102C405.289 37.4751 405.67 37.4075 406.09 37.4075ZM406.09 42.1564C406.558 42.1564 406.903 41.9994 407.126 41.6854C407.352 41.3713 407.465 40.9112 407.465 40.3051C407.465 39.6989 407.352 39.237 407.126 38.9193C406.903 38.6016 406.558 38.4427 406.09 38.4427C405.616 38.4427 405.263 38.6034 405.033 38.9248C404.807 39.2424 404.694 39.7026 404.694 40.3051C404.694 40.9076 404.807 41.3677 405.033 41.6854C405.263 41.9994 405.616 42.1564 406.09 42.1564ZM411.66 43.2026C411.171 43.2026 410.795 43.0657 410.532 42.7918C410.273 42.5143 410.143 42.1327 410.143 41.647V38.5085H409.568C409.495 38.5085 409.433 38.4847 409.382 38.4373C409.331 38.3898 409.305 38.3186 409.305 38.2236V37.6869L410.209 37.539L410.494 36.0053C410.512 35.9323 410.547 35.8757 410.598 35.8355C410.649 35.7953 410.715 35.7752 410.795 35.7752H411.496V37.5444H412.997V38.5085H411.496V41.5539C411.496 41.7292 411.538 41.8661 411.622 41.9647C411.71 42.0633 411.828 42.1126 411.978 42.1126C412.062 42.1126 412.131 42.1035 412.186 42.0852C412.245 42.0633 412.294 42.0414 412.334 42.0195C412.378 41.9976 412.416 41.9775 412.449 41.9593C412.482 41.9373 412.515 41.9264 412.548 41.9264C412.588 41.9264 412.621 41.9373 412.646 41.9593C412.672 41.9775 412.699 42.0067 412.729 42.0469L413.134 42.7042C412.937 42.8685 412.71 42.9927 412.455 43.0766C412.199 43.1606 411.934 43.2026 411.66 43.2026ZM416.832 40.7159C416.441 40.7341 416.113 40.7688 415.846 40.8199C415.579 40.8674 415.366 40.9295 415.205 41.0062C415.044 41.0829 414.929 41.1723 414.86 41.2746C414.791 41.3768 414.756 41.4882 414.756 41.6087C414.756 41.8461 414.825 42.0159 414.964 42.1181C415.106 42.2203 415.291 42.2715 415.517 42.2715C415.795 42.2715 416.034 42.2222 416.235 42.1236C416.439 42.0213 416.638 41.868 416.832 41.6635V40.7159ZM413.732 38.2784C414.378 37.6869 415.156 37.3911 416.065 37.3911C416.394 37.3911 416.688 37.4458 416.947 37.5554C417.206 37.6613 417.425 37.811 417.604 38.0045C417.783 38.1944 417.918 38.4227 418.01 38.6892C418.104 38.9558 418.152 39.2479 418.152 39.5656V43.115H417.538C417.411 43.115 417.312 43.0967 417.243 43.0602C417.173 43.02 417.119 42.9415 417.078 42.8247L416.958 42.4194C416.815 42.5472 416.677 42.6604 416.542 42.759C416.406 42.8539 416.266 42.9342 416.12 43C415.974 43.0657 415.817 43.115 415.649 43.1479C415.484 43.1844 415.302 43.2026 415.101 43.2026C414.864 43.2026 414.645 43.1716 414.444 43.1095C414.243 43.0438 414.069 42.947 413.923 42.8192C413.777 42.6914 413.664 42.5326 413.584 42.3427C413.503 42.1528 413.463 41.9319 413.463 41.6799C413.463 41.5375 413.487 41.3969 413.534 41.2581C413.582 41.1157 413.659 40.9806 413.765 40.8528C413.874 40.725 414.015 40.6045 414.186 40.4913C414.358 40.3781 414.568 40.2795 414.816 40.1955C415.068 40.1115 415.36 40.044 415.693 39.9929C416.025 39.9381 416.405 39.9052 416.832 39.8943V39.5656C416.832 39.1895 416.752 38.912 416.591 38.733C416.43 38.5505 416.198 38.4592 415.895 38.4592C415.676 38.4592 415.494 38.4847 415.348 38.5359C415.205 38.587 415.079 38.6454 414.97 38.7111C414.86 38.7732 414.76 38.8298 414.668 38.8809C414.581 38.9321 414.482 38.9576 414.373 38.9576C414.278 38.9576 414.197 38.9339 414.132 38.8864C414.066 38.8353 414.013 38.7769 413.973 38.7111L413.732 38.2784ZM420.795 34.9755V43.115H419.443V34.9755H420.795ZM426.084 38.4701C426.259 38.1342 426.467 37.8713 426.708 37.6814C426.949 37.4878 427.234 37.3911 427.562 37.3911C427.822 37.3911 428.03 37.4477 428.187 37.5609L428.099 38.5742C428.081 38.6399 428.054 38.6874 428.017 38.7166C427.984 38.7422 427.939 38.755 427.88 38.755C427.825 38.755 427.743 38.7458 427.634 38.7276C427.528 38.7093 427.424 38.7002 427.321 38.7002C427.172 38.7002 427.038 38.7221 426.922 38.7659C426.805 38.8097 426.699 38.8736 426.604 38.9576C426.513 39.038 426.43 39.1365 426.357 39.2534C426.288 39.3703 426.222 39.5035 426.16 39.6533V43.115H424.807V37.4951H425.602C425.74 37.4951 425.837 37.5207 425.892 37.5718C425.947 37.6193 425.983 37.7069 426.001 37.8347L426.084 38.4701ZM432.354 39.6587C432.354 39.4835 432.329 39.3191 432.277 39.1658C432.23 39.0087 432.157 38.8718 432.058 38.755C431.96 38.6381 431.834 38.5468 431.68 38.4811C431.531 38.4117 431.355 38.377 431.155 38.377C430.764 38.377 430.455 38.4884 430.229 38.7111C430.006 38.9339 429.864 39.2497 429.802 39.6587H432.354ZM429.774 40.4749C429.796 40.7633 429.847 41.0135 429.928 41.2253C430.008 41.4334 430.114 41.6069 430.245 41.7456C430.377 41.8807 430.532 41.983 430.711 42.0524C430.893 42.1181 431.094 42.151 431.313 42.151C431.532 42.151 431.721 42.1254 431.878 42.0743C432.038 42.0232 432.177 41.9666 432.294 41.9045C432.414 41.8424 432.518 41.7858 432.606 41.7347C432.697 41.6836 432.785 41.658 432.869 41.658C432.982 41.658 433.066 41.7 433.121 41.784L433.51 42.2769C433.36 42.4522 433.192 42.6001 433.006 42.7206C432.82 42.8375 432.624 42.9324 432.42 43.0054C432.219 43.0748 432.013 43.1241 431.801 43.1533C431.593 43.1825 431.39 43.1972 431.193 43.1972C430.802 43.1972 430.439 43.1332 430.103 43.0054C429.767 42.874 429.475 42.6823 429.226 42.4303C428.978 42.1747 428.783 41.8607 428.64 41.4882C428.498 41.1121 428.427 40.6775 428.427 40.1846C428.427 39.8011 428.489 39.4415 428.613 39.1055C428.737 38.7659 428.914 38.472 429.144 38.2236C429.378 37.9717 429.661 37.7727 429.993 37.6266C430.329 37.4805 430.707 37.4075 431.127 37.4075C431.481 37.4075 431.808 37.4641 432.108 37.5773C432.407 37.6905 432.664 37.8567 432.88 38.0758C433.095 38.2912 433.263 38.5578 433.384 38.8755C433.508 39.1895 433.57 39.5492 433.57 39.9545C433.57 40.159 433.548 40.2978 433.504 40.3708C433.461 40.4402 433.377 40.4749 433.252 40.4749H429.774ZM436.405 43.2026C435.916 43.2026 435.54 43.0657 435.277 42.7918C435.018 42.5143 434.888 42.1327 434.888 41.647V38.5085H434.313C434.24 38.5085 434.178 38.4847 434.127 38.4373C434.075 38.3898 434.05 38.3186 434.05 38.2236V37.6869L434.954 37.539L435.238 36.0053C435.257 35.9323 435.291 35.8757 435.343 35.8355C435.394 35.7953 435.459 35.7752 435.54 35.7752H436.241V37.5444H437.742V38.5085H436.241V41.5539C436.241 41.7292 436.283 41.8661 436.367 41.9647C436.454 42.0633 436.573 42.1126 436.723 42.1126C436.807 42.1126 436.876 42.1035 436.931 42.0852C436.989 42.0633 437.039 42.0414 437.079 42.0195C437.123 41.9976 437.161 41.9775 437.194 41.9593C437.227 41.9373 437.26 41.9264 437.292 41.9264C437.333 41.9264 437.366 41.9373 437.391 41.9593C437.417 41.9775 437.444 42.0067 437.473 42.0469L437.879 42.7042C437.681 42.8685 437.455 42.9927 437.199 43.0766C436.944 43.1606 436.679 43.2026 436.405 43.2026ZM443.45 37.4951V43.115H442.623C442.444 43.115 442.331 43.0328 442.283 42.8685L442.19 42.4194C441.96 42.6531 441.706 42.8429 441.429 42.989C441.151 43.1314 440.824 43.2026 440.448 43.2026C440.142 43.2026 439.869 43.1515 439.632 43.0493C439.398 42.9434 439.201 42.7955 439.041 42.6056C438.88 42.4157 438.758 42.1911 438.674 41.9319C438.593 41.6689 438.553 41.3805 438.553 41.0664V37.4951H439.906V41.0664C439.906 41.4097 439.985 41.6763 440.142 41.8661C440.302 42.0524 440.541 42.1455 440.859 42.1455C441.093 42.1455 441.312 42.0944 441.516 41.9921C441.721 41.8862 441.914 41.742 442.097 41.5594V37.4951H443.45ZM446.068 38.4701C446.243 38.1342 446.451 37.8713 446.692 37.6814C446.933 37.4878 447.218 37.3911 447.546 37.3911C447.806 37.3911 448.014 37.4477 448.171 37.5609L448.083 38.5742C448.065 38.6399 448.038 38.6874 448.001 38.7166C447.968 38.7422 447.923 38.755 447.864 38.755C447.809 38.755 447.727 38.7458 447.618 38.7276C447.512 38.7093 447.408 38.7002 447.305 38.7002C447.156 38.7002 447.022 38.7221 446.906 38.7659C446.789 38.8097 446.683 38.8736 446.588 38.9576C446.497 39.038 446.414 39.1365 446.341 39.2534C446.272 39.3703 446.206 39.5035 446.144 39.6533V43.115H444.791V37.4951H445.586C445.724 37.4951 445.821 37.5207 445.876 37.5718C445.931 37.6193 445.967 37.7069 445.985 37.8347L446.068 38.4701ZM450.143 38.1853C450.257 38.0721 450.375 37.968 450.499 37.8731C450.627 37.7745 450.76 37.6923 450.899 37.6266C451.042 37.5572 451.193 37.5043 451.354 37.4678C451.514 37.4276 451.69 37.4075 451.88 37.4075C452.186 37.4075 452.458 37.4605 452.696 37.5664C452.933 37.6686 453.13 37.8147 453.287 38.0045C453.448 38.1908 453.569 38.4154 453.649 38.6783C453.733 38.9375 453.775 39.2242 453.775 39.5382V43.115H452.422V39.5382C452.422 39.195 452.343 38.9302 452.186 38.744C452.029 38.5541 451.79 38.4592 451.469 38.4592C451.235 38.4592 451.016 38.5121 450.812 38.618C450.607 38.7239 450.414 38.8682 450.231 39.0507V43.115H448.878V37.4951H449.705C449.88 37.4951 449.995 37.5773 450.05 37.7416L450.143 38.1853Z" fill="#BFC3C8"/>
<path d="M69.9203 251.061H67.5044V257.849H66.0138V251.061H63.5979V249.836H69.9203V251.061ZM72.0239 252.773C72.2456 252.566 72.4894 252.398 72.7554 252.269C73.0213 252.139 73.3335 252.075 73.6918 252.075C74.0021 252.075 74.2773 252.128 74.5174 252.235C74.7576 252.339 74.957 252.487 75.1159 252.679C75.2784 252.867 75.4003 253.094 75.4816 253.36C75.5666 253.623 75.609 253.913 75.609 254.23V257.849H74.2404V254.23C74.2404 253.883 74.161 253.615 74.0021 253.427C73.8433 253.235 73.6013 253.139 73.2762 253.139C73.0398 253.139 72.8182 253.192 72.6113 253.299C72.4044 253.406 72.2086 253.552 72.0239 253.737V257.849H70.6553V249.615H72.0239V252.773ZM81.6705 256.574C81.8183 256.574 81.9346 256.617 82.0196 256.702C82.1083 256.783 82.1526 256.892 82.1526 257.029V257.849H76.6558V257.394C76.6558 257.302 76.6743 257.206 76.7112 257.106C76.7518 257.003 76.8146 256.91 76.8996 256.829L79.3322 254.391C79.5353 254.184 79.7163 253.986 79.8752 253.798C80.0377 253.61 80.1726 253.423 80.2797 253.238C80.3868 253.054 80.4681 252.867 80.5235 252.679C80.5826 252.487 80.6122 252.285 80.6122 252.075C80.6122 251.883 80.5844 251.715 80.529 251.571C80.4736 251.423 80.3942 251.299 80.2908 251.199C80.191 251.1 80.0691 251.026 79.9251 250.978C79.7847 250.926 79.6258 250.9 79.4485 250.9C79.286 250.9 79.1345 250.924 78.9941 250.972C78.8575 251.016 78.7356 251.081 78.6284 251.166C78.5213 251.247 78.4308 251.343 78.3569 251.454C78.283 251.565 78.2276 251.687 78.1907 251.82C78.1279 251.99 78.0466 252.102 77.9469 252.158C77.8471 252.213 77.7031 252.226 77.5147 252.197L76.7943 252.069C76.8497 251.685 76.9569 251.349 77.1157 251.061C77.2745 250.769 77.4722 250.527 77.7086 250.335C77.9487 250.139 78.2221 249.993 78.5287 249.897C78.839 249.797 79.1715 249.748 79.5261 249.748C79.8955 249.748 80.2335 249.803 80.5401 249.914C80.8467 250.021 81.109 250.174 81.327 250.374C81.5449 250.573 81.7148 250.813 81.8367 251.094C81.9586 251.375 82.0196 251.687 82.0196 252.03C82.0196 252.326 81.9753 252.599 81.8866 252.851C81.8016 253.102 81.6853 253.342 81.5375 253.571C81.3935 253.8 81.2235 254.022 81.0277 254.236C80.832 254.45 80.6269 254.668 80.4127 254.89L78.6063 256.735C78.7799 256.683 78.9517 256.644 79.1216 256.619C79.2952 256.589 79.4596 256.574 79.6147 256.574H81.6705Z" fill="#BFC3C8"/>
<path d="M112.402 251.061H109.986V257.849H108.496V251.061H106.08V249.836H112.402V251.061ZM114.506 252.773C114.728 252.566 114.971 252.398 115.237 252.269C115.503 252.139 115.815 252.075 116.174 252.075C116.484 252.075 116.759 252.128 116.999 252.235C117.239 252.339 117.439 252.487 117.598 252.679C117.76 252.867 117.882 253.094 117.964 253.36C118.048 253.623 118.091 253.913 118.091 254.23V257.849H116.722V254.23C116.722 253.883 116.643 253.615 116.484 253.427C116.325 253.235 116.083 253.139 115.758 253.139C115.522 253.139 115.3 253.192 115.093 253.299C114.886 253.406 114.691 253.552 114.506 253.737V257.849H113.137V249.615H114.506V252.773ZM119.315 252.069C119.37 251.685 119.478 251.349 119.636 251.061C119.795 250.769 119.993 250.527 120.229 250.335C120.469 250.139 120.743 249.993 121.049 249.897C121.36 249.797 121.692 249.748 122.047 249.748C122.416 249.748 122.749 249.801 123.044 249.908C123.343 250.012 123.598 250.158 123.809 250.346C124.019 250.531 124.18 250.749 124.291 251C124.405 251.251 124.463 251.523 124.463 251.814C124.463 252.069 124.433 252.295 124.374 252.49C124.319 252.682 124.237 252.851 124.13 252.995C124.023 253.139 123.89 253.261 123.731 253.36C123.572 253.46 123.393 253.543 123.194 253.61C123.674 253.761 124.032 253.992 124.269 254.302C124.505 254.613 124.623 255.002 124.623 255.471C124.623 255.87 124.55 256.223 124.402 256.53C124.254 256.836 124.055 257.095 123.803 257.306C123.552 257.512 123.26 257.669 122.928 257.777C122.599 257.884 122.25 257.937 121.881 257.937C121.478 257.937 121.127 257.891 120.828 257.799C120.529 257.706 120.268 257.57 120.046 257.389C119.825 257.208 119.636 256.986 119.481 256.724C119.326 256.462 119.193 256.159 119.082 255.815L119.686 255.566C119.845 255.499 119.993 255.483 120.13 255.516C120.27 255.545 120.372 255.619 120.434 255.737C120.501 255.867 120.573 255.994 120.65 256.12C120.732 256.245 120.828 256.358 120.939 256.458C121.049 256.554 121.179 256.633 121.326 256.696C121.478 256.755 121.657 256.785 121.864 256.785C122.097 256.785 122.3 256.748 122.473 256.674C122.647 256.596 122.791 256.497 122.906 256.375C123.024 256.253 123.111 256.118 123.166 255.97C123.225 255.819 123.255 255.667 123.255 255.516C123.255 255.324 123.234 255.15 123.194 254.995C123.153 254.836 123.068 254.701 122.939 254.59C122.81 254.48 122.623 254.393 122.379 254.33C122.139 254.267 121.816 254.236 121.41 254.236V253.261C121.746 253.257 122.025 253.225 122.246 253.166C122.468 253.107 122.643 253.026 122.773 252.923C122.906 252.815 122.998 252.688 123.05 252.54C123.101 252.392 123.127 252.23 123.127 252.053C123.127 251.676 123.022 251.39 122.811 251.194C122.601 250.998 122.32 250.9 121.969 250.9C121.807 250.9 121.657 250.924 121.52 250.972C121.384 251.016 121.26 251.081 121.149 251.166C121.042 251.247 120.952 251.343 120.878 251.454C120.804 251.565 120.748 251.687 120.711 251.82C120.649 251.99 120.565 252.102 120.462 252.158C120.362 252.213 120.22 252.226 120.035 252.197L119.315 252.069Z" fill="#BFC3C8"/>
<path d="M154.884 251.061H152.468V257.849H150.978V251.061H148.562V249.836H154.884V251.061ZM156.988 252.773C157.209 252.566 157.453 252.398 157.719 252.269C157.985 252.139 158.297 252.075 158.656 252.075C158.966 252.075 159.241 252.128 159.481 252.235C159.721 252.339 159.921 252.487 160.08 252.679C160.242 252.867 160.364 253.094 160.445 253.36C160.53 253.623 160.573 253.913 160.573 254.23V257.849H159.204V254.23C159.204 253.883 159.125 253.615 158.966 253.427C158.807 253.235 158.565 253.139 158.24 253.139C158.004 253.139 157.782 253.192 157.575 253.299C157.368 253.406 157.173 253.552 156.988 253.737V257.849H155.619V249.615H156.988V252.773ZM165.144 254.829V252.208C165.144 251.96 165.16 251.687 165.194 251.388L162.706 254.829H165.144ZM167.344 254.829V255.621C167.344 255.695 167.32 255.76 167.272 255.815C167.224 255.867 167.155 255.893 167.067 255.893H166.335V257.849H165.144V255.893H161.764C161.671 255.893 161.59 255.865 161.52 255.809C161.45 255.75 161.405 255.678 161.387 255.593L161.243 254.901L165.039 249.831H166.335V254.829H167.344Z" fill="#BFC3C8"/>
<path d="M195.519 251.061H193.103V257.849H191.613V251.061H189.197V249.836H195.519V251.061ZM197.623 252.773C197.844 252.566 198.088 252.398 198.354 252.269C198.62 252.139 198.932 252.075 199.291 252.075C199.601 252.075 199.876 252.128 200.116 252.235C200.356 252.339 200.556 252.487 200.715 252.679C200.877 252.867 200.999 253.094 201.08 253.36C201.165 253.623 201.208 253.913 201.208 254.23V257.849H199.839V254.23C199.839 253.883 199.76 253.615 199.601 253.427C199.442 253.235 199.2 253.139 198.875 253.139C198.639 253.139 198.417 253.192 198.21 253.299C198.003 253.406 197.808 253.552 197.623 253.737V257.849H196.254V249.615H197.623V252.773ZM204.083 252.745C204.261 252.708 204.43 252.682 204.593 252.668C204.756 252.649 204.913 252.64 205.064 252.64C205.485 252.64 205.856 252.703 206.178 252.828C206.499 252.954 206.769 253.128 206.987 253.349C207.205 253.571 207.369 253.831 207.48 254.131C207.591 254.426 207.646 254.746 207.646 255.089C207.646 255.514 207.57 255.902 207.419 256.253C207.271 256.604 207.064 256.905 206.798 257.156C206.532 257.403 206.217 257.596 205.851 257.732C205.489 257.869 205.094 257.937 204.665 257.937C204.414 257.937 204.176 257.911 203.95 257.86C203.725 257.808 203.513 257.74 203.313 257.655C203.117 257.566 202.934 257.466 202.764 257.355C202.598 257.241 202.449 257.121 202.316 256.995L202.737 256.413C202.825 256.288 202.942 256.225 203.086 256.225C203.178 256.225 203.272 256.255 203.368 256.314C203.464 256.373 203.573 256.437 203.695 256.508C203.821 256.578 203.967 256.643 204.133 256.702C204.303 256.761 204.506 256.79 204.743 256.79C204.994 256.79 205.215 256.75 205.408 256.668C205.6 256.587 205.759 256.474 205.884 256.33C206.013 256.183 206.109 256.009 206.172 255.809C206.239 255.606 206.272 255.387 206.272 255.15C206.272 254.714 206.145 254.374 205.89 254.131C205.638 253.883 205.265 253.759 204.77 253.759C204.39 253.759 204 253.829 203.601 253.97L202.748 253.726L203.413 249.836H207.369V250.418C207.369 250.614 207.308 250.773 207.186 250.895C207.064 251.016 206.857 251.077 206.566 251.077H204.366L204.083 252.745Z" fill="#BFC3C8"/>
<path d="M238.001 251.061H235.585V257.849H234.095V251.061H231.679V249.836H238.001V251.061ZM240.105 252.773C240.326 252.566 240.57 252.398 240.836 252.269C241.102 252.139 241.414 252.075 241.773 252.075C242.083 252.075 242.358 252.128 242.598 252.235C242.838 252.339 243.038 252.487 243.197 252.679C243.359 252.867 243.481 253.094 243.562 253.36C243.647 253.623 243.69 253.913 243.69 254.23V257.849H242.321V254.23C242.321 253.883 242.242 253.615 242.083 253.427C241.924 253.235 241.682 253.139 241.357 253.139C241.121 253.139 240.899 253.192 240.692 253.299C240.485 253.406 240.289 253.552 240.105 253.737V257.849H238.736V249.615H240.105V252.773ZM247.208 252.745L246.931 253.089C247.086 253.011 247.252 252.952 247.43 252.911C247.611 252.867 247.805 252.845 248.011 252.845C248.314 252.845 248.608 252.895 248.892 252.995C249.181 253.094 249.434 253.246 249.652 253.449C249.87 253.648 250.045 253.898 250.178 254.197C250.311 254.496 250.377 254.845 250.377 255.244C250.377 255.617 250.309 255.968 250.172 256.297C250.036 256.622 249.844 256.907 249.596 257.15C249.349 257.394 249.049 257.586 248.699 257.727C248.351 257.867 247.967 257.937 247.546 257.937C247.117 257.937 246.733 257.869 246.393 257.732C246.054 257.596 245.764 257.405 245.523 257.162C245.283 256.914 245.099 256.619 244.969 256.275C244.844 255.928 244.781 255.544 244.781 255.122C244.781 254.746 244.857 254.36 245.008 253.964C245.163 253.565 245.402 253.152 245.723 252.723L247.635 250.158C247.701 250.069 247.797 249.993 247.923 249.93C248.052 249.868 248.2 249.836 248.366 249.836H249.585L247.208 252.745ZM247.518 256.818C247.736 256.818 247.936 256.781 248.117 256.707C248.301 256.633 248.458 256.53 248.588 256.397C248.721 256.264 248.824 256.109 248.898 255.931C248.972 255.75 249.009 255.555 249.009 255.344C249.009 255.115 248.974 254.91 248.904 254.729C248.833 254.544 248.734 254.389 248.604 254.264C248.475 254.134 248.32 254.036 248.139 253.97C247.958 253.903 247.758 253.87 247.54 253.87C247.322 253.87 247.125 253.907 246.948 253.981C246.77 254.055 246.619 254.158 246.493 254.291C246.368 254.421 246.27 254.576 246.199 254.757C246.129 254.934 246.094 255.126 246.094 255.333C246.094 255.555 246.124 255.758 246.183 255.942C246.246 256.123 246.336 256.279 246.454 256.408C246.576 256.537 246.726 256.639 246.903 256.713C247.08 256.783 247.286 256.818 247.518 256.818Z" fill="#BFC3C8"/>
<path d="M280.483 251.061H278.067V257.849H276.577V251.061H274.161V249.836H280.483V251.061ZM282.587 252.773C282.808 252.566 283.052 252.398 283.318 252.269C283.584 252.139 283.896 252.075 284.255 252.075C284.565 252.075 284.84 252.128 285.08 252.235C285.32 252.339 285.52 252.487 285.679 252.679C285.841 252.867 285.963 253.094 286.044 253.36C286.129 253.623 286.172 253.913 286.172 254.23V257.849H284.803V254.23C284.803 253.883 284.724 253.615 284.565 253.427C284.406 253.235 284.164 253.139 283.839 253.139C283.603 253.139 283.381 253.192 283.174 253.299C282.967 253.406 282.771 253.552 282.587 253.737V257.849H281.218V249.615H282.587V252.773ZM292.848 249.836V250.429C292.848 250.606 292.83 250.75 292.793 250.861C292.756 250.968 292.719 251.059 292.682 251.133L289.646 257.383C289.583 257.512 289.494 257.623 289.38 257.716C289.265 257.804 289.112 257.849 288.92 257.849H287.928L291.025 251.726C291.095 251.6 291.164 251.486 291.23 251.382C291.3 251.275 291.378 251.173 291.463 251.077H287.629C287.544 251.077 287.47 251.046 287.407 250.983C287.344 250.92 287.313 250.847 287.313 250.762V249.836H292.848Z" fill="#BFC3C8"/>
<path d="M321.118 251.061H318.702V257.849H317.211V251.061H314.795V249.836H321.118V251.061ZM323.221 252.773C323.443 252.566 323.687 252.398 323.953 252.269C324.219 252.139 324.531 252.075 324.889 252.075C325.2 252.075 325.475 252.128 325.715 252.235C325.955 252.339 326.155 252.487 326.313 252.679C326.476 252.867 326.598 253.094 326.679 253.36C326.764 253.623 326.807 253.913 326.807 254.23V257.849H325.438V254.23C325.438 253.883 325.358 253.615 325.2 253.427C325.041 253.235 324.799 253.139 324.474 253.139C324.237 253.139 324.016 253.192 323.809 253.299C323.602 253.406 323.406 253.552 323.221 253.737V257.849H321.853V249.615H323.221V252.773ZM330.646 256.868C330.871 256.868 331.069 256.836 331.239 256.774C331.409 256.707 331.551 256.617 331.666 256.502C331.784 256.388 331.872 256.251 331.932 256.092C331.991 255.933 332.02 255.761 332.02 255.577C332.02 255.137 331.898 254.805 331.655 254.579C331.411 254.354 331.075 254.241 330.646 254.241C330.218 254.241 329.881 254.354 329.638 254.579C329.394 254.805 329.272 255.137 329.272 255.577C329.272 255.761 329.301 255.933 329.36 256.092C329.42 256.251 329.506 256.388 329.621 256.502C329.739 256.617 329.883 256.707 330.053 256.774C330.223 256.836 330.421 256.868 330.646 256.868ZM330.646 250.778C330.443 250.778 330.267 250.81 330.12 250.872C329.972 250.935 329.848 251.02 329.748 251.127C329.652 251.231 329.58 251.351 329.532 251.487C329.488 251.624 329.466 251.768 329.466 251.92C329.466 252.078 329.484 252.234 329.521 252.385C329.562 252.533 329.628 252.666 329.721 252.784C329.813 252.899 329.935 252.991 330.086 253.061C330.238 253.131 330.424 253.166 330.646 253.166C330.868 253.166 331.054 253.131 331.206 253.061C331.357 252.991 331.479 252.899 331.571 252.784C331.664 252.666 331.728 252.533 331.765 252.385C331.806 252.234 331.826 252.078 331.826 251.92C331.826 251.768 331.802 251.624 331.754 251.487C331.706 251.351 331.634 251.231 331.538 251.127C331.442 251.02 331.32 250.935 331.172 250.872C331.025 250.81 330.849 250.778 330.646 250.778ZM331.998 253.671C332.486 253.829 332.846 254.073 333.079 254.402C333.311 254.727 333.428 255.126 333.428 255.599C333.428 255.954 333.359 256.275 333.223 256.563C333.09 256.851 332.901 257.097 332.657 257.3C332.414 257.503 332.12 257.66 331.776 257.771C331.437 257.882 331.06 257.937 330.646 257.937C330.232 257.937 329.854 257.882 329.51 257.771C329.17 257.66 328.878 257.503 328.635 257.3C328.391 257.097 328.201 256.851 328.064 256.563C327.931 256.275 327.864 255.954 327.864 255.599C327.864 255.126 327.981 254.727 328.213 254.402C328.446 254.073 328.806 253.829 329.294 253.671C328.906 253.508 328.614 253.277 328.418 252.978C328.226 252.679 328.13 252.319 328.13 251.897C328.13 251.595 328.191 251.312 328.313 251.05C328.439 250.787 328.612 250.56 328.834 250.368C329.056 250.172 329.32 250.021 329.626 249.914C329.937 249.803 330.277 249.748 330.646 249.748C331.015 249.748 331.353 249.803 331.66 249.914C331.97 250.021 332.236 250.172 332.458 250.368C332.68 250.56 332.851 250.787 332.973 251.05C333.099 251.312 333.162 251.595 333.162 251.897C333.162 252.319 333.064 252.679 332.868 252.978C332.676 253.277 332.386 253.508 331.998 253.671Z" fill="#BFC3C8"/>
<path d="M361.753 251.061H359.337V257.849H357.846V251.061H355.43V249.836H361.753V251.061ZM363.856 252.773C364.078 252.566 364.322 252.398 364.588 252.269C364.854 252.139 365.166 252.075 365.524 252.075C365.835 252.075 366.11 252.128 366.35 252.235C366.59 252.339 366.79 252.487 366.948 252.679C367.111 252.867 367.233 253.094 367.314 253.36C367.399 253.623 367.442 253.913 367.442 254.23V257.849H366.073V254.23C366.073 253.883 365.993 253.615 365.835 253.427C365.676 253.235 365.434 253.139 365.109 253.139C364.872 253.139 364.651 253.192 364.444 253.299C364.237 253.406 364.041 253.552 363.856 253.737V257.849H362.488V249.615H363.856V252.773ZM369.896 252.241C369.896 252.688 370.01 253.03 370.239 253.266C370.472 253.499 370.801 253.615 371.226 253.615C371.447 253.615 371.645 253.58 371.819 253.51C371.992 253.44 372.138 253.344 372.256 253.222C372.374 253.1 372.463 252.956 372.522 252.79C372.585 252.623 372.616 252.444 372.616 252.252C372.616 252.034 372.583 251.84 372.517 251.67C372.45 251.497 372.356 251.351 372.234 251.233C372.112 251.114 371.966 251.024 371.796 250.961C371.63 250.898 371.447 250.867 371.248 250.867C371.041 250.867 370.854 250.902 370.688 250.972C370.522 251.039 370.38 251.133 370.261 251.255C370.143 251.377 370.053 251.523 369.99 251.692C369.927 251.859 369.896 252.042 369.896 252.241ZM371.713 254.74C371.776 254.662 371.835 254.587 371.891 254.513C371.946 254.439 372 254.365 372.051 254.291C371.867 254.409 371.663 254.5 371.442 254.563C371.22 254.622 370.987 254.651 370.744 254.651C370.466 254.651 370.195 254.603 369.929 254.507C369.663 254.411 369.427 254.267 369.22 254.075C369.013 253.879 368.845 253.639 368.715 253.355C368.59 253.067 368.527 252.73 368.527 252.346C368.527 251.988 368.594 251.652 368.727 251.338C368.86 251.024 369.046 250.749 369.286 250.512C369.526 250.276 369.814 250.089 370.151 249.953C370.487 249.816 370.858 249.748 371.264 249.748C371.674 249.748 372.042 249.812 372.367 249.941C372.696 250.071 372.975 250.252 373.204 250.484C373.437 250.717 373.614 250.996 373.736 251.321C373.861 251.646 373.924 252.003 373.924 252.391C373.924 252.638 373.902 252.873 373.858 253.094C373.817 253.316 373.758 253.53 373.68 253.737C373.603 253.94 373.509 254.14 373.398 254.336C373.287 254.531 373.163 254.725 373.026 254.917L371.192 257.533C371.13 257.621 371.035 257.697 370.91 257.76C370.784 257.819 370.642 257.849 370.483 257.849H369.225L371.713 254.74Z" fill="#BFC3C8"/>
<path d="M404.235 251.061H401.819V257.849H400.328V251.061H397.912V249.836H404.235V251.061ZM406.338 252.773C406.56 252.566 406.804 252.398 407.07 252.269C407.336 252.139 407.648 252.075 408.006 252.075C408.317 252.075 408.592 252.128 408.832 252.235C409.072 252.339 409.271 252.487 409.43 252.679C409.593 252.867 409.715 253.094 409.796 253.36C409.881 253.623 409.923 253.913 409.923 254.23V257.849H408.555V254.23C408.555 253.883 408.475 253.615 408.317 253.427C408.158 253.235 407.916 253.139 407.591 253.139C407.354 253.139 407.133 253.192 406.926 253.299C406.719 253.406 406.523 253.552 406.338 253.737V257.849H404.97V249.615H406.338V252.773ZM416.284 256.824V257.849H411.851V256.824H413.475V252.152C413.475 251.968 413.48 251.777 413.491 251.582L412.339 252.546C412.272 252.597 412.206 252.631 412.139 252.646C412.077 252.657 412.016 252.657 411.957 252.646C411.901 252.634 411.851 252.616 411.807 252.59C411.763 252.561 411.729 252.529 411.707 252.496L411.275 251.903L413.719 249.825H414.843V256.824H416.284ZM423.128 253.842C423.128 254.541 423.053 255.148 422.901 255.665C422.753 256.179 422.547 256.604 422.281 256.94C422.018 257.276 421.706 257.527 421.344 257.693C420.986 257.856 420.598 257.937 420.18 257.937C419.763 257.937 419.375 257.856 419.017 257.693C418.662 257.527 418.354 257.276 418.091 256.94C417.829 256.604 417.624 256.179 417.476 255.665C417.329 255.148 417.255 254.541 417.255 253.842C417.255 253.141 417.329 252.533 417.476 252.019C417.624 251.506 417.829 251.081 418.091 250.745C418.354 250.409 418.662 250.159 419.017 249.997C419.375 249.831 419.763 249.748 420.18 249.748C420.598 249.748 420.986 249.831 421.344 249.997C421.706 250.159 422.018 250.409 422.281 250.745C422.547 251.081 422.753 251.506 422.901 252.019C423.053 252.533 423.128 253.141 423.128 253.842ZM421.715 253.842C421.715 253.262 421.673 252.782 421.588 252.402C421.503 252.021 421.388 251.718 421.244 251.493C421.104 251.268 420.941 251.111 420.757 251.022C420.572 250.93 420.38 250.883 420.18 250.883C419.985 250.883 419.794 250.93 419.61 251.022C419.429 251.111 419.268 251.268 419.128 251.493C418.987 251.718 418.875 252.021 418.79 252.402C418.708 252.782 418.668 253.262 418.668 253.842C418.668 254.422 418.708 254.903 418.79 255.283C418.875 255.664 418.987 255.966 419.128 256.192C419.268 256.417 419.429 256.576 419.61 256.668C419.794 256.757 419.985 256.801 420.18 256.801C420.38 256.801 420.572 256.757 420.757 256.668C420.941 256.576 421.104 256.417 421.244 256.192C421.388 255.966 421.503 255.664 421.588 255.283C421.673 254.903 421.715 254.422 421.715 253.842Z" fill="#BFC3C8"/>
<path d="M452.258 251.061H449.842V257.849H448.351V251.061H445.935V249.836H452.258V251.061ZM454.361 252.773C454.583 252.566 454.827 252.398 455.093 252.269C455.359 252.139 455.671 252.075 456.029 252.075C456.34 252.075 456.615 252.128 456.855 252.235C457.095 252.339 457.294 252.487 457.453 252.679C457.616 252.867 457.738 253.094 457.819 253.36C457.904 253.623 457.946 253.913 457.946 254.23V257.849H456.578V254.23C456.578 253.883 456.498 253.615 456.34 253.427C456.181 253.235 455.939 253.139 455.614 253.139C455.377 253.139 455.156 253.192 454.949 253.299C454.742 253.406 454.546 253.552 454.361 253.737V257.849H452.993V249.615H454.361V252.773ZM464.307 256.824V257.849H459.874V256.824H461.498V252.152C461.498 251.968 461.503 251.777 461.514 251.582L460.362 252.546C460.295 252.597 460.229 252.631 460.162 252.646C460.1 252.657 460.039 252.657 459.98 252.646C459.924 252.634 459.874 252.616 459.83 252.59C459.786 252.561 459.752 252.529 459.73 252.496L459.298 251.903L461.742 249.825H462.866V256.824H464.307ZM470.736 256.824V257.849H466.303V256.824H467.926V252.152C467.926 251.968 467.932 251.777 467.943 251.582L466.79 252.546C466.724 252.597 466.657 252.631 466.591 252.646C466.528 252.657 466.467 252.657 466.408 252.646C466.353 252.634 466.303 252.616 466.258 252.59C466.214 252.561 466.181 252.529 466.159 252.496L465.727 251.903L468.17 249.825H469.295V256.824H470.736Z" fill="#BFC3C8"/>
<path d="M496.587 251.061H494.171V257.849H492.68V251.061H490.264V249.836H496.587V251.061ZM498.69 252.773C498.912 252.566 499.156 252.398 499.422 252.269C499.688 252.139 500 252.075 500.358 252.075C500.669 252.075 500.944 252.128 501.184 252.235C501.424 252.339 501.624 252.487 501.782 252.679C501.945 252.867 502.067 253.094 502.148 253.36C502.233 253.623 502.276 253.913 502.276 254.23V257.849H500.907V254.23C500.907 253.883 500.827 253.615 500.669 253.427C500.51 253.235 500.268 253.139 499.943 253.139C499.706 253.139 499.485 253.192 499.278 253.299C499.071 253.406 498.875 253.552 498.69 253.737V257.849H497.322V249.615H498.69V252.773ZM508.636 256.824V257.849H504.203V256.824H505.827V252.152C505.827 251.968 505.832 251.777 505.844 251.582L504.691 252.546C504.624 252.597 504.558 252.631 504.491 252.646C504.429 252.657 504.368 252.657 504.309 252.646C504.253 252.634 504.203 252.616 504.159 252.59C504.115 252.561 504.081 252.529 504.059 252.496L503.627 251.903L506.071 249.825H507.196V256.824H508.636ZM514.766 256.574C514.913 256.574 515.03 256.617 515.115 256.702C515.203 256.783 515.248 256.892 515.248 257.029V257.849H509.751V257.394C509.751 257.302 509.769 257.206 509.806 257.106C509.847 257.003 509.91 256.91 509.995 256.829L512.427 254.391C512.63 254.184 512.811 253.986 512.97 253.798C513.133 253.61 513.268 253.423 513.375 253.238C513.482 253.054 513.563 252.867 513.619 252.679C513.678 252.487 513.707 252.285 513.707 252.075C513.707 251.883 513.68 251.715 513.624 251.571C513.569 251.423 513.489 251.299 513.386 251.199C513.286 251.1 513.164 251.026 513.02 250.978C512.88 250.926 512.721 250.9 512.544 250.9C512.381 250.9 512.23 250.924 512.089 250.972C511.953 251.016 511.831 251.081 511.724 251.166C511.616 251.247 511.526 251.343 511.452 251.454C511.378 251.565 511.323 251.687 511.286 251.82C511.223 251.99 511.142 252.102 511.042 252.158C510.942 252.213 510.798 252.226 510.61 252.197L509.889 252.069C509.945 251.685 510.052 251.349 510.211 251.061C510.37 250.769 510.567 250.527 510.804 250.335C511.044 250.139 511.317 249.993 511.624 249.897C511.934 249.797 512.267 249.748 512.621 249.748C512.991 249.748 513.329 249.803 513.635 249.914C513.942 250.021 514.204 250.174 514.422 250.374C514.64 250.573 514.81 250.813 514.932 251.094C515.054 251.375 515.115 251.687 515.115 252.03C515.115 252.326 515.07 252.599 514.982 252.851C514.897 253.102 514.78 253.342 514.633 253.571C514.489 253.8 514.319 254.022 514.123 254.236C513.927 254.45 513.722 254.668 513.508 254.89L511.701 256.735C511.875 256.683 512.047 256.644 512.217 256.619C512.39 256.589 512.555 256.574 512.71 256.574H514.766Z" fill="#BFC3C8"/>
<line x1="409.924" y1="56" x2="409.924" y2="199" stroke="#00BF71" stroke-opacity="0.5" stroke-width="1.84704" stroke-dasharray="3.69 3.69"/>
<defs>
<filter id="filter0_dd_750_188" x="386.204" y="4.59009" width="91.4229" height="61.8997" filterUnits="userSpaceOnUse" color-interpolation-filters="sRGB">
<feFlood flood-opacity="0" result="BackgroundImageFix"/>
<feColorMatrix in="SourceAlpha" type="matrix" values="0 0 0 0 0 0 0 0 0 0 0 0 0 0 0 0 0 0 127 0" result="hardAlpha"/>
<feMorphology radius="2" operator="erode" in="SourceAlpha" result="effect1_dropShadow_750_188"/>
<feOffset dy="2"/>
<feGaussianBlur stdDeviation="2"/>
<feColorMatrix type="matrix" values="0 0 0 0 0.0627451 0 0 0 0 0.0941176 0 0 0 0 0.156863 0 0 0 0.06 0"/>
<feBlend mode="normal" in2="BackgroundImageFix" result="effect1_dropShadow_750_188"/>
<feColorMatrix in="SourceAlpha" type="matrix" values="0 0 0 0 0 0 0 0 0 0 0 0 0 0 0 0 0 0 127 0" result="hardAlpha"/>
<feMorphology radius="2" operator="erode" in="SourceAlpha" result="effect2_dropShadow_750_188"/>
<feOffset dy="4"/>
<feGaussianBlur stdDeviation="4"/>
<feColorMatrix type="matrix" values="0 0 0 0 0.0627451 0 0 0 0 0.0941176 0 0 0 0 0.156863 0 0 0 0.1 0"/>
<feBlend mode="normal" in2="effect1_dropShadow_750_188" result="effect2_dropShadow_750_188"/>
<feBlend mode="normal" in="SourceGraphic" in2="effect2_dropShadow_750_188" result="shape"/>
</filter>
<linearGradient id="paint0_linear_750_188" x1="87.1301" y1="109.723" x2="552.421" y2="190.286" gradientUnits="userSpaceOnUse">
<stop stop-color="#ECFFEA" stop-opacity="0.09"/>
<stop offset="0.524148" stop-color="white"/>
<stop offset="1" stop-color="#EDFFEB" stop-opacity="0.12"/>
</linearGradient>
</defs>
</svg>
