<svg width="23" height="23" viewBox="0 0 23 23" fill="none" xmlns="http://www.w3.org/2000/svg">
<circle cx="11.6733" cy="11.1245" r="11.0822" fill="#D8F2E8"/>
<path d="M15.3674 13.5375C15.3674 14.1373 15.1079 14.7126 14.6461 15.1367C14.1842 15.5609 13.5578 15.7992 12.9047 15.7992H12.0838V16.5531C12.0838 16.653 12.0405 16.7489 11.9636 16.8196C11.8866 16.8903 11.7822 16.93 11.6733 16.93C11.5645 16.93 11.4601 16.8903 11.3831 16.8196C11.3061 16.7489 11.2629 16.653 11.2629 16.5531V15.7992H10.442C9.78881 15.7992 9.16241 15.5609 8.70056 15.1367C8.23871 14.7126 7.97925 14.1373 7.97925 13.5375C7.97925 13.4375 8.02249 13.3416 8.09947 13.2709C8.17644 13.2002 8.28084 13.1605 8.3897 13.1605C8.49856 13.1605 8.60296 13.2002 8.67994 13.2709C8.75691 13.3416 8.80016 13.4375 8.80016 13.5375C8.80151 13.937 8.97492 14.3198 9.28253 14.6023C9.59013 14.8848 10.0069 15.044 10.442 15.0453H12.9047C13.3401 15.0453 13.7577 14.8864 14.0656 14.6037C14.3735 14.3209 14.5465 13.9374 14.5465 13.5375C14.5465 13.1376 14.3735 12.7541 14.0656 12.4713C13.7577 12.1886 13.3401 12.0297 12.9047 12.0297H10.6472C9.99404 12.0297 9.36764 11.7914 8.90579 11.3673C8.44394 10.9431 8.18447 10.3678 8.18447 9.76801C8.18447 9.16818 8.44394 8.59291 8.90579 8.16876C9.36764 7.74461 9.99404 7.50633 10.6472 7.50633H11.2629V6.75244C11.2629 6.65246 11.3061 6.55658 11.3831 6.48589C11.4601 6.4152 11.5645 6.37549 11.6733 6.37549C11.7822 6.37549 11.8866 6.4152 11.9636 6.48589C12.0405 6.55658 12.0838 6.65246 12.0838 6.75244V7.50633H12.4942C13.1474 7.50633 13.7738 7.74461 14.2356 8.16876C14.6975 8.59291 14.957 9.16818 14.957 9.76801C14.957 9.86798 14.9137 9.96386 14.8367 10.0346C14.7598 10.1052 14.6554 10.145 14.5465 10.145C14.4376 10.145 14.3332 10.1052 14.2563 10.0346C14.1793 9.96386 14.1361 9.86798 14.1361 9.76801C14.1347 9.3685 13.9613 8.98571 13.6537 8.70322C13.3461 8.42072 12.9293 8.26147 12.4942 8.26022H10.6472C10.2118 8.26022 9.79416 8.41908 9.48626 8.70184C9.17836 8.98461 9.00538 9.36812 9.00538 9.76801C9.00538 10.1679 9.17836 10.5514 9.48626 10.8342C9.79416 11.1169 10.2118 11.2758 10.6472 11.2758H12.9047C13.5578 11.2758 14.1842 11.5141 14.6461 11.9382C15.1079 12.3624 15.3674 12.9376 15.3674 13.5375Z" fill="#5BD3A3"/>
</svg>
