<svg width="219" height="139" viewBox="0 0 219 109" fill="none" xmlns="http://www.w3.org/2000/svg">
<path d="M163.528 29.0913L163.528 35.5259L162.202 35.5259L162.202 29.0913L163.528 29.0913ZM166.091 31.8401L166.091 32.8743L163.166 32.8743L163.166 31.8401L166.091 31.8401ZM166.401 29.0913L166.401 30.1298L163.166 30.1298L163.166 29.0913L166.401 29.0913ZM169.676 33.2322L168.036 33.2322L168.036 32.1981L169.676 32.1981C169.929 32.1981 170.135 32.1568 170.294 32.0743C170.453 31.9889 170.57 31.8711 170.643 31.7208C170.717 31.5705 170.754 31.4011 170.754 31.2126C170.754 31.0211 170.717 30.8428 170.643 30.6778C170.57 30.5128 170.453 30.3803 170.294 30.2801C170.135 30.1799 169.929 30.1298 169.676 30.1298L168.496 30.1298L168.496 35.5259L167.17 35.5259L167.17 29.0913L169.676 29.0913C170.179 29.0913 170.611 29.1826 170.97 29.3653C171.333 29.545 171.61 29.794 171.801 30.1121C171.993 30.4303 172.089 30.7942 172.089 31.2037C172.089 31.6192 171.993 31.9786 171.801 32.2821C171.61 32.5855 171.333 32.8197 170.97 32.9847C170.611 33.1497 170.179 33.2322 169.676 33.2322ZM175.88 29.0913L175.88 35.5259L174.559 35.5259L174.559 29.0913L175.88 29.0913ZM177.86 29.0913L177.86 30.1298L172.61 30.1298L172.61 29.0913L177.86 29.0913Z" fill="#333333"/>
<path d="M162.062 80.3791L162.062 86.8137L160.741 86.8137L160.741 80.3791L162.062 80.3791ZM164.042 80.3791L164.042 81.4177L158.792 81.4177L158.792 80.3791L164.042 80.3791ZM163.746 84.4715L163.746 84.3786C163.746 84.028 163.796 83.7054 163.896 83.4108C163.997 83.1132 164.142 82.8554 164.334 82.6374C164.525 82.4194 164.761 82.25 165.041 82.1292C165.321 82.0054 165.642 81.9436 166.004 81.9436C166.367 81.9436 166.689 82.0054 166.972 82.1292C167.255 82.25 167.492 82.4194 167.684 82.6374C167.878 82.8554 168.026 83.1132 168.126 83.4108C168.226 83.7054 168.276 84.028 168.276 84.3786L168.276 84.4715C168.276 84.8191 168.226 85.1417 168.126 85.4393C168.026 85.7339 167.878 85.9917 167.684 86.2127C167.492 86.4307 167.257 86.6001 166.977 86.7209C166.697 86.8417 166.376 86.9021 166.013 86.9021C165.651 86.9021 165.328 86.8417 165.045 86.7209C164.766 86.6001 164.528 86.4307 164.334 86.2127C164.142 85.9917 163.997 85.7339 163.896 85.4393C163.796 85.1417 163.746 84.8191 163.746 84.4715ZM165.019 84.3786L165.019 84.4715C165.019 84.6718 165.037 84.8589 165.072 85.0327C165.107 85.2065 165.163 85.3597 165.24 85.4923C165.319 85.622 165.423 85.7236 165.549 85.7973C165.676 85.8709 165.831 85.9077 166.013 85.9077C166.19 85.9077 166.342 85.8709 166.468 85.7973C166.595 85.7236 166.697 85.622 166.773 85.4923C166.85 85.3597 166.906 85.2065 166.941 85.0327C166.98 84.8589 166.999 84.6718 166.999 84.4715L166.999 84.3786C166.999 84.1842 166.98 84.0015 166.941 83.8306C166.906 83.6568 166.849 83.5036 166.769 83.371C166.692 83.2355 166.591 83.1294 166.464 83.0528C166.337 82.9762 166.184 82.9379 166.004 82.9379C165.825 82.9379 165.672 82.9762 165.545 83.0528C165.421 83.1294 165.319 83.2355 165.24 83.371C165.163 83.5036 165.107 83.6568 165.072 83.8306C165.037 84.0015 165.019 84.1842 165.019 84.3786ZM166.362 80.3924L167.595 81.4221L166.689 81.4221L165.991 80.8078L165.293 81.4221L164.383 81.4221L165.62 80.3924L166.362 80.3924ZM167.869 80.8564L167.198 80.8564L167.136 80.3482C167.26 80.3423 167.358 80.3305 167.432 80.3128C167.509 80.2951 167.564 80.2701 167.6 80.2377C167.638 80.2023 167.657 80.1581 167.657 80.1051C167.657 80.0344 167.634 79.9814 167.587 79.946C167.539 79.9077 167.475 79.8812 167.392 79.8665C167.313 79.8488 167.22 79.8399 167.114 79.8399L167.145 79.3494C167.357 79.3494 167.542 79.3656 167.701 79.398C167.861 79.4304 167.995 79.479 168.104 79.5439C168.213 79.6057 168.294 79.6809 168.347 79.7692C168.403 79.8576 168.431 79.9578 168.431 80.0698C168.431 80.2436 168.372 80.3732 168.254 80.4587C168.139 80.5412 168.011 80.5927 167.869 80.6133L167.869 80.8564ZM170.305 83.0528L170.305 86.8137L169.032 86.8137L169.032 82.032L170.225 82.032L170.305 83.0528ZM170.119 84.2549L169.774 84.2549C169.774 83.9014 169.82 83.5832 169.911 83.3003C170.003 83.0145 170.131 82.7715 170.296 82.5711C170.461 82.3678 170.657 82.2132 170.883 82.1071C171.113 81.9981 171.37 81.9436 171.652 81.9436C171.876 81.9436 172.081 81.976 172.267 82.0408C172.452 82.1056 172.611 82.2087 172.744 82.3502C172.88 82.4916 172.983 82.6787 173.053 82.9114C173.127 83.1442 173.164 83.4285 173.164 83.7644L173.164 86.8137L171.882 86.8137L171.882 83.7599C171.882 83.5478 171.853 83.3828 171.794 83.265C171.735 83.1471 171.648 83.0646 171.533 83.0175C171.421 82.9674 171.283 82.9423 171.118 82.9423C170.947 82.9423 170.798 82.9762 170.671 83.044C170.548 83.1118 170.444 83.206 170.362 83.3268C170.282 83.4447 170.222 83.5832 170.181 83.7423C170.14 83.9014 170.119 84.0722 170.119 84.2549ZM177.159 82.032L178.312 82.032L178.312 86.6546C178.312 87.0907 178.215 87.4604 178.021 87.7639C177.829 88.0703 177.561 88.3016 177.216 88.4577C176.872 88.6168 176.471 88.6964 176.014 88.6964C175.814 88.6964 175.602 88.6699 175.378 88.6168C175.157 88.5638 174.945 88.4813 174.742 88.3693C174.541 88.2574 174.373 88.116 174.238 87.9451L174.799 87.1938C174.946 87.3647 175.117 87.4973 175.312 87.5915C175.506 87.6888 175.721 87.7374 175.957 87.7374C176.187 87.7374 176.381 87.6946 176.54 87.6092C176.699 87.5267 176.822 87.4044 176.907 87.2424C176.992 87.0833 177.035 86.8903 177.035 86.6635L177.035 83.1368L177.159 82.032ZM173.942 84.4803L173.942 84.3875C173.942 84.0221 173.986 83.6907 174.074 83.3931C174.166 83.0926 174.294 82.8348 174.459 82.6197C174.627 82.4047 174.83 82.2382 175.069 82.1203C175.307 82.0025 175.577 81.9436 175.877 81.9436C176.196 81.9436 176.462 82.0025 176.677 82.1203C176.892 82.2382 177.069 82.4061 177.208 82.6242C177.346 82.8392 177.454 83.0941 177.53 83.3887C177.61 83.6804 177.672 84.0001 177.716 84.3477L177.716 84.551C177.672 84.8839 177.605 85.1933 177.517 85.4791C177.429 85.7649 177.312 86.0153 177.168 86.2304C177.023 86.4425 176.844 86.6075 176.629 86.7253C176.416 86.8432 176.163 86.9021 175.868 86.9021C175.574 86.9021 175.307 86.8417 175.069 86.7209C174.833 86.6001 174.631 86.4307 174.463 86.2127C174.295 85.9947 174.166 85.7383 174.074 85.4437C173.986 85.1491 173.942 84.8279 173.942 84.4803ZM175.214 84.3875L175.214 84.4803C175.214 84.6777 175.234 84.8618 175.272 85.0327C175.31 85.2036 175.369 85.3553 175.449 85.4879C175.531 85.6175 175.633 85.7192 175.754 85.7928C175.877 85.8636 176.023 85.8989 176.191 85.8989C176.424 85.8989 176.614 85.8503 176.761 85.7531C176.909 85.6529 177.019 85.5159 177.093 85.3421C177.166 85.1682 177.209 84.9679 177.221 84.741L177.221 84.1621C177.215 83.9765 177.19 83.81 177.146 83.6627C177.102 83.5124 177.04 83.3843 176.96 83.2782C176.881 83.1722 176.777 83.0897 176.651 83.0307C176.524 82.9718 176.374 82.9423 176.2 82.9423C176.032 82.9423 175.886 82.9807 175.762 83.0573C175.642 83.1309 175.54 83.2326 175.457 83.3622C175.378 83.4918 175.318 83.645 175.276 83.8218C175.235 83.9956 175.214 84.1842 175.214 84.3875ZM182.9 80.0256L182.9 86.8137L181.623 86.8137L181.623 80.0256L182.9 80.0256ZM188.022 81.5768L188.782 81.5768C188.782 81.9303 188.727 82.2338 188.618 82.4872C188.512 82.7376 188.343 82.9306 188.11 83.0661C187.88 83.1987 187.58 83.265 187.209 83.265L187.209 82.7258C187.43 82.7258 187.598 82.6787 187.712 82.5844C187.83 82.4901 187.911 82.3575 187.955 82.1866C188 82.0158 188.022 81.8125 188.022 81.5768ZM183.739 84.4715L183.739 84.3786C183.739 84.028 183.789 83.7054 183.89 83.4108C183.99 83.1132 184.136 82.8554 184.327 82.6374C184.522 82.4194 184.759 82.25 185.039 82.1292C185.319 82.0054 185.64 81.9436 186.002 81.9436C186.365 81.9436 186.686 82.0054 186.966 82.1292C187.248 82.25 187.486 82.4194 187.677 82.6374C187.872 82.8554 188.019 83.1132 188.119 83.4108C188.219 83.7054 188.269 84.028 188.269 84.3786L188.269 84.4715C188.269 84.8191 188.219 85.1417 188.119 85.4393C188.019 85.7339 187.872 85.9917 187.677 86.2127C187.486 86.4307 187.25 86.6001 186.97 86.7209C186.69 86.8417 186.37 86.9021 186.011 86.9021C185.649 86.9021 185.326 86.8417 185.043 86.7209C184.76 86.6001 184.522 86.4307 184.327 86.2127C184.136 85.9917 183.99 85.7339 183.89 85.4393C183.789 85.1417 183.739 84.8191 183.739 84.4715ZM185.012 84.3786L185.012 84.4715C185.012 84.6718 185.03 84.8589 185.065 85.0327C185.104 85.2065 185.161 85.3597 185.238 85.4923C185.317 85.622 185.42 85.7236 185.547 85.7973C185.674 85.8709 185.828 85.9077 186.011 85.9077C186.188 85.9077 186.338 85.8709 186.462 85.7973C186.588 85.7236 186.69 85.622 186.767 85.4923C186.843 85.3597 186.899 85.2065 186.935 85.0327C186.973 84.8589 186.992 84.6718 186.992 84.4715L186.992 84.3786C186.992 84.1842 186.974 84.0015 186.939 83.8306C186.904 83.6568 186.846 83.5036 186.767 83.371C186.69 83.2355 186.588 83.1294 186.462 83.0528C186.335 82.9762 186.182 82.9379 186.002 82.9379C185.822 82.9379 185.669 82.9762 185.543 83.0528C185.419 83.1294 185.317 83.2355 185.238 83.371C185.161 83.5036 185.104 83.6568 185.065 83.8306C185.03 84.0015 185.012 84.1842 185.012 84.3786ZM185.291 87.8965C185.291 87.7256 185.355 87.5827 185.485 87.4678C185.615 87.3558 185.789 87.2999 186.007 87.2999C186.222 87.2999 186.394 87.3558 186.524 87.4678C186.656 87.5827 186.722 87.7256 186.722 87.8965C186.722 88.0644 186.656 88.2058 186.524 88.3207C186.394 88.4356 186.222 88.4931 186.007 88.4931C185.789 88.4931 185.615 88.4356 185.485 88.3207C185.355 88.2058 185.291 88.0644 185.291 87.8965ZM190.554 82.032L190.554 86.8137L189.277 86.8137L189.277 82.032L190.554 82.032ZM189.197 80.7857C189.197 80.6001 189.262 80.4469 189.392 80.3261C189.521 80.2053 189.695 80.1449 189.913 80.1449C190.128 80.1449 190.301 80.2053 190.43 80.3261C190.563 80.4469 190.629 80.6001 190.629 80.7857C190.629 80.9713 190.563 81.1245 190.43 81.2453C190.301 81.3661 190.128 81.4265 189.913 81.4265C189.695 81.4265 189.521 81.3661 189.392 81.2453C189.262 81.1245 189.197 80.9713 189.197 80.7857ZM195.106 83.0528L195.106 86.8137L193.833 86.8137L193.833 82.032L195.026 82.032L195.106 83.0528ZM194.92 84.2549L194.576 84.2549C194.576 83.9014 194.621 83.5832 194.713 83.3003C194.804 83.0145 194.932 82.7715 195.097 82.5711C195.262 82.3678 195.458 82.2132 195.685 82.1071C195.915 81.9981 196.171 81.9436 196.454 81.9436C196.678 81.9436 196.883 81.976 197.068 82.0408C197.254 82.1056 197.413 82.2087 197.546 82.3502C197.681 82.4916 197.784 82.6787 197.855 82.9114C197.929 83.1442 197.965 83.4285 197.965 83.7644L197.965 86.8137L196.684 86.8137L196.684 83.7599C196.684 83.5478 196.654 83.3828 196.595 83.265C196.536 83.1471 196.45 83.0646 196.335 83.0175C196.223 82.9674 196.084 82.9423 195.919 82.9423C195.748 82.9423 195.6 82.9762 195.473 83.044C195.349 83.1118 195.246 83.206 195.163 83.3268C195.084 83.4447 195.024 83.5832 194.982 83.7423C194.941 83.9014 194.92 84.0722 194.92 84.2549ZM200.175 80.0256L200.175 86.8137L198.902 86.8137L198.902 80.0256L200.175 80.0256ZM199.994 84.2549L199.645 84.2549C199.648 83.922 199.692 83.6156 199.777 83.3357C199.863 83.0528 199.985 82.8083 200.144 82.6021C200.303 82.3929 200.493 82.2308 200.714 82.1159C200.938 82.001 201.186 81.9436 201.457 81.9436C201.692 81.9436 201.906 81.9775 202.097 82.0452C202.292 82.11 202.458 82.2161 202.597 82.3634C202.738 82.5078 202.847 82.6978 202.924 82.9335C203.001 83.1692 203.039 83.455 203.039 83.7909L203.039 86.8137L201.757 86.8137L201.757 83.782C201.757 83.5699 201.726 83.4034 201.664 83.2826C201.605 83.1589 201.519 83.072 201.404 83.0219C201.292 82.9689 201.153 82.9423 200.988 82.9423C200.806 82.9423 200.649 82.9762 200.52 83.044C200.393 83.1118 200.291 83.206 200.215 83.3268C200.138 83.4447 200.082 83.5832 200.047 83.7423C200.012 83.9014 199.994 84.0722 199.994 84.2549ZM206.835 85.6691L206.835 82.032L208.108 82.032L208.108 86.8137L206.91 86.8137L206.835 85.6691ZM206.976 84.688L207.352 84.6792C207.352 84.9974 207.315 85.2935 207.242 85.5675C207.168 85.8385 207.057 86.0742 206.91 86.2746C206.763 86.472 206.577 86.6266 206.353 86.7386C206.129 86.8476 205.866 86.9021 205.562 86.9021C205.33 86.9021 205.114 86.8697 204.917 86.8049C204.723 86.7371 204.555 86.6325 204.413 86.4911C204.275 86.3467 204.166 86.1626 204.086 85.9387C204.01 85.7118 203.971 85.4393 203.971 85.1211L203.971 82.032L205.244 82.032L205.244 85.1299C205.244 85.2714 205.26 85.3907 205.293 85.4879C205.328 85.5851 205.377 85.6647 205.439 85.7266C205.5 85.7884 205.573 85.8326 205.655 85.8591C205.741 85.8857 205.835 85.8989 205.938 85.8989C206.2 85.8989 206.406 85.8459 206.557 85.7398C206.71 85.6337 206.817 85.4894 206.879 85.3067C206.944 85.1211 206.976 84.9149 206.976 84.688ZM211.661 85.7354L211.661 83.6053C211.661 83.4521 211.636 83.3209 211.586 83.2119C211.536 83.1 211.458 83.0131 211.352 82.9512C211.249 82.8893 211.114 82.8584 210.949 82.8584C210.808 82.8584 210.686 82.8834 210.583 82.9335C210.48 82.9807 210.4 83.0499 210.344 83.1412C210.288 83.2296 210.26 83.3342 210.26 83.455L208.987 83.455C208.987 83.2517 209.034 83.0587 209.129 82.8761C209.223 82.6934 209.36 82.5328 209.54 82.3943C209.719 82.2529 209.933 82.1424 210.181 82.0629C210.431 81.9833 210.711 81.9436 211.02 81.9436C211.391 81.9436 211.721 82.0054 212.01 82.1292C212.299 82.2529 212.526 82.4385 212.691 82.686C212.859 82.9335 212.943 83.2429 212.943 83.6141L212.943 85.6603C212.943 85.9225 212.959 86.1376 212.991 86.3055C213.024 86.4705 213.071 86.6148 213.133 86.7386L213.133 86.8137L211.847 86.8137C211.785 86.6841 211.738 86.522 211.705 86.3276C211.676 86.1302 211.661 85.9328 211.661 85.7354ZM211.829 83.9014L211.838 84.6217L211.126 84.6217C210.958 84.6217 210.812 84.6409 210.689 84.6792C210.565 84.7175 210.463 84.772 210.384 84.8427C210.304 84.9104 210.245 84.99 210.207 85.0813C210.172 85.1727 210.154 85.2728 210.154 85.3818C210.154 85.4909 210.179 85.5896 210.229 85.6779C210.279 85.7634 210.351 85.8311 210.446 85.8812C210.54 85.9284 210.65 85.9519 210.777 85.9519C210.969 85.9519 211.135 85.9136 211.277 85.837C211.418 85.7604 211.527 85.6662 211.604 85.5542C211.683 85.4422 211.724 85.3362 211.727 85.236L212.063 85.7752C212.016 85.896 211.951 86.0212 211.869 86.1508C211.789 86.2804 211.688 86.4027 211.564 86.5176C211.44 86.6296 211.291 86.7224 211.117 86.796C210.944 86.8668 210.737 86.9021 210.499 86.9021C210.195 86.9021 209.92 86.8417 209.672 86.7209C209.428 86.5972 209.233 86.4278 209.089 86.2127C208.948 85.9947 208.877 85.7472 208.877 85.4702C208.877 85.2198 208.924 84.9974 209.018 84.8029C209.112 84.6085 209.251 84.4449 209.434 84.3124C209.619 84.1768 209.851 84.0752 210.127 84.0074C210.404 83.9367 210.726 83.9014 211.091 83.9014L211.829 83.9014ZM211.387 80.0256L212.722 81.2541L212.722 81.3072L211.71 81.3072L211.016 80.662L210.331 81.3072L209.336 81.3072L209.336 81.2409L210.649 80.0256L211.387 80.0256ZM209.968 87.786C209.968 87.6151 210.033 87.4722 210.163 87.3573C210.292 87.2453 210.466 87.1894 210.684 87.1894C210.899 87.1894 211.072 87.2453 211.201 87.3573C211.334 87.4722 211.4 87.6151 211.4 87.786C211.4 87.9539 211.334 88.0953 211.201 88.2102C211.072 88.3251 210.899 88.3826 210.684 88.3826C210.466 88.3826 210.292 88.3251 210.163 88.2102C210.033 88.0953 209.968 87.9539 209.968 87.786ZM215.17 83.0528L215.17 86.8137L213.897 86.8137L213.897 82.032L215.09 82.032L215.17 83.0528ZM214.984 84.2549L214.64 84.2549C214.64 83.9014 214.685 83.5832 214.777 83.3003C214.868 83.0145 214.996 82.7715 215.161 82.5711C215.326 82.3678 215.522 82.2132 215.749 82.1071C215.979 81.9981 216.235 81.9436 216.518 81.9436C216.742 81.9436 216.947 81.976 217.132 82.0408C217.318 82.1056 217.477 82.2087 217.609 82.3502C217.745 82.4916 217.848 82.6787 217.919 82.9114C217.992 83.1442 218.029 83.4285 218.029 83.7644L218.029 86.8137L216.748 86.8137L216.748 83.7599C216.748 83.5478 216.718 83.3828 216.659 83.265C216.6 83.1471 216.513 83.0646 216.399 83.0175C216.287 82.9674 216.148 82.9423 215.983 82.9423C215.812 82.9423 215.663 82.9762 215.537 83.044C215.413 83.1118 215.31 83.206 215.227 83.3268C215.148 83.4447 215.087 83.5832 215.046 83.7423C215.005 83.9014 214.984 84.0722 214.984 84.2549Z" fill="#333333"/>
<path d="M165.069 98.556L165.069 99.8818L159.2 99.8818L159.2 98.7505L161.975 95.7748C162.254 95.4644 162.474 95.1914 162.635 94.9557C162.796 94.7161 162.912 94.502 162.983 94.3134C163.058 94.1209 163.095 93.9383 163.095 93.7654C163.095 93.5062 163.052 93.2842 162.965 93.0996C162.879 92.911 162.751 92.7657 162.582 92.6635C162.417 92.5614 162.213 92.5103 161.97 92.5103C161.71 92.5103 161.486 92.5732 161.298 92.6989C161.113 92.8246 160.972 92.9994 160.874 93.2233C160.779 93.4472 160.732 93.7006 160.732 93.9834L159.029 93.9834C159.029 93.4728 159.151 93.0053 159.395 92.581C159.638 92.1528 159.982 91.813 160.426 91.5616C160.87 91.3063 161.396 91.1786 162.005 91.1786C162.606 91.1786 163.113 91.2768 163.525 91.4732C163.942 91.6657 164.256 91.9446 164.468 92.31C164.684 92.6714 164.792 93.1035 164.792 93.6063C164.792 93.8892 164.747 94.1661 164.657 94.4372C164.566 94.7043 164.437 94.9714 164.268 95.2385C164.103 95.5017 163.902 95.7689 163.667 96.0399C163.431 96.311 163.17 96.5919 162.883 96.8826L161.392 98.556L165.069 98.556ZM171.904 94.8379L171.904 96.3228C171.904 96.967 171.836 97.5229 171.698 97.9903C171.561 98.4539 171.362 98.8349 171.103 99.1335C170.848 99.4281 170.543 99.6461 170.19 99.7876C169.836 99.929 169.443 99.9997 169.011 99.9997C168.665 99.9997 168.343 99.9565 168.045 99.8701C167.746 99.7797 167.477 99.6402 167.237 99.4517C167.002 99.2631 166.797 99.0255 166.625 98.7387C166.456 98.448 166.326 98.1023 166.236 97.7016C166.145 97.3009 166.1 96.8413 166.1 96.3228L166.1 94.8379C166.1 94.1936 166.169 93.6417 166.306 93.1821C166.448 92.7185 166.646 92.3394 166.902 92.0448C167.161 91.7502 167.467 91.5341 167.821 91.3966C168.174 91.2552 168.567 91.1845 168.999 91.1845C169.345 91.1845 169.665 91.2297 169.96 91.32C170.258 91.4065 170.527 91.542 170.767 91.7266C171.007 91.9113 171.211 92.1489 171.38 92.4396C171.549 92.7264 171.678 93.0701 171.769 93.4708C171.859 93.8676 171.904 94.3232 171.904 94.8379ZM170.201 96.5467L170.201 94.6081C170.201 94.2977 170.184 94.0267 170.148 93.7949C170.117 93.5631 170.068 93.3667 170.001 93.2056C169.934 93.0406 169.852 92.9071 169.754 92.8049C169.655 92.7028 169.543 92.6282 169.418 92.581C169.292 92.5339 169.153 92.5103 168.999 92.5103C168.807 92.5103 168.636 92.5476 168.487 92.6223C168.341 92.6969 168.218 92.8167 168.115 92.9817C168.013 93.1428 167.935 93.3588 167.88 93.6299C167.829 93.897 167.803 94.2231 167.803 94.6081L167.803 96.5467C167.803 96.857 167.819 97.13 167.85 97.3657C167.886 97.6014 167.937 97.8037 168.003 97.9727C168.074 98.1377 168.157 98.2732 168.251 98.3792C168.349 98.4814 168.461 98.556 168.587 98.6032C168.716 98.6503 168.858 98.6739 169.011 98.6739C169.2 98.6739 169.367 98.6366 169.512 98.5619C169.661 98.4833 169.787 98.3616 169.889 98.1966C169.995 98.0277 170.074 97.8077 170.125 97.5366C170.176 97.2656 170.201 96.9356 170.201 96.5467ZM173.212 99.0628C173.212 98.8114 173.299 98.6012 173.472 98.4323C173.648 98.2634 173.882 98.1789 174.173 98.1789C174.464 98.1789 174.695 98.2634 174.868 98.4323C175.045 98.6012 175.133 98.8114 175.133 99.0628C175.133 99.3142 175.045 99.5244 174.868 99.6933C174.695 99.8622 174.464 99.9467 174.173 99.9467C173.882 99.9467 173.648 99.8622 173.472 99.6933C173.299 99.5244 173.212 99.3142 173.212 99.0628ZM182.57 96.6763L182.57 98.008L176.389 98.008L176.306 96.9768L179.883 91.3024L181.232 91.3024L179.771 93.7477L177.991 96.6763L182.57 96.6763ZM181.597 91.3024L181.597 99.8818L179.9 99.8818L179.9 91.3024L181.597 91.3024ZM185.086 95.9751L183.731 95.651L184.22 91.3024L189.04 91.3024L189.04 92.6753L185.616 92.6753L185.404 94.5786C185.518 94.5118 185.691 94.4411 185.923 94.3665C186.154 94.2879 186.414 94.2486 186.7 94.2486C187.117 94.2486 187.486 94.3134 187.808 94.4431C188.13 94.5727 188.403 94.7613 188.627 95.0087C188.855 95.2562 189.028 95.5587 189.146 95.9162C189.264 96.2737 189.323 96.6783 189.323 97.13C189.323 97.5111 189.264 97.8745 189.146 98.2202C189.028 98.5619 188.849 98.8683 188.61 99.1394C188.37 99.4065 188.069 99.6167 187.708 99.7699C187.347 99.9231 186.918 99.9997 186.423 99.9997C186.054 99.9997 185.697 99.9447 185.351 99.8347C185.009 99.7247 184.701 99.5617 184.426 99.3456C184.155 99.1296 183.937 98.8683 183.772 98.5619C183.611 98.2516 183.526 97.898 183.518 97.5013L185.204 97.5013C185.227 97.7448 185.29 97.955 185.392 98.1318C185.498 98.3046 185.638 98.4382 185.811 98.5325C185.983 98.6267 186.186 98.6739 186.418 98.6739C186.634 98.6739 186.818 98.6326 186.971 98.5501C187.125 98.4676 187.248 98.3537 187.343 98.2084C187.437 98.0591 187.506 97.8862 187.549 97.6898C187.596 97.4895 187.62 97.2734 187.62 97.0417C187.62 96.8099 187.592 96.5997 187.537 96.4112C187.482 96.2226 187.398 96.0596 187.284 95.9221C187.17 95.7846 187.024 95.6785 186.848 95.6039C186.675 95.5292 186.473 95.4919 186.241 95.4919C185.926 95.4919 185.683 95.541 185.51 95.6392C185.341 95.7374 185.2 95.8494 185.086 95.9751ZM190.395 93.406L190.395 92.9523C190.395 92.6262 190.466 92.3296 190.607 92.0625C190.749 91.7954 190.957 91.5813 191.232 91.4202C191.507 91.2591 191.845 91.1786 192.245 91.1786C192.658 91.1786 193.001 91.2591 193.276 91.4202C193.555 91.5813 193.764 91.7954 193.901 92.0625C194.042 92.3296 194.113 92.6262 194.113 92.9523L194.113 93.406C194.113 93.7242 194.042 94.0168 193.901 94.284C193.764 94.5511 193.557 94.7652 193.282 94.9262C193.007 95.0873 192.668 95.1678 192.263 95.1678C191.854 95.1678 191.511 95.0873 191.232 94.9262C190.957 94.7652 190.749 94.5511 190.607 94.284C190.466 94.0168 190.395 93.7242 190.395 93.406ZM191.52 92.9523L191.52 93.406C191.52 93.5435 191.546 93.6751 191.597 93.8008C191.652 93.9226 191.735 94.0227 191.845 94.1013C191.958 94.1759 192.096 94.2133 192.257 94.2133C192.426 94.2133 192.563 94.1759 192.669 94.1013C192.776 94.0227 192.854 93.9226 192.905 93.8008C192.956 93.6751 192.982 93.5435 192.982 93.406L192.982 92.9523C192.982 92.8069 192.954 92.6733 192.899 92.5516C192.848 92.4259 192.768 92.3257 192.658 92.2511C192.552 92.1725 192.414 92.1332 192.245 92.1332C192.088 92.1332 191.955 92.1725 191.845 92.2511C191.735 92.3257 191.652 92.4259 191.597 92.5516C191.546 92.6733 191.52 92.8069 191.52 92.9523ZM194.496 98.2319L194.496 97.7782C194.496 97.4561 194.567 97.1615 194.708 96.8943C194.854 96.6272 195.064 96.4131 195.339 96.2521C195.618 96.091 195.959 96.0105 196.364 96.0105C196.773 96.0105 197.114 96.091 197.389 96.2521C197.664 96.4131 197.873 96.6272 198.014 96.8943C198.155 97.1615 198.226 97.4561 198.226 97.7782L198.226 98.2319C198.226 98.5541 198.155 98.8487 198.014 99.1158C197.876 99.3829 197.67 99.597 197.395 99.7581C197.12 99.9192 196.78 99.9997 196.376 99.9997C195.967 99.9997 195.624 99.9192 195.345 99.7581C195.066 99.597 194.854 99.3829 194.708 99.1158C194.567 98.8487 194.496 98.5541 194.496 98.2319ZM195.628 97.7782L195.628 98.2319C195.628 98.3734 195.659 98.5069 195.722 98.6326C195.785 98.7583 195.871 98.8585 195.981 98.9331C196.095 99.0078 196.227 99.0451 196.376 99.0451C196.564 99.0451 196.712 99.0078 196.818 98.9331C196.924 98.8585 196.997 98.7583 197.036 98.6326C197.079 98.5069 197.101 98.3734 197.101 98.2319L197.101 97.7782C197.101 97.6368 197.073 97.5052 197.018 97.3834C196.963 97.2577 196.881 97.1575 196.771 97.0829C196.665 97.0043 196.529 96.965 196.364 96.965C196.199 96.965 196.062 97.0043 195.952 97.0829C195.846 97.1575 195.765 97.2577 195.71 97.3834C195.655 97.5052 195.628 97.6368 195.628 97.7782ZM196.782 92.528L192.593 99.2337L191.768 98.7976L195.957 92.092L196.782 92.528Z" fill="#27FFA7"/>
<g clip-path="url(#clip0_842_363)">
<path d="M120.292 87.1948C121.903 88.6513 124.407 88.5368 125.694 86.7876C129.752 81.27 132.297 74.7583 133.037 67.9025C133.919 59.739 132.196 51.5058 128.115 44.3805C124.035 37.2552 117.806 31.6028 110.319 28.2317C104.031 25.4006 97.1268 24.3002 90.3142 25.0083C88.1544 25.2327 86.7881 27.335 87.2292 29.4612L89.1424 38.6829C89.5835 40.8091 91.6713 42.1368 93.8422 42.0871C97.0557 42.0135 100.263 42.6565 103.223 43.9896C107.386 45.8641 110.85 49.0069 113.119 52.9688C115.388 56.9306 116.346 61.5084 115.856 66.0475C115.507 69.276 114.439 72.3672 112.749 75.1017C111.608 76.9489 111.696 79.4215 113.307 80.8779L120.292 87.1948Z" fill="#2BF1A0"/>
<path d="M82.7057 29.6389C81.9453 27.6049 79.6685 26.5548 77.7216 27.5163C70.8981 30.8864 65.1839 36.1985 61.3244 42.8241C57.4649 49.4498 55.663 57.0408 56.0976 64.6387C56.2216 66.8067 58.2582 68.2691 60.4026 67.9271L69.7032 66.4439C71.8475 66.1019 73.2707 64.078 73.3218 61.9071C73.4073 58.2743 74.4071 54.6989 76.2573 51.5226C78.1075 48.3463 80.7244 45.7129 83.8422 43.8464C85.7053 42.731 86.7639 40.4947 86.0035 38.4607L82.7057 29.6389Z" fill="#BFC3C8"/>
<path d="M60.1223 71.0598C57.9991 71.515 56.6278 73.6139 57.2947 75.6804C58.9531 80.8185 61.6671 85.5697 65.2783 89.6218C69.7639 94.6551 75.48 98.4371 81.8667 100.597C88.2534 102.757 95.0916 103.221 101.712 101.944C107.041 100.916 112.082 98.7875 116.519 95.7109C118.303 94.4735 118.487 91.9731 117.076 90.3226L110.956 83.1639C109.545 81.5133 107.076 81.3559 105.198 82.4455C103.11 83.6566 100.826 84.5147 98.4378 84.9755C94.7569 85.6856 90.9547 85.4276 87.4035 84.2265C83.8524 83.0254 80.6741 80.9226 78.18 78.1239C76.5618 76.3082 75.2676 74.2399 74.3435 72.01C73.5122 70.004 71.4544 68.6303 69.3312 69.0855L60.1223 71.0598Z" fill="#3F51FD" fill-opacity="0.9"/>
</g>
<path d="M34.9683 26.0776L59.4436 26.0776L69.6662 31.7787" stroke="#CDCDCD" stroke-width="1.50848" stroke-dasharray="0.39 0.39"/>
<path d="M153.413 26.0776L128.938 26.0776L118.715 31.7787" stroke="#CDCDCD" stroke-width="1.50848" stroke-dasharray="0.39 0.39"/>
<path d="M34.9683 96.7515L53.9391 96.7515L64.9481 92.2299" stroke="#CDCDCD" stroke-width="1.50848" stroke-dasharray="0.39 0.39"/>
<path d="M3.1149 22.0423L4.63075 16.9511L6.10682 16.9511L3.8662 23.3857L2.89394 23.3857L3.1149 22.0423ZM1.71838 16.9511L3.22981 22.0423L3.45962 23.3857L2.47851 23.3857L0.25115 16.9511L1.71838 16.9511ZM11.9448 16.9511L11.9448 23.3857L10.619 23.3857L8.03367 19.0724L8.03367 23.3857L6.70786 23.3857L6.70786 16.9511L8.03367 16.9511L10.6234 21.2689L10.6234 16.9511L11.9448 16.9511ZM13.7037 16.9511L14.8262 16.9511L16.4791 21.6754L18.1319 16.9511L19.2545 16.9511L16.9299 23.3857L16.0283 23.3857L13.7037 16.9511ZM13.0983 16.9511L14.2164 16.9511L14.4197 21.5561L14.4197 23.3857L13.0983 23.3857L13.0983 16.9511ZM18.7418 16.9511L19.8643 16.9511L19.8643 23.3857L18.5385 23.3857L18.5385 21.5561L18.7418 16.9511Z" fill="#333333"/>
<path d="M4.946 0.775893L4.946 9.37305L3.24896 9.37305L3.24896 2.7322L1.21015 3.38038L1.21015 2.04278L4.76333 0.775893L4.946 0.775893ZM13.5137 4.32907L13.5137 5.81398C13.5137 6.45822 13.4449 7.01408 13.3075 7.48156C13.17 7.9451 12.9716 8.32615 12.7123 8.6247C12.457 8.91932 12.1525 9.13735 11.799 9.27877C11.4454 9.42019 11.0526 9.4909 10.6205 9.4909C10.2748 9.4909 9.95266 9.44769 9.6541 9.36126C9.35555 9.27091 9.08646 9.13145 8.84683 8.94289C8.61113 8.75433 8.40686 8.51667 8.23401 8.2299C8.06509 7.93921 7.93546 7.59351 7.84511 7.19282C7.75475 6.79213 7.70958 6.33252 7.70958 5.81398L7.70958 4.32907C7.70958 3.68482 7.77832 3.13289 7.91582 2.67328C8.05724 2.20973 8.25562 1.83065 8.51096 1.53603C8.77023 1.2414 9.07664 1.02534 9.43019 0.88785C9.78374 0.746431 10.1766 0.675721 10.6087 0.675721C10.9544 0.675721 11.2745 0.720896 11.5692 0.811248C11.8677 0.897671 12.1368 1.0332 12.3764 1.21783C12.6161 1.40246 12.8203 1.64013 12.9893 1.93082C13.1582 2.21759 13.2878 2.56132 13.3782 2.96201C13.4685 3.35877 13.5137 3.81446 13.5137 4.32907ZM11.8108 6.03789L11.8108 4.09926C11.8108 3.78892 11.7931 3.51787 11.7577 3.2861C11.7263 3.05433 11.6772 2.85791 11.6104 2.69685C11.5436 2.53186 11.4611 2.39829 11.3629 2.29616C11.2647 2.19402 11.1528 2.11938 11.0271 2.07224C10.9013 2.0251 10.7619 2.00153 10.6087 2.00153C10.4162 2.00153 10.2453 2.03885 10.096 2.11349C9.95069 2.18813 9.82695 2.30794 9.72481 2.47293C9.62268 2.63399 9.54411 2.85005 9.48911 3.12111C9.43804 3.38823 9.41251 3.71429 9.41251 4.09926L9.41251 6.03789C9.41251 6.34823 9.42822 6.62125 9.45965 6.85695C9.49501 7.09265 9.54607 7.29496 9.61286 7.46388C9.68357 7.62887 9.76606 7.7644 9.86034 7.87046C9.95855 7.9726 10.0705 8.04723 10.1962 8.09437C10.3258 8.14151 10.4673 8.16508 10.6205 8.16508C10.809 8.16508 10.976 8.12777 11.1213 8.05313C11.2706 7.97456 11.3963 7.85278 11.4985 7.68779C11.6045 7.51887 11.6831 7.29889 11.7342 7.02783C11.7852 6.75678 11.8108 6.4268 11.8108 6.03789ZM14.645 2.89719L14.645 2.44347C14.645 2.11742 14.7158 1.82083 14.8572 1.5537C14.9986 1.28658 15.2068 1.07248 15.4818 0.91142C15.7568 0.750359 16.0946 0.669828 16.4953 0.669828C16.9078 0.669828 17.2515 0.750359 17.5265 0.91142C17.8054 1.07248 18.0136 1.28658 18.1511 1.5537C18.2925 1.82083 18.3632 2.11742 18.3632 2.44347L18.3632 2.89719C18.3632 3.21539 18.2925 3.50805 18.1511 3.77517C18.0136 4.0423 17.8074 4.25639 17.5324 4.41746C17.2574 4.57852 16.9176 4.65905 16.513 4.65905C16.1044 4.65905 15.7607 4.57852 15.4818 4.41746C15.2068 4.25639 14.9986 4.0423 14.8572 3.77517C14.7158 3.50805 14.645 3.21539 14.645 2.89719ZM15.7705 2.44347L15.7705 2.89719C15.7705 3.03468 15.796 3.16628 15.8471 3.29199C15.9021 3.41377 15.9846 3.51394 16.0946 3.59251C16.2085 3.66715 16.346 3.70446 16.5071 3.70446C16.676 3.70446 16.8135 3.66715 16.9196 3.59251C17.0256 3.51394 17.1042 3.41377 17.1553 3.29199C17.2063 3.16628 17.2319 3.03468 17.2319 2.89719L17.2319 2.44347C17.2319 2.29812 17.2044 2.16456 17.1494 2.04278C17.0983 1.91707 17.0178 1.8169 16.9078 1.74226C16.8017 1.6637 16.6642 1.62441 16.4953 1.62441C16.3382 1.62441 16.2046 1.6637 16.0946 1.74226C15.9846 1.8169 15.9021 1.91707 15.8471 2.04278C15.796 2.16456 15.7705 2.29812 15.7705 2.44347ZM18.7462 7.72315L18.7462 7.26943C18.7462 6.9473 18.8169 6.65268 18.9584 6.38555C19.1037 6.11842 19.3139 5.90433 19.5889 5.74327C19.8678 5.58221 20.2095 5.50168 20.6141 5.50168C21.0227 5.50168 21.3645 5.58221 21.6394 5.74327C21.9144 5.90433 22.1226 6.11842 22.264 6.38555C22.4055 6.65268 22.4762 6.9473 22.4762 7.26943L22.4762 7.72315C22.4762 8.04527 22.4055 8.3399 22.264 8.60702C22.1266 8.87415 21.9203 9.08824 21.6453 9.2493C21.3704 9.41037 21.0306 9.4909 20.6259 9.4909C20.2174 9.4909 19.8737 9.41037 19.5947 9.2493C19.3158 9.08824 19.1037 8.87415 18.9584 8.60702C18.8169 8.3399 18.7462 8.04527 18.7462 7.72315ZM19.8776 7.26943L19.8776 7.72315C19.8776 7.86457 19.909 7.99813 19.9719 8.12384C20.0347 8.24954 20.1211 8.34972 20.2311 8.42435C20.3451 8.49899 20.4767 8.53631 20.6259 8.53631C20.8145 8.53631 20.9618 8.49899 21.0679 8.42435C21.1739 8.34972 21.2466 8.24954 21.2859 8.12384C21.3291 7.99813 21.3507 7.86457 21.3507 7.72315L21.3507 7.26943C21.3507 7.12801 21.3232 6.99641 21.2682 6.87463C21.2132 6.74892 21.1307 6.64875 21.0207 6.57411C20.9147 6.49554 20.7791 6.45626 20.6141 6.45626C20.4492 6.45626 20.3117 6.49554 20.2017 6.57411C20.0956 6.64875 20.0151 6.74892 19.9601 6.87463C19.9051 6.99641 19.8776 7.12801 19.8776 7.26943ZM21.0325 2.01921L16.8429 8.72487L16.018 8.28883L20.2076 1.58317L21.0325 2.01921Z" fill="#BFC3C8"/>
<path d="M5.78728 107.933L4.38634 107.933L4.39518 106.898L5.78728 106.898C6.13494 106.898 6.42809 106.82 6.66674 106.664C6.90538 106.505 7.08511 106.274 7.2059 105.97C7.32964 105.667 7.39152 105.3 7.39152 104.87L7.39152 104.556C7.39152 104.226 7.35616 103.936 7.28545 103.686C7.21769 103.435 7.11604 103.225 6.98051 103.054C6.84499 102.883 6.67852 102.755 6.48113 102.669C6.28373 102.581 6.05687 102.537 5.80054 102.537L4.35983 102.537L4.35983 101.498L5.80054 101.498C6.23069 101.498 6.62402 101.572 6.98051 101.719C7.33996 101.863 7.65079 102.071 7.913 102.342C8.17522 102.613 8.37704 102.937 8.51846 103.314C8.66282 103.689 8.73501 104.105 8.73501 104.565L8.73501 104.87C8.73501 105.327 8.66282 105.744 8.51846 106.121C8.37704 106.498 8.17522 106.822 7.913 107.093C7.65373 107.361 7.3429 107.569 6.98051 107.716C6.62107 107.86 6.22333 107.933 5.78728 107.933ZM5.13764 101.498L5.13764 107.933L3.81182 107.933L3.81182 101.498L5.13764 101.498ZM14.7984 104.569L14.7984 107.119C14.6982 107.24 14.5435 107.371 14.3344 107.513C14.1252 107.651 13.8556 107.771 13.5256 107.871C13.1956 107.971 12.7964 108.021 12.328 108.021C11.9125 108.021 11.5339 107.953 11.1922 107.818C10.8504 107.679 10.5558 107.477 10.3083 107.212C10.0638 106.947 9.8752 106.623 9.74262 106.24C9.61004 105.854 9.54375 105.414 9.54375 104.919L9.54375 104.516C9.54375 104.021 9.6071 103.581 9.73378 103.195C9.86342 102.809 10.0476 102.484 10.2862 102.218C10.5249 101.953 10.8092 101.751 11.1391 101.613C11.4691 101.474 11.8359 101.405 12.2396 101.405C12.7994 101.405 13.259 101.497 13.6184 101.679C13.9779 101.859 14.2519 102.109 14.4404 102.43C14.6319 102.749 14.7498 103.114 14.794 103.527L13.5079 103.527C13.4755 103.308 13.4136 103.118 13.3223 102.956C13.231 102.794 13.0999 102.668 12.929 102.576C12.7611 102.485 12.543 102.439 12.2749 102.439C12.054 102.439 11.8566 102.485 11.6827 102.576C11.5118 102.665 11.3675 102.796 11.2496 102.97C11.1318 103.143 11.0419 103.359 10.98 103.615C10.9182 103.871 10.8872 104.169 10.8872 104.508L10.8872 104.919C10.8872 105.254 10.9196 105.552 10.9845 105.811C11.0493 106.068 11.145 106.284 11.2717 106.461C11.4014 106.635 11.5605 106.766 11.749 106.854C11.9376 106.943 12.1571 106.987 12.4075 106.987C12.6167 106.987 12.7905 106.969 12.929 106.934C13.0704 106.898 13.1838 106.856 13.2693 106.806C13.3577 106.753 13.4254 106.703 13.4726 106.655L13.4726 105.515L12.2617 105.515L12.2617 104.569L14.7984 104.569ZM17.4191 106.912L18.7007 101.498L19.4166 101.498L19.5801 102.4L18.2146 107.933L17.4456 107.933L17.4191 106.912ZM16.7606 101.498L17.8212 106.912L17.7329 107.933L16.8755 107.933L15.448 101.498L16.7606 101.498ZM20.7071 106.89L21.7545 101.498L23.067 101.498L21.644 107.933L20.7866 107.933L20.7071 106.89ZM19.8188 101.498L21.1093 106.934L21.0739 107.933L20.3049 107.933L18.9305 102.395L19.1073 101.498L19.8188 101.498Z" fill="#333333"/>
<path d="M9.69548 91.0138L9.69548 92.3396L3.82655 92.3396L3.82655 91.2082L6.60192 88.2325C6.88083 87.9222 7.10082 87.6492 7.26188 87.4135C7.42294 87.1738 7.53883 86.9597 7.60954 86.7712C7.68418 86.5787 7.7215 86.396 7.7215 86.2232C7.7215 85.9639 7.67828 85.742 7.59186 85.5573C7.50544 85.3688 7.37777 85.2234 7.20885 85.1213C7.04386 85.0192 6.83958 84.9681 6.59603 84.9681C6.33676 84.9681 6.11284 85.0309 5.92428 85.1566C5.73965 85.2824 5.59823 85.4572 5.50002 85.6811C5.40574 85.905 5.3586 86.1584 5.3586 86.4412L3.65567 86.4412C3.65567 85.9305 3.77745 85.4631 4.02101 85.0388C4.26456 84.6106 4.60829 84.2708 5.05219 84.0194C5.4961 83.7641 6.02249 83.6364 6.63138 83.6364C7.23242 83.6364 7.73917 83.7346 8.15165 83.931C8.56805 84.1235 8.88232 84.4024 9.09445 84.7677C9.31051 85.1291 9.41853 85.5613 9.41853 86.0641C9.41853 86.3469 9.37336 86.6239 9.28301 86.8949C9.19266 87.1621 9.06302 87.4292 8.8941 87.6963C8.72911 87.9595 8.52877 88.2266 8.29307 88.4977C8.05737 88.7687 7.79613 89.0496 7.50937 89.3403L6.01856 91.0138L9.69548 91.0138ZM16.5308 87.2956L16.5308 88.7805C16.5308 89.4248 16.462 89.9806 16.3245 90.4481C16.187 90.9117 15.9887 91.2927 15.7294 91.5913C15.4741 91.8859 15.1696 92.1039 14.8161 92.2453C14.4625 92.3867 14.0697 92.4574 13.6376 92.4574C13.2919 92.4574 12.9697 92.4142 12.6712 92.3278C12.3726 92.2375 12.1035 92.098 11.8639 91.9094C11.6282 91.7209 11.4239 91.4832 11.2511 91.1965C11.0822 90.9058 10.9525 90.5601 10.8622 90.1594C10.7718 89.7587 10.7267 89.2991 10.7267 88.7805L10.7267 87.2956C10.7267 86.6514 10.7954 86.0994 10.9329 85.6398C11.0743 85.1763 11.2727 84.7972 11.528 84.5026C11.7873 84.208 12.0937 83.9919 12.4473 83.8544C12.8008 83.713 13.1937 83.6423 13.6258 83.6423C13.9715 83.6423 14.2916 83.6874 14.5863 83.7778C14.8848 83.8642 15.1539 83.9998 15.3935 84.1844C15.6332 84.369 15.8374 84.6067 16.0063 84.8974C16.1753 85.1841 16.3049 85.5279 16.3953 85.9286C16.4856 86.3253 16.5308 86.781 16.5308 87.2956ZM14.8278 89.0044L14.8278 87.0658C14.8278 86.7555 14.8102 86.4844 14.7748 86.2526C14.7434 86.0209 14.6943 85.8245 14.6275 85.6634C14.5607 85.4984 14.4782 85.3648 14.38 85.2627C14.2818 85.1606 14.1699 85.0859 14.0441 85.0388C13.9184 84.9917 13.779 84.9681 13.6258 84.9681C13.4333 84.9681 13.2624 85.0054 13.1131 85.08C12.9678 85.1547 12.844 85.2745 12.7419 85.4395C12.6398 85.6005 12.5612 85.8166 12.5062 86.0877C12.4551 86.3548 12.4296 86.6808 12.4296 87.0658L12.4296 89.0044C12.4296 89.3148 12.4453 89.5878 12.4767 89.8235C12.5121 90.0592 12.5632 90.2615 12.6299 90.4304C12.7007 90.5954 12.7832 90.7309 12.8774 90.837C12.9756 90.9391 13.0876 91.0138 13.2133 91.0609C13.3429 91.1081 13.4844 91.1316 13.6376 91.1316C13.8261 91.1316 13.9931 91.0943 14.1384 91.0197C14.2877 90.9411 14.4134 90.8193 14.5155 90.6543C14.6216 90.4854 14.7002 90.2654 14.7512 89.9944C14.8023 89.7233 14.8278 89.3934 14.8278 89.0044ZM17.6621 85.8637L17.6621 85.41C17.6621 85.084 17.7328 84.7874 17.8743 84.5203C18.0157 84.2531 18.2239 84.039 18.4989 83.878C18.7739 83.7169 19.1117 83.6364 19.5124 83.6364C19.9249 83.6364 20.2686 83.7169 20.5436 83.878C20.8225 84.039 21.0307 84.2531 21.1682 84.5203C21.3096 84.7874 21.3803 85.084 21.3803 85.41L21.3803 85.8637C21.3803 86.1819 21.3096 86.4746 21.1682 86.7417C21.0307 87.0089 20.8244 87.2229 20.5495 87.384C20.2745 87.5451 19.9347 87.6256 19.5301 87.6256C19.1215 87.6256 18.7778 87.5451 18.4989 87.384C18.2239 87.2229 18.0157 87.0089 17.8743 86.7417C17.7328 86.4746 17.6621 86.1819 17.6621 85.8637ZM18.7876 85.41L18.7876 85.8637C18.7876 86.0012 18.8131 86.1328 18.8642 86.2585C18.9192 86.3803 19.0017 86.4805 19.1117 86.5591C19.2256 86.6337 19.3631 86.671 19.5242 86.671C19.6931 86.671 19.8306 86.6337 19.9366 86.5591C20.0427 86.4805 20.1213 86.3803 20.1723 86.2585C20.2234 86.1328 20.2489 86.0012 20.2489 85.8637L20.2489 85.41C20.2489 85.2647 20.2214 85.1311 20.1664 85.0093C20.1154 84.8836 20.0349 84.7835 19.9249 84.7088C19.8188 84.6302 19.6813 84.591 19.5124 84.591C19.3552 84.591 19.2217 84.6302 19.1117 84.7088C19.0017 84.7835 18.9192 84.8836 18.8642 85.0093C18.8131 85.1311 18.7876 85.2647 18.7876 85.41ZM21.7633 90.6897L21.7633 90.236C21.7633 89.9139 21.834 89.6192 21.9754 89.3521C22.1208 89.085 22.331 88.8709 22.6059 88.7098C22.8849 88.5488 23.2266 88.4682 23.6312 88.4682C24.0398 88.4682 24.3815 88.5488 24.6565 88.7098C24.9315 88.8709 25.1397 89.085 25.2811 89.3521C25.4226 89.6192 25.4933 89.9139 25.4933 90.236L25.4933 90.6897C25.4933 91.0118 25.4226 91.3064 25.2811 91.5736C25.1436 91.8407 24.9374 92.0548 24.6624 92.2159C24.3874 92.3769 24.0476 92.4574 23.643 92.4574C23.2345 92.4574 22.8907 92.3769 22.6118 92.2159C22.3329 92.0548 22.1208 91.8407 21.9754 91.5736C21.834 91.3064 21.7633 91.0118 21.7633 90.6897ZM22.8947 90.236L22.8947 90.6897C22.8947 90.8311 22.9261 90.9647 22.989 91.0904C23.0518 91.2161 23.1382 91.3163 23.2482 91.3909C23.3621 91.4655 23.4937 91.5029 23.643 91.5029C23.8316 91.5029 23.9789 91.4655 24.085 91.3909C24.191 91.3163 24.2637 91.2161 24.303 91.0904C24.3462 90.9647 24.3678 90.8311 24.3678 90.6897L24.3678 90.236C24.3678 90.0946 24.3403 89.963 24.2853 89.8412C24.2303 89.7155 24.1478 89.6153 24.0378 89.5407C23.9318 89.4621 23.7962 89.4228 23.6312 89.4228C23.4662 89.4228 23.3288 89.4621 23.2188 89.5407C23.1127 89.6153 23.0322 89.7155 22.9772 89.8412C22.9222 89.963 22.8947 90.0946 22.8947 90.236ZM24.0496 84.9858L19.86 91.6914L19.0351 91.2554L23.2247 84.5497L24.0496 84.9858Z" fill="#0A1048" fill-opacity="0.9"/>
<path d="M163.702 21.2525L163.702 22.5842L157.521 22.5842L157.438 21.553L161.015 15.8785L162.365 15.8785L160.903 18.3239L159.124 21.2525L163.702 21.2525ZM162.73 15.8785L162.73 24.458L161.033 24.458L161.033 15.8785L162.73 15.8785ZM170.396 19.414L170.396 20.8989C170.396 21.5432 170.327 22.099 170.19 22.5665C170.052 23.0301 169.854 23.4111 169.595 23.7097C169.339 24.0043 169.035 24.2223 168.681 24.3637C168.328 24.5051 167.935 24.5759 167.503 24.5759C167.157 24.5759 166.835 24.5326 166.536 24.4462C166.238 24.3559 165.969 24.2164 165.729 24.0279C165.493 23.8393 165.289 23.6016 165.116 23.3149C164.947 23.0242 164.818 22.6785 164.727 22.2778C164.637 21.8771 164.592 21.4175 164.592 20.8989L164.592 19.414C164.592 18.7698 164.661 18.2179 164.798 17.7582C164.94 17.2947 165.138 16.9156 165.393 16.621C165.653 16.3264 165.959 16.1103 166.313 15.9728C166.666 15.8314 167.059 15.7607 167.491 15.7607C167.837 15.7607 168.157 15.8059 168.451 15.8962C168.75 15.9826 169.019 16.1182 169.259 16.3028C169.498 16.4874 169.703 16.7251 169.872 17.0158C170.04 17.3026 170.17 17.6463 170.26 18.047C170.351 18.4437 170.396 18.8994 170.396 19.414ZM168.693 21.1229L168.693 19.1842C168.693 18.8739 168.675 18.6028 168.64 18.3711C168.609 18.1393 168.56 17.9429 168.493 17.7818C168.426 17.6168 168.343 17.4833 168.245 17.3811C168.147 17.279 168.035 17.2043 167.909 17.1572C167.784 17.1101 167.644 17.0865 167.491 17.0865C167.299 17.0865 167.128 17.1238 166.978 17.1985C166.833 17.2731 166.709 17.3929 166.607 17.5579C166.505 17.719 166.426 17.935 166.371 18.2061C166.32 18.4732 166.295 18.7992 166.295 19.1842L166.295 21.1229C166.295 21.4332 166.311 21.7062 166.342 21.9419C166.377 22.1776 166.428 22.3799 166.495 22.5488C166.566 22.7138 166.648 22.8494 166.743 22.9554C166.841 23.0576 166.953 23.1322 167.079 23.1793C167.208 23.2265 167.35 23.25 167.503 23.25C167.691 23.25 167.858 23.2127 168.004 23.1381C168.153 23.0595 168.279 22.9377 168.381 22.7728C168.487 22.6038 168.565 22.3838 168.616 22.1128C168.668 21.8417 168.693 21.5118 168.693 21.1229ZM171.527 17.9822L171.527 17.5284C171.527 17.2024 171.598 16.9058 171.74 16.6387C171.881 16.3715 172.089 16.1574 172.364 15.9964C172.639 15.8353 172.977 15.7548 173.378 15.7548C173.79 15.7548 174.134 15.8353 174.409 15.9964C174.688 16.1574 174.896 16.3715 175.033 16.6387C175.175 16.9058 175.246 17.2024 175.246 17.5284L175.246 17.9822C175.246 18.3003 175.175 18.593 175.033 18.8601C174.896 19.1273 174.69 19.3414 174.415 19.5024C174.14 19.6635 173.8 19.744 173.395 19.744C172.987 19.744 172.643 19.6635 172.364 19.5024C172.089 19.3414 171.881 19.1273 171.74 18.8601C171.598 18.593 171.527 18.3003 171.527 17.9822ZM172.653 17.5284L172.653 17.9822C172.653 18.1196 172.678 18.2512 172.729 18.377C172.784 18.4987 172.867 18.5989 172.977 18.6775C173.091 18.7521 173.228 18.7894 173.389 18.7894C173.558 18.7894 173.696 18.7521 173.802 18.6775C173.908 18.5989 173.987 18.4987 174.038 18.377C174.089 18.2512 174.114 18.1196 174.114 17.9822L174.114 17.5284C174.114 17.3831 174.087 17.2495 174.032 17.1277C173.981 17.002 173.9 16.9019 173.79 16.8272C173.684 16.7487 173.547 16.7094 173.378 16.7094C173.22 16.7094 173.087 16.7487 172.977 16.8272C172.867 16.9019 172.784 17.002 172.729 17.1277C172.678 17.2495 172.653 17.3831 172.653 17.5284ZM175.629 22.8081L175.629 22.3544C175.629 22.0323 175.699 21.7376 175.841 21.4705C175.986 21.2034 176.196 20.9893 176.471 20.8282C176.75 20.6672 177.092 20.5866 177.496 20.5866C177.905 20.5866 178.247 20.6672 178.522 20.8282C178.797 20.9893 179.005 21.2034 179.146 21.4705C179.288 21.7376 179.359 22.0323 179.359 22.3544L179.359 22.8081C179.359 23.1302 179.288 23.4249 179.146 23.692C179.009 23.9591 178.803 24.1732 178.528 24.3343C178.253 24.4953 177.913 24.5759 177.508 24.5759C177.1 24.5759 176.756 24.4953 176.477 24.3343C176.198 24.1732 175.986 23.9591 175.841 23.692C175.699 23.4249 175.629 23.1302 175.629 22.8081ZM176.76 22.3544L176.76 22.8081C176.76 22.9495 176.791 23.0831 176.854 23.2088C176.917 23.3345 177.003 23.4347 177.113 23.5093C177.227 23.584 177.359 23.6213 177.508 23.6213C177.697 23.6213 177.844 23.584 177.95 23.5093C178.056 23.4347 178.129 23.3345 178.168 23.2088C178.211 23.0831 178.233 22.9495 178.233 22.8081L178.233 22.3544C178.233 22.213 178.206 22.0814 178.151 21.9596C178.096 21.8339 178.013 21.7337 177.903 21.6591C177.797 21.5805 177.661 21.5412 177.496 21.5412C177.331 21.5412 177.194 21.5805 177.084 21.6591C176.978 21.7337 176.897 21.8339 176.842 21.9596C176.787 22.0814 176.76 22.213 176.76 22.3544ZM177.915 17.1042L173.725 23.8098L172.9 23.3738L177.09 16.6681L177.915 17.1042Z" fill="#00BF71"/>
<defs>
<clipPath id="clip0_842_363">
<rect width="78.0635" height="78.0635" fill="white" transform="translate(55.2168 24.603)"/>
</clipPath>
</defs>
</svg>
