<svg width="15" height="15" viewBox="0 0 15 15" fill="none" xmlns="http://www.w3.org/2000/svg">
<path d="M8.30733 4.7794V1.701C8.30733 1.48294 8.38121 1.30004 8.52898 1.15227C8.67623 1.00502 8.85888 0.931396 9.07693 0.931396H13.6945C13.9126 0.931396 14.0952 1.00502 14.2425 1.15227C14.3903 1.30004 14.4641 1.48294 14.4641 1.701V4.7794C14.4641 4.99745 14.3903 5.1801 14.2425 5.32735C14.0952 5.47512 13.9126 5.549 13.6945 5.549H9.07693C8.85888 5.549 8.67623 5.47512 8.52898 5.32735C8.38121 5.1801 8.30733 4.99745 8.30733 4.7794ZM0.611328 7.8578V1.701C0.611328 1.48294 0.68521 1.30004 0.832973 1.15227C0.980223 1.00502 1.16288 0.931396 1.38093 0.931396H5.99853C6.21658 0.931396 6.39949 1.00502 6.54726 1.15227C6.69451 1.30004 6.76813 1.48294 6.76813 1.701V7.8578C6.76813 8.07585 6.69451 8.25851 6.54726 8.40576C6.39949 8.55352 6.21658 8.6274 5.99853 8.6274H1.38093C1.16288 8.6274 0.980223 8.55352 0.832973 8.40576C0.68521 8.25851 0.611328 8.07585 0.611328 7.8578ZM8.30733 14.0146V7.8578C8.30733 7.63975 8.38121 7.45684 8.52898 7.30907C8.67623 7.16182 8.85888 7.0882 9.07693 7.0882H13.6945C13.9126 7.0882 14.0952 7.16182 14.2425 7.30907C14.3903 7.45684 14.4641 7.63975 14.4641 7.8578V14.0146C14.4641 14.2327 14.3903 14.4153 14.2425 14.5626C14.0952 14.7103 13.9126 14.7842 13.6945 14.7842H9.07693C8.85888 14.7842 8.67623 14.7103 8.52898 14.5626C8.38121 14.4153 8.30733 14.2327 8.30733 14.0146ZM0.611328 14.0146V10.9362C0.611328 10.7181 0.68521 10.5352 0.832973 10.3875C0.980223 10.2402 1.16288 10.1666 1.38093 10.1666H5.99853C6.21658 10.1666 6.39949 10.2402 6.54726 10.3875C6.69451 10.5352 6.76813 10.7181 6.76813 10.9362V14.0146C6.76813 14.2327 6.69451 14.4153 6.54726 14.5626C6.39949 14.7103 6.21658 14.7842 5.99853 14.7842H1.38093C1.16288 14.7842 0.980223 14.7103 0.832973 14.5626C0.68521 14.4153 0.611328 14.2327 0.611328 14.0146Z" fill="#00BF71"/>
</svg>
