<svg width="15" height="15" viewBox="0 0 15 15" fill="none" xmlns="http://www.w3.org/2000/svg">
<path d="M2.34293 14.7993C1.86674 14.7993 1.45924 14.6299 1.12042 14.2911C0.781025 13.9517 0.611328 13.5439 0.611328 13.0677V7.00714C0.611328 6.53095 0.781025 6.12315 1.12042 5.78376C1.45924 5.44494 1.86674 5.27554 2.34293 5.27554C2.81912 5.27554 3.22662 5.44494 3.56544 5.78376C3.90483 6.12315 4.07453 6.53095 4.07453 7.00714V13.0677C4.07453 13.5439 3.90483 13.9517 3.56544 14.2911C3.22662 14.6299 2.81912 14.7993 2.34293 14.7993ZM7.53773 14.7993C7.06154 14.7993 6.65404 14.6299 6.31522 14.2911C5.97583 13.9517 5.80613 13.5439 5.80613 13.0677V2.67813C5.80613 2.20194 5.97583 1.79444 6.31522 1.45562C6.65404 1.11623 7.06154 0.946533 7.53773 0.946533C8.01392 0.946533 8.42171 1.11623 8.76111 1.45562C9.09992 1.79444 9.26933 2.20194 9.26933 2.67813V13.0677C9.26933 13.5439 9.09992 13.9517 8.76111 14.2911C8.42171 14.6299 8.01392 14.7993 7.53773 14.7993ZM12.7325 14.7993C12.2563 14.7993 11.8486 14.6299 11.5092 14.2911C11.1703 13.9517 11.0009 13.5439 11.0009 13.0677V10.4703C11.0009 9.99415 11.1703 9.58636 11.5092 9.24696C11.8486 8.90815 12.2563 8.73874 12.7325 8.73874C13.2087 8.73874 13.6165 8.90815 13.9559 9.24696C14.2947 9.58636 14.4641 9.99415 14.4641 10.4703V13.0677C14.4641 13.5439 14.2947 13.9517 13.9559 14.2911C13.6165 14.6299 13.2087 14.7993 12.7325 14.7993Z" fill="#BFC3C8"/>
</svg>
