<svg width="15" height="14" viewBox="0 0 15 14" fill="none" xmlns="http://www.w3.org/2000/svg">
<path d="M7.53773 0.00341797C3.63124 0.00341797 0.611328 2.86413 0.611328 6.72228C0.611328 8.73794 1.43557 10.4904 2.78622 11.6887C2.89704 11.7787 2.96631 11.9311 2.97323 12.0835L3.00786 13.3165C3.03557 13.7113 3.43037 13.9676 3.79055 13.8083L5.16197 13.2056C5.27972 13.1641 5.41133 13.1433 5.52908 13.1641C6.15245 13.3511 6.84509 13.4411 7.53773 13.4411C11.4442 13.4411 14.4641 10.5804 14.4641 6.72228C14.4641 2.86413 11.4442 0.00341797 7.53773 0.00341797ZM11.6936 5.17071L9.66414 8.40546C9.3386 8.91111 8.64596 9.04271 8.16111 8.66175L6.54033 7.46343C6.46839 7.40948 6.3809 7.38031 6.29098 7.38031C6.20106 7.38031 6.11356 7.40948 6.04163 7.46343L3.85289 9.12583C3.56198 9.35441 3.18102 9.00808 3.38189 8.68945L5.41133 5.4547C5.73687 4.94905 6.42951 4.81745 6.91436 5.17763L8.53513 6.39673C8.60707 6.45068 8.69456 6.47985 8.78448 6.47985C8.8744 6.47985 8.9619 6.45068 9.03383 6.39673L11.2226 4.73433C11.5135 4.50575 11.8944 4.85208 11.6936 5.17071Z" fill="#BFC3C8"/>
</svg>
