<svg width="15" height="14" viewBox="0 0 15 14" fill="none" xmlns="http://www.w3.org/2000/svg">
<path d="M8.28439 0.0175794C8.48802 0.0175794 8.67018 0.144328 8.73874 0.334105L9.22773 1.68956C9.40296 1.73319 9.55326 1.77683 9.6807 1.82254C9.81992 1.87241 9.99931 1.9479 10.2209 2.0511L11.3596 1.44852C11.4525 1.39928 11.559 1.38151 11.6629 1.39787C11.7668 1.41423 11.8625 1.46384 11.9359 1.53926L12.9374 2.57472C13.0704 2.71255 13.1078 2.9141 13.033 3.09003L12.499 4.34158C12.5876 4.50435 12.6583 4.64356 12.7123 4.75992C12.7705 4.88667 12.8425 5.06121 12.9284 5.28631L14.173 5.81963C14.36 5.89928 14.4757 6.08628 14.4632 6.28645L14.3718 7.72363C14.3655 7.817 14.332 7.90648 14.2754 7.98097C14.2187 8.05546 14.1415 8.11168 14.0532 8.14266L12.8744 8.5617C12.8404 8.72446 12.8051 8.86368 12.7677 8.98142C12.7074 9.16326 12.6385 9.34216 12.5613 9.51751L13.1535 10.8266C13.1953 10.9185 13.2065 11.0215 13.1856 11.1203C13.1647 11.2191 13.1126 11.3087 13.0371 11.3758L11.9109 12.3815C11.8368 12.4474 11.7442 12.4891 11.6457 12.501C11.5471 12.5129 11.4473 12.4944 11.3596 12.448L10.1988 11.8329C10.0172 11.9291 9.8298 12.014 9.63776 12.0871L9.13076 12.2769L8.68056 13.5236C8.6472 13.6149 8.58702 13.694 8.50792 13.7505C8.42881 13.807 8.33447 13.8382 8.23729 13.8401L6.92132 13.8699C6.82156 13.8725 6.72343 13.8442 6.64045 13.7887C6.55748 13.7333 6.49372 13.6535 6.45796 13.5603L5.92741 12.1564C5.7464 12.0945 5.56717 12.0275 5.38994 11.9555C5.24499 11.8928 5.10223 11.8251 4.96191 11.7526L3.64594 12.315C3.55923 12.352 3.46363 12.363 3.37079 12.3466C3.27795 12.3303 3.19186 12.2873 3.12301 12.2229L2.14919 11.3093C2.07669 11.2416 2.02731 11.1528 2.00805 11.0555C1.98878 10.9581 2.0006 10.8572 2.04184 10.767L2.6077 9.53413C2.53245 9.38811 2.46267 9.23932 2.39853 9.08808C2.32366 8.90297 2.25437 8.71565 2.19075 8.52637L0.950965 8.1489C0.85019 8.11844 0.762292 8.05555 0.700923 7.97001C0.639554 7.88447 0.608148 7.78106 0.611583 7.67584L0.660066 6.34532C0.663517 6.25851 0.690636 6.1743 0.738489 6.10178C0.786343 6.02927 0.853111 5.97122 0.931571 5.93391L2.23231 5.30917C2.29256 5.08822 2.3452 4.91646 2.39161 4.79109C2.45695 4.62365 2.52951 4.45911 2.60909 4.29795L2.0453 3.10665C2.00251 3.01618 1.98952 2.91447 2.00819 2.81616C2.02686 2.71784 2.07622 2.62797 2.14919 2.55948L3.12162 1.64107C3.18979 1.57678 3.27509 1.53355 3.36725 1.5166C3.4594 1.49964 3.5545 1.50967 3.64109 1.54549L4.95567 2.0885C5.10112 1.99154 5.23272 1.91327 5.35185 1.85024C5.49384 1.77475 5.68361 1.69579 5.92257 1.6106L6.37969 0.33549C6.41349 0.242173 6.47526 0.161561 6.55658 0.104663C6.6379 0.0477642 6.7348 0.0173522 6.83405 0.0175794H8.28439ZM7.55437 4.87905C6.39978 4.87905 5.46405 5.8037 5.46405 6.94513C5.46405 8.08656 6.39978 9.0119 7.55437 9.0119C8.70827 9.0119 9.64399 8.08656 9.64399 6.94513C9.64399 5.8037 8.70896 4.87905 7.55437 4.87905Z" fill="#BFC3C8"/>
</svg>
