<svg width="15" height="15" viewBox="0 0 15 15" fill="none" xmlns="http://www.w3.org/2000/svg">
<path d="M0.845651 14.4417C0.689436 14.1942 0.611328 13.9085 0.611328 13.5848C0.611328 13.2611 0.689436 12.9755 0.845651 12.7279L5.20766 5.81583C5.35186 5.58733 5.52009 5.47308 5.71236 5.47308C5.90462 5.47308 6.07285 5.58733 6.21705 5.81583L8.59633 9.58608L13.2107 1.33152C13.3429 1.08398 13.5142 0.960205 13.7248 0.960205C13.9348 0.960205 14.1119 1.07446 14.2561 1.30296C14.3883 1.51241 14.4575 1.76453 14.4638 2.05929C14.4695 2.35482 14.4063 2.61683 14.2742 2.84533L9.10102 12.0996C8.96884 12.3471 8.79773 12.4758 8.58768 12.4857C8.37715 12.4949 8.19978 12.3852 8.05558 12.1567L5.71236 8.44358L1.92714 14.4417C1.77093 14.6892 1.59068 14.813 1.3864 14.813C1.18211 14.813 1.00187 14.6892 0.845651 14.4417Z" fill="#BFC3C8"/>
</svg>
