<svg width="15" height="15" viewBox="0 0 15 15" fill="none" xmlns="http://www.w3.org/2000/svg">
<path d="M8.30733 7.60782L10.2313 9.53182C10.3724 9.67292 10.443 9.85249 10.443 10.0705C10.443 10.2886 10.3724 10.4682 10.2313 10.6093C10.0902 10.7504 9.91067 10.8209 9.69261 10.8209C9.47456 10.8209 9.29499 10.7504 9.15389 10.6093L6.99901 8.45438C6.92205 8.37742 6.86433 8.29071 6.82585 8.19426C6.78737 8.09831 6.76813 7.99903 6.76813 7.89642V4.83726C6.76813 4.61921 6.84201 4.4363 6.98978 4.28853C7.13703 4.14128 7.31968 4.06766 7.53773 4.06766C7.75578 4.06766 7.93869 4.14128 8.08646 4.28853C8.23371 4.4363 8.30733 4.61921 8.30733 4.83726V7.60782ZM7.53773 14.8421C5.9857 14.8421 4.59401 14.3834 3.36265 13.466C2.13129 12.5492 1.30397 11.3532 0.880688 9.87814C0.816555 9.64726 0.83913 9.42921 0.948413 9.22398C1.05718 9.01875 1.22701 8.89049 1.45789 8.83918C1.67594 8.78788 1.87168 8.83585 2.04509 8.9831C2.218 9.13086 2.33652 9.31377 2.40065 9.53182C2.73414 10.6606 3.37881 11.5713 4.33465 12.2639C5.28999 12.9565 6.35768 13.3029 7.53773 13.3029C9.03845 13.3029 10.3114 12.78 11.3565 11.7344C12.4021 10.6893 12.9249 9.41638 12.9249 7.91566C12.9249 6.41494 12.4021 5.14177 11.3565 4.09613C10.3114 3.05102 9.03845 2.52846 7.53773 2.52846C6.65269 2.52846 5.82537 2.73369 5.05577 3.14414C4.28617 3.55459 3.63842 4.11897 3.11253 4.83726H4.45933C4.67738 4.83726 4.86029 4.91088 5.00806 5.05814C5.15531 5.2059 5.22893 5.38881 5.22893 5.60686C5.22893 5.82491 5.15531 6.00757 5.00806 6.15482C4.86029 6.30258 4.67738 6.37646 4.45933 6.37646H1.38093C1.16288 6.37646 0.980223 6.30258 0.832973 6.15482C0.68521 6.00757 0.611328 5.82491 0.611328 5.60686V2.52846C0.611328 2.31041 0.68521 2.1275 0.832973 1.97973C0.980223 1.83248 1.16288 1.75886 1.38093 1.75886C1.59898 1.75886 1.78189 1.83248 1.92965 1.97973C2.0769 2.1275 2.15053 2.31041 2.15053 2.52846V3.56742C2.80469 2.74651 3.60328 2.11159 4.54629 1.66266C5.4888 1.21372 6.48594 0.989258 7.53773 0.989258C8.49973 0.989258 9.40093 1.17191 10.2413 1.53721C11.0812 1.90303 11.8123 2.39686 12.4347 3.01869C13.0565 3.64104 13.5504 4.37216 13.9162 5.21206C14.2815 6.05246 14.4641 6.95366 14.4641 7.91566C14.4641 8.87766 14.2815 9.77861 13.9162 10.6185C13.5504 11.4589 13.0565 12.19 12.4347 12.8119C11.8123 13.4342 11.0812 13.9283 10.2413 14.2941C9.40093 14.6594 8.49973 14.8421 7.53773 14.8421Z" fill="#BFC3C8"/>
</svg>
