<svg width="14" height="14" viewBox="0 0 14 14" fill="none" xmlns="http://www.w3.org/2000/svg">
<path d="M1.69908 13.5599C1.25456 13.5612 0.873709 13.4042 0.556513 13.0888C0.238777 12.7729 0.0792647 12.3927 0.0779757 11.9482L0.0615709 6.29076C0.0602819 5.84624 0.217587 5.46512 0.533485 5.14738C0.848847 4.83019 1.22878 4.67095 1.6733 4.66966C2.11781 4.66837 2.49867 4.82541 2.81586 5.14077C3.1336 5.45667 3.29311 5.83688 3.2944 6.2814L3.31081 11.9389C3.3121 12.3834 3.15479 12.7645 2.83889 13.0822C2.52353 13.3994 2.14359 13.5587 1.69908 13.5599ZM6.54833 13.5459C6.10381 13.5472 5.72296 13.3902 5.40576 13.0748C5.08802 12.7589 4.92851 12.3787 4.92722 11.9342L4.8991 2.23568C4.89781 1.79116 5.05512 1.41031 5.37102 1.09311C5.68638 0.775379 6.06631 0.61587 6.51083 0.614583C6.95534 0.613296 7.33647 0.770602 7.6542 1.0865C7.9714 1.40187 8.13064 1.7818 8.13193 2.22632L8.16005 11.9248C8.16134 12.3693 8.00431 12.7504 7.68895 13.0682C7.37305 13.3854 6.99284 13.5446 6.54833 13.5459ZM11.3976 13.5319C10.9531 13.5332 10.5719 13.3761 10.2542 13.0608C9.937 12.7449 9.77776 12.3646 9.77647 11.9201L9.76944 9.49551C9.76815 9.05099 9.92518 8.66987 10.2405 8.35214C10.5564 8.03494 10.9367 7.8757 11.3812 7.87441C11.8257 7.87313 12.2068 8.03016 12.5245 8.34553C12.8417 8.66143 13.001 9.04164 13.0023 9.48615L13.0093 11.9108C13.0106 12.3553 12.8536 12.7364 12.5382 13.0541C12.2223 13.3713 11.8421 13.5306 11.3976 13.5319Z" fill="#00BF71"/>
</svg>
