<svg width="14" height="14" viewBox="0 0 14 14" fill="none" xmlns="http://www.w3.org/2000/svg">
<path d="M8.11587 3.67524L8.10754 0.801613C8.10695 0.598064 8.17542 0.427123 8.31295 0.28879C8.45001 0.150937 8.62031 0.0817156 8.82386 0.0811263L13.1343 0.0686476C13.3379 0.0680583 13.5086 0.136292 13.6464 0.27335C13.7847 0.410884 13.8542 0.581426 13.8548 0.784975L13.8631 3.6586C13.8637 3.86215 13.7952 4.03285 13.6577 4.17071C13.5207 4.30904 13.3504 4.3785 13.1468 4.37909L8.83636 4.39157C8.63281 4.39216 8.46211 4.32368 8.32426 4.18615C8.18592 4.04909 8.11646 3.87879 8.11587 3.67524ZM0.940135 6.56967L0.92347 0.822411C0.92288 0.618862 0.991352 0.447921 1.12889 0.309588C1.26594 0.171735 1.43625 0.102513 1.63979 0.101924L5.95023 0.0894454C6.15378 0.0888561 6.32472 0.157089 6.46306 0.294145C6.60091 0.431681 6.67013 0.602224 6.67073 0.805773L6.68739 6.55303C6.68798 6.75658 6.61975 6.92728 6.48269 7.06513C6.34516 7.20346 6.17461 7.27293 5.97107 7.27351L1.66063 7.28599C1.45708 7.28658 1.28637 7.21811 1.14852 7.08057C1.01019 6.94352 0.940725 6.77321 0.940135 6.56967ZM8.14087 12.2961L8.1242 6.54887C8.12361 6.34532 8.19209 6.17438 8.32962 6.03604C8.46668 5.89819 8.63698 5.82897 8.84053 5.82838L13.151 5.8159C13.3545 5.81531 13.5252 5.88355 13.6631 6.0206C13.8014 6.15814 13.8709 6.32868 13.8715 6.53223L13.8881 12.2795C13.8887 12.483 13.8202 12.6537 13.6827 12.7916C13.5457 12.9299 13.3753 12.9994 13.1718 13L8.86136 13.0125C8.65781 13.013 8.48711 12.9446 8.34925 12.807C8.21092 12.67 8.14146 12.4997 8.14087 12.2961ZM0.9568 12.3169L0.948468 9.44329C0.947878 9.23975 1.01635 9.0688 1.15388 8.93047C1.29094 8.79262 1.46124 8.7234 1.66479 8.72281L5.97523 8.71033C6.17878 8.70974 6.34972 8.77797 6.48806 8.91503C6.62591 9.05256 6.69513 9.22311 6.69572 9.42666L6.70406 12.3003C6.70465 12.5038 6.63641 12.6745 6.49936 12.8124C6.36182 12.9507 6.19128 13.0202 5.98773 13.0208L1.67729 13.0332C1.47374 13.0338 1.30304 12.9654 1.16518 12.8278C1.02685 12.6908 0.957391 12.5205 0.9568 12.3169Z" fill="#BFC3C8"/>
</svg>
