<svg width="369" height="236" viewBox="29 10 369 206" fill="none" xmlns="http://www.w3.org/2000/svg">
<g filter="url(#filter0_d_170_324)">
<rect x="27.3188" y="11.0801" width="306.221" height="181.018" rx="13.3581" transform="rotate(-0.16597 27.3188 11.0801)" fill="white"/>
</g>
<path d="M84.2732 74.7866L86.9638 74.7788C86.8948 75.7313 86.633 76.5767 86.1786 77.3151C85.7242 78.0469 85.0899 78.6228 84.2758 79.0426C83.4617 79.4624 82.4741 79.674 81.3131 79.6773C80.4195 79.6799 79.6136 79.5257 78.8952 79.2147C78.1833 78.8972 77.5721 78.4456 77.0617 77.8601C76.5577 77.268 76.1708 76.5581 75.901 75.7306C75.6312 74.8964 75.4948 73.9609 75.4918 72.9238L75.4886 71.8378C75.4856 70.8007 75.6199 69.8643 75.8914 69.0287C76.1629 68.193 76.5522 67.4809 77.0593 66.8924C77.5728 66.2974 78.1879 65.839 78.9044 65.5173C79.6275 65.1956 80.4358 65.0335 81.3294 65.0309C82.4904 65.0275 83.4727 65.2399 84.2762 65.6681C85.0797 66.0897 85.7042 66.6717 86.1499 67.414C86.5956 68.1563 86.8655 69.0099 86.9596 69.975L84.2691 69.9828C84.2152 69.3829 84.0833 68.8745 83.8733 68.4577C83.6699 68.0408 83.3624 67.7253 82.9509 67.5113C82.5459 67.2907 82.0074 67.1814 81.3356 67.1833C80.8138 67.1848 80.3543 67.284 79.957 67.4808C79.5662 67.6776 79.2409 67.9721 78.9811 68.3642C78.7214 68.7498 78.5271 69.233 78.3983 69.8139C78.2695 70.3883 78.2062 71.0537 78.2084 71.8103L78.2116 72.9159C78.2137 73.6399 78.2743 74.2887 78.3934 74.8624C78.5124 75.436 78.6965 75.9214 78.9455 76.3185C79.1945 76.7157 79.515 77.0181 79.9069 77.2257C80.2989 77.4332 80.7655 77.5362 81.3069 77.5347C81.9657 77.5328 82.5002 77.4269 82.9105 77.217C83.3274 77.007 83.6428 76.6996 83.8569 76.2945C84.0775 75.8895 84.2163 75.3869 84.2732 74.7866ZM91.356 64.4246L91.3996 79.4524L88.8069 79.4599L88.7634 64.4321L91.356 64.4246ZM90.9722 73.7791L90.2091 73.7813C90.207 73.0442 90.3028 72.3656 90.4967 71.7454C90.6906 71.1252 90.9662 70.5863 91.3236 70.1287C91.681 69.6645 92.1072 69.3046 92.6022 69.0487C93.1037 68.7929 93.6577 68.6641 94.2643 68.6624C94.7861 68.6609 95.2592 68.7345 95.6836 68.8833C96.1145 69.0255 96.4837 69.256 96.7912 69.5747C97.0987 69.8934 97.3347 70.3102 97.4992 70.825C97.6703 71.3333 97.7569 71.9527 97.759 72.6832L97.7786 79.4339L95.1761 79.4415L95.1565 72.6711C95.1551 72.182 95.0822 71.7973 94.9379 71.5173C94.7936 71.2307 94.5875 71.0258 94.3197 70.9027C94.0585 70.7795 93.7354 70.7185 93.3506 70.7196C92.9332 70.7208 92.5747 70.8034 92.2751 70.9673C91.9755 71.1247 91.7283 71.344 91.5334 71.625C91.3451 71.906 91.2025 72.2293 91.1058 72.5948C91.0155 72.9603 90.971 73.3551 90.9722 73.7791ZM102.816 68.8333L102.847 79.4193L100.254 79.4268L100.223 68.8408L102.816 68.8333ZM102.508 67.1807L100.571 67.1863L100.449 65.8365C100.775 65.816 101.039 65.7826 101.241 65.7364C101.444 65.6836 101.59 65.6114 101.681 65.5198C101.779 65.4217 101.827 65.3009 101.827 65.1574C101.826 65.027 101.787 64.9162 101.708 64.8251C101.636 64.734 101.535 64.6626 101.405 64.6108C101.274 64.5589 101.117 64.5235 100.935 64.5045C100.758 64.4789 100.566 64.4664 100.357 64.467L100.422 63.2243C101.009 63.2226 101.525 63.2668 101.968 63.3568C102.412 63.4403 102.781 63.5664 103.075 63.7352C103.376 63.8973 103.601 64.0956 103.752 64.33C103.909 64.5578 103.988 64.8153 103.989 65.1022C103.99 65.5588 103.835 65.8984 103.522 66.1211C103.216 66.3438 102.878 66.4817 102.506 66.535L102.508 67.1807ZM116.222 76.4845C116.222 76.2627 116.162 76.064 116.044 75.8882C115.927 75.7124 115.704 75.5533 115.378 75.4107C115.058 75.2616 114.588 75.1228 113.968 74.9941C113.419 74.8783 112.914 74.733 112.45 74.5582C111.986 74.3835 111.588 74.1726 111.254 73.9258C110.921 73.6723 110.659 73.3763 110.469 73.0377C110.286 72.6925 110.193 72.2949 110.192 71.8449C110.191 71.4079 110.284 70.9967 110.472 70.6113C110.66 70.2194 110.933 69.8762 111.291 69.5816C111.649 69.2806 112.085 69.0445 112.6 68.8734C113.115 68.6958 113.695 68.6061 114.341 68.6042C115.241 68.6016 116.014 68.7461 116.661 69.0378C117.314 69.3294 117.814 69.7323 118.161 70.2466C118.508 70.7544 118.683 71.3278 118.685 71.967L116.102 71.9745C116.101 71.6941 116.035 71.4399 115.904 71.212C115.779 70.984 115.586 70.802 115.325 70.6657C115.064 70.523 114.734 70.4522 114.336 70.4534C113.977 70.4544 113.674 70.514 113.427 70.6321C113.186 70.7502 113.004 70.904 112.88 71.0935C112.757 71.283 112.695 71.4919 112.696 71.7202C112.697 71.8898 112.73 72.043 112.795 72.1798C112.867 72.31 112.982 72.4304 113.139 72.5408C113.296 72.6512 113.508 72.7517 113.776 72.8422C114.05 72.9328 114.386 73.0198 114.784 73.1035C115.574 73.2577 116.262 73.4645 116.85 73.7237C117.445 73.9763 117.909 74.3141 118.242 74.7371C118.576 75.1601 118.744 75.701 118.746 76.3598C118.748 76.8294 118.648 77.2602 118.447 77.6521C118.246 78.0375 117.953 78.3743 117.569 78.6624C117.185 78.9505 116.726 79.1769 116.191 79.3415C115.657 79.4996 115.054 79.5796 114.382 79.5815C113.41 79.5843 112.588 79.4139 111.915 79.0701C111.242 78.7199 110.732 78.2778 110.385 77.744C110.038 77.2036 109.863 76.6432 109.862 76.0627L112.337 76.0555C112.358 76.4664 112.469 76.7954 112.672 77.0427C112.875 77.29 113.13 77.4686 113.437 77.5786C113.75 77.682 114.08 77.7333 114.426 77.7323C114.817 77.7311 115.146 77.678 115.413 77.5729C115.68 77.4612 115.882 77.3139 116.019 77.1308C116.155 76.9413 116.223 76.7258 116.222 76.4845ZM120.247 74.1834L120.246 73.978C120.244 73.2018 120.353 72.4873 120.572 71.8344C120.792 71.175 121.113 70.6033 121.536 70.1194C121.959 69.6355 122.476 69.259 123.088 68.9898C123.701 68.7141 124.398 68.5751 125.181 68.5728C125.977 68.5705 126.681 68.7054 127.295 68.9776C127.916 69.2432 128.439 69.6168 128.864 70.0982C129.289 70.5796 129.614 71.1494 129.838 71.8075C130.061 72.4592 130.174 73.173 130.176 73.9492L130.177 74.1547C130.179 74.9243 130.07 75.6389 129.851 76.2983C129.631 76.9512 129.31 77.5228 128.887 78.0132C128.464 78.4971 127.947 78.8737 127.335 79.1429C126.722 79.4121 126.021 79.5478 125.232 79.5501C124.45 79.5524 123.748 79.4207 123.128 79.1551C122.507 78.8894 121.984 78.5159 121.559 78.0345C121.134 77.5465 120.809 76.9767 120.585 76.3251C120.362 75.667 120.249 74.9531 120.247 74.1834ZM122.829 73.9705L122.829 74.176C122.831 74.6391 122.878 75.0727 122.97 75.4768C123.063 75.8809 123.204 76.236 123.394 76.542C123.584 76.848 123.829 77.0886 124.13 77.2639C124.437 77.4326 124.802 77.5163 125.226 77.5151C125.644 77.5139 126.002 77.428 126.302 77.2576C126.601 77.0806 126.845 76.8386 127.034 76.5315C127.228 76.2243 127.371 75.8684 127.461 75.4638C127.551 75.0591 127.595 74.6253 127.594 74.1622L127.594 73.9567C127.592 73.5001 127.545 73.073 127.453 72.6754C127.36 72.2713 127.216 71.9162 127.019 71.6102C126.829 71.2977 126.581 71.0538 126.274 70.8786C125.973 70.6969 125.611 70.6066 125.187 70.6078C124.769 70.609 124.411 70.7014 124.111 70.8849C123.812 71.0619 123.568 71.3072 123.38 71.6208C123.191 71.9279 123.052 72.2838 122.962 72.6884C122.872 73.0866 122.828 73.5139 122.829 73.9705ZM121.567 67.3309L124.349 64.9846L125.895 64.9801L128.699 67.3103L126.655 67.3162L125.125 65.99L123.602 67.3251L121.567 67.3309ZM127.971 65.884L129.519 63.2672L131.691 63.2609L129.527 65.8795L127.971 65.884ZM141.399 77.4682C141.764 77.4672 142.09 77.3945 142.377 77.2502C142.663 77.1058 142.891 76.903 143.06 76.6416C143.235 76.3802 143.329 76.0766 143.341 75.7309L145.777 75.7238C145.766 76.4413 145.566 77.0844 145.176 77.653C144.786 78.2216 144.266 78.6731 143.614 79.0077C142.97 79.3357 142.246 79.5008 141.444 79.5031C140.629 79.5055 139.917 79.3706 139.31 79.0984C138.702 78.8262 138.196 78.4461 137.79 77.9581C137.391 77.4701 137.089 76.9035 136.885 76.2583C136.687 75.6132 136.588 74.9221 136.586 74.185L136.585 73.872C136.582 73.1349 136.678 72.4432 136.872 71.797C137.072 71.1506 137.371 70.5823 137.767 70.092C138.17 69.6016 138.675 69.2186 139.28 68.9429C139.886 68.6672 140.594 68.5282 141.402 68.5258C142.257 68.5233 143.007 68.6875 143.654 69.0183C144.307 69.349 144.817 69.8172 145.184 70.4227C145.558 71.0282 145.752 71.7419 145.768 72.5637L143.332 72.5707C143.318 72.1925 143.232 71.8535 143.074 71.554C142.917 71.2544 142.694 71.0137 142.407 70.8319C142.119 70.6501 141.77 70.5598 141.359 70.561C140.922 70.5622 140.557 70.6546 140.264 70.8381C139.978 71.0216 139.754 71.2733 139.591 71.5934C139.436 71.9069 139.326 72.2595 139.262 72.651C139.204 73.036 139.176 73.4405 139.177 73.8644L139.178 74.1775C139.179 74.608 139.21 75.0188 139.27 75.41C139.336 75.8012 139.448 76.1531 139.606 76.4657C139.769 76.7718 139.995 77.0157 140.283 77.1975C140.577 77.3793 140.949 77.4695 141.399 77.4682ZM147.034 74.1058L147.034 73.9004C147.032 73.1242 147.14 72.4097 147.36 71.7568C147.58 71.0974 147.901 70.5257 148.324 70.0418C148.746 69.5579 149.264 69.1814 149.876 68.9122C150.489 68.6365 151.186 68.4975 151.969 68.4952C152.764 68.4929 153.469 68.6278 154.083 68.9C154.704 69.1656 155.227 69.5392 155.652 70.0206C156.077 70.502 156.402 71.0718 156.625 71.7299C156.849 72.3816 156.962 73.0954 156.964 73.8716L156.965 74.0771C156.967 74.8467 156.858 75.5613 156.638 76.2207C156.419 76.8736 156.097 77.4452 155.675 77.9356C155.252 78.4195 154.735 78.7961 154.122 79.0653C153.51 79.3345 152.809 79.4702 152.02 79.4725C151.237 79.4748 150.536 79.3431 149.915 79.0775C149.295 78.8118 148.772 78.4383 148.347 77.9569C147.921 77.4689 147.597 76.8991 147.373 76.2475C147.15 75.5894 147.037 74.8755 147.034 74.1058ZM149.617 73.8929L149.617 74.0984C149.619 74.5615 149.666 74.9951 149.758 75.3992C149.851 75.8033 149.992 76.1584 150.182 76.4644C150.372 76.7704 150.617 77.011 150.918 77.1863C151.225 77.355 151.59 77.4387 152.014 77.4375C152.432 77.4363 152.79 77.3504 153.09 77.18C153.389 77.003 153.633 76.761 153.821 76.4539C154.016 76.1467 154.159 75.7909 154.249 75.3862C154.339 74.9815 154.383 74.5477 154.382 74.0846L154.381 73.8791C154.38 73.4225 154.333 72.9954 154.241 72.5978C154.148 72.1937 154.004 71.8386 153.807 71.5327C153.617 71.2201 153.369 70.9762 153.061 70.801C152.761 70.6193 152.399 70.529 151.975 70.5302C151.557 70.5314 151.199 70.6238 150.899 70.8073C150.6 70.9843 150.356 71.2296 150.168 71.5432C149.979 71.8503 149.84 72.2062 149.75 72.6108C149.66 73.009 149.615 73.4363 149.617 73.8929ZM152.761 64.9805L155.487 67.311L153.56 67.3165L151.922 65.8635L150.292 67.326L148.355 67.3316L151.068 64.9854L152.761 64.9805ZM156.022 66.0375L154.613 66.0416L154.502 64.8874C154.783 64.867 155.004 64.8371 155.167 64.7974C155.337 64.7578 155.46 64.702 155.538 64.63C155.623 64.5515 155.665 64.4503 155.665 64.3264C155.664 64.1698 155.609 64.0493 155.497 63.9649C155.393 63.8804 155.246 63.8188 155.057 63.7803C154.874 63.7416 154.662 63.7227 154.42 63.7234L154.496 62.6763C154.946 62.675 155.344 62.7097 155.69 62.7805C156.036 62.8512 156.326 62.958 156.561 63.1008C156.797 63.2371 156.973 63.4029 157.091 63.5983C157.216 63.7936 157.278 64.0152 157.279 64.263C157.28 64.6544 157.15 64.945 156.89 65.1349C156.63 65.3248 156.34 65.443 156.02 65.4896L156.022 66.0375ZM166.406 70.6841L166.443 83.3051L163.85 83.3126L163.808 68.6566L166.205 68.6496L166.406 70.6841ZM173.215 73.8148L173.216 74.0202C173.218 74.7899 173.129 75.5044 172.948 76.1637C172.774 76.8164 172.514 77.3879 172.17 77.8781C171.826 78.3617 171.396 78.7413 170.882 79.0167C170.374 79.2856 169.787 79.421 169.122 79.423C168.47 79.4248 167.902 79.3026 167.419 79.0561C166.935 78.8031 166.527 78.4456 166.193 77.9834C165.859 77.5213 165.59 76.984 165.386 76.3714C165.188 75.7524 165.039 75.0777 164.939 74.3475L164.938 73.692C165.033 72.9155 165.178 72.2107 165.372 71.5774C165.572 70.9376 165.838 70.3857 166.169 69.9216C166.5 69.4511 166.904 69.0879 167.379 68.8321C167.861 68.5764 168.425 68.4475 169.071 68.4457C169.743 68.4437 170.333 68.5692 170.843 68.8221C171.359 69.075 171.793 69.439 172.147 69.9141C172.501 70.3892 172.766 70.9559 172.945 71.6142C173.123 72.2724 173.213 73.006 173.215 73.8148ZM170.623 74.0277L170.622 73.8223C170.621 73.3527 170.577 72.919 170.491 72.5214C170.405 72.1173 170.274 71.7654 170.097 71.4659C169.92 71.1598 169.691 70.9224 169.41 70.7537C169.129 70.5849 168.79 70.5011 168.392 70.5022C167.994 70.5034 167.652 70.5696 167.365 70.7009C167.078 70.8322 166.844 71.0187 166.662 71.2606C166.48 71.5025 166.338 71.7899 166.234 72.1228C166.137 72.4492 166.073 72.8114 166.042 73.2094L166.046 74.8335C166.107 75.316 166.222 75.7494 166.393 76.1337C166.563 76.5181 166.812 76.8239 167.139 77.0512C167.472 77.2786 167.903 77.3915 168.431 77.3899C168.829 77.3888 169.168 77.2997 169.448 77.1228C169.728 76.9459 169.956 76.7039 170.131 76.3968C170.306 76.0832 170.432 75.7241 170.509 75.3195C170.586 74.9149 170.624 74.4843 170.623 74.0277ZM177.609 64.1748L177.653 79.2026L175.06 79.2101L175.017 64.1823L177.609 64.1748ZM177.226 73.5292L176.462 73.5314C176.46 72.7944 176.556 72.1157 176.75 71.4955C176.944 70.8753 177.22 70.3364 177.577 69.8788C177.934 69.4147 178.361 69.0547 178.856 68.7989C179.357 68.5431 179.911 68.4143 180.518 68.4125C181.039 68.411 181.513 68.4846 181.937 68.6334C182.368 68.7757 182.737 69.0062 183.045 69.3249C183.352 69.6436 183.588 70.0603 183.753 70.5751C183.924 71.0834 184.01 71.7028 184.012 72.4333L184.032 79.1841L181.429 79.1916L181.41 72.4213C181.408 71.9321 181.336 71.5475 181.191 71.2674C181.047 70.9809 180.841 70.776 180.573 70.6528C180.312 70.5297 179.989 70.4686 179.604 70.4698C179.187 70.471 178.828 70.5535 178.528 70.7175C178.229 70.8749 177.982 71.0941 177.787 71.3751C177.598 71.6561 177.456 71.9794 177.359 72.345C177.269 72.7105 177.224 73.1052 177.226 73.5292ZM189.02 68.5836L189.051 79.1696L186.458 79.1771L186.428 68.5911L189.02 68.5836ZM186.243 65.8228C186.242 65.438 186.372 65.118 186.632 64.8628C186.899 64.6077 187.257 64.4795 187.707 64.4782C188.157 64.4769 188.513 64.603 188.775 64.8566C189.043 65.1102 189.177 65.4295 189.179 65.8143C189.18 66.1926 189.047 66.5093 188.78 66.7645C188.52 67.0196 188.165 67.1478 187.715 67.1491C187.265 67.1504 186.906 67.0243 186.638 66.7707C186.376 66.5171 186.245 66.2011 186.243 65.8228ZM196.272 79.3443C195.47 79.3466 194.749 79.2183 194.109 78.9592C193.469 78.7002 192.923 78.3398 192.472 77.878C192.027 77.4096 191.683 76.866 191.44 76.2471C191.203 75.6216 191.084 74.9501 191.081 74.2326L191.08 73.8413C191.078 73.026 191.193 72.2853 191.426 71.6194C191.659 70.9469 191.99 70.3687 192.419 69.8847C192.848 69.4008 193.362 69.0276 193.962 68.7649C194.561 68.5023 195.223 68.3699 195.947 68.3678C196.697 68.3656 197.359 68.4909 197.934 68.7436C198.509 68.9898 198.989 69.3406 199.375 69.7961C199.761 70.2516 200.053 70.7986 200.251 71.4373C200.448 72.0694 200.548 72.7702 200.55 73.5399L200.553 74.6259L192.257 74.6499L192.252 72.8693L198.004 72.8526L198.004 72.657C197.99 72.2461 197.91 71.8713 197.766 71.5325C197.621 71.1872 197.399 70.9139 197.098 70.7126C196.797 70.5047 196.409 70.4015 195.933 70.4029C195.548 70.404 195.212 70.4898 194.926 70.6602C194.646 70.8241 194.412 71.0596 194.224 71.3667C194.042 71.6672 193.906 72.0264 193.816 72.4441C193.726 72.8618 193.681 73.325 193.683 73.8337L193.684 74.2251C193.685 74.6686 193.745 75.0794 193.864 75.4573C193.989 75.8353 194.169 76.1641 194.405 76.4439C194.647 76.7172 194.934 76.9316 195.267 77.0872C195.607 77.2362 195.992 77.3101 196.423 77.3088C196.964 77.3073 197.453 77.2015 197.889 76.9915C198.332 76.775 198.716 76.4575 199.041 76.0391L200.346 77.3855C200.125 77.7123 199.826 78.0262 199.449 78.3274C199.078 78.6285 198.628 78.8744 198.101 79.0651C197.573 79.2492 196.963 79.3423 196.272 79.3443ZM192.108 67.1266L194.889 64.7802L196.435 64.7757L199.24 67.1059L197.195 67.1119L195.665 65.7857L194.143 67.1207L192.108 67.1266ZM198.512 65.6796L200.06 63.0629L202.232 63.0566L200.068 65.6751L198.512 65.6796ZM208.592 76.5985L208.568 68.5269L211.171 68.5194L211.201 79.1054L208.755 79.1125L208.592 76.5985ZM208.918 74.406L209.72 74.3841C209.722 75.0951 209.646 75.7508 209.491 76.3513C209.336 76.9518 209.093 77.4743 208.762 77.9188C208.437 78.3568 208.024 78.7004 207.522 78.9497C207.021 79.1925 206.427 79.3149 205.743 79.3169C205.221 79.3184 204.744 79.248 204.314 79.1058C203.883 78.957 203.51 78.7265 203.196 78.4144C202.889 78.0956 202.649 77.6887 202.478 77.1935C202.307 76.6917 202.221 76.0886 202.219 75.3842L202.199 68.5454L204.782 68.5379L204.802 75.3963C204.803 75.7485 204.843 76.0419 204.922 76.2765C205.007 76.5111 205.122 76.7031 205.266 76.8527C205.416 76.9958 205.589 77.0997 205.785 77.1643C205.988 77.2224 206.203 77.2512 206.431 77.2505C207.057 77.2487 207.549 77.1233 207.908 76.8744C208.272 76.619 208.532 76.2791 208.687 75.8547C208.843 75.4237 208.919 74.9408 208.918 74.406Z" fill="#0A1048" fill-opacity="0.9"/>
<path d="M85.0868 133.851L85.0947 136.564L72.2323 136.602L72.2256 134.28L78.3766 127.596C79.018 126.863 79.5249 126.227 79.8973 125.687C80.2697 125.147 80.5336 124.659 80.6888 124.224C80.8528 123.78 80.9342 123.358 80.933 122.957C80.9313 122.375 80.8255 121.866 80.6155 121.432C80.4055 120.989 80.1001 120.647 79.6994 120.404C79.3073 120.162 78.8243 120.041 78.2503 120.043C77.6155 120.045 77.0724 120.194 76.621 120.491C76.1783 120.78 75.8403 121.181 75.607 121.694C75.3823 122.208 75.271 122.796 75.2729 123.457L71.816 123.467C71.8127 122.345 72.0707 121.322 72.5898 120.399C73.1089 119.467 73.8547 118.721 74.8271 118.162C75.7995 117.602 76.9553 117.32 78.2946 117.317C79.5991 117.313 80.7042 117.527 81.6099 117.959C82.5156 118.383 83.2044 118.99 83.6763 119.78C84.1482 120.57 84.3858 121.513 84.389 122.608C84.3907 123.217 84.2924 123.817 84.0941 124.409C83.8958 125.001 83.6149 125.589 83.2513 126.173C82.8964 126.748 82.472 127.332 81.978 127.925C81.484 128.517 80.9335 129.123 80.3265 129.743L76.6337 133.876L85.0868 133.851ZM87.8162 134.874C87.8147 134.352 87.9917 133.912 88.3472 133.555C88.7028 133.197 89.1849 133.017 89.7937 133.016C90.4024 133.014 90.8856 133.191 91.2432 133.546C91.6008 133.902 91.7804 134.34 91.7819 134.862C91.7834 135.375 91.6063 135.811 91.2508 136.168C90.8953 136.517 90.4131 136.693 89.8043 136.694C89.1956 136.696 88.7124 136.524 88.3548 136.177C87.9972 135.821 87.8177 135.387 87.8162 134.874ZM98.4796 127.785L95.7252 127.128L96.7541 117.537L107.203 117.507L107.211 120.364L99.6192 120.386L99.1363 124.822C99.4054 124.656 99.7963 124.49 100.309 124.323C100.83 124.148 101.417 124.059 102.069 124.057C102.974 124.055 103.783 124.2 104.497 124.494C105.211 124.779 105.816 125.194 106.314 125.741C106.82 126.287 107.2 126.956 107.455 127.746C107.718 128.528 107.851 129.415 107.854 130.406C107.856 131.276 107.728 132.094 107.469 132.86C107.219 133.617 106.834 134.293 106.314 134.885C105.794 135.47 105.139 135.932 104.348 136.274C103.558 136.607 102.628 136.775 101.558 136.778C100.749 136.78 99.9707 136.665 99.2221 136.432C98.4822 136.191 97.8159 135.841 97.2232 135.381C96.6305 134.913 96.1548 134.341 95.7963 133.664C95.4465 132.986 95.2529 132.208 95.2156 131.33L98.6203 131.32C98.6829 131.903 98.8408 132.398 99.0942 132.806C99.3476 133.214 99.679 133.526 100.088 133.742C100.506 133.959 100.989 134.066 101.537 134.064C102.033 134.063 102.459 133.97 102.815 133.787C103.18 133.594 103.479 133.328 103.713 132.988C103.947 132.649 104.119 132.248 104.231 131.787C104.343 131.325 104.398 130.821 104.396 130.273C104.395 129.743 104.328 129.26 104.196 128.826C104.065 128.382 103.863 128 103.593 127.679C103.322 127.358 102.983 127.112 102.573 126.939C102.173 126.766 101.703 126.68 101.164 126.682C100.442 126.684 99.8856 126.794 99.4949 127.013C99.1129 127.231 98.7744 127.489 98.4796 127.785ZM122.893 125.328L122.902 128.524C122.906 129.985 122.762 131.233 122.469 132.269C122.177 133.304 121.753 134.154 121.198 134.816C120.644 135.47 119.98 135.955 119.207 136.27C118.434 136.577 117.573 136.731 116.625 136.734C115.869 136.736 115.164 136.643 114.511 136.453C113.858 136.255 113.27 135.952 112.747 135.545C112.233 135.129 111.788 134.6 111.412 133.957C111.045 133.315 110.76 132.546 110.557 131.651C110.364 130.756 110.265 129.726 110.262 128.56L110.252 125.364C110.248 123.903 110.392 122.659 110.685 121.632C110.986 120.605 111.414 119.764 111.969 119.111C112.524 118.457 113.188 117.981 113.961 117.683C114.734 117.376 115.595 117.222 116.543 117.219C117.308 117.217 118.013 117.31 118.657 117.5C119.309 117.689 119.893 117.987 120.407 118.395C120.93 118.793 121.375 119.314 121.742 119.956C122.109 120.59 122.39 121.355 122.584 122.25C122.787 123.136 122.889 124.162 122.893 125.328ZM119.46 129.003L119.448 124.855C119.445 124.124 119.4 123.49 119.312 122.951C119.232 122.403 119.113 121.938 118.955 121.556C118.798 121.174 118.601 120.865 118.366 120.631C118.13 120.389 117.86 120.211 117.555 120.099C117.251 119.987 116.916 119.931 116.55 119.932C116.098 119.934 115.694 120.026 115.338 120.21C114.982 120.385 114.683 120.664 114.44 121.047C114.198 121.43 114.012 121.94 113.884 122.575C113.764 123.202 113.705 123.967 113.708 124.871L113.72 129.02C113.722 129.75 113.763 130.389 113.843 130.937C113.931 131.485 114.054 131.954 114.212 132.345C114.378 132.736 114.575 133.057 114.802 133.308C115.037 133.551 115.308 133.733 115.612 133.854C115.917 133.966 116.252 134.022 116.617 134.021C117.078 134.019 117.482 133.927 117.83 133.743C118.186 133.56 118.485 133.272 118.727 132.88C118.97 132.479 119.151 131.961 119.271 131.326C119.399 130.682 119.462 129.908 119.46 129.003ZM125.48 122.111L125.477 121.106C125.475 120.385 125.629 119.728 125.941 119.135C126.252 118.543 126.707 118.068 127.306 117.709C127.914 117.351 128.653 117.171 129.522 117.168C130.409 117.166 131.153 117.342 131.754 117.697C132.364 118.051 132.822 118.524 133.128 119.115C133.443 119.705 133.602 120.361 133.604 121.083L133.607 122.087C133.609 122.792 133.454 123.44 133.143 124.032C132.84 124.625 132.389 125.1 131.79 125.458C131.191 125.817 130.452 125.997 129.574 126C128.696 126.002 127.951 125.826 127.342 125.471C126.732 125.116 126.27 124.644 125.955 124.053C125.64 123.463 125.482 122.815 125.48 122.111ZM127.812 121.1L127.815 122.104C127.816 122.435 127.877 122.748 128 123.043C128.131 123.33 128.328 123.564 128.589 123.746C128.85 123.927 129.177 124.018 129.568 124.017C129.96 124.016 130.277 123.923 130.52 123.74C130.771 123.557 130.958 123.321 131.079 123.034C131.208 122.738 131.272 122.425 131.271 122.094L131.269 121.09C131.268 120.751 131.201 120.433 131.07 120.138C130.948 119.843 130.756 119.604 130.494 119.422C130.241 119.24 129.919 119.15 129.528 119.151C129.145 119.152 128.824 119.244 128.563 119.428C128.312 119.611 128.121 119.851 127.992 120.147C127.871 120.443 127.811 120.761 127.812 121.1ZM134.629 132.768L134.626 131.764C134.624 131.051 134.779 130.398 135.09 129.806C135.41 129.213 135.874 128.738 136.482 128.38C137.089 128.022 137.824 127.841 138.685 127.839C139.58 127.836 140.329 128.012 140.93 128.367C141.531 128.722 141.985 129.194 142.291 129.785C142.606 130.375 142.764 131.027 142.766 131.74L142.769 132.745C142.771 133.458 142.616 134.111 142.305 134.703C142.002 135.295 141.551 135.77 140.952 136.129C140.362 136.487 139.628 136.667 138.749 136.67C137.871 136.672 137.123 136.496 136.504 136.142C135.894 135.787 135.428 135.314 135.104 134.724C134.789 134.133 134.631 133.481 134.629 132.768ZM136.974 131.757L136.977 132.762C136.978 133.101 137.048 133.418 137.188 133.713C137.328 134 137.529 134.234 137.791 134.416C138.061 134.598 138.374 134.688 138.731 134.687C139.165 134.686 139.509 134.594 139.76 134.41C140.012 134.227 140.19 133.992 140.293 133.704C140.397 133.408 140.448 133.091 140.447 132.752L140.444 131.747C140.443 131.408 140.377 131.095 140.246 130.808C140.114 130.513 139.918 130.274 139.657 130.093C139.404 129.911 139.082 129.82 138.69 129.821C138.308 129.823 137.986 129.915 137.726 130.098C137.474 130.282 137.284 130.521 137.154 130.817C137.033 131.105 136.973 131.418 136.974 131.757ZM139.523 120.127L130.291 134.999L128.58 134.051L137.812 119.179L139.523 120.127Z" fill="#0A1048" fill-opacity="0.9"/>
<path d="M76.7561 146.861L78.1013 146.857L78.115 151.588C78.1166 152.132 78.0005 152.591 77.7668 152.963C77.533 153.333 77.2143 153.612 76.8104 153.803C76.4065 153.99 75.947 154.084 75.4317 154.086C74.9099 154.087 74.4449 153.995 74.0367 153.811C73.6285 153.623 73.3081 153.345 73.0755 152.977C72.8429 152.606 72.7258 152.148 72.7242 151.603L72.7105 146.873L74.0557 146.869L74.0694 151.599C74.0704 151.932 74.1266 152.204 74.2381 152.416C74.3496 152.624 74.5066 152.779 74.7091 152.879C74.9116 152.98 75.1514 153.03 75.4286 153.029C75.7091 153.028 75.9487 152.977 76.1473 152.875C76.3492 152.773 76.5037 152.618 76.6107 152.409C76.7177 152.197 76.7707 151.924 76.7698 151.592L76.7561 146.861ZM80.58 149.697L80.5982 156.008L79.3019 156.011L79.2807 148.683L80.4792 148.68L80.58 149.697ZM83.9844 151.263L83.9847 151.365C83.9858 151.75 83.9412 152.107 83.8508 152.437C83.7637 152.763 83.6341 153.049 83.4619 153.294C83.2898 153.536 83.0751 153.726 82.8178 153.864C82.5639 153.998 82.2705 154.066 81.9379 154.067C81.6118 154.068 81.3279 154.006 81.0862 153.883C80.8445 153.757 80.6401 153.578 80.4731 153.347C80.3061 153.116 80.1716 152.847 80.0697 152.541C79.9709 152.231 79.8966 151.894 79.8466 151.529L79.8456 151.201C79.8934 150.813 79.9658 150.461 80.0627 150.144C80.1629 149.824 80.2958 149.548 80.4614 149.316C80.6271 149.081 80.8288 148.899 81.0665 148.771C81.3074 148.643 81.5893 148.579 81.9122 148.578C82.2481 148.577 82.5434 148.64 82.7982 148.766C83.0562 148.893 83.2736 149.075 83.4504 149.312C83.6272 149.55 83.7601 149.833 83.8491 150.162C83.9381 150.491 83.9832 150.858 83.9844 151.263ZM82.6883 151.369L82.688 151.266C82.6873 151.032 82.6655 150.815 82.6225 150.616C82.5796 150.414 82.5138 150.238 82.4253 150.088C82.3368 149.935 82.2223 149.816 82.0819 149.732C81.9414 149.648 81.7717 149.606 81.5727 149.606C81.3738 149.607 81.2027 149.64 81.0594 149.706C80.9161 149.771 80.7989 149.865 80.708 149.985C80.617 150.106 80.5457 150.25 80.494 150.417C80.4455 150.58 80.4134 150.761 80.3977 150.96L80.4001 151.772C80.4301 152.013 80.4878 152.23 80.5732 152.422C80.6585 152.614 80.7829 152.767 80.9463 152.881C81.1129 152.994 81.3283 153.051 81.5925 153.05C81.7914 153.05 81.9609 153.005 82.1009 152.917C82.2409 152.828 82.3547 152.707 82.4423 152.554C82.5299 152.397 82.5929 152.217 82.6315 152.015C82.67 151.813 82.689 151.597 82.6883 151.369ZM88.1079 152.826L88.0894 146.437L89.3906 146.433L89.4124 153.947L88.2383 153.951L88.1079 152.826ZM84.7038 151.378L84.7035 151.275C84.7023 150.871 84.7469 150.504 84.8373 150.174C84.9309 149.841 85.0671 149.555 85.2457 149.317C85.4244 149.078 85.6407 148.893 85.8947 148.762C86.152 148.631 86.4437 148.565 86.7698 148.564C87.0862 148.563 87.3619 148.626 87.5971 148.752C87.8355 148.879 88.0383 149.059 88.2053 149.294C88.3755 149.528 88.5117 149.806 88.6137 150.129C88.7157 150.448 88.7901 150.8 88.8369 151.185L88.8377 151.464C88.7931 151.839 88.7208 152.183 88.6206 152.497C88.5204 152.81 88.3858 153.084 88.2169 153.32C88.0513 153.552 87.8496 153.732 87.6119 153.859C87.3742 153.987 87.0955 154.052 86.7759 154.053C86.4531 154.054 86.1626 153.988 85.9046 153.855C85.6498 153.722 85.4324 153.535 85.2524 153.294C85.0756 153.053 84.9394 152.77 84.8439 152.444C84.7516 152.118 84.7049 151.763 84.7038 151.378ZM85.9999 151.271L86.0002 151.374C86.0008 151.602 86.021 151.816 86.0607 152.015C86.1004 152.214 86.1645 152.39 86.253 152.543C86.3415 152.692 86.4544 152.809 86.5916 152.894C86.7321 152.978 86.9018 153.02 87.1007 153.02C87.3551 153.019 87.5636 152.963 87.7264 152.851C87.8924 152.737 88.0207 152.581 88.1115 152.386C88.2022 152.186 88.2603 151.963 88.2857 151.715L88.2834 150.947C88.2698 150.751 88.2351 150.57 88.1791 150.404C88.1265 150.238 88.051 150.095 87.9529 149.974C87.8579 149.854 87.7403 149.76 87.5998 149.692C87.4594 149.623 87.293 149.59 87.1006 149.59C86.9016 149.591 86.7322 149.635 86.5922 149.724C86.4522 149.809 86.3384 149.928 86.2508 150.082C86.1632 150.235 86.0985 150.413 86.0567 150.616C86.0181 150.818 85.9992 151.037 85.9999 151.271ZM93.4938 152.81L93.4867 150.369C93.4862 150.19 93.4548 150.035 93.3925 149.905C93.3301 149.774 93.2352 149.674 93.1079 149.602C92.9805 149.531 92.8189 149.495 92.6232 149.496C92.4504 149.497 92.2988 149.526 92.1686 149.585C92.0415 149.644 91.9439 149.728 91.8758 149.836C91.8076 149.94 91.7737 150.061 91.7741 150.198L90.4777 150.202C90.4771 149.983 90.5287 149.776 90.6325 149.58C90.7363 149.381 90.8841 149.204 91.0761 149.05C91.2713 148.893 91.5042 148.77 91.7746 148.682C92.0483 148.593 92.3547 148.548 92.6939 148.547C93.095 148.546 93.4523 148.613 93.7658 148.749C94.0825 148.882 94.331 149.083 94.5111 149.354C94.6945 149.624 94.7868 149.964 94.788 150.375L94.7947 152.684C94.7955 152.948 94.8124 153.175 94.8456 153.364C94.882 153.55 94.9346 153.711 95.0035 153.848L95.0038 153.931L93.6879 153.935C93.6255 153.801 93.5777 153.632 93.5445 153.426C93.5113 153.218 93.4944 153.012 93.4938 152.81ZM93.6687 150.711L93.6807 151.479L92.8638 151.481C92.6616 151.482 92.4839 151.504 92.3308 151.547C92.1776 151.586 92.0522 151.645 91.9546 151.724C91.857 151.799 91.7839 151.891 91.7353 151.998C91.6867 152.103 91.6625 152.222 91.6629 152.356C91.6633 152.486 91.693 152.603 91.752 152.708C91.8143 152.812 91.9026 152.895 92.0169 152.956C92.1345 153.015 92.2715 153.044 92.4281 153.043C92.6563 153.043 92.8551 152.996 93.0245 152.905C93.1938 152.809 93.3255 152.695 93.4197 152.561C93.5139 152.427 93.5641 152.3 93.5703 152.179L93.9437 152.736C93.8984 152.869 93.8303 153.011 93.7394 153.162C93.6486 153.312 93.5316 153.453 93.3884 153.583C93.2453 153.714 93.0728 153.822 92.8708 153.908C92.6689 153.993 92.4342 154.036 92.1668 154.037C91.8243 154.038 91.5176 153.97 91.2465 153.834C90.9754 153.698 90.7613 153.511 90.604 153.274C90.4468 153.036 90.3678 152.765 90.3669 152.462C90.3661 152.182 90.4175 151.934 90.5213 151.718C90.625 151.503 90.7794 151.321 90.9844 151.174C91.1894 151.023 91.4435 150.91 91.7466 150.834C92.0529 150.755 92.4034 150.715 92.798 150.714L93.6687 150.711ZM98.4519 148.628L98.4546 149.557L95.4216 149.566L95.4189 148.637L98.4519 148.628ZM96.2272 147.333L97.5235 147.329L97.5382 152.397C97.5387 152.554 97.5602 152.675 97.6029 152.759C97.6455 152.844 97.7093 152.901 97.7942 152.93C97.879 152.959 97.9802 152.973 98.0976 152.973C98.1824 152.973 98.2606 152.968 98.3323 152.958C98.4041 152.948 98.4644 152.938 98.5133 152.928L98.521 153.896C98.4134 153.933 98.2912 153.962 98.1543 153.985C98.0207 154.009 97.8691 154.021 97.6995 154.021C97.4092 154.022 97.1547 153.974 96.9359 153.876C96.7171 153.776 96.5471 153.615 96.4258 153.394C96.3044 153.169 96.2432 152.872 96.2422 152.504L96.2272 147.333ZM101.706 154.009C101.305 154.011 100.944 153.946 100.624 153.817C100.304 153.687 100.031 153.507 99.8057 153.276C99.5833 153.042 99.4113 152.77 99.2897 152.461C99.1714 152.148 99.1117 151.812 99.1107 151.454L99.1101 151.258C99.1089 150.85 99.1666 150.48 99.283 150.147C99.3994 149.811 99.5649 149.522 99.7795 149.28C99.994 149.038 100.251 148.851 100.551 148.72C100.85 148.588 101.181 148.522 101.543 148.521C101.918 148.52 102.249 148.583 102.537 148.709C102.824 148.832 103.064 149.008 103.257 149.235C103.451 149.463 103.596 149.737 103.695 150.056C103.794 150.372 103.844 150.722 103.845 151.107L103.847 151.65L99.6983 151.662L99.6957 150.772L102.572 150.764L102.572 150.666C102.565 150.46 102.525 150.273 102.453 150.103C102.381 149.931 102.269 149.794 102.119 149.694C101.969 149.59 101.774 149.538 101.536 149.539C101.344 149.539 101.176 149.582 101.033 149.667C100.893 149.749 100.776 149.867 100.682 150.021C100.591 150.171 100.523 150.35 100.478 150.559C100.433 150.768 100.411 151 100.411 151.254L100.412 151.45C100.413 151.672 100.443 151.877 100.502 152.066C100.564 152.255 100.654 152.419 100.772 152.559C100.893 152.696 101.037 152.803 101.204 152.881C101.373 152.955 101.566 152.992 101.781 152.992C102.052 152.991 102.296 152.938 102.515 152.833C102.736 152.725 102.928 152.566 103.09 152.357L103.743 153.03C103.633 153.193 103.483 153.35 103.294 153.501C103.109 153.651 102.884 153.774 102.62 153.87C102.356 153.962 102.052 154.008 101.706 154.009ZM107.891 152.769L107.872 146.38L109.173 146.376L109.195 153.89L108.021 153.893L107.891 152.769ZM104.487 151.321L104.486 151.218C104.485 150.813 104.53 150.446 104.62 150.117C104.714 149.784 104.85 149.498 105.028 149.26C105.207 149.021 105.423 148.836 105.677 148.705C105.935 148.574 106.226 148.508 106.553 148.507C106.869 148.506 107.145 148.569 107.38 148.695C107.618 148.822 107.821 149.002 107.988 149.236C108.158 149.471 108.294 149.749 108.396 150.072C108.498 150.391 108.573 150.743 108.62 151.128L108.62 151.406C108.576 151.782 108.503 152.126 108.403 152.439C108.303 152.753 108.169 153.027 108 153.262C107.834 153.494 107.632 153.674 107.395 153.802C107.157 153.93 106.878 153.994 106.559 153.995C106.236 153.996 105.945 153.93 105.687 153.797C105.433 153.664 105.215 153.477 105.035 153.237C104.858 152.996 104.722 152.712 104.627 152.387C104.534 152.061 104.488 151.705 104.487 151.321ZM105.783 151.214L105.783 151.317C105.784 151.545 105.804 151.759 105.843 151.957C105.883 152.156 105.947 152.332 106.036 152.485C106.124 152.635 106.237 152.752 106.374 152.836C106.515 152.921 106.684 152.963 106.883 152.962C107.138 152.961 107.346 152.905 107.509 152.794C107.675 152.679 107.803 152.524 107.894 152.328C107.985 152.129 108.043 151.905 108.068 151.658L108.066 150.89C108.053 150.694 108.018 150.513 107.962 150.347C107.909 150.181 107.834 150.037 107.736 149.917C107.641 149.797 107.523 149.702 107.383 149.634C107.242 149.566 107.076 149.532 106.883 149.533C106.684 149.534 106.515 149.578 106.375 149.667C106.235 149.752 106.121 149.871 106.033 150.025C105.946 150.178 105.881 150.356 105.839 150.558C105.801 150.761 105.782 150.979 105.783 151.214ZM115.856 151.708L115.842 146.748L117.187 146.744L117.202 151.704C117.203 152.177 117.101 152.584 116.897 152.923C116.693 153.26 116.413 153.518 116.058 153.699C115.703 153.879 115.302 153.97 114.855 153.971C114.395 153.973 113.988 153.897 113.632 153.745C113.276 153.589 112.996 153.352 112.793 153.033C112.593 152.714 112.493 152.308 112.491 151.816L113.841 151.812C113.842 152.079 113.883 152.295 113.965 152.457C114.047 152.62 114.164 152.737 114.314 152.809C114.467 152.88 114.647 152.915 114.852 152.915C115.051 152.914 115.225 152.868 115.375 152.776C115.528 152.681 115.647 152.544 115.731 152.364C115.815 152.185 115.857 151.966 115.856 151.708ZM121.592 152.597L121.581 148.561L122.882 148.557L122.897 153.85L121.674 153.854L121.592 152.597ZM121.755 151.5L122.157 151.49C122.158 151.845 122.119 152.173 122.042 152.473C121.965 152.773 121.843 153.035 121.677 153.257C121.515 153.476 121.308 153.648 121.058 153.772C120.807 153.894 120.51 153.955 120.168 153.956C119.907 153.957 119.669 153.921 119.453 153.85C119.238 153.776 119.052 153.661 118.895 153.505C118.741 153.345 118.621 153.142 118.536 152.894C118.45 152.643 118.407 152.342 118.406 151.99L118.396 148.57L119.687 148.566L119.697 151.996C119.698 152.172 119.718 152.318 119.757 152.436C119.8 152.553 119.857 152.649 119.929 152.724C120.005 152.795 120.091 152.847 120.189 152.88C120.29 152.909 120.398 152.923 120.512 152.923C120.825 152.922 121.071 152.859 121.25 152.735C121.433 152.607 121.562 152.437 121.64 152.225C121.718 152.009 121.756 151.768 121.755 151.5ZM125.297 149.68L125.309 153.843L124.017 153.847L124.002 148.554L125.215 148.55L125.297 149.68ZM125.095 151.007L124.714 151.008C124.716 150.623 124.767 150.274 124.867 149.96C124.967 149.647 125.108 149.377 125.29 149.152C125.476 148.926 125.695 148.753 125.949 148.631C126.203 148.51 126.487 148.449 126.8 148.448C127.054 148.447 127.284 148.482 127.49 148.554C127.696 148.625 127.872 148.738 128.019 148.895C128.17 149.051 128.285 149.256 128.364 149.51C128.446 149.761 128.487 150.07 128.489 150.439L128.498 153.834L127.197 153.838L127.187 150.433C127.187 150.192 127.15 150.001 127.078 149.861C127.009 149.721 126.908 149.622 126.774 149.563C126.643 149.505 126.482 149.476 126.289 149.477C126.09 149.477 125.916 149.519 125.766 149.601C125.62 149.679 125.496 149.789 125.395 149.929C125.298 150.07 125.223 150.232 125.172 150.414C125.12 150.597 125.095 150.795 125.095 151.007ZM130.842 150.55L129.809 150.303L130.195 146.706L134.113 146.695L134.116 147.766L131.269 147.775L131.088 149.438C131.189 149.376 131.336 149.314 131.528 149.251C131.723 149.185 131.943 149.152 132.188 149.151C132.527 149.151 132.831 149.205 133.098 149.315C133.366 149.422 133.593 149.578 133.78 149.783C133.969 149.988 134.112 150.238 134.207 150.535C134.306 150.828 134.356 151.161 134.357 151.532C134.358 151.859 134.31 152.165 134.213 152.453C134.119 152.737 133.975 152.99 133.78 153.212C133.585 153.431 133.339 153.605 133.043 153.733C132.746 153.858 132.397 153.92 131.996 153.922C131.693 153.923 131.401 153.879 131.12 153.792C130.843 153.702 130.593 153.57 130.371 153.398C130.148 153.223 129.97 153.008 129.836 152.754C129.704 152.5 129.632 152.208 129.618 151.879L130.895 151.875C130.918 152.094 130.977 152.279 131.072 152.432C131.167 152.585 131.292 152.702 131.445 152.783C131.602 152.865 131.783 152.905 131.988 152.904C132.174 152.904 132.334 152.869 132.468 152.8C132.604 152.728 132.717 152.628 132.804 152.501C132.892 152.373 132.957 152.223 132.999 152.05C133.041 151.877 133.061 151.688 133.061 151.482C133.06 151.283 133.035 151.103 132.986 150.94C132.936 150.773 132.861 150.63 132.759 150.51C132.658 150.389 132.53 150.297 132.377 150.232C132.227 150.167 132.051 150.135 131.848 150.136C131.578 150.137 131.369 150.178 131.223 150.26C131.079 150.342 130.952 150.438 130.842 150.55ZM136.576 152.646L136.569 153.542C136.57 153.89 136.485 154.245 136.313 154.604C136.141 154.963 135.919 155.26 135.645 155.496L134.959 155.121C135.047 154.974 135.128 154.826 135.203 154.676C135.281 154.525 135.342 154.362 135.387 154.186C135.436 154.013 135.46 153.819 135.459 153.603L135.456 152.65L136.576 152.646ZM144.966 152.769L144.969 153.786L140.146 153.8L140.143 152.929L142.45 150.423C142.691 150.148 142.881 149.91 143.02 149.707C143.16 149.505 143.259 149.322 143.317 149.158C143.379 148.992 143.409 148.834 143.409 148.684C143.408 148.465 143.368 148.274 143.29 148.112C143.211 147.946 143.096 147.817 142.946 147.726C142.799 147.635 142.618 147.59 142.403 147.591C142.165 147.591 141.961 147.647 141.792 147.759C141.626 147.867 141.499 148.017 141.411 148.21C141.327 148.403 141.285 148.623 141.286 148.871L139.99 148.875C139.989 148.454 140.085 148.07 140.28 147.724C140.475 147.375 140.754 147.095 141.119 146.885C141.484 146.675 141.917 146.57 142.419 146.568C142.908 146.567 143.323 146.647 143.662 146.809C144.002 146.968 144.26 147.196 144.437 147.492C144.614 147.788 144.703 148.142 144.705 148.553C144.705 148.781 144.668 149.006 144.594 149.228C144.52 149.45 144.414 149.67 144.278 149.889C144.145 150.105 143.986 150.324 143.801 150.546C143.615 150.769 143.409 150.996 143.181 151.228L141.796 152.778L144.966 152.769ZM150.573 149.597L150.577 150.796C150.578 151.344 150.524 151.812 150.414 152.2C150.305 152.589 150.146 152.907 149.938 153.155C149.73 153.401 149.481 153.582 149.191 153.701C148.901 153.816 148.578 153.874 148.223 153.875C147.939 153.875 147.675 153.84 147.43 153.769C147.185 153.695 146.965 153.582 146.768 153.429C146.576 153.273 146.409 153.074 146.268 152.833C146.13 152.593 146.023 152.304 145.947 151.969C145.875 151.633 145.838 151.246 145.836 150.809L145.833 149.611C145.831 149.063 145.885 148.597 145.995 148.211C146.108 147.826 146.269 147.511 146.477 147.266C146.685 147.021 146.934 146.842 147.224 146.73C147.513 146.615 147.836 146.557 148.192 146.556C148.479 146.556 148.743 146.591 148.984 146.662C149.229 146.733 149.448 146.845 149.641 146.997C149.837 147.147 150.004 147.342 150.142 147.583C150.279 147.821 150.384 148.107 150.457 148.443C150.533 148.775 150.572 149.16 150.573 149.597ZM149.286 150.976L149.281 149.42C149.28 149.146 149.263 148.908 149.23 148.706C149.2 148.501 149.156 148.326 149.096 148.183C149.037 148.04 148.964 147.924 148.875 147.836C148.787 147.745 148.686 147.679 148.571 147.636C148.457 147.594 148.332 147.574 148.195 147.574C148.025 147.574 147.873 147.609 147.74 147.678C147.606 147.744 147.494 147.848 147.403 147.992C147.312 148.136 147.243 148.327 147.195 148.565C147.15 148.8 147.128 149.087 147.129 149.426L147.133 150.982C147.134 151.256 147.149 151.495 147.179 151.701C147.212 151.906 147.259 152.082 147.318 152.229C147.38 152.375 147.454 152.496 147.539 152.59C147.627 152.681 147.729 152.749 147.843 152.795C147.957 152.837 148.083 152.858 148.22 152.857C148.393 152.857 148.544 152.822 148.674 152.753C148.808 152.684 148.92 152.576 149.011 152.429C149.102 152.279 149.17 152.085 149.215 151.847C149.263 151.605 149.287 151.315 149.286 150.976ZM156.413 152.736L156.416 153.753L151.593 153.767L151.59 152.896L153.897 150.39C154.137 150.115 154.328 149.877 154.467 149.674C154.607 149.471 154.706 149.288 154.764 149.125C154.826 148.959 154.856 148.8 154.856 148.65C154.855 148.432 154.815 148.241 154.737 148.078C154.658 147.912 154.543 147.784 154.393 147.693C154.246 147.602 154.065 147.557 153.85 147.558C153.612 147.558 153.408 147.614 153.239 147.726C153.073 147.834 152.946 147.984 152.858 148.177C152.774 148.369 152.732 148.59 152.733 148.838L151.437 148.841C151.436 148.421 151.532 148.037 151.727 147.691C151.922 147.341 152.201 147.062 152.566 146.852C152.931 146.642 153.364 146.537 153.866 146.535C154.355 146.534 154.77 146.614 155.109 146.776C155.449 146.935 155.707 147.162 155.884 147.459C156.061 147.755 156.15 148.109 156.152 148.52C156.152 148.748 156.115 148.973 156.041 149.195C155.967 149.417 155.861 149.637 155.725 149.856C155.592 150.072 155.433 150.291 155.247 150.513C155.062 150.735 154.856 150.963 154.628 151.195L153.243 152.745L156.413 152.736ZM162.02 149.564L162.023 150.763C162.025 151.31 161.971 151.779 161.861 152.167C161.751 152.555 161.593 152.874 161.385 153.122C161.177 153.368 160.928 153.549 160.638 153.667C160.348 153.782 160.025 153.84 159.67 153.841C159.386 153.842 159.122 153.807 158.877 153.736C158.632 153.662 158.412 153.548 158.215 153.396C158.023 153.24 157.856 153.041 157.715 152.8C157.577 152.559 157.47 152.271 157.394 151.935C157.322 151.6 157.285 151.213 157.283 150.776L157.28 149.578C157.278 149.03 157.332 148.563 157.442 148.178C157.555 147.793 157.716 147.478 157.924 147.233C158.132 146.988 158.381 146.809 158.671 146.697C158.96 146.582 159.283 146.524 159.639 146.523C159.926 146.522 160.19 146.558 160.431 146.629C160.676 146.7 160.895 146.812 161.088 146.964C161.284 147.114 161.451 147.309 161.589 147.55C161.726 147.788 161.831 148.074 161.904 148.41C161.98 148.742 162.019 149.127 162.02 149.564ZM160.733 150.942L160.728 149.387C160.727 149.113 160.71 148.875 160.677 148.673C160.647 148.467 160.603 148.293 160.543 148.15C160.484 148.006 160.411 147.891 160.322 147.803C160.234 147.712 160.133 147.645 160.018 147.603C159.904 147.561 159.779 147.54 159.642 147.541C159.472 147.541 159.32 147.576 159.187 147.645C159.053 147.71 158.941 147.815 158.85 147.959C158.759 148.103 158.69 148.294 158.642 148.532C158.597 148.767 158.575 149.054 158.576 149.393L158.58 150.949C158.581 151.223 158.596 151.462 158.626 151.668C158.659 151.873 158.706 152.049 158.765 152.196C158.827 152.342 158.901 152.463 158.986 152.557C159.074 152.648 159.176 152.716 159.29 152.761C159.404 152.804 159.53 152.824 159.667 152.824C159.84 152.823 159.991 152.789 160.121 152.72C160.255 152.651 160.367 152.543 160.458 152.396C160.549 152.246 160.617 152.052 160.662 151.813C160.71 151.572 160.734 151.282 160.733 150.942Z" fill="#BFC3C8"/>
<path d="M199.689 143.793L236.351 118.64L278.168 143.565L298.096 105.938" stroke="#0A1048" stroke-opacity="0.9" stroke-width="3.33953"/>
<defs>
<filter id="filter0_d_170_324" x="0.641209" y="0.212864" width="360.1" height="235.259" filterUnits="userSpaceOnUse" color-interpolation-filters="sRGB">
<feFlood flood-opacity="0" result="BackgroundImageFix"/>
<feColorMatrix in="SourceAlpha" type="matrix" values="0 0 0 0 0 0 0 0 0 0 0 0 0 0 0 0 0 0 127 0" result="hardAlpha"/>
<feOffset dy="16.6976"/>
<feGaussianBlur stdDeviation="13.3581"/>
<feComposite in2="hardAlpha" operator="out"/>
<feColorMatrix type="matrix" values="0 0 0 0 0.215988 0 0 0 0 0.22936 0 0 0 0 0.354167 0 0 0 0.18 0"/>
<feBlend mode="normal" in2="BackgroundImageFix" result="effect1_dropShadow_170_324"/>
<feBlend mode="normal" in="SourceGraphic" in2="effect1_dropShadow_170_324" result="shape"/>
</filter>
</defs>
</svg>
