<svg width="33" height="27" viewBox="0 0 33 27" fill="none" xmlns="http://www.w3.org/2000/svg">
<path d="M3.96675 26.6744C3.08675 26.6769 2.33276 26.3589 1.70477 25.7204C1.07572 25.0808 0.759886 24.3109 0.757279 23.4109L0.700398 3.77467C0.697791 2.87467 1.00916 2.10358 1.6345 1.46141C2.25877 0.81814 3.01091 0.495233 3.8909 0.492684L29.4908 0.418527C30.3708 0.415978 31.1253 0.734521 31.7544 1.37416C32.3824 2.0127 32.6977 2.78198 32.7003 3.68197L32.7571 23.3183C32.7598 24.2183 32.4489 24.9899 31.8246 25.6331C31.1993 26.2753 30.4466 26.5977 29.5666 26.6002L3.96675 26.6744ZM16.7335 15.1828L29.5098 6.96396L29.5003 3.69124L16.724 11.9101L3.90038 3.7654L3.90987 7.03811L16.7335 15.1828Z" fill="white"/>
</svg>
