<svg width="53" height="52" viewBox="0 0 53 52" fill="none" xmlns="http://www.w3.org/2000/svg">
<path d="M52.0866 26.1566C52.1268 40.0527 40.5189 51.3515 26.1596 51.393C11.8002 51.4346 0.127055 40.2033 0.0868013 26.3072C0.0465479 12.411 11.6545 1.11228 26.0138 1.07068C40.3732 1.02909 52.0463 12.2604 52.0866 26.1566Z" fill="#6CE9A6"/>
<path d="M35.3434 31.5922C35.3521 33.3963 34.7125 35.1277 33.5651 36.4054C32.4178 37.6831 30.8569 38.4024 29.2257 38.4053L27.1755 38.4088L27.1864 40.6763C27.1879 40.977 27.0812 41.2655 26.89 41.4785C26.6988 41.6914 26.4387 41.8113 26.1668 41.8118C25.8949 41.8123 25.6336 41.6933 25.4403 41.481C25.2471 41.2687 25.1377 40.9805 25.1362 40.6799L25.1253 38.4124L23.0751 38.416C21.4439 38.4188 19.876 37.7049 18.7165 36.4312C17.5569 35.1575 16.9005 33.4284 16.8918 31.6243C16.8904 31.3236 16.997 31.0351 17.1882 30.8221C17.3794 30.6092 17.6396 30.4893 17.9115 30.4888C18.1833 30.4883 18.4446 30.6073 18.6379 30.8196C18.8312 31.0319 18.9406 31.3201 18.942 31.6207C18.9512 32.8223 19.3898 33.9729 20.1621 34.8212C20.9345 35.6695 21.9778 36.1467 23.0642 36.1485L29.2147 36.1378C30.3022 36.1359 31.3429 35.6563 32.1077 34.8045C32.8726 33.9528 33.299 32.7985 33.2933 31.5958C33.2875 30.3931 32.8499 29.2403 32.0768 28.3912C31.3038 27.5421 30.2585 27.0661 29.1711 27.068L23.5331 27.0778C21.9018 27.0807 20.334 26.3667 19.1744 25.093C18.0148 23.8193 17.3585 22.0902 17.3498 20.2861C17.3411 18.482 17.9808 16.7507 19.1281 15.473C20.2754 14.1953 21.8363 13.4759 23.4675 13.4731L25.0052 13.4704L24.9943 11.203C24.9928 10.9023 25.0994 10.6137 25.2906 10.4008C25.4818 10.1878 25.742 10.0679 26.0139 10.0675C26.2857 10.067 26.5471 10.186 26.7403 10.3983C26.9336 10.6105 27.043 10.8987 27.0444 11.1994L27.0553 13.4669L28.0804 13.4651C29.7117 13.4622 31.2795 14.1762 32.4391 15.4499C33.5987 16.7236 34.255 18.4527 34.2637 20.2568C34.2652 20.5574 34.1586 20.846 33.9674 21.0589C33.7761 21.2719 33.516 21.3918 33.2441 21.3923C32.9722 21.3927 32.7109 21.2737 32.5177 21.0615C32.3244 20.8492 32.215 20.561 32.2136 20.2603C32.2044 19.0587 31.7658 17.9082 30.9934 17.0599C30.2211 16.2116 29.1778 15.7344 28.0914 15.7325L23.4785 15.7405C22.391 15.7424 21.3503 16.222 20.5855 17.0738C19.8206 17.9256 19.3942 19.0799 19.4 20.2826C19.4057 21.4853 19.8433 22.638 20.6164 23.4872C21.3894 24.3363 22.4347 24.8123 23.5221 24.8104L29.1601 24.8006C30.7914 24.7977 32.3592 25.5117 33.5188 26.7854C34.6784 28.0591 35.3347 29.7881 35.3434 31.5922Z" fill="#FCFCFD"/>
</svg>
