<svg width="53" height="51" viewBox="0 0 53 51" fill="none" xmlns="http://www.w3.org/2000/svg">
<path d="M52.1403 25.6566C52.1805 39.5527 40.5726 50.8515 26.2133 50.893C11.8539 50.9346 0.180766 39.7033 0.140512 25.8072C0.100259 11.911 11.7082 0.612276 26.0675 0.570681C40.4269 0.529086 52.1 11.7604 52.1403 25.6566Z" fill="#6CE9A6"/>
<path d="M35.3971 31.0922C35.4058 32.8963 34.7662 34.6277 33.6189 35.9054C32.4716 37.1831 30.9106 37.9024 29.2794 37.9053L27.2292 37.9088L27.2401 40.1763C27.2416 40.477 27.135 40.7655 26.9437 40.9785C26.7525 41.1914 26.4924 41.3113 26.2205 41.3118C25.9486 41.3123 25.6873 41.1933 25.494 40.981C25.3008 40.7687 25.1914 40.4805 25.1899 40.1799L25.179 37.9124L23.1288 37.916C21.4976 37.9188 19.9298 37.2049 18.7702 35.9312C17.6106 34.6575 16.9542 32.9284 16.9456 31.1243C16.9441 30.8236 17.0507 30.5351 17.2419 30.3221C17.4331 30.1092 17.6933 29.9893 17.9652 29.9888C18.237 29.9883 18.4984 30.1073 18.6916 30.3196C18.8849 30.5319 18.9943 30.8201 18.9957 31.1207C19.0049 32.3223 19.4435 33.4729 20.2159 34.3212C20.9882 35.1695 22.0315 35.6467 23.1179 35.6485L29.2685 35.6378C30.3559 35.6359 31.3966 35.1563 32.1614 34.3045C32.9263 33.4528 33.3528 32.2985 33.347 31.0958C33.3412 29.8931 32.9036 28.7403 32.1306 27.8912C31.3575 27.0421 30.3122 26.5661 29.2248 26.568L23.5868 26.5778C21.9556 26.5807 20.3877 25.8667 19.2281 24.593C18.0685 23.3193 17.4122 21.5902 17.4035 19.7861C17.3948 17.982 18.0345 16.2507 19.1818 14.973C20.3291 13.6953 21.89 12.9759 23.5213 12.9731L25.0589 12.9704L25.048 10.703C25.0465 10.4023 25.1531 10.1137 25.3443 9.90078C25.5356 9.68783 25.7957 9.56794 26.0676 9.56746C26.3395 9.56699 26.6008 9.68598 26.794 9.89826C26.9873 10.1105 27.0967 10.3987 27.0981 10.6994L27.1091 12.9669L28.1341 12.9651C29.7654 12.9622 31.3332 13.6762 32.4928 14.9499C33.6524 16.2236 34.3088 17.9527 34.3174 19.7568C34.3189 20.0574 34.2123 20.346 34.0211 20.5589C33.8298 20.7719 33.5697 20.8918 33.2978 20.8923C33.0259 20.8927 32.7646 20.7737 32.5714 20.5615C32.3781 20.3492 32.2687 20.061 32.2673 19.7603C32.2581 18.5587 31.8195 17.4082 31.0471 16.5599C30.2748 15.7116 29.2315 15.2344 28.1451 15.2325L23.5322 15.2405C22.4447 15.2424 21.4041 15.722 20.6392 16.5738C19.8743 17.4256 19.4479 18.5799 19.4537 19.7826C19.4595 20.9853 19.897 22.138 20.6701 22.9872C21.4431 23.8363 22.4884 24.3123 23.5759 24.3104L29.2138 24.3006C30.8451 24.2977 32.4129 25.0117 33.5725 26.2854C34.7321 27.5591 35.3884 29.2881 35.3971 31.0922Z" fill="#FCFCFD"/>
</svg>
