<svg width="26" height="21" viewBox="0 0 26 21" fill="none" xmlns="http://www.w3.org/2000/svg">
<path d="M2.97835 20.3975C2.29665 20.3995 1.71255 20.1531 1.22607 19.6585C0.738766 19.1629 0.494101 18.5666 0.492082 17.8694L0.448018 2.65782C0.445998 1.96062 0.687205 1.36329 1.17164 0.865815C1.65524 0.367498 2.23789 0.117353 2.9196 0.115378L22.751 0.0579315C23.4327 0.0559568 24.0172 0.302721 24.5045 0.798225C24.991 1.29289 25.2352 1.88882 25.2373 2.58601L25.2813 17.7976C25.2833 18.4948 25.0426 19.0925 24.5589 19.5909C24.0745 20.0883 23.4914 20.3381 22.8097 20.34L2.97835 20.3975ZM12.8683 11.4953L22.7657 5.12846L22.7583 2.59319L12.861 8.96008L2.92694 2.65064L2.93429 5.1859L12.8683 11.4953Z" fill="white"/>
</svg>
