<svg width="26" height="26" viewBox="0 0 26 26" fill="none" xmlns="http://www.w3.org/2000/svg">
<path d="M12.5885 0.976303C5.5979 0.996553 0.208676 6.13118 0.228674 13.035C0.239123 16.6418 1.72317 19.7734 4.14633 21.9107C4.34511 22.0712 4.46985 22.3435 4.48303 22.6162L4.55139 24.8222C4.60302 25.5286 5.31084 25.9851 5.95454 25.6982L8.40555 24.6128C8.61604 24.5378 8.85143 24.4999 9.06225 24.5365C10.1787 24.8679 11.4187 25.0255 12.6581 25.0219C19.6487 25.0016 25.0379 19.867 25.0179 12.9632C24.9979 6.05938 19.579 0.956053 12.5885 0.976303ZM20.052 10.2011L16.4372 16C15.8572 16.9064 14.6185 17.1455 13.7489 16.4663L10.8423 14.3305C10.7133 14.2343 10.5566 14.1826 10.3957 14.183C10.2348 14.1835 10.0783 14.2361 9.9499 14.3331L6.04182 17.3191C5.52243 17.7296 4.83893 17.1119 5.19672 16.5407L8.81158 10.7419C9.3915 9.8354 10.6303 9.59631 11.4998 10.2383L14.4064 12.4114C14.5354 12.5075 14.6922 12.5593 14.8531 12.5588C15.014 12.5583 15.1704 12.5057 15.2988 12.4088L19.2069 9.42273C19.7263 9.0122 20.4098 9.62995 20.052 10.2011Z" fill="white"/>
</svg>
