<svg width="33" height="33" viewBox="0 0 33 33" fill="none" xmlns="http://www.w3.org/2000/svg">
<path d="M16.1191 0.731484C7.09511 0.757624 0.138282 7.3858 0.164098 16.2978C0.177585 20.9537 2.0933 24.9962 5.22131 27.7552C5.47791 27.9624 5.63893 28.314 5.65595 28.6659L5.7442 31.5137C5.81084 32.4255 6.72455 33.0148 7.55548 32.6444L10.7194 31.2432C10.9912 31.1465 11.295 31.0976 11.5672 31.1448C13.0084 31.5726 14.609 31.776 16.209 31.7714C25.233 31.7452 32.1898 25.117 32.164 16.2051C32.1381 7.29311 25.143 0.705344 16.1191 0.731484ZM25.7536 12.6396L21.0873 20.1252C20.3387 21.2953 18.7395 21.604 17.617 20.7272L13.865 17.9701C13.6985 17.8459 13.4962 17.7792 13.2884 17.7798C13.0807 17.7804 12.8788 17.8483 12.713 17.9734L7.66815 21.8281C6.99768 22.358 6.11537 21.5605 6.57723 20.8232L11.2436 13.3377C11.9922 12.1675 13.5913 11.8589 14.7137 12.6876L18.4658 15.4927C18.6324 15.6169 18.8347 15.6837 19.0424 15.6831C19.2501 15.6825 19.452 15.6145 19.6178 15.4894L24.6627 11.6348C25.3332 11.1048 26.2155 11.9023 25.7536 12.6396Z" fill="white"/>
</svg>
