<svg width="22" height="22" viewBox="0 0 22 22" fill="none" xmlns="http://www.w3.org/2000/svg">
<path d="M7.33333 22C6.66111 22 6.08585 21.7609 5.60756 21.2826C5.12844 20.8034 4.88889 20.2278 4.88889 19.5556V7.33333C4.88889 6.66111 5.12844 6.08544 5.60756 5.60633C6.08585 5.12804 6.66111 4.88889 7.33333 4.88889H19.5556C20.2278 4.88889 20.8034 5.12804 21.2826 5.60633C21.7609 6.08544 22 6.66111 22 7.33333V19.5556C22 20.2278 21.7609 20.8034 21.2826 21.2826C20.8034 21.7609 20.2278 22 19.5556 22H7.33333ZM7.33333 9.77778H19.5556V7.33333H7.33333V9.77778ZM12.2222 14.6667H14.6667V12.2222H12.2222V14.6667ZM12.2222 19.5556H14.6667V17.1111H12.2222V19.5556ZM7.33333 14.6667H9.77778V12.2222H7.33333V14.6667ZM17.1111 14.6667H19.5556V12.2222H17.1111V14.6667ZM7.33333 19.5556H9.77778V17.1111H7.33333V19.5556ZM17.1111 19.5556H19.5556V17.1111H17.1111V19.5556ZM2.44444 17.1111C1.77222 17.1111 1.19656 16.872 0.717444 16.3937C0.239148 15.9146 0 15.3389 0 14.6667V2.44444C0 1.77222 0.239148 1.19656 0.717444 0.717444C1.19656 0.239148 1.77222 0 2.44444 0H14.6667C15.3389 0 15.9146 0.239148 16.3937 0.717444C16.872 1.19656 17.1111 1.77222 17.1111 2.44444V3.66667H14.6667V2.44444H2.44444V14.6667H3.66667V17.1111H2.44444Z" fill="#00BF71"/>
</svg>
