<svg width="1440" height="830" viewBox="0 350 1440 830" fill="none" xmlns="http://www.w3.org/2000/svg">
<path d="M-502.944 413.116C-514.079 371.068 -516.106 327.402 -460.569 301.105C-387.821 266.648 -233.315 271.734 -92.5245 295.511C48.2657 319.287 182.773 358.733 319.691 392.187C456.61 425.64 606.62 454.254 734.031 450.891C910.68 446.204 998.117 382 1162.54 367.122C1299.62 354.726 1485.52 380.812 1627.84 432.408" stroke="#6BDAAD" stroke-opacity="0.3" stroke-width="1.38241" stroke-miterlimit="10"/>
<path d="M-392.662 435.646C-403.199 395.859 -405.088 354.577 -352.589 329.683C-283.748 297.043 -137.535 301.914 -4.43726 324.388C128.66 346.862 255.995 384.28 385.382 415.802C514.768 447.324 656.82 474.53 777.297 471.402C944.405 466.96 1027.11 406.229 1182.63 392.145C1312.34 380.457 1488.19 405.098 1622.83 453.911" stroke="#6BDAAD" stroke-opacity="0.3" stroke-width="1.38241" stroke-miterlimit="10"/>
<path d="M-282.423 458.139C-292.327 420.637 -294.147 381.693 -244.489 358.259C-179.635 327.513 -41.7975 332.058 83.77 353.265C209.337 374.471 329.33 409.65 451.47 439.492C573.61 469.333 707.384 494.859 821.015 491.874C978.595 487.743 1056.39 430.399 1203.21 417.166C1325.52 406.105 1491.34 429.368 1618.27 475.39" stroke="#6BDAAD" stroke-opacity="0.3" stroke-width="1.38241" stroke-miterlimit="10"/>
<path d="M-172.187 480.642C-181.519 445.459 -183.304 408.734 -136.677 386.783C-75.7083 357.906 53.7321 362.168 171.728 382.099C289.723 402.03 402.412 435.075 517.141 463.107C631.871 491.139 757.569 515.124 864.313 512.275C1012.36 508.36 1085.63 454.547 1223.37 442.086C1338.24 431.688 1494.03 453.546 1613.28 496.8" stroke="#6BDAAD" stroke-opacity="0.3" stroke-width="1.38241" stroke-miterlimit="10"/>
<path d="M-61.9868 503.148C-70.7004 470.184 -72.273 435.97 -28.7792 415.338C28.2632 388.321 149.39 392.316 259.774 410.962C370.159 429.608 475.587 460.527 582.914 486.734C690.241 512.94 807.853 535.411 907.683 532.754C1046.19 529.084 1114.73 478.745 1243.77 467.12C1351.15 457.376 1496.84 477.888 1608.42 518.278" stroke="#6BDAAD" stroke-opacity="0.3" stroke-width="1.38241" stroke-miterlimit="10"/>
</svg>
