<svg width="282" height="204" viewBox="0 0 282 204" fill="none" xmlns="http://www.w3.org/2000/svg">
<path d="M6.85952 186.747L6.88444 195.35L5.32293 195.354L5.30329 188.572L3.23701 189.262L3.23336 188.001L6.68275 186.747L6.85952 186.747ZM12.7163 195.333L10.8661 195.338L10.8742 194.065L12.7127 194.06C13.2115 194.059 13.6296 193.948 13.9668 193.727C14.304 193.502 14.5584 193.181 14.73 192.764C14.9017 192.343 14.9866 191.84 14.9849 191.255L14.9837 190.813C14.9823 190.361 14.9321 189.962 14.8329 189.617C14.7337 189.272 14.5875 188.981 14.3943 188.746C14.2051 188.511 13.9708 188.333 13.6915 188.212C13.4123 188.091 13.0919 188.031 12.7305 188.032L10.8096 188.038L10.8059 186.759L12.7268 186.753C13.3004 186.752 13.8231 186.846 14.2951 187.038C14.771 187.229 15.1823 187.504 15.529 187.865C15.8797 188.221 16.148 188.649 16.3341 189.147C16.5241 189.645 16.62 190.203 16.6218 190.82L16.623 191.25C16.6248 191.863 16.5321 192.421 16.345 192.924C16.1619 193.424 15.896 193.853 15.5474 194.211C15.2027 194.57 14.7911 194.846 14.3124 195.04C13.8337 195.233 13.3017 195.331 12.7163 195.333ZM11.7487 186.756L11.7735 195.336L10.1531 195.34L10.1283 186.761L11.7487 186.756Z" fill="#0A1048" fill-opacity="0.9"/>
<path d="M50.5202 186.62L50.5451 195.223L48.9836 195.228L48.9639 188.446L46.8977 189.135L46.894 187.874L50.3434 186.621L50.5202 186.62ZM55.9185 193.564L57.6072 186.623L58.5323 186.621L58.5955 188.082L56.7895 195.205L55.8113 195.208L55.9185 193.564ZM54.8201 186.631L56.2425 193.539L56.2473 195.207L55.1808 195.21L53.2114 186.636L54.8201 186.631ZM60.3848 193.498L61.7437 186.611L63.3583 186.607L61.4386 195.192L60.3721 195.195L60.3848 193.498ZM58.9743 186.619L60.7033 193.573L60.8081 195.194L59.83 195.196L57.9886 188.078L58.0551 186.622L58.9743 186.619Z" fill="#0A1048" fill-opacity="0.9"/>
<path d="M97.1813 186.485L97.2062 195.088L95.6447 195.093L95.6251 188.31L93.5588 189L93.5551 187.739L97.0045 186.486L97.1813 186.485ZM101.157 186.497L102.56 186.493L104.923 192.944L107.244 186.48L108.652 186.475L105.489 195.064L104.364 195.067L101.157 186.497ZM100.45 186.499L101.823 186.495L102.088 192.428L102.095 195.074L100.475 195.079L100.45 186.499ZM107.981 186.477L109.359 186.473L109.384 195.053L107.764 195.058L107.756 192.412L107.981 186.477Z" fill="#0A1048" fill-opacity="0.9"/>
<rect x="139.191" y="177.644" width="40.7289" height="25.6442" rx="6.03392" transform="rotate(-0.16597 139.191 177.644)" fill="#0A1048" fill-opacity="0.9"/>
<path d="M152.109 190.153L152.987 190.151C153.297 190.15 153.552 190.096 153.752 189.989C153.956 189.879 154.107 189.729 154.205 189.54C154.306 189.347 154.357 189.125 154.356 188.874C154.355 188.626 154.309 188.413 154.218 188.232C154.128 188.048 153.99 187.907 153.805 187.809C153.624 187.707 153.392 187.657 153.109 187.658C152.881 187.658 152.671 187.704 152.479 187.795C152.291 187.886 152.14 188.016 152.026 188.185C151.917 188.351 151.862 188.549 151.863 188.781L150.301 188.786C150.3 188.322 150.421 187.915 150.663 187.565C150.91 187.21 151.243 186.933 151.663 186.731C152.082 186.529 152.551 186.428 153.07 186.426C153.636 186.425 154.131 186.518 154.556 186.705C154.984 186.888 155.317 187.16 155.554 187.521C155.795 187.882 155.916 188.329 155.917 188.864C155.918 189.119 155.858 189.374 155.737 189.63C155.62 189.882 155.446 190.11 155.214 190.315C154.987 190.516 154.707 190.68 154.373 190.807C154.044 190.929 153.665 190.991 153.236 190.993L152.111 190.996L152.109 190.153ZM152.112 191.355L152.11 190.524L153.235 190.521C153.718 190.52 154.137 190.576 154.491 190.688C154.848 190.797 155.144 190.954 155.376 191.157C155.608 191.357 155.78 191.59 155.891 191.857C156.005 192.124 156.063 192.41 156.064 192.717C156.065 193.118 155.992 193.475 155.843 193.79C155.695 194.101 155.485 194.364 155.215 194.581C154.948 194.798 154.635 194.964 154.274 195.079C153.912 195.19 153.522 195.246 153.101 195.247C152.736 195.248 152.38 195.2 152.034 195.103C151.692 195.002 151.384 194.852 151.108 194.652C150.832 194.449 150.614 194.194 150.452 193.888C150.29 193.578 150.208 193.219 150.207 192.81L151.769 192.806C151.769 193.042 151.827 193.252 151.941 193.436C152.06 193.62 152.221 193.765 152.426 193.871C152.634 193.972 152.868 194.022 153.127 194.022C153.414 194.021 153.66 193.969 153.863 193.866C154.071 193.76 154.23 193.61 154.339 193.417C154.449 193.22 154.503 192.987 154.502 192.715C154.502 192.393 154.44 192.132 154.317 191.932C154.195 191.732 154.02 191.585 153.792 191.492C153.568 191.398 153.3 191.352 152.99 191.353L152.112 191.355ZM158.378 186.535L159.78 186.531L162.144 192.982L164.465 186.517L165.873 186.513L162.71 195.102L161.585 195.105L158.378 186.535ZM157.671 186.537L159.044 186.533L159.308 192.466L159.316 195.112L157.696 195.116L157.671 186.537ZM165.201 186.515L166.58 186.511L166.605 195.09L164.985 195.095L164.977 192.449L165.201 186.515Z" fill="white" fill-opacity="0.9"/>
<path d="M213.232 186.149L213.257 194.752L211.695 194.756L211.676 187.974L209.61 188.663L209.606 187.402L213.055 186.149L213.232 186.149ZM217.503 186.16L219.4 190.155L221.286 186.149L223.065 186.144L220.229 191.591L220.238 194.731L218.594 194.736L218.585 191.596L215.711 186.165L217.503 186.16Z" fill="#0A1048" fill-opacity="0.9"/>
<path d="M2.40508 63.9515L24.7734 108.977C25.2216 109.879 26.4113 110.097 27.15 109.412L48.739 89.3918L70.0415 114.833C70.8341 115.78 72.3662 115.425 72.6625 114.227L94.8116 24.6057L118.054 63.2462L141.216 74.5469L163.382 98.0568C163.954 98.6634 164.909 98.6911 165.516 98.1186L187.485 77.3671L210.489 33.7256L233.531 3.50723L256.059 58.8072C256.441 59.7455 257.621 60.0477 258.407 59.4087L279.903 41.9371" stroke="#0A1048" stroke-opacity="0.9" stroke-width="3.01696" stroke-linecap="round"/>
<circle cx="207.649" cy="16.792" r="3.7712" transform="rotate(-0.16597 207.649 16.792)" fill="#4C5BE7"/>
</svg>
