<svg width="208" height="18" viewBox="0 0 208 18" fill="none" xmlns="http://www.w3.org/2000/svg">
<path d="M2.73994 15.5264L5.36494 15.5232L5.36959 10.0262L10.6196 10.0199L10.6149 15.517L13.2399 15.5139L13.2469 7.26828L8.0004 3.1517L2.74691 7.28073L2.73994 15.5264ZM2.73839 17.3587C2.25714 17.3593 1.84546 17.1805 1.50335 16.8224C1.16065 16.4636 0.989514 16.0323 0.989941 15.5284L0.996916 7.28281C0.997161 6.99268 1.05952 6.71776 1.18399 6.45802C1.30787 6.19829 1.47926 5.98431 1.69816 5.81609L6.95164 1.68705C7.11216 1.56471 7.27994 1.47289 7.455 1.4116C7.63005 1.35032 7.81236 1.31956 8.00195 1.31934C8.19153 1.31911 8.3738 1.34943 8.54875 1.41031C8.72369 1.47118 8.89132 1.5626 9.05164 1.68456L14.2981 5.80115C14.5168 5.96886 14.6881 6.18243 14.8121 6.44186C14.9356 6.7013 14.9972 6.97608 14.9969 7.26621L14.9899 15.5118C14.9895 16.0157 14.8179 16.4474 14.4752 16.807C14.1319 17.1659 13.7196 17.3457 13.2384 17.3463L8.86339 17.3514L8.86804 11.8544L7.11804 11.8564L7.11339 17.3535L2.73839 17.3587Z" fill="#FCFCFD"/>
<path d="M71.8039 8.42473L71.8103 0.894341C73.736 1.10359 75.3617 1.90546 76.6874 3.29997C78.0126 4.69448 78.782 6.39989 78.9958 8.4162L71.8039 8.42473ZM70.2002 17.6281C68.1532 17.419 66.4403 16.5185 65.0614 14.9266C63.6821 13.3348 62.9933 11.453 62.9951 9.28129C62.997 7.0955 63.6889 5.20503 65.071 3.60989C66.4526 2.01474 68.167 1.11019 70.2143 0.896233L70.2002 17.6281ZM71.7961 17.6262L71.8025 10.0958L78.9944 10.0873C78.8041 12.1041 78.0383 13.815 76.6967 15.22C75.3557 16.6244 73.7222 17.4265 71.7961 17.6262V17.6262Z" fill="#007545"/>
<path fill-rule="evenodd" clip-rule="evenodd" d="M140.601 2.47753C141.237 2.47677 141.847 2.7408 142.297 3.21154C142.747 3.68228 142.999 4.32116 142.999 4.98763L142.992 13.3641C142.991 14.0306 142.738 14.6701 142.287 15.1419C141.837 15.6137 141.226 15.8792 140.589 15.8799L129.389 15.8932C128.753 15.894 128.143 15.6299 127.693 15.1592C127.243 14.6885 126.991 14.0496 126.992 13.3831L126.999 5.0066C126.999 4.34013 127.253 3.70065 127.703 3.22885C128.154 2.75704 128.764 2.49156 129.401 2.49081L140.601 2.47753ZM141.397 7.18836L135.797 7.195C135.355 7.19552 134.872 6.84428 134.719 6.41056L133.923 4.16074L129.399 4.16611C129.187 4.16636 128.984 4.25485 128.833 4.41212C128.683 4.56939 128.599 4.78255 128.599 5.00471L128.592 13.3812C128.591 13.6034 128.675 13.8163 128.825 13.9732C128.975 14.1302 129.179 14.2182 129.391 14.2179L140.591 14.2046C140.803 14.2044 141.007 14.1159 141.157 13.9586C141.307 13.8014 141.391 13.5882 141.392 13.366L141.397 7.18836Z" fill="#FCFCFD"/>
<path d="M200.628 0.512512C200.752 0.512369 200.873 0.553484 200.973 0.629934C201.073 0.706385 201.148 0.814226 201.185 0.937927L201.829 3.03562C202.099 3.17405 202.358 3.32968 202.606 3.50498L204.665 3.0384C204.787 3.01111 204.913 3.02487 205.027 3.0777C205.14 3.13052 205.234 3.21968 205.296 3.33234L206.919 6.27611C206.981 6.38871 207.007 6.51907 206.994 6.64841C206.98 6.77774 206.928 6.89937 206.844 6.99574L205.43 8.63051C205.45 8.94363 205.45 9.25789 205.429 9.57107L206.841 11.2049C206.924 11.3011 206.976 11.4226 206.989 11.5519C207.003 11.6812 206.976 11.8117 206.914 11.9244L205.286 14.8732C205.224 14.9858 205.13 15.075 205.016 15.1278C204.903 15.1807 204.776 15.1946 204.655 15.1675L202.596 14.7058C202.35 14.8804 202.089 15.0379 201.82 15.177L201.172 17.2762C201.133 17.4 201.059 17.508 200.958 17.5847C200.858 17.6614 200.737 17.7028 200.613 17.7029L197.362 17.7068C197.238 17.7069 197.117 17.6658 197.017 17.5894C196.917 17.5129 196.842 17.4051 196.804 17.2814L196.162 15.1849C195.892 15.0469 195.632 14.8892 195.383 14.7131L193.324 15.1809C193.203 15.2082 193.077 15.1944 192.963 15.1416C192.85 15.0888 192.756 14.9996 192.694 14.887L191.071 11.9432C191.009 11.8306 190.983 11.7002 190.996 11.5709C191.01 11.4416 191.062 11.3199 191.145 11.2235L192.56 9.58633C192.54 9.27402 192.54 8.96058 192.561 8.64822L191.149 7.01435C191.066 6.91817 191.014 6.79667 191 6.66737C190.987 6.53807 191.014 6.40764 191.076 6.2949L192.704 3.34604C192.766 3.23346 192.86 3.14433 192.974 3.09147C193.087 3.0386 193.213 3.02472 193.335 3.05183L195.392 3.51476C195.641 3.33888 195.902 3.18017 196.173 3.0411L196.819 0.943104C196.857 0.819711 196.932 0.71198 197.032 0.635329C197.131 0.558678 197.252 0.517038 197.376 0.516368L200.626 0.512514L200.628 0.512512ZM200.197 1.74091L197.805 1.74374L197.137 3.91421L196.688 4.14436C196.467 4.25775 196.254 4.38683 196.049 4.53067L195.634 4.82586L193.505 4.34705L192.307 6.51937L193.765 8.20967L193.73 8.73033C193.713 8.98709 193.713 9.24473 193.729 9.50145L193.764 10.022L192.3 11.7158L193.496 13.8853L195.626 13.4026L196.041 13.6956C196.244 13.839 196.457 13.9675 196.678 14.0804L197.127 14.3095L197.793 16.4784L200.187 16.4755L200.857 14.3038L201.306 14.0749C201.526 13.9618 201.739 13.8327 201.943 13.6886L202.357 13.3947L204.487 13.8722L205.685 11.6999L204.226 10.0096L204.261 9.48896C204.278 9.2318 204.279 8.97374 204.262 8.71662L204.227 8.19604L205.691 6.5035L204.495 4.33402L202.364 4.81542L201.95 4.52367C201.747 4.38002 201.535 4.25144 201.314 4.13887L200.866 3.91102L200.198 1.74091L200.197 1.74091ZM198.998 5.42599C199.931 5.42488 200.826 5.81192 201.485 6.50196C202.144 7.19199 202.514 8.12851 202.513 9.10547C202.512 10.0824 202.141 11.0198 201.48 11.7114C200.82 12.403 199.925 12.7922 198.992 12.7933C198.059 12.7944 197.164 12.4074 196.505 11.7173C195.846 11.0273 195.476 10.0908 195.477 9.11382C195.478 8.13685 195.849 7.19946 196.509 6.50786C197.17 5.81625 198.065 5.42709 198.998 5.42599V5.42599ZM198.997 6.65387C198.375 6.65461 197.778 6.91405 197.338 7.37512C196.898 7.83619 196.65 8.46112 196.65 9.11243C196.649 9.76374 196.896 10.3881 197.335 10.8481C197.774 11.3081 198.371 11.5662 198.993 11.5654C199.615 11.5647 200.212 11.3052 200.652 10.8442C201.092 10.3831 201.34 9.75818 201.34 9.10687C201.341 8.45555 201.094 7.83121 200.655 7.37119C200.215 6.91116 199.619 6.65314 198.997 6.65387V6.65387Z" fill="#FCFCFD"/>
</svg>
