<svg width="217" height="252" viewBox="19 25 172 252" fill="none" xmlns="http://www.w3.org/2000/svg">
<g filter="url(#filter0_d_848_369)">
<rect x="20" y="14.4805" width="165.933" height="211.187" rx="6.03392" transform="rotate(-0.16597 20 14.4805)" fill="white"/>
</g>
<path d="M135.37 117.359C136.956 118.694 139.32 118.58 140.629 116.973C145.893 110.51 149.18 102.797 150.093 94.6675C151.14 85.3467 149.013 75.9557 144.018 67.8374C139.022 59.7192 131.413 53.2897 122.278 49.4684C114.378 46.1633 105.687 44.9558 97.1477 45.94C94.9508 46.1933 93.561 48.3416 94.0455 50.4994L96.6559 62.1255C97.1229 64.2053 99.1644 65.5044 101.292 65.3802C105.525 65.1332 109.779 65.8451 113.685 67.4792C118.764 69.6039 122.995 73.1789 125.772 77.6928C128.55 82.2067 129.732 87.4284 129.15 92.6109C128.721 96.4295 127.351 100.083 125.171 103.292C123.894 105.171 124.003 107.787 125.741 109.25L135.37 117.359Z" fill="#2BF1A0"/>
<path d="M88.3523 50.4677C87.5661 48.5141 85.3719 47.5116 83.4458 48.3629C74.7485 52.2073 67.4732 58.4518 62.6259 66.2969C57.8302 74.0586 55.6695 82.9691 56.3748 91.8515C56.5442 93.985 58.5493 95.4146 60.6652 95.0923L73.676 93.1103C75.8536 92.7785 77.2988 90.7154 77.3024 88.5127C77.3093 84.2026 78.5206 79.9436 80.8507 76.1724C83.2029 72.3654 86.5835 69.2363 90.6205 67.0807C92.5944 66.0267 93.6764 63.6966 92.841 61.6207L88.3523 50.4677Z" fill="#BFC3C8"/>
<path d="M60.5301 98.6762C58.3619 99.1182 56.9686 101.27 57.6723 103.367C59.6949 109.397 63.0733 114.968 67.5985 119.697C73.081 125.426 80.0587 129.722 87.8482 132.165C95.6377 134.608 103.972 135.114 112.034 133.632C118.688 132.41 124.968 129.869 130.462 126.198C132.35 124.936 132.54 122.299 131.004 120.626L122.606 111.478C121.204 109.95 118.871 109.803 117.091 110.866C114.32 112.52 111.234 113.68 107.989 114.276C103.506 115.1 98.872 114.819 94.5408 113.46C90.2097 112.102 86.33 109.713 83.2816 106.528C81.1406 104.29 79.4613 101.714 78.3153 98.9303C77.5044 96.9603 75.4879 95.6274 73.4004 96.0529L60.5301 98.6762Z" fill="#3F51FD" fill-opacity="0.9"/>
<path d="M134.031 77.6048L133.409 77.4563L133.642 75.2901L136.001 75.2833L136.003 75.9285L134.289 75.9335L134.18 76.9355C134.24 76.898 134.329 76.8605 134.444 76.8228C134.562 76.7832 134.695 76.7632 134.842 76.7627C135.046 76.7622 135.229 76.795 135.39 76.8613C135.552 76.9257 135.688 77.0196 135.801 77.143C135.915 77.2664 136.001 77.4174 136.058 77.596C136.118 77.7726 136.148 77.9728 136.148 78.1967C136.149 78.3931 136.12 78.5779 136.062 78.7509C136.005 78.9219 135.918 79.0744 135.801 79.2083C135.683 79.3402 135.535 79.4448 135.357 79.5219C135.178 79.5971 134.968 79.635 134.727 79.6357C134.544 79.6362 134.368 79.6102 134.199 79.5577C134.032 79.5031 133.881 79.424 133.747 79.3203C133.614 79.2146 133.506 79.0853 133.425 78.9323C133.346 78.7794 133.302 78.6037 133.294 78.4053L134.063 78.4031C134.077 78.5347 134.113 78.6465 134.17 78.7387C134.227 78.8308 134.302 78.9013 134.395 78.9502C134.489 78.999 134.598 79.0232 134.722 79.0229C134.834 79.0225 134.93 79.0016 135.01 78.9602C135.093 78.9167 135.16 78.8566 135.213 78.7799C135.266 78.7031 135.305 78.6126 135.33 78.5085C135.355 78.4043 135.368 78.2903 135.368 78.1666C135.367 78.0468 135.352 77.9378 135.322 77.8397C135.293 77.7396 135.247 77.6533 135.186 77.5808C135.125 77.5083 135.048 77.4526 134.956 77.4135C134.865 77.3745 134.759 77.3552 134.637 77.3555C134.474 77.356 134.349 77.3809 134.261 77.4303C134.174 77.4796 134.098 77.5378 134.031 77.6048ZM139.545 77.0496L139.547 77.7715C139.548 78.1014 139.516 78.3834 139.449 78.6173C139.383 78.8513 139.288 79.043 139.162 79.1927C139.037 79.3404 138.887 79.4498 138.713 79.521C138.538 79.5903 138.344 79.6252 138.129 79.6258C137.959 79.6263 137.799 79.6052 137.652 79.5624C137.505 79.5176 137.372 79.4493 137.254 79.3573C137.137 79.2634 137.037 79.1438 136.952 78.9987C136.869 78.8536 136.805 78.68 136.759 78.4778C136.715 78.2756 136.693 78.0429 136.692 77.7797L136.69 77.0579C136.689 76.7279 136.722 76.447 136.788 76.215C136.856 75.983 136.953 75.7932 137.078 75.6455C137.203 75.4978 137.353 75.3904 137.528 75.3231C137.702 75.2538 137.897 75.2189 138.111 75.2183C138.284 75.2178 138.443 75.2389 138.588 75.2817C138.736 75.3245 138.868 75.3919 138.984 75.4839C139.102 75.5739 139.202 75.6914 139.285 75.8365C139.368 75.9797 139.431 76.1523 139.475 76.3545C139.521 76.5547 139.544 76.7864 139.545 77.0496ZM138.77 77.8798L138.767 76.9429C138.766 76.7779 138.756 76.6345 138.736 76.5128C138.718 76.3891 138.691 76.2841 138.656 76.1978C138.62 76.1115 138.576 76.0419 138.523 75.989C138.469 75.9342 138.408 75.8941 138.34 75.8687C138.271 75.8434 138.195 75.8308 138.113 75.8311C138.01 75.8314 137.919 75.8523 137.839 75.8938C137.758 75.9333 137.691 75.9963 137.636 76.0829C137.581 76.1695 137.539 76.2845 137.51 76.428C137.483 76.5695 137.47 76.7424 137.471 76.9466L137.473 77.8835C137.474 78.0485 137.483 78.1929 137.501 78.3166C137.521 78.4402 137.549 78.5462 137.584 78.6345C137.622 78.7228 137.666 78.7953 137.718 78.8522C137.771 78.907 137.832 78.9481 137.901 78.9754C137.97 79.0007 138.045 79.0132 138.128 79.013C138.232 79.0127 138.323 78.9918 138.402 78.9503C138.482 78.9089 138.55 78.8438 138.604 78.7553C138.659 78.6648 138.7 78.5478 138.727 78.4043C138.756 78.2589 138.77 78.0841 138.77 77.8798ZM140.129 76.3232L140.129 76.0963C140.128 75.9333 140.163 75.7849 140.233 75.6511C140.304 75.5173 140.407 75.41 140.542 75.3291C140.679 75.2482 140.846 75.2074 141.042 75.2068C141.243 75.2063 141.411 75.246 141.546 75.3262C141.684 75.4063 141.788 75.513 141.857 75.6464C141.928 75.7798 141.964 75.928 141.964 76.091L141.965 76.3178C141.965 76.4769 141.93 76.6234 141.86 76.7571C141.792 76.8909 141.69 76.9982 141.554 77.0792C141.419 77.1601 141.252 77.2008 141.054 77.2014C140.856 77.202 140.688 77.1622 140.55 77.0821C140.412 77.002 140.308 76.8952 140.237 76.7618C140.165 76.6285 140.13 76.4823 140.129 76.3232ZM140.656 76.0948L140.657 76.3216C140.657 76.3963 140.671 76.4669 140.698 76.5336C140.728 76.5984 140.772 76.6513 140.832 76.6924C140.891 76.7334 140.964 76.7538 141.053 76.7536C141.141 76.7533 141.213 76.7325 141.268 76.6911C141.324 76.6497 141.366 76.5965 141.394 76.5316C141.423 76.4648 141.438 76.394 141.437 76.3194L141.437 76.0925C141.437 76.0159 141.422 75.9443 141.392 75.8776C141.364 75.8109 141.321 75.757 141.262 75.7159C141.205 75.6748 141.132 75.6544 141.044 75.6547C140.957 75.6549 140.885 75.6757 140.826 75.7172C140.769 75.7586 140.726 75.8127 140.697 75.8796C140.669 75.9464 140.656 76.0182 140.656 76.0948ZM142.196 78.7302L142.195 78.5033C142.195 78.3422 142.229 78.1948 142.3 78.0611C142.372 77.9273 142.477 77.8199 142.614 77.739C142.751 77.6581 142.917 77.6173 143.112 77.6168C143.314 77.6162 143.483 77.656 143.619 77.7361C143.755 77.8162 143.857 77.923 143.926 78.0564C143.997 78.1897 144.033 78.3369 144.033 78.498L144.034 78.7248C144.035 78.8859 144 79.0333 143.929 79.1671C143.861 79.3008 143.759 79.4082 143.624 79.4891C143.491 79.57 143.325 79.6108 143.126 79.6113C142.928 79.6119 142.759 79.5721 142.619 79.492C142.481 79.4119 142.376 79.3051 142.303 79.1718C142.232 79.0384 142.196 78.8912 142.196 78.7302ZM142.725 78.5018L142.726 78.7286C142.726 78.8052 142.742 78.8769 142.774 78.9436C142.805 79.0083 142.851 79.0612 142.91 79.1023C142.971 79.1433 143.042 79.1638 143.122 79.1635C143.22 79.1632 143.298 79.1424 143.355 79.101C143.411 79.0596 143.452 79.0064 143.475 78.9415C143.498 78.8747 143.51 78.803 143.51 78.7264L143.509 78.4995C143.509 78.4229 143.494 78.3522 143.464 78.2875C143.435 78.2208 143.39 78.1669 143.331 78.1258C143.274 78.0848 143.201 78.0643 143.113 78.0646C143.027 78.0649 142.954 78.0857 142.895 78.1271C142.838 78.1685 142.795 78.2227 142.766 78.2895C142.739 78.3544 142.725 78.4252 142.725 78.5018ZM143.301 75.875L141.216 79.2339L140.829 79.0199L142.914 75.661L143.301 75.875Z" fill="white"/>
<path d="M93.4739 122.464L93.9129 122.463C94.0681 122.462 94.1957 122.435 94.2957 122.382C94.3977 122.327 94.4731 122.252 94.5219 122.157C94.5727 122.061 94.5979 121.95 94.5976 121.824C94.5972 121.701 94.5743 121.594 94.5289 121.503C94.4834 121.411 94.4145 121.341 94.322 121.292C94.2315 121.241 94.1156 121.216 93.9741 121.216C93.8602 121.217 93.7552 121.239 93.6591 121.285C93.5649 121.33 93.4895 121.395 93.4328 121.48C93.378 121.563 93.3508 121.662 93.3512 121.778L92.5704 121.78C92.5697 121.548 92.63 121.345 92.7513 121.17C92.8745 120.993 93.0411 120.854 93.251 120.753C93.4608 120.652 93.6954 120.601 93.9547 120.601C94.2375 120.6 94.4851 120.646 94.6975 120.74C94.9119 120.831 95.0783 120.967 95.1966 121.148C95.317 121.328 95.3775 121.552 95.3783 121.819C95.3787 121.947 95.3486 122.075 95.2881 122.202C95.2295 122.328 95.1425 122.442 95.0269 122.545C94.9132 122.645 94.773 122.727 94.6063 122.791C94.4414 122.852 94.252 122.883 94.0379 122.884L93.4752 122.885L93.4739 122.464ZM93.4757 123.065L93.4745 122.65L94.0372 122.648C94.2788 122.647 94.4881 122.675 94.665 122.732C94.8439 122.786 94.9915 122.864 95.1076 122.966C95.2238 123.066 95.3096 123.182 95.365 123.316C95.4223 123.449 95.4512 123.593 95.4517 123.746C95.4522 123.946 95.4154 124.125 95.3413 124.282C95.2671 124.438 95.1624 124.57 95.0271 124.678C94.8939 124.786 94.737 124.869 94.5565 124.927C94.3759 124.982 94.1806 125.01 93.9704 125.011C93.7877 125.012 93.6099 124.988 93.4369 124.939C93.2659 124.888 93.1115 124.813 92.9737 124.713C92.8359 124.612 92.7265 124.484 92.6456 124.331C92.5646 124.176 92.5238 123.997 92.5232 123.793L93.304 123.79C93.3043 123.908 93.3331 124.013 93.3903 124.105C93.4495 124.197 93.5302 124.27 93.6325 124.323C93.7368 124.373 93.8537 124.399 93.9834 124.398C94.1267 124.398 94.2494 124.372 94.3514 124.32C94.4554 124.267 94.5347 124.192 94.5894 124.096C94.6441 123.998 94.6713 123.881 94.6709 123.745C94.6704 123.584 94.6396 123.453 94.5784 123.353C94.5172 123.253 94.4296 123.18 94.3156 123.133C94.2035 123.086 94.0698 123.063 93.9147 123.064L93.4757 123.065ZM96.843 122.97L96.2209 122.821L96.4533 120.655L98.8132 120.648L98.8151 121.294L97.1004 121.298L96.9913 122.301C97.0521 122.263 97.1404 122.225 97.2561 122.188C97.3739 122.148 97.5064 122.128 97.6537 122.128C97.858 122.127 98.0408 122.16 98.202 122.226C98.3633 122.291 98.5 122.385 98.6124 122.508C98.7266 122.631 98.8125 122.782 98.87 122.961C98.9294 123.138 98.9595 123.338 98.9601 123.562C98.9607 123.758 98.9318 123.943 98.8733 124.116C98.8169 124.287 98.7299 124.439 98.6124 124.573C98.495 124.705 98.347 124.81 98.1685 124.887C97.9899 124.962 97.7799 125 97.5383 125.001C97.3556 125.001 97.1798 124.975 97.0107 124.923C96.8436 124.868 96.6931 124.789 96.5592 124.685C96.4254 124.58 96.3179 124.45 96.237 124.297C96.158 124.144 96.1142 123.969 96.1058 123.77L96.8748 123.768C96.8889 123.9 96.9246 124.012 96.9818 124.104C97.039 124.196 97.1139 124.266 97.2063 124.315C97.3008 124.364 97.4098 124.388 97.5336 124.388C97.6455 124.388 97.7417 124.367 97.8221 124.325C97.9045 124.282 97.9721 124.222 98.0249 124.145C98.0777 124.068 98.1167 123.978 98.142 123.873C98.1672 123.769 98.1796 123.655 98.1793 123.532C98.1789 123.412 98.1639 123.303 98.1341 123.205C98.1044 123.105 98.059 123.018 97.9979 122.946C97.9368 122.873 97.86 122.818 97.7676 122.779C97.6771 122.74 97.571 122.72 97.4492 122.721C97.2862 122.721 97.1605 122.746 97.0723 122.795C96.986 122.845 96.9096 122.903 96.843 122.97ZM99.4939 121.698L99.4932 121.471C99.4928 121.308 99.5277 121.16 99.598 121.026C99.6683 120.892 99.7711 120.785 99.9064 120.704C100.044 120.623 100.211 120.582 100.407 120.582C100.607 120.581 100.775 120.621 100.911 120.701C101.049 120.781 101.152 120.888 101.221 121.021C101.292 121.155 101.328 121.303 101.329 121.466L101.329 121.693C101.33 121.852 101.295 121.998 101.225 122.132C101.156 122.266 101.054 122.373 100.919 122.454C100.784 122.535 100.617 122.576 100.419 122.576C100.22 122.577 100.052 122.537 99.9145 122.457C99.7767 122.377 99.6723 122.27 99.6012 122.137C99.5301 122.003 99.4943 121.857 99.4939 121.698ZM100.021 121.47L100.021 121.697C100.021 121.771 100.035 121.842 100.063 121.909C100.093 121.973 100.137 122.026 100.196 122.067C100.255 122.108 100.329 122.129 100.417 122.129C100.506 122.128 100.577 122.107 100.632 122.066C100.689 122.025 100.731 121.972 100.758 121.907C100.788 121.84 100.802 121.769 100.802 121.694L100.801 121.467C100.801 121.391 100.786 121.319 100.757 121.253C100.729 121.186 100.685 121.132 100.626 121.091C100.569 121.05 100.497 121.029 100.408 121.03C100.322 121.03 100.249 121.051 100.19 121.092C100.134 121.134 100.091 121.188 100.061 121.255C100.034 121.321 100.02 121.393 100.021 121.47ZM101.56 124.105L101.56 123.878C101.559 123.717 101.594 123.57 101.664 123.436C101.737 123.302 101.841 123.195 101.979 123.114C102.116 123.033 102.282 122.992 102.476 122.992C102.679 122.991 102.848 123.031 102.983 123.111C103.119 123.191 103.222 123.298 103.291 123.431C103.362 123.565 103.398 123.712 103.398 123.873L103.399 124.1C103.399 124.261 103.364 124.408 103.294 124.542C103.226 124.676 103.124 124.783 102.988 124.864C102.855 124.945 102.689 124.986 102.491 124.986C102.293 124.987 102.124 124.947 101.984 124.867C101.846 124.787 101.741 124.68 101.668 124.547C101.597 124.413 101.561 124.266 101.56 124.105ZM102.09 123.877L102.091 124.104C102.091 124.18 102.107 124.252 102.138 124.319C102.17 124.383 102.215 124.436 102.274 124.477C102.335 124.518 102.406 124.539 102.487 124.539C102.585 124.538 102.662 124.517 102.719 124.476C102.776 124.435 102.816 124.381 102.84 124.317C102.863 124.25 102.875 124.178 102.874 124.101L102.874 123.874C102.873 123.798 102.859 123.727 102.829 123.662C102.799 123.596 102.755 123.542 102.696 123.501C102.639 123.46 102.566 123.439 102.478 123.44C102.391 123.44 102.319 123.461 102.26 123.502C102.203 123.543 102.16 123.598 102.131 123.665C102.103 123.729 102.09 123.8 102.09 123.877ZM102.666 121.25L100.581 124.609L100.194 124.395L102.279 121.036L102.666 121.25Z" fill="white"/>
<path d="M68.8134 72.6374L68.8259 76.9389L68.0451 76.9412L68.0353 73.5501L67.0022 73.8948L67.0004 73.2643L68.7251 72.6377L68.8134 72.6374ZM71.0358 74.9585L70.4137 74.8101L70.646 72.6439L73.006 72.637L73.0078 73.2823L71.2931 73.2872L71.1841 74.2893C71.2449 74.2518 71.3331 74.2142 71.4489 74.1766C71.5666 74.1369 71.6992 74.1169 71.8465 74.1165C72.0508 74.1159 72.2335 74.1488 72.3948 74.2151C72.556 74.2794 72.6928 74.3733 72.8051 74.4967C72.9194 74.6201 73.0053 74.7711 73.0628 74.9497C73.1222 75.1263 73.1522 75.3266 73.1529 75.5505C73.1535 75.7469 73.1245 75.9316 73.0661 76.1046C73.0096 76.2757 72.9227 76.4281 72.8052 76.5621C72.6877 76.694 72.5397 76.7985 72.3612 76.8756C72.1827 76.9508 71.9727 76.9887 71.7311 76.9894C71.5484 76.99 71.3725 76.9639 71.2035 76.9114C71.0363 76.8569 70.8859 76.7778 70.752 76.6741C70.6181 76.5684 70.5107 76.4391 70.4297 76.2861C70.3507 76.1331 70.307 75.9574 70.2986 75.7591L71.0675 75.7569C71.0817 75.8884 71.1173 76.0003 71.1746 76.0924C71.2318 76.1846 71.3066 76.2551 71.3991 76.3039C71.4935 76.3527 71.6026 76.377 71.7263 76.3766C71.8383 76.3763 71.9345 76.3554 72.0149 76.3139C72.0973 76.2705 72.1648 76.2104 72.2177 76.1336C72.2705 76.0568 72.3095 75.9664 72.3347 75.8622C72.36 75.758 72.3724 75.6441 72.372 75.5203C72.3717 75.4005 72.3566 75.2915 72.3269 75.1934C72.2971 75.0933 72.2517 75.007 72.1906 74.9345C72.1295 74.8621 72.0528 74.8063 71.9603 74.7673C71.8699 74.7283 71.7637 74.7089 71.642 74.7093C71.4789 74.7097 71.3533 74.7347 71.2651 74.784C71.1788 74.8334 71.1023 74.8915 71.0358 74.9585ZM73.6866 73.6869L73.686 73.46C73.6855 73.297 73.7204 73.1486 73.7908 73.0148C73.8611 72.8811 73.9639 72.7737 74.0992 72.6928C74.2365 72.6119 74.4033 72.5711 74.5997 72.5706C74.8 72.57 74.9681 72.6098 75.1039 72.6899C75.2416 72.77 75.345 72.8768 75.4141 73.0101C75.4852 73.1435 75.521 73.2917 75.5215 73.4547L75.5222 73.6816C75.5226 73.8407 75.4877 73.9871 75.4174 74.1209C75.349 74.2546 75.2472 74.362 75.1119 74.4429C74.9766 74.5238 74.8098 74.5646 74.6114 74.5651C74.413 74.5657 74.2449 74.5259 74.1072 74.4458C73.9695 74.3657 73.8651 74.2589 73.794 74.1256C73.7229 73.9922 73.6871 73.846 73.6866 73.6869ZM74.2134 73.4585L74.214 73.6854C74.2142 73.76 74.2282 73.8307 74.2559 73.8974C74.2855 73.9621 74.3299 74.015 74.3889 74.0561C74.448 74.0972 74.5217 74.1176 74.6101 74.1173C74.6985 74.1171 74.7701 74.0962 74.825 74.0548C74.8818 74.0134 74.9239 73.9603 74.9512 73.8954C74.9805 73.8285 74.995 73.7577 74.9948 73.6831L74.9941 73.4562C74.9939 73.3796 74.979 73.308 74.9493 73.2413C74.9216 73.1746 74.8782 73.1207 74.8192 73.0796C74.7621 73.0385 74.6894 73.0181 74.601 73.0184C74.5146 73.0186 74.442 73.0395 74.3832 73.0809C74.3263 73.1223 74.2833 73.1764 74.254 73.2433C74.2267 73.3102 74.2131 73.3819 74.2134 73.4585ZM75.7531 76.0939L75.7524 75.867C75.7519 75.706 75.7869 75.5586 75.8572 75.4248C75.9295 75.291 76.0342 75.1837 76.1715 75.1027C76.3088 75.0218 76.4746 74.9811 76.6691 74.9805C76.8714 74.9799 77.0404 75.0197 77.1762 75.0998C77.3119 75.18 77.4144 75.2867 77.4835 75.4201C77.5546 75.5534 77.5904 75.7006 77.5909 75.8617L77.5915 76.0886C77.592 76.2496 77.557 76.397 77.4867 76.5308C77.4184 76.6646 77.3165 76.7719 77.1812 76.8528C77.0479 76.9338 76.8821 76.9745 76.6837 76.9751C76.4853 76.9757 76.3163 76.9359 76.1766 76.8557C76.0389 76.7756 75.9335 76.6689 75.8604 76.5355C75.7893 76.4022 75.7535 76.255 75.7531 76.0939ZM76.2827 75.8655L76.2834 76.0924C76.2836 76.169 76.2995 76.2406 76.3311 76.3073C76.3628 76.372 76.4081 76.4249 76.4671 76.466C76.5281 76.5071 76.5989 76.5275 76.6794 76.5273C76.7776 76.527 76.8552 76.5061 76.912 76.4647C76.9689 76.4233 77.009 76.3702 77.0323 76.3053C77.0557 76.2384 77.0673 76.1667 77.0671 76.0901L77.0664 75.8632C77.0662 75.7866 77.0513 75.716 77.0216 75.6512C76.992 75.5845 76.9476 75.5306 76.8886 75.4896C76.8315 75.4485 76.7588 75.4281 76.6704 75.4283C76.5839 75.4286 76.5113 75.4494 76.4525 75.4908C76.3957 75.5322 76.3526 75.5864 76.3234 75.6533C76.296 75.7181 76.2825 75.7889 76.2827 75.8655ZM76.8585 73.2387L74.7734 76.5976L74.3868 76.3836L76.4719 73.0248L76.8585 73.2387Z" fill="white"/>
<path d="M66.8762 171.486L68.6293 171.481L71.5842 179.545L74.4849 171.464L76.2453 171.459L72.2916 182.195L70.8847 182.199L66.8762 171.486ZM65.9924 171.489L67.7086 171.484L68.0394 178.9L68.049 182.207L66.0234 182.213L65.9924 171.489ZM75.4056 171.461L77.1292 171.456L77.1602 182.181L75.1347 182.187L75.1251 178.879L75.4056 171.461ZM78.7178 178.272L78.7173 178.118C78.7156 177.533 78.7976 176.996 78.9631 176.504C79.1286 176.008 79.3704 175.577 79.6886 175.213C80.0067 174.849 80.3962 174.565 80.8572 174.362C81.3182 174.155 81.8433 174.05 82.4326 174.049C83.0316 174.047 83.5623 174.148 84.0244 174.353C84.4915 174.553 84.8852 174.834 85.2054 175.197C85.5256 175.559 85.7699 175.988 85.9383 176.484C86.1067 176.974 86.1917 177.512 86.1934 178.096L86.1939 178.251C86.1955 178.83 86.1136 179.368 85.9481 179.865C85.7826 180.356 85.5408 180.786 85.2226 181.156C84.9045 181.52 84.515 181.803 84.054 182.006C83.593 182.209 83.0654 182.311 82.4712 182.313C81.882 182.314 81.3538 182.215 80.8868 182.015C80.4197 181.815 80.026 181.534 79.7058 181.172C79.3856 180.804 79.1413 180.375 78.9729 179.885C78.8045 179.389 78.7195 178.852 78.7178 178.272ZM80.6619 178.112L80.6623 178.267C80.6633 178.615 80.6986 178.942 80.7683 179.246C80.8379 179.55 80.9442 179.818 81.0873 180.048C81.2304 180.278 81.415 180.46 81.6413 180.592C81.8725 180.719 82.1476 180.782 82.4668 180.781C82.7811 180.78 83.051 180.715 83.2765 180.587C83.502 180.454 83.6856 180.271 83.8273 180.04C83.9739 179.809 84.0812 179.541 84.1491 179.236C84.2169 178.932 84.2504 178.605 84.2493 178.256L84.2489 178.102C84.2479 177.758 84.2126 177.436 84.143 177.137C84.0734 176.833 83.9646 176.566 83.8166 176.335C83.6735 176.1 83.4864 175.916 83.2552 175.784C83.0289 175.648 82.7562 175.58 82.437 175.581C82.1227 175.581 81.8529 175.651 81.6274 175.789C81.4019 175.922 81.2183 176.107 81.0766 176.343C80.9348 176.574 80.83 176.842 80.7622 177.147C80.6943 177.447 80.6609 177.768 80.6619 178.112ZM89.5089 175.877L89.5271 182.145L87.5825 182.151L87.5594 174.181L89.3861 174.176L89.5089 175.877ZM89.2053 177.874L88.6308 177.875C88.634 177.296 88.7111 176.77 88.8619 176.299C89.0128 175.827 89.2252 175.421 89.4992 175.081C89.7781 174.742 90.1088 174.481 90.4913 174.298C90.8738 174.115 91.3007 174.023 91.7721 174.021C92.1552 174.02 92.5015 174.073 92.8112 174.181C93.1208 174.288 93.3865 174.459 93.6081 174.694C93.8347 174.929 94.0075 175.238 94.1264 175.62C94.2503 175.998 94.313 176.464 94.3146 177.019L94.3294 182.131L92.3702 182.137L92.3553 177.01C92.3543 176.647 92.2994 176.36 92.1908 176.149C92.087 175.938 91.9344 175.789 91.7328 175.701C91.5361 175.613 91.2929 175.57 91.0032 175.57C90.7037 175.571 90.4412 175.633 90.2156 175.757C89.995 175.875 89.8089 176.04 89.6573 176.252C89.5106 176.464 89.3984 176.707 89.3206 176.982C89.2428 177.257 89.2044 177.555 89.2053 177.874ZM99.7937 174.146L99.7977 175.545L95.2311 175.558L95.227 174.159L99.7937 174.146ZM96.444 172.196L98.3959 172.19L98.418 179.821C98.4187 180.057 98.4512 180.238 98.5154 180.366C98.5796 180.493 98.6756 180.579 98.8034 180.623C98.9312 180.667 99.0834 180.688 99.2602 180.688C99.3879 180.687 99.5057 180.68 99.6137 180.665C99.7217 180.65 99.8125 180.635 99.8861 180.62L99.8977 182.078C99.7358 182.133 99.5518 182.177 99.3457 182.212C99.1444 182.247 98.9162 182.265 98.6608 182.266C98.2238 182.267 97.8406 182.195 97.5111 182.048C97.1817 181.897 96.9257 181.655 96.743 181.321C96.5603 180.983 96.4682 180.536 96.4666 179.981L96.444 172.196ZM102.988 170.792L103.021 182.106L101.069 182.111L101.036 170.798L102.988 170.792ZM102.699 177.835L102.125 177.836C102.123 177.281 102.195 176.771 102.341 176.304C102.487 175.837 102.695 175.431 102.964 175.087C103.233 174.737 103.554 174.466 103.926 174.274C104.304 174.081 104.721 173.984 105.178 173.983C105.57 173.982 105.927 174.037 106.246 174.149C106.57 174.256 106.848 174.43 107.08 174.67C107.311 174.909 107.489 175.223 107.613 175.611C107.742 175.993 107.807 176.46 107.808 177.01L107.823 182.092L105.864 182.098L105.849 177.001C105.848 176.632 105.793 176.343 105.685 176.132C105.576 175.916 105.421 175.762 105.219 175.669C105.023 175.577 104.779 175.531 104.49 175.531C104.175 175.532 103.905 175.594 103.68 175.718C103.454 175.836 103.268 176.001 103.122 176.213C102.98 176.425 102.872 176.668 102.8 176.943C102.732 177.218 102.698 177.516 102.699 177.835ZM111.569 170.767L111.602 182.081L109.65 182.087L109.617 170.773L111.569 170.767ZM115.79 181.185L117.906 174.093L119.99 174.087L116.82 183.274C116.747 183.47 116.652 183.684 116.535 183.915C116.422 184.147 116.271 184.366 116.08 184.572C115.889 184.784 115.649 184.957 115.36 185.09C115.075 185.223 114.729 185.291 114.322 185.292C114.145 185.292 113.988 185.281 113.85 185.256C113.713 185.232 113.568 185.201 113.415 185.162L113.411 183.704C113.46 183.708 113.517 183.711 113.58 183.71C113.649 183.715 113.708 183.717 113.757 183.717C114.042 183.716 114.278 183.681 114.464 183.612C114.65 183.548 114.8 183.442 114.912 183.294C115.03 183.151 115.128 182.964 115.205 182.733L115.79 181.185ZM114.716 174.102L116.538 179.967L116.861 182.022L115.521 182.269L112.617 174.108L114.716 174.102ZM128.625 179.932L131.274 171.3L133.52 171.293L129.765 182.028L128.27 182.033L128.625 179.932ZM126.132 171.315L128.816 179.932L129.205 182.03L127.696 182.034L123.893 171.321L126.132 171.315ZM136.783 171.284L136.814 182.008L134.789 182.014L134.758 171.29L136.783 171.284ZM142.435 182.139C141.831 182.141 141.288 182.044 140.806 181.849C140.324 181.654 139.913 181.383 139.573 181.035C139.239 180.682 138.98 180.273 138.797 179.807C138.618 179.336 138.529 178.831 138.527 178.291L138.526 177.996C138.524 177.382 138.611 176.825 138.786 176.323C138.962 175.817 139.211 175.382 139.534 175.017C139.857 174.653 140.244 174.372 140.695 174.174C141.146 173.977 141.645 173.877 142.19 173.875C142.754 173.874 143.253 173.968 143.686 174.158C144.118 174.344 144.48 174.608 144.771 174.951C145.061 175.294 145.281 175.705 145.43 176.186C145.579 176.662 145.654 177.19 145.655 177.769L145.658 178.587L139.412 178.605L139.408 177.264L143.739 177.252L143.738 177.104C143.728 176.795 143.668 176.513 143.559 176.258C143.45 175.998 143.283 175.792 143.057 175.641C142.83 175.484 142.538 175.406 142.179 175.408C141.89 175.408 141.637 175.473 141.421 175.601C141.21 175.725 141.034 175.902 140.892 176.133C140.756 176.359 140.653 176.63 140.585 176.944C140.518 177.259 140.484 177.607 140.485 177.99L140.486 178.285C140.487 178.619 140.532 178.928 140.621 179.213C140.716 179.497 140.851 179.745 141.029 179.955C141.211 180.161 141.428 180.323 141.678 180.44C141.934 180.552 142.224 180.608 142.548 180.607C142.955 180.605 143.324 180.526 143.652 180.368C143.986 180.205 144.275 179.966 144.519 179.651L145.502 180.664C145.335 180.91 145.11 181.147 144.826 181.373C144.547 181.6 144.209 181.785 143.811 181.929C143.414 182.067 142.955 182.137 142.435 182.139ZM149.183 180.057L150.911 173.997L152.148 173.994L151.786 176.087L150.043 181.97L148.975 181.973L149.183 180.057ZM148.2 174.005L149.529 180.071L149.652 181.971L148.422 181.974L146.307 174.011L148.2 174.005ZM153.786 179.97L155.05 173.985L156.936 173.98L154.882 181.956L153.652 181.959L153.786 179.97ZM152.34 173.993L154.088 179.984L154.322 181.957L153.254 181.96L151.462 176.088L151.095 173.997L152.34 173.993Z" fill="#0A1048" fill-opacity="0.9"/>
<path d="M83.1689 199.346L83.1559 194.864L84.3712 194.861L84.3842 199.342C84.3854 199.769 84.2937 200.136 84.109 200.443C83.9242 200.747 83.6715 200.981 83.3509 201.144C83.0302 201.307 82.668 201.389 82.2644 201.39C81.849 201.391 81.4805 201.323 81.159 201.186C80.8374 201.045 80.5849 200.831 80.4014 200.542C80.2208 200.254 80.1299 199.888 80.1286 199.443L81.3484 199.439C81.3491 199.681 81.3864 199.875 81.4605 200.022C81.5346 200.169 81.6395 200.275 81.7752 200.34C81.9139 200.404 82.076 200.436 82.2616 200.435C82.4414 200.435 82.5989 200.393 82.7341 200.31C82.8724 200.224 82.9796 200.1 83.0557 199.938C83.1318 199.776 83.1695 199.578 83.1689 199.346ZM88.3507 200.148L88.3402 196.502L89.5157 196.499L89.5296 201.281L88.4247 201.284L88.3507 200.148ZM88.4981 199.158L88.8605 199.148C88.8614 199.469 88.8269 199.765 88.757 200.037C88.6871 200.308 88.5773 200.544 88.4276 200.745C88.2808 200.942 88.0942 201.098 87.8677 201.21C87.6411 201.32 87.3732 201.375 87.0638 201.376C86.8281 201.377 86.613 201.345 86.4183 201.281C86.2237 201.214 86.0554 201.109 85.9136 200.968C85.7747 200.824 85.6666 200.641 85.5894 200.417C85.5121 200.19 85.473 199.918 85.4721 199.6L85.4632 196.511L86.6299 196.507L86.6388 199.605C86.6393 199.764 86.6574 199.897 86.693 200.003C86.7316 200.109 86.7835 200.195 86.8485 200.263C86.9164 200.328 86.9946 200.375 87.0831 200.404C87.1745 200.43 87.2718 200.443 87.3749 200.443C87.6577 200.442 87.88 200.385 88.0417 200.273C88.2064 200.157 88.3238 200.004 88.3939 199.812C88.4641 199.618 88.4988 199.399 88.4981 199.158ZM91.6974 197.513L91.7083 201.274L90.5416 201.278L90.5277 196.496L91.6237 196.493L91.6974 197.513ZM91.5153 198.712L91.1706 198.713C91.1725 198.365 91.2187 198.05 91.3092 197.766C91.3998 197.483 91.5272 197.24 91.6916 197.036C91.859 196.832 92.0574 196.676 92.2869 196.566C92.5164 196.456 92.7725 196.401 93.0554 196.4C93.2852 196.4 93.493 196.431 93.6788 196.496C93.8646 196.56 94.024 196.663 94.157 196.804C94.2929 196.945 94.3966 197.13 94.4679 197.36C94.5422 197.586 94.5799 197.866 94.5808 198.199L94.5897 201.266L93.4142 201.269L93.4053 198.193C93.4046 197.975 93.3717 197.803 93.3065 197.677C93.2443 197.55 93.1527 197.461 93.0318 197.408C92.9138 197.355 92.7678 197.329 92.594 197.33C92.4143 197.33 92.2568 197.367 92.1215 197.441C91.9891 197.513 91.8774 197.612 91.7865 197.739C91.6984 197.865 91.6311 198.012 91.5844 198.177C91.5378 198.342 91.5147 198.52 91.5153 198.712ZM102.166 200.325L102.169 201.244L97.8114 201.257L97.8092 200.47L99.893 198.206C100.11 197.957 100.282 197.742 100.408 197.559C100.534 197.376 100.624 197.211 100.676 197.063C100.732 196.913 100.759 196.77 100.759 196.634C100.758 196.437 100.723 196.265 100.651 196.117C100.58 195.967 100.477 195.851 100.341 195.769C100.208 195.687 100.045 195.646 99.8502 195.647C99.6351 195.648 99.4511 195.698 99.2982 195.799C99.1482 195.896 99.0337 196.032 98.9547 196.206C98.8786 196.38 98.8409 196.579 98.8415 196.803L97.6704 196.807C97.6693 196.427 97.7567 196.08 97.9325 195.767C98.1084 195.452 98.361 195.199 98.6905 195.009C99.0199 194.82 99.4115 194.725 99.8652 194.723C100.307 194.722 100.682 194.795 100.988 194.941C101.295 195.084 101.529 195.29 101.688 195.558C101.848 195.825 101.929 196.145 101.93 196.516C101.93 196.722 101.897 196.926 101.83 197.126C101.763 197.327 101.668 197.526 101.544 197.724C101.424 197.918 101.28 198.116 101.113 198.317C100.946 198.518 100.759 198.723 100.554 198.933L99.3025 200.333L102.166 200.325ZM107.613 198.011L107.616 198.935L105.198 198.942L105.196 198.018L107.613 198.011ZM110.919 196.437L112.094 196.433L112.109 201.569C112.11 201.908 112.049 202.195 111.926 202.431C111.806 202.667 111.631 202.846 111.402 202.967C111.172 203.089 110.891 203.15 110.558 203.151C110.455 203.151 110.352 203.146 110.249 203.134C110.145 203.123 110.044 203.104 109.944 203.078L109.945 202.176C110.01 202.188 110.077 202.196 110.144 202.202C110.212 202.211 110.28 202.215 110.348 202.215C110.474 202.214 110.58 202.192 110.666 202.147C110.754 202.103 110.82 202.034 110.864 201.939C110.911 201.845 110.934 201.722 110.934 201.572L110.919 196.437ZM110.818 195.186C110.817 195.013 110.876 194.868 110.993 194.753C111.114 194.638 111.276 194.58 111.479 194.579C111.682 194.578 111.843 194.635 111.961 194.75C112.082 194.865 112.143 195.009 112.144 195.183C112.144 195.354 112.084 195.497 111.964 195.612C111.846 195.727 111.686 195.785 111.482 195.786C111.279 195.786 111.117 195.729 110.996 195.615C110.878 195.5 110.818 195.357 110.818 195.186ZM116.034 200.068L116.023 196.422L117.199 196.419L117.212 201.2L116.108 201.204L116.034 200.068ZM116.181 199.078L116.543 199.068C116.544 199.389 116.51 199.685 116.44 199.956C116.37 200.228 116.26 200.464 116.11 200.664C115.964 200.862 115.777 201.017 115.551 201.13C115.324 201.24 115.056 201.295 114.747 201.296C114.511 201.297 114.296 201.265 114.101 201.201C113.907 201.133 113.738 201.029 113.596 200.888C113.458 200.744 113.349 200.56 113.272 200.337C113.195 200.11 113.156 199.838 113.155 199.52L113.146 196.43L114.313 196.427L114.322 199.525C114.322 199.684 114.34 199.817 114.376 199.923C114.414 200.029 114.466 200.115 114.531 200.183C114.599 200.247 114.677 200.294 114.766 200.324C114.857 200.35 114.955 200.363 115.058 200.363C115.341 200.362 115.563 200.305 115.725 200.193C115.889 200.077 116.007 199.924 116.077 199.732C116.147 199.537 116.182 199.319 116.181 199.078ZM119.38 197.433L119.391 201.194L118.224 201.197L118.211 196.416L119.307 196.413L119.38 197.433ZM119.198 198.631L118.853 198.632C118.855 198.285 118.902 197.969 118.992 197.686C119.083 197.403 119.21 197.16 119.374 196.956C119.542 196.752 119.74 196.595 119.97 196.486C120.199 196.376 120.455 196.321 120.738 196.32C120.968 196.319 121.176 196.351 121.362 196.415C121.547 196.48 121.707 196.582 121.84 196.723C121.976 196.864 122.079 197.05 122.151 197.279C122.225 197.506 122.263 197.786 122.264 198.119L122.273 201.186L121.097 201.189L121.088 198.113C121.087 197.895 121.055 197.723 120.989 197.596C120.927 197.47 120.836 197.38 120.715 197.328C120.597 197.275 120.451 197.249 120.277 197.249C120.097 197.25 119.94 197.287 119.804 197.361C119.672 197.432 119.56 197.531 119.469 197.658C119.381 197.785 119.314 197.931 119.267 198.096C119.221 198.262 119.198 198.44 119.198 198.631ZM129.849 200.245L129.852 201.164L125.494 201.176L125.492 200.39L127.576 198.125C127.793 197.877 127.965 197.662 128.091 197.479C128.217 197.296 128.307 197.13 128.359 196.983C128.415 196.833 128.442 196.69 128.442 196.554C128.441 196.357 128.405 196.184 128.334 196.037C128.263 195.887 128.16 195.771 128.024 195.689C127.891 195.607 127.727 195.566 127.533 195.567C127.318 195.567 127.134 195.618 126.981 195.719C126.831 195.816 126.717 195.952 126.638 196.126C126.561 196.3 126.524 196.499 126.524 196.723L125.353 196.726C125.352 196.346 125.44 196 125.615 195.687C125.791 195.371 126.044 195.119 126.373 194.929C126.703 194.74 127.094 194.644 127.548 194.643C127.99 194.642 128.364 194.714 128.671 194.861C128.978 195.004 129.211 195.21 129.371 195.477C129.531 195.745 129.612 196.065 129.613 196.436C129.613 196.642 129.58 196.845 129.513 197.046C129.446 197.246 129.35 197.446 129.227 197.643C129.107 197.838 128.963 198.036 128.796 198.237C128.629 198.438 128.442 198.643 128.236 198.853L126.985 200.253L129.849 200.245ZM134.929 199.39C134.93 199.791 134.837 200.13 134.649 200.407C134.464 200.682 134.21 200.89 133.886 201.033C133.566 201.172 133.2 201.242 132.791 201.244C132.384 201.245 132.017 201.177 131.69 201.039C131.365 200.899 131.107 200.692 130.915 200.418C130.725 200.142 130.63 199.803 130.629 199.403C130.628 199.135 130.68 198.891 130.786 198.673C130.894 198.455 131.044 198.267 131.235 198.11C131.426 197.951 131.653 197.829 131.915 197.746C132.177 197.66 132.462 197.616 132.772 197.615C133.184 197.614 133.553 197.688 133.877 197.838C134.204 197.984 134.461 198.191 134.648 198.458C134.834 198.723 134.928 199.034 134.929 199.39ZM133.753 199.323C133.753 199.117 133.711 198.938 133.628 198.788C133.548 198.636 133.434 198.518 133.287 198.436C133.139 198.354 132.968 198.313 132.774 198.314C132.576 198.314 132.404 198.356 132.257 198.439C132.113 198.522 132 198.64 131.918 198.793C131.838 198.944 131.799 199.122 131.8 199.329C131.8 199.538 131.841 199.717 131.921 199.867C132.004 200.014 132.119 200.128 132.266 200.207C132.414 200.286 132.588 200.325 132.788 200.324C132.989 200.324 133.161 200.284 133.305 200.204C133.449 200.124 133.559 200.01 133.635 199.862C133.715 199.712 133.754 199.532 133.753 199.323ZM134.779 196.412C134.78 196.736 134.695 197.025 134.525 197.279C134.355 197.53 134.118 197.726 133.815 197.869C133.515 198.011 133.171 198.083 132.782 198.084C132.393 198.085 132.045 198.015 131.738 197.875C131.434 197.734 131.195 197.539 131.021 197.289C130.849 197.036 130.763 196.748 130.762 196.424C130.761 196.041 130.847 195.716 131.02 195.451C131.193 195.182 131.429 194.978 131.729 194.839C132.032 194.699 132.377 194.629 132.763 194.628C133.155 194.627 133.503 194.695 133.806 194.833C134.11 194.97 134.348 195.173 134.52 195.44C134.691 195.705 134.778 196.029 134.779 196.412ZM133.612 196.464C133.612 196.281 133.577 196.122 133.509 195.987C133.441 195.849 133.344 195.741 133.217 195.665C133.093 195.589 132.942 195.551 132.766 195.552C132.595 195.552 132.447 195.589 132.324 195.663C132.2 195.737 132.105 195.844 132.038 195.982C131.97 196.118 131.937 196.28 131.937 196.469C131.938 196.654 131.972 196.816 132.04 196.955C132.109 197.093 132.205 197.202 132.329 197.281C132.456 197.357 132.606 197.395 132.78 197.394C132.954 197.394 133.102 197.355 133.226 197.278C133.349 197.198 133.445 197.089 133.512 196.95C133.579 196.812 133.613 196.65 133.612 196.464Z" fill="#BFC3C8"/>
<defs>
<filter id="filter0_d_848_369" x="0.407347" y="0.440776" width="205.729" height="250.853" filterUnits="userSpaceOnUse" color-interpolation-filters="sRGB">
<feFlood flood-opacity="0" result="BackgroundImageFix"/>
<feColorMatrix in="SourceAlpha" type="matrix" values="0 0 0 0 0 0 0 0 0 0 0 0 0 0 0 0 0 0 127 0" result="hardAlpha"/>
<feOffset dy="6.03392"/>
<feGaussianBlur stdDeviation="9.80512"/>
<feComposite in2="hardAlpha" operator="out"/>
<feColorMatrix type="matrix" values="0 0 0 0 0.0392157 0 0 0 0 0.0627451 0 0 0 0 0.282353 0 0 0 0.23 0"/>
<feBlend mode="normal" in2="BackgroundImageFix" result="effect1_dropShadow_848_369"/>
<feBlend mode="normal" in="SourceGraphic" in2="effect1_dropShadow_848_369" result="shape"/>
</filter>
</defs>
</svg>
